<?xml version="1.0" encoding="utf-8" ?>
<svg xmlns="http://www.w3.org/2000/svg" xmlns:xlink="http://www.w3.org/1999/xlink" width="512" height="512">
	<path fill="#2A2F5E" d="M136.463 466.392C137.714 465.745 138.855 465.116 140.286 465.631C140.943 465.867 141.58 466.219 142.195 466.547C142.12 466.556 142.045 466.566 141.969 466.573C141.844 466.586 141.718 466.594 141.593 466.607C139.857 466.78 138.191 466.569 136.463 466.392Z"/>
	<path fill="#2A2F5E" d="M158.491 466.482C159.882 465.817 161.244 465.065 162.823 465.611C163.639 465.892 164.338 466.362 165.011 466.888C163.057 467.372 160.481 466.739 158.491 466.482Z"/>
	<path fill="#2A2F5E" d="M218.454 465.229C219.846 465.569 220.838 466.018 221.966 466.919C220.117 467.669 216.46 467.328 214.5 466.963C215.829 466.247 217.002 465.667 218.454 465.229Z"/>
	<path fill="#2A2F5E" d="M192.389 465.181C194.08 465.715 194.999 466.153 196.187 467.468C193.763 467.859 190.232 467.77 187.843 467.238C189.329 466.34 190.696 465.632 192.389 465.181Z"/>
	<path fill="#2A2F5E" d="M411.317 465.105C412.884 465.613 414.25 466.102 415.057 467.639C415.411 468.314 415.602 468.967 415.755 469.709C412.295 469.359 408.66 469.281 405.344 468.155C407.249 466.725 409.063 465.864 411.317 465.105Z"/>
	<path fill="#F10D5A" d="M252.534 243.853C258.162 243.325 267.324 243.275 271.993 246.739C284.608 256.096 281.648 288.314 280.665 302.265C280.004 311.629 279.008 320.978 278.481 330.349C278.013 338.642 278.01 346.635 279.117 354.877C283.3 354.687 288.248 354.77 292.191 356.337C293.806 356.979 295.276 357.984 295.955 359.641C296.528 361.037 296.303 362.62 295.691 363.962C294.315 366.985 289.387 371.058 287.124 373.785C278.421 384.272 271.747 397.873 258.318 403.036C256.536 403.547 254.444 404.224 252.583 404.176C249.217 404.088 241.085 395.597 238.554 392.982C234.434 388.725 215.412 367.059 215.623 362.978C215.718 361.132 216.569 359.552 217.978 358.374C221.684 355.276 228.161 354.689 232.788 354.991C236.248 333.273 231.144 310.186 230.41 288.25C230.141 280.225 230.221 272.207 231.855 264.309C232.836 259.57 234.931 255.122 236.515 250.562C242.219 246.625 245.403 244.283 252.534 243.853ZM252.881 250.714C250.411 250.312 247.507 250.744 244.998 250.903C243.707 261.176 244.128 271.593 244.685 281.905C244.945 286.699 245.134 291.534 245.568 296.314C246.908 295.161 248.403 294.257 249.894 293.317C248.691 294.933 247.363 296.587 245.693 297.742C245.709 299.974 245.764 310.853 246.629 312.003L247.697 311.361L247.96 311.498C247.549 312.211 246.948 312.625 246.406 313.223C246.592 326.491 247.323 340.237 243.891 353.188Q255.084 346.951 266.139 340.472C265.665 329.158 265.567 317.65 266.564 306.359C265.891 306.784 265.243 307.298 264.437 307.403C264.714 306.493 265.819 305.666 266.494 304.987C266.931 300.049 267.11 295.092 267.352 290.142C266.703 290.51 263.382 292.656 262.965 292.55L262.751 292.67C263.848 291.167 266.665 289.259 267.232 287.614C268.557 283.777 267.536 260.913 266.746 256.22C266.486 254.677 265.857 253.455 264.527 252.589C264.283 252.431 264.298 252.453 263.994 252.313C261.233 250.535 256.022 250.104 252.881 250.714ZM225.752 361.746C231.99 366.22 236.884 371.678 241.929 377.387C244.478 375.857 247.253 373.588 250.079 372.669C247.951 374.772 245.349 376.966 243.673 379.432L250.427 387.532C253.054 386.016 255.566 384.333 258.227 382.865C256.305 385.095 253.747 386.819 251.626 388.873C253.39 391.103 255.204 393.308 256.85 395.626C258.699 393.022 260.803 390.632 262.999 388.317C267.493 383.581 281.349 371.241 282.215 365.166C282.345 364.255 282.23 363.276 281.555 362.588C280.601 361.615 279.071 361.534 277.8 361.596C275.879 361.182 273.38 361.538 271.516 362.099C271.407 362.013 271.295 361.93 271.187 361.841C268.509 359.634 266.768 346.455 266.349 342.373Q259.258 346.33 252.231 350.4C249.366 352.037 245.85 353.677 243.34 355.825C241.933 357.03 241.078 358.831 239.74 360.115C236.862 362.875 229.615 361.816 225.752 361.746Z"/>
	<path fill="#FE0039" d="M225.752 361.746C229.615 361.816 236.862 362.875 239.74 360.115C241.078 358.831 241.933 357.03 243.34 355.825C245.85 353.677 249.366 352.037 252.231 350.4Q259.258 346.33 266.349 342.373C266.768 346.455 268.509 359.634 271.187 361.841C271.295 361.93 271.407 362.013 271.516 362.099C273.38 361.538 275.879 361.182 277.8 361.596C279.071 361.534 280.601 361.615 281.555 362.588C282.23 363.276 282.345 364.255 282.215 365.166C281.349 371.241 267.493 383.581 262.999 388.317C260.803 390.632 258.699 393.022 256.85 395.626C255.204 393.308 253.39 391.103 251.626 388.873C253.747 386.819 256.305 385.095 258.227 382.865C255.566 384.333 253.054 386.016 250.427 387.532L243.673 379.432C245.349 376.966 247.951 374.772 250.079 372.669C247.253 373.588 244.478 375.857 241.929 377.387C236.884 371.678 231.99 366.22 225.752 361.746ZM271.516 362.099C270 364.821 266.835 366.979 264.738 369.313Q271.157 365.265 277.8 361.596C275.879 361.182 273.38 361.538 271.516 362.099Z"/>
	<path fill="#FE0039" d="M252.881 250.714C256.022 250.104 261.233 250.535 263.994 252.313C264.298 252.453 264.283 252.431 264.527 252.589C265.857 253.455 266.486 254.677 266.746 256.22C267.536 260.913 268.557 283.777 267.232 287.614C266.665 289.259 263.848 291.167 262.751 292.67L262.965 292.55C263.382 292.656 266.703 290.51 267.352 290.142C267.11 295.092 266.931 300.049 266.494 304.987C265.819 305.666 264.714 306.493 264.437 307.403C265.243 307.298 265.891 306.784 266.564 306.359C265.567 317.65 265.665 329.158 266.139 340.472Q255.084 346.951 243.891 353.188C247.323 340.237 246.592 326.491 246.406 313.223C246.948 312.625 247.549 312.211 247.96 311.498L247.697 311.361L246.629 312.003C245.764 310.853 245.709 299.974 245.693 297.742C247.363 296.587 248.691 294.933 249.894 293.317C248.403 294.257 246.908 295.161 245.568 296.314C245.134 291.534 244.945 286.699 244.685 281.905C244.128 271.593 243.707 261.176 244.998 250.903C247.507 250.744 250.411 250.312 252.881 250.714ZM252.881 250.714C251.636 254.476 249.88 258.103 248.11 261.641C253.028 258.14 258.579 254.965 263.994 252.313C261.233 250.535 256.022 250.104 252.881 250.714Z"/>
	<path fill="#F10D5A" d="M425.233 293.352C426.834 293.249 428.471 293.292 430.072 293.392C435.87 293.755 441.15 295.378 445.072 299.877C449.791 305.291 450.703 312.705 450.159 319.625C447.981 347.342 423.222 385.592 404.519 405.333C401.484 408.536 398.168 411.395 394.815 414.255L395.058 414.459C397.921 416.918 400.942 420.799 401.104 424.696C401.195 426.893 400.311 429.065 398.814 430.657C395.263 434.434 388.314 435.457 383.38 435.192C379.976 435.009 376.61 434.267 373.2 434.12C368.733 433.928 364.178 434.303 359.711 434.506C354.268 434.684 348.491 435.144 343.263 433.308C339.799 432.091 337.007 429.918 335.413 426.549C335.565 422.457 336.122 418.329 336.54 414.255C337.627 403.667 339.64 381.526 347.459 374.024C349.076 372.473 351.076 371.538 353.341 371.607C358.774 371.773 363.444 376.824 366.893 380.491C389.786 365.934 392.49 342.033 400.135 318.433C401.895 313.001 404.412 305.929 408.029 301.556C412.269 296.432 418.77 293.869 425.233 293.352ZM429.883 347.111L406.039 360.895C402.048 363.192 397.842 366.028 393.566 367.736C392.301 368.982 386.992 375.883 386.548 377.356C386.491 377.395 386.434 377.432 386.379 377.472C384.184 379.033 382.443 381.335 380.476 383.177C376.217 387.164 369.862 391.215 363.746 390.201C359.88 389.56 356.685 387.12 353.845 384.57C352.884 389.483 349.328 404.823 349.565 408.642C349.382 409.927 348.972 411.548 349.077 412.824C348.202 415.504 348.584 419.49 349.841 421.96C350.166 422.597 350.457 423.03 351.125 423.335C351.862 422.892 352.609 422.029 353.416 421.895L353.551 422.1C352.921 422.793 352.177 423.218 351.384 423.705C355.28 426.103 362.028 426.478 366.42 425.586C368.403 425.757 370.687 425.89 372.662 425.663C375.096 425.859 377.642 425.714 380.095 425.744C383.797 425.789 387.495 425.938 391.198 425.923C389.722 425.094 388.16 424.448 386.668 423.655C384.92 422.727 383.319 421.275 382.786 419.306C382.158 416.983 383.75 413.917 384.93 411.953C387.774 407.22 391.739 402.96 395.369 398.823Q401.42 392.017 407.203 384.982C408.978 382.792 410.897 380.57 412.364 378.159L412.54 377.868C409.752 379.313 407.134 381.091 404.291 382.423L404.198 382.294C406.584 380.073 409.532 378.186 412.192 376.289C413 375.713 413.932 375.242 414.673 374.587C418.412 371.281 425.216 359.012 426.955 354.047C428.078 351.819 429.282 349.546 429.883 347.111Z"/>
	<path fill="#FE0039" d="M393.566 367.736C393.675 365.802 396.11 362.564 397.129 360.782Q401.852 352.588 405.558 343.887C409.408 335.011 412.847 325.69 414.688 316.171C415.294 313.034 415.356 309.855 415.91 306.724C416.104 305.629 416.277 304.665 417.265 304.026C420.075 302.208 429.376 302.38 432.727 303.163C434.331 303.538 435.908 304.081 436.781 305.568C439.153 309.612 435.812 328.068 434.516 332.892C432.717 334.337 430.64 335.559 429.261 337.443Q431.69 335.995 434.152 334.603C433.061 338.748 432.062 343.408 429.883 347.111L406.039 360.895C402.048 363.192 397.842 366.028 393.566 367.736Z"/>
	<path fill="#FE0039" d="M429.883 347.111C429.282 349.546 428.078 351.819 426.955 354.047C425.216 359.012 418.412 371.281 414.673 374.587C413.932 375.242 413 375.713 412.192 376.289C409.532 378.186 406.584 380.073 404.198 382.294L404.291 382.423C407.134 381.091 409.752 379.313 412.54 377.868L412.364 378.159C410.897 380.57 408.978 382.792 407.203 384.982Q401.42 392.017 395.369 398.823C391.739 402.96 387.774 407.22 384.93 411.953C383.75 413.917 382.158 416.983 382.786 419.306C383.319 421.275 384.92 422.727 386.668 423.655C388.16 424.448 389.722 425.094 391.198 425.923C387.495 425.938 383.797 425.789 380.095 425.744C377.642 425.714 375.096 425.859 372.662 425.663C370.687 425.89 368.403 425.757 366.42 425.586C362.028 426.478 355.28 426.103 351.384 423.705C352.177 423.218 352.921 422.793 353.551 422.1L353.416 421.895C352.609 422.029 351.862 422.892 351.125 423.335C350.457 423.03 350.166 422.597 349.841 421.96C348.584 419.49 348.202 415.504 349.077 412.824C348.972 411.548 349.382 409.927 349.565 408.642C349.328 404.823 352.884 389.483 353.845 384.57C356.685 387.12 359.88 389.56 363.746 390.201C369.862 391.215 376.217 387.164 380.476 383.177C382.443 381.335 384.184 379.033 386.379 377.472C386.434 377.432 386.491 377.395 386.548 377.356C386.992 375.883 392.301 368.982 393.566 367.736C397.842 366.028 402.048 363.192 406.039 360.895L429.883 347.111ZM429.883 347.111L406.039 360.895C402.048 363.192 397.842 366.028 393.566 367.736C392.301 368.982 386.992 375.883 386.548 377.356C393.322 372.75 400.835 368.87 407.936 364.764C414.145 361.173 420.436 357.008 426.955 354.047C428.078 351.819 429.282 349.546 429.883 347.111ZM370.808 396.407C363.482 399.963 356.896 405.015 349.565 408.642C349.382 409.927 348.972 411.548 349.077 412.824C355.93 406.831 363.99 402.354 370.808 396.407ZM366.42 425.586C368.403 425.757 370.687 425.89 372.662 425.663C374.424 422.62 377.773 420.084 380.202 417.531C375.47 419.721 371.002 423.033 366.42 425.586Z"/>
	<path fill="#F10D5A" d="M83.404 293.847C83.7273 293.809 84.0442 293.777 84.3692 293.758C90.1233 293.423 100.576 293.497 104.782 298.027C108.737 302.288 109.039 309.935 110.056 315.366Q110.992 320.546 112.362 325.628C118.389 347.543 129.521 365.561 146.612 380.5C147.328 379.389 148.073 378.349 148.978 377.382C152.056 374.091 155.948 372.164 160.49 372.07C163.075 372.016 165.617 372.744 167.464 374.625C168.609 375.791 169.407 377.289 169.85 378.855C170.867 382.451 170.681 386.443 171.346 390.138C173.081 399.774 176.489 409.393 176.517 419.256C176.528 423.288 175.959 427.385 172.928 430.338C168.491 434.66 161.252 433.807 155.596 433.768C146.402 433.795 120.676 437.612 113.35 431.764C112.104 430.769 111.336 429.476 111.182 427.88C110.748 423.404 114.855 418.678 117.506 415.471Q116.419 414.667 115.351 413.838C93.0906 396.514 65.3842 351.312 61.9245 323.044C61.0905 316.231 61.3994 307.113 65.9742 301.527C70.3116 296.231 76.9114 294.549 83.404 293.847ZM81.6083 302.603C79.7903 302.833 78.3963 303.632 77.2297 305.061C74.0714 308.932 74.0644 315.444 74.7099 320.125C74.811 320.858 74.9591 321.584 75.113 322.307C75.2498 323.896 75.7304 325.52 76.1767 327.048C76.4386 329.906 78.5056 336.59 80.0922 338.83C80.1186 339.529 80.2605 340.102 80.6631 340.687C81.6459 343.229 83.6194 349.694 85.5012 351.317C87.6343 351.11 89.4406 348.269 91.3115 348.337C90.2773 350.51 88.1284 352.472 86.8876 354.657C88.5266 358.354 90.7661 361.737 92.4068 365.419C93.7839 364.595 95.1021 363.469 96.6435 363.003C95.4973 364.26 94.3034 365.487 93.3316 366.887C95.356 370.263 97.3257 373.695 99.5426 376.948C100.315 378.156 101.078 379.363 101.934 380.514C105.945 386.86 110.797 392.37 115.305 398.325Q117.424 400.578 119.575 402.801C119.626 402.859 119.676 402.919 119.728 402.976C121.424 404.889 123.516 406.567 125.603 408.032C127.05 409.047 128.835 409.956 129.982 411.301C130.634 412.065 131.028 412.913 130.984 413.933C130.84 417.202 124.086 423.016 122.065 426.098C127.716 426.194 133.902 426.384 139.493 425.589C141.499 425.664 152.458 425.862 153.721 425.183C155.649 425.917 162.067 425.252 164.341 425.17C161.966 411.402 160.074 397.616 157.225 383.926C153.547 387.511 150.465 389.709 145.326 390.666C142.159 390.159 140.697 389.976 137.563 388.778C130.467 384.053 126.856 379.791 121.542 373.383Q120.356 371.58 119.108 369.819C117.04 366.343 115.083 362.683 112.788 359.357C112.471 358.58 112.148 358.051 111.61 357.409C111.573 355.908 107.718 348.934 106.787 347.047C106.442 346.019 105.999 345.016 105.59 344.012C103.711 340.434 102.452 336.193 101.021 332.398C99.6614 333.249 98.3371 334.111 96.941 334.908C97.7965 333.863 98.81 332.927 99.6427 331.888C99.8166 331.671 100.223 331.076 100.287 330.827C100.574 329.698 99.2686 326.154 98.9707 324.882C98.4744 322.763 98.1784 320.692 98.0431 318.521C97.8945 316.968 97.5618 315.433 97.4283 313.864C97.0857 311.863 96.6349 309.938 95.7785 308.086C94.7112 305.778 93.1687 304.042 90.756 303.148C87.655 302.072 84.8194 302.287 81.6083 302.603Z"/>
	<path fill="#FE0039" d="M81.6083 302.603C84.8194 302.287 87.655 302.072 90.756 303.148C93.1687 304.042 94.7112 305.778 95.7785 308.086C96.6349 309.938 97.0857 311.863 97.4283 313.864C97.5618 315.433 97.8945 316.968 98.0431 318.521C98.1784 320.692 98.4744 322.763 98.9707 324.882C99.2686 326.154 100.574 329.698 100.287 330.827C100.223 331.076 99.8166 331.671 99.6427 331.888C98.81 332.927 97.7965 333.863 96.941 334.908C98.3371 334.111 99.6614 333.249 101.021 332.398C102.452 336.193 103.711 340.434 105.59 344.012C105.999 345.016 106.442 346.019 106.787 347.047C107.718 348.934 111.573 355.908 111.61 357.409C112.148 358.051 112.471 358.58 112.788 359.357C115.083 362.683 117.04 366.343 119.108 369.819Q120.356 371.58 121.542 373.383C126.856 379.791 130.467 384.053 137.563 388.778C140.697 389.976 142.159 390.159 145.326 390.666C150.465 389.709 153.547 387.511 157.225 383.926C160.074 397.616 161.966 411.402 164.341 425.17C162.067 425.252 155.649 425.917 153.721 425.183C152.458 425.862 141.499 425.664 139.493 425.589C133.902 426.384 127.716 426.194 122.065 426.098C124.086 423.016 130.84 417.202 130.984 413.933C131.028 412.913 130.634 412.065 129.982 411.301C128.835 409.956 127.05 409.047 125.603 408.032C123.516 406.567 121.424 404.889 119.728 402.976C119.676 402.919 119.626 402.859 119.575 402.801Q117.424 400.578 115.305 398.325C110.797 392.37 105.945 386.86 101.934 380.514C101.078 379.363 100.315 378.156 99.5426 376.948C97.3257 373.695 95.356 370.263 93.3316 366.887C94.3034 365.487 95.4973 364.26 96.6435 363.003C95.1021 363.469 93.7839 364.595 92.4068 365.419C90.7661 361.737 88.5266 358.354 86.8876 354.657C88.1284 352.472 90.2773 350.51 91.3115 348.337C89.4406 348.269 87.6343 351.11 85.5012 351.317C83.6194 349.694 81.6459 343.229 80.6631 340.687C80.2605 340.102 80.1186 339.529 80.0922 338.83C78.5056 336.59 76.4386 329.906 76.1767 327.048C75.7304 325.52 75.2498 323.896 75.113 322.307C74.9591 321.584 74.811 320.858 74.7099 320.125C74.0644 315.444 74.0714 308.932 77.2297 305.061C78.3963 303.632 79.7903 302.833 81.6083 302.603ZM139.493 425.589C141.499 425.664 152.458 425.862 153.721 425.183C155.24 421.619 156.562 417.732 158.587 414.431C152.463 418.436 145.872 421.997 139.493 425.589ZM137.563 388.778C135.709 392.23 133.664 395.501 131.617 398.838C135.661 395.645 140.684 392.901 145.326 390.666C142.159 390.159 140.697 389.976 137.563 388.778ZM81.6083 302.603C80.8128 305.289 79.5679 307.766 78.5321 310.358C82.3851 307.74 86.5412 305.138 90.756 303.148C87.655 302.072 84.8194 302.287 81.6083 302.603ZM115.305 398.325Q117.424 400.578 119.575 402.801C121.089 399.008 123.572 395.287 125.876 391.92C122.689 394.202 118.871 396.715 115.305 398.325ZM75.113 322.307C75.2498 323.896 75.7304 325.52 76.1767 327.048C78.789 323.536 81.5026 320.16 84.2582 316.762C81.1755 318.542 78.1566 320.459 75.113 322.307ZM97.4283 313.864C95.0099 317.05 92.4518 320.08 89.8883 323.147C92.3143 321.67 95.3347 319.308 98.0431 318.521C97.8945 316.968 97.5618 315.433 97.4283 313.864ZM119.108 369.819C117.441 372.779 115.472 375.528 113.603 378.36C116.142 376.477 118.769 374.892 121.542 373.383Q120.356 371.58 119.108 369.819ZM99.5426 376.948C100.315 378.156 101.078 379.363 101.934 380.514C103.509 377.679 105.394 374.97 107.321 372.365C104.68 373.811 102.218 375.541 99.5426 376.948ZM105.59 344.012C104.839 345.046 100.998 349.385 100.947 350.346L101.064 349.862L101.714 350.155C103.324 349.05 104.977 347.809 106.787 347.047C106.442 346.019 105.999 345.016 105.59 344.012ZM80.0922 338.83C80.1186 339.529 80.2605 340.102 80.6631 340.687C82.4082 339.131 83.9584 337.294 85.4517 335.5C83.6376 336.574 81.8513 337.668 80.0922 338.83ZM111.61 357.409C110.368 359.104 109.065 360.723 107.708 362.327L112.788 359.357C112.471 358.58 112.148 358.051 111.61 357.409Z"/>
	<path fill="#F10D5A" d="M250.626 465.392C251.714 465.729 252.82 466.094 253.955 466.223C257.429 466.617 261.084 466.296 264.577 466.179L283.641 465.455C291.6 465.209 299.604 465.139 307.568 465.005Q330.999 464.538 354.428 465.113C360.334 465.262 366.227 465.576 372.13 465.772C374.677 465.856 377.291 465.703 379.825 465.897C382.056 466.068 384.274 466.471 386.501 466.701C390.256 467.089 394.026 467.372 397.785 467.712C400.23 467.933 402.905 468.393 405.344 468.155C408.66 469.281 412.295 469.359 415.755 469.709C420.742 470.952 426.535 471.199 431.744 472.326Q432.296 473.607 432.694 474.944C434.802 482.049 434.37 491.085 430.724 497.63C426.363 505.459 420.738 506.036 412.671 506.426C410.703 506.521 408.75 506.939 406.777 506.895C405.095 506.857 403.403 506.493 401.721 506.363C396.394 505.951 390.146 505.886 384.978 507.365C379.85 505.737 365.063 506.174 359.234 506.462C357.054 506.57 354.872 506.968 352.692 506.979L321.215 506.894L166.94 506.445L114.314 506.284C112.505 506.282 110.683 506.252 108.879 506.401C107.072 506.551 105.213 506.969 103.405 506.926C101.654 506.884 99.8761 506.523 98.1244 506.392C93.697 506.063 88.6794 506.568 84.7233 504.157C82.058 502.533 80.5935 499.911 79.8841 496.943C78.3533 490.537 78.0862 479.826 81.7055 474.129C84.2647 470.101 90.4662 466.702 95.0644 465.836C96.6403 465.539 98.3402 465.671 99.9404 465.61C106.768 465.35 113.843 465.165 120.652 465.798C125.023 466.205 132.016 467.422 136.189 466.46C136.281 466.439 136.372 466.415 136.463 466.392C138.191 466.569 139.857 466.78 141.593 466.607C141.718 466.594 141.844 466.586 141.969 466.573C142.045 466.566 142.12 466.556 142.195 466.547C143.272 466.879 157.291 466.892 158.491 466.482C160.481 466.739 163.057 467.372 165.011 466.888C166.879 467.824 185.795 467.821 187.843 467.238C190.232 467.77 193.763 467.859 196.187 467.468C198.753 468.007 212.159 467.752 214.5 466.963C216.46 467.328 220.117 467.669 221.966 466.919C223.886 467.756 242.579 466.852 245.752 466.501C247.465 466.311 248.996 465.939 250.626 465.392ZM237.255 472.362C233.975 471.873 225.063 471.82 221.72 472.3C217.105 471.615 209.863 471.703 205.222 472.34C202.464 471.84 198.5 471.856 195.728 472.274C192.411 471.651 182.436 471.733 179.049 472.369C176.591 471.738 167.481 471.931 164.719 472.314C159.83 471.614 153.191 471.707 148.284 472.325C146.352 472.065 144.491 472.019 142.562 472.309C139.591 471.76 128.03 471.561 125.436 472.574C122.882 473.572 120.614 475.525 118.124 476.736L117.878 476.853C119.455 475.206 121.237 473.739 122.866 472.136C118.615 471.937 109.605 471.466 105.84 472.417C104.268 471.915 101.075 471.833 99.4713 472.24C96.9695 471.916 94.345 472.017 91.8211 471.973C91.3701 479.283 89.3825 492.337 94.4814 498.223C94.9805 498.799 95.5029 499.273 96.1903 499.615C97.5321 500.154 98.8364 500.706 100.302 500.461C103.825 500.993 113.456 501.178 116.819 500.442C118.632 501.029 128.972 500.882 130.883 500.525C134.132 501.197 143.985 500.887 147.474 500.524C150.254 500.935 154.335 500.998 157.074 500.516C160.982 501.043 169.874 501.092 173.778 500.425C175.818 501.021 187.094 500.885 189.263 500.48C192.917 501.231 201.797 500.889 205.788 500.578C209.097 500.852 219.738 501.041 222.608 500.5C225.075 501.156 238.852 501.059 241.13 499.716C242.509 498.904 245.144 496.42 246.686 496.616C245.751 498.033 244.017 498.703 243.083 500.161L243.224 500.541C246.189 501.064 256.752 501.107 259.47 500.385C261.404 501.174 270.416 500.82 272.568 500.451C275.347 501.08 286.602 501.061 289.218 500.386C290.932 501.051 294.412 500.818 296.24 500.455C299.482 501.241 309.067 500.854 312.725 500.57C314.317 500.637 316.068 500.777 317.648 500.57C321.293 500.98 330.775 501.157 334.302 500.424C336.243 501.218 346.894 500.656 349.663 500.615C352.828 500.983 363.661 501.097 366.505 500.402C367.964 501.011 379.798 500.912 381.626 500.49C384.293 501.068 395.887 501.058 398.477 500.385C399.92 500.991 402.411 500.765 403.953 500.523C409.11 500.95 414.416 500.739 419.592 500.746C421.022 493.778 422.298 484.851 420.17 477.934C419.808 476.279 418.598 474.236 417.352 473.112C416.511 472.352 415.819 472.042 414.691 472.094C410.672 471.872 401.399 471.492 397.822 472.404C394.983 471.7 385.523 471.927 382.409 472.276C378.689 471.82 368.949 471.486 365.536 472.566C362.79 473.435 356.423 478.496 354.514 478.499C354.789 477.613 359.907 473.35 360.927 472.325C355.648 471.848 349.448 471.519 344.222 472.358Q340.653 471.901 337.076 472.293C333.345 471.74 324.141 471.597 320.545 472.382C317.296 471.799 310.807 471.925 307.474 472.253C304.426 471.757 292.841 471.558 290.265 472.638C287.604 473.753 285.378 475.81 282.704 476.929C282.627 476.961 282.55 476.99 282.473 477.021L283.201 476.292C284.717 474.779 286.395 473.485 288.072 472.158C283.095 471.932 275.546 471.466 270.786 472.38C267.3 471.643 257.701 471.878 253.858 472.107C248.977 471.953 241.911 471.357 237.255 472.362Z"/>
	<path fill="#2A2F5E" d="M237.255 472.362C241.911 471.357 248.977 471.953 253.858 472.107C257.701 471.878 267.3 471.643 270.786 472.38C275.546 471.466 283.095 471.932 288.072 472.158C286.395 473.485 284.717 474.779 283.201 476.292L282.473 477.021C282.55 476.99 282.627 476.961 282.704 476.929C285.378 475.81 287.604 473.753 290.265 472.638C292.841 471.558 304.426 471.757 307.474 472.253C310.807 471.925 317.296 471.799 320.545 472.382C324.141 471.597 333.345 471.74 337.076 472.293Q340.653 471.901 344.222 472.358C349.448 471.519 355.648 471.848 360.927 472.325C359.907 473.35 354.789 477.613 354.514 478.499C356.423 478.496 362.79 473.435 365.536 472.566C368.949 471.486 378.689 471.82 382.409 472.276C385.523 471.927 394.983 471.7 397.822 472.404C401.399 471.492 410.672 471.872 414.691 472.094C415.819 472.042 416.511 472.352 417.352 473.112C418.598 474.236 419.808 476.279 420.17 477.934C422.298 484.851 421.022 493.778 419.592 500.746C414.416 500.739 409.11 500.95 403.953 500.523C402.411 500.765 399.92 500.991 398.477 500.385C395.887 501.058 384.293 501.068 381.626 500.49C379.798 500.912 367.964 501.011 366.505 500.402C363.661 501.097 352.828 500.983 349.663 500.615C346.894 500.656 336.243 501.218 334.302 500.424C330.775 501.157 321.293 500.98 317.648 500.57C316.068 500.777 314.317 500.637 312.725 500.57C309.067 500.854 299.482 501.241 296.24 500.455C294.412 500.818 290.932 501.051 289.218 500.386C286.602 501.061 275.347 501.08 272.568 500.451C270.416 500.82 261.404 501.174 259.47 500.385C256.752 501.107 246.189 501.064 243.224 500.541L243.083 500.161C244.017 498.703 245.751 498.033 246.686 496.616C245.144 496.42 242.509 498.904 241.13 499.716C238.852 501.059 225.075 501.156 222.608 500.5C219.738 501.041 209.097 500.852 205.788 500.578C201.797 500.889 192.917 501.231 189.263 500.48C187.094 500.885 175.818 501.021 173.778 500.425C169.874 501.092 160.982 501.043 157.074 500.516C154.335 500.998 150.254 500.935 147.474 500.524C143.985 500.887 134.132 501.197 130.883 500.525C128.972 500.882 118.632 501.029 116.819 500.442C113.456 501.178 103.825 500.993 100.302 500.461C98.8364 500.706 97.5321 500.154 96.1903 499.615C95.5029 499.273 94.9805 498.799 94.4814 498.223C89.3825 492.337 91.3701 479.283 91.8211 471.973C94.345 472.017 96.9695 471.916 99.4713 472.24C101.075 471.833 104.268 471.915 105.84 472.417C109.605 471.466 118.615 471.937 122.866 472.136C121.237 473.739 119.455 475.206 117.878 476.853L118.124 476.736C120.614 475.525 122.882 473.572 125.436 472.574C128.03 471.561 139.591 471.76 142.562 472.309C144.491 472.019 146.352 472.065 148.284 472.325C153.191 471.707 159.83 471.614 164.719 472.314C167.481 471.931 176.591 471.738 179.049 472.369C182.436 471.733 192.411 471.651 195.728 472.274C198.5 471.856 202.464 471.84 205.222 472.34C209.863 471.703 217.105 471.615 221.72 472.3C225.063 471.82 233.975 471.873 237.255 472.362ZM253.858 472.107C252.146 476.336 244.474 485.097 241.511 489.362Q249.591 484.357 257.871 479.69C262.15 477.223 266.404 474.657 270.786 472.38C267.3 471.643 257.701 471.878 253.858 472.107ZM205.788 500.578C209.097 500.852 219.738 501.041 222.608 500.5C226.516 494.649 230.9 488.939 235.237 483.402C225.621 489.44 215.35 494.483 205.788 500.578ZM173.778 500.425C175.818 501.021 187.094 500.885 189.263 500.48C191.381 496.601 198.674 487.922 201.836 484.342C198.476 485.95 195.263 488.055 192.04 489.931Q182.946 495.243 173.778 500.425ZM334.302 500.424C336.243 501.218 346.894 500.656 349.663 500.615C350.991 498.311 352.909 496.133 354.546 494.034C357.205 490.622 359.85 487.184 362.634 483.874C354.018 489.559 343.434 495.517 334.302 500.424ZM221.72 472.3C218.207 478.056 213.371 483.153 209.339 488.57C218.392 482.887 227.854 477.451 237.255 472.362C233.975 471.873 225.063 471.82 221.72 472.3ZM382.409 472.276C378.369 477.84 374.203 483.364 369.783 488.633Q378.837 483.143 388.041 477.909C391.272 476.053 394.489 474.065 397.822 472.404C394.983 471.7 385.523 471.927 382.409 472.276ZM394.37 484.067C389.912 487.188 385.072 489.784 380.364 492.505C375.774 495.158 371.214 497.97 366.505 500.402C367.964 501.011 379.798 500.912 381.626 500.49C385.655 494.851 390.36 489.7 394.37 484.067ZM143.807 484.659C135.095 490.289 125.88 495.384 116.819 500.442C118.632 501.029 128.972 500.882 130.883 500.525C132.245 498.175 134.334 495.97 136.066 493.878C138.623 490.789 141.156 487.668 143.807 484.659ZM164.719 472.314C161.169 477.823 156.496 482.794 152.237 487.757C161.228 482.812 169.826 476.855 179.049 472.369C176.591 471.738 167.481 471.931 164.719 472.314ZM259.47 500.385C261.404 501.174 270.416 500.82 272.568 500.451C275.102 496.276 281.602 489.34 285.138 485.571C276.437 490.204 268.197 495.77 259.47 500.385ZM307.474 472.253C303.456 477.565 298.837 482.16 294.729 487.287C303.259 482.239 311.773 476.996 320.545 472.382C317.296 471.799 310.807 471.925 307.474 472.253ZM414.691 472.094C410.645 477.77 406.25 483.269 401.809 488.639C407.178 485.353 414.662 480.38 420.17 477.934C419.808 476.279 418.598 474.236 417.352 473.112C416.511 472.352 415.819 472.042 414.691 472.094ZM195.728 472.274C191.915 476.398 187.907 480.374 184.162 484.552C191.056 480.379 198.043 475.998 205.222 472.34C202.464 471.84 198.5 471.856 195.728 472.274ZM147.474 500.524C150.254 500.935 154.335 500.998 157.074 500.516C160.435 496.09 164.817 492.195 168.721 488.23C166.541 489.379 164.45 490.77 162.313 492.005L147.474 500.524ZM337.076 472.293C334.133 475.923 330.481 479.055 327.063 482.224C332.945 479.31 338.378 475.393 344.222 472.358Q340.653 471.901 337.076 472.293ZM289.218 500.386C290.932 501.051 294.412 500.818 296.24 500.455C299.171 496.922 302.806 493.97 306.049 490.728C304.009 491.635 302.07 492.971 300.152 494.116C296.544 496.27 292.94 498.432 289.218 500.386ZM142.562 472.309C139.641 475.193 136.35 477.852 133.604 480.877C138.434 477.951 143.272 474.928 148.284 472.325C146.352 472.065 144.491 472.019 142.562 472.309ZM96.1903 499.615C97.5321 500.154 98.8364 500.706 100.302 500.461C102.449 497.307 106.222 494.675 109.036 492.074C104.614 494.247 100.408 497.066 96.1903 499.615ZM99.4713 472.24L96.3083 477.973C99.3914 476.017 102.565 474.031 105.84 472.417C104.268 471.915 101.075 471.833 99.4713 472.24ZM312.725 500.57C314.317 500.637 316.068 500.777 317.648 500.57C319.491 497.78 323.154 495.346 325.631 493.037C321.244 495.162 316.989 498.159 312.725 500.57ZM398.477 500.385C399.92 500.991 402.411 500.765 403.953 500.523C405.036 498.4 406.982 496.475 408.522 494.647C405.082 496.33 401.901 498.623 398.477 500.385Z"/>
	<path fill="#F10D5A" d="M512 210.978C511.201 214.962 511.23 219.294 510.893 223.349C509.886 235.492 508.097 251.719 500.116 261.427C497.838 264.198 494.927 266.342 491.411 267.221C486.454 268.461 474.066 268.232 468.361 268.414C443.62 269.201 418.636 270.563 393.938 268.382C391.187 268.139 388.454 267.805 385.751 267.223C382.911 266.612 377.082 264.267 374.571 264.523C374.345 264.546 374.119 264.572 373.892 264.589C372.681 264.684 372.092 264.426 371.183 263.652C371.088 263.357 370.986 263.07 370.885 262.778C370.352 261.245 367.908 259.742 366.715 258.533C362.842 254.606 360.911 249.684 359.838 244.35C356.854 229.511 359.146 209.103 360.07 193.75Q361.249 174.496 361.977 155.219Q362.37 144.83 362.364 134.434C362.376 130.575 362.104 126.52 362.471 122.69C362.629 121.041 363.542 119.546 364.449 118.195C369.153 111.194 374.936 104.856 380.692 98.7213C390.26 88.5246 400.895 79.4098 411.03 69.8001C413.477 67.4798 415.975 65.172 418.346 62.7769C419.909 61.1989 421.25 59.3251 422.99 57.9384C423.803 57.29 424.688 56.9827 425.705 56.8072C430.958 55.9002 436.508 57.446 441.802 57.2025C458.936 56.4145 486.187 50.4987 500.863 61.0626C504.845 63.9289 508.116 68.4171 509.162 73.2592C510.031 77.2858 508.768 82.0646 508.508 86.1816C508.299 89.4988 508.316 92.8435 508.328 96.1662C508.394 114.122 509.65 132.026 510.465 149.956L511.25 167.062C511.4 171.075 511.293 175.28 511.946 179.239C511.963 179.342 511.982 179.444 512 179.547L512 210.978ZM467.922 62.3633C463.852 61.9826 452.957 62.9053 449.056 63.851C443.955 66.6924 438.61 69.4337 433.749 72.6587C433.733 72.8099 433.715 72.9609 433.701 73.1122C433.422 76.0705 433.956 79.2562 433.975 82.2312C434.051 94.18 433.383 109.154 423.525 117.464C413.522 125.896 397.733 125.626 385.323 125.018Q379.668 128.482 374.259 132.318C374.249 135.983 374.298 139.659 374.179 143.322L374.452 143.186C378.471 141.156 382.375 138.658 386.237 136.334C387.666 135.474 389.117 134.427 390.627 133.726L391.329 133.993L390.801 133.655L391.296 133.617C390.865 134.622 376.191 143.705 374.075 145.185C373.876 149.328 373.837 153.496 373.606 157.631C373.422 160.914 372.763 164.456 373.096 167.73C372.886 169.256 372.693 170.719 372.738 172.264C371.927 175.62 372.215 179.856 371.985 183.349C374.623 181.794 377.271 180.06 380.047 178.777L380.301 178.876L380.545 178.66L380.528 178.641L380.098 178.794L380.135 179.06C377.54 180.965 374.797 182.79 372.004 184.39C371.799 186.922 370.973 193.096 371.774 195.29C371.483 196.337 371.494 197.313 371.488 198.388C371.31 201.646 370.758 205.729 371.464 208.919C371.243 210.809 371.299 212.762 371.329 214.664C371.42 218.133 371.334 221.737 371.791 225.174C371.883 226.764 371.705 229.361 372.29 230.788C372.308 234.071 373.026 237.632 373.753 240.836C373.994 241.872 374.241 242.893 374.37 243.951C376.57 249.52 378.303 256.751 384.28 259.604C384.356 259.64 384.436 259.669 384.514 259.702C385.228 260.015 386.08 260.513 386.836 260.677C388.671 260.969 403.309 260.376 405.44 259.865C407.414 260.603 411.065 260.265 413.205 260.299C417.703 260.879 424.04 261.671 428.495 261.359C429.541 261.817 438.149 262.368 439.515 262.18C442.928 262.818 450.879 263.331 454.245 262.905C458.209 263.41 467.566 263.142 471.688 262.474C477.407 262.571 484.984 260.57 489.859 257.538C494.141 254.875 496.242 251.412 497.355 246.563C495.788 247.665 494.218 248.641 492.529 249.546C494.004 247.666 495.695 245.898 497.237 244.064C497.372 238.792 497.446 233.447 497.232 228.178C497.285 226.776 497.277 225.399 497.218 223.998C497.665 220.032 497.307 215.868 497.42 211.869C495.598 212.574 493.846 213.69 492.148 214.656C487.284 217.421 482.554 220.607 477.597 223.179L477.427 222.993C479.615 220.936 482.439 219.281 484.894 217.516Q491.213 212.968 497.387 208.224L497.391 196.945C495.058 198.065 487.046 203.678 485.239 203.659C485.516 202.859 495.969 196.346 497.398 195.457Q497.413 184.666 497.28 173.876C497.324 172.755 497.465 171.571 497.223 170.47C497.769 167.137 497.337 163.082 497.252 159.688C497.424 157.738 497.28 155.67 497.246 153.712C497.422 150.124 497.337 146.472 497.217 142.882C497.295 141.449 497.642 138.8 497 137.558C497.766 136.21 497.268 128.703 497.253 126.628L497.292 123.492C497.03 120 497.27 116.325 497.277 112.813C495.169 113.994 491.352 116.803 489.191 117.271L489.116 117.136C491.416 115.409 494.61 112.998 497.264 111.965Q497.326 106.715 497.211 101.466C497.283 100.014 497.217 98.5268 497.217 97.0714C497.47 91.9807 497.837 80.1479 496.514 75.5416C491.258 77.9662 486.19 81.4326 481.194 84.392C479.38 85.4666 477.562 86.727 475.607 87.5075L475.557 87.3248L475.387 87.2561C477.447 86.2699 479.541 84.5273 481.486 83.2561C486.103 80.2391 491.307 77.3238 495.549 73.8194C495.615 73.7649 495.679 73.7089 495.745 73.6537C494.362 70.6431 492.608 68.4958 489.986 66.4954C489.141 65.9025 488.26 65.409 487.358 64.9087C483.949 63.2695 478.1 61.6795 474.304 62.3996C472.208 62.1661 470.024 62.2092 467.922 62.3633ZM435.656 63.5929L433.274 65.9623C433.379 67.9705 433.162 70.7758 433.749 72.6587C438.61 69.4337 443.955 66.6924 449.056 63.851L448.628 63.8432C444.291 63.7887 440.003 63.8496 435.656 63.5929Z"/>
	<path fill="white" d="M373.548 124.219C376.653 124.35 379.768 124.638 382.869 124.854C381.847 125.81 380.574 126.481 379.383 127.206C377.619 128.129 375.932 129.189 374.263 130.271L373.548 124.219Z"/>
	<path fill="white" d="M392.584 99.8808C392.995 100.353 392.993 100.359 393.608 100.468C396.813 99.0652 399.653 96.9658 402.801 95.4523L389.878 109C388.647 110.308 385.752 114.049 384.489 114.763C384.02 115.027 382.958 115.005 382.422 115.035C381.7 115.024 380.935 114.999 380.309 114.615C382.75 112.972 386.045 111.17 387.977 108.973C384.689 110.541 381.757 112.726 378.475 114.296C381.925 109.547 388.264 104.146 392.584 99.8808Z"/>
	<path fill="#E3006B" d="M392.584 99.8808C396.258 95.8875 400.26 92.1411 404.063 88.2657Q412.478 79.7094 420.48 70.7649C420.444 76.8865 421.034 83.0068 421.016 89.1347C421.033 91.067 420.999 92.9492 420.808 94.8728C420.629 100.349 420.135 106.689 415.935 110.734C413.994 112.604 411.538 113.695 408.95 114.33L405.04 115.092C398.942 116.126 388.586 115.681 382.422 115.035C382.958 115.005 384.02 115.027 384.489 114.763C385.752 114.049 388.647 110.308 389.878 109L402.801 95.4523C399.653 96.9658 396.813 99.0652 393.608 100.468C392.993 100.359 392.995 100.353 392.584 99.8808Z"/>
	<path fill="white" d="M405.04 115.092L403.294 114.898L403.223 114.717C405.213 112.612 408.954 110.923 411.481 109.419C410.475 110.985 408.993 112.38 408.95 114.33L405.04 115.092Z"/>
	<path fill="white" d="M409.598 100.653C412.807 97.3266 417.38 91.5833 421.016 89.1347C421.033 91.067 420.999 92.9492 420.808 94.8728C417.536 95.096 412.719 99.127 409.598 100.653Z"/>
	<path fill="white" d="M467.922 62.3633C470.024 62.2092 472.208 62.1661 474.304 62.3996C478.1 61.6795 483.949 63.2695 487.358 64.9087C488.26 65.409 489.141 65.9025 489.986 66.4954C492.608 68.4958 494.362 70.6431 495.745 73.6537C495.679 73.7089 495.615 73.7649 495.549 73.8194C491.307 77.3238 486.103 80.2391 481.486 83.2561C479.541 84.5273 477.447 86.2699 475.387 87.2561L475.557 87.3248L475.607 87.5075C477.562 86.727 479.38 85.4666 481.194 84.392C486.19 81.4326 491.258 77.9662 496.514 75.5416C497.837 80.1479 497.47 91.9807 497.217 97.0714C497.217 98.5268 497.283 100.014 497.211 101.466Q497.326 106.715 497.264 111.965C494.61 112.998 491.416 115.409 489.116 117.136L489.191 117.271C491.352 116.803 495.169 113.994 497.277 112.813C497.27 116.325 497.03 120 497.292 123.492L497.253 126.628C497.268 128.703 497.766 136.21 497 137.558C497.642 138.8 497.295 141.449 497.217 142.882C497.337 146.472 497.422 150.124 497.246 153.712C497.28 155.67 497.424 157.738 497.252 159.688C497.337 163.082 497.769 167.137 497.223 170.47C497.465 171.571 497.324 172.755 497.28 173.876Q497.413 184.666 497.398 195.457C495.969 196.346 485.516 202.859 485.239 203.659C487.046 203.678 495.058 198.065 497.391 196.945L497.387 208.224Q491.213 212.968 484.894 217.516C482.439 219.281 479.615 220.936 477.427 222.993L477.597 223.179C482.554 220.607 487.284 217.421 492.148 214.656C493.846 213.69 495.598 212.574 497.42 211.869C497.307 215.868 497.665 220.032 497.218 223.998C497.277 225.399 497.285 226.776 497.232 228.178C497.446 233.447 497.372 238.792 497.237 244.064C495.695 245.898 494.004 247.666 492.529 249.546C494.218 248.641 495.788 247.665 497.355 246.563C496.242 251.412 494.141 254.875 489.859 257.538C484.984 260.57 477.407 262.571 471.688 262.474C467.566 263.142 458.209 263.41 454.245 262.905C450.879 263.331 442.928 262.818 439.515 262.18C438.149 262.368 429.541 261.817 428.495 261.359C424.04 261.671 417.703 260.879 413.205 260.299C411.065 260.265 407.414 260.603 405.44 259.865C403.309 260.376 388.671 260.969 386.836 260.677C386.08 260.513 385.228 260.015 384.514 259.702C384.436 259.669 384.356 259.64 384.28 259.604C378.303 256.751 376.57 249.52 374.37 243.951C374.241 242.893 373.994 241.872 373.753 240.836C373.026 237.632 372.308 234.071 372.29 230.788C371.705 229.361 371.883 226.764 371.791 225.174C371.334 221.737 371.42 218.133 371.329 214.664C371.299 212.762 371.243 210.809 371.464 208.919C370.758 205.729 371.31 201.646 371.488 198.388C371.494 197.313 371.483 196.337 371.774 195.29C370.973 193.096 371.799 186.922 372.004 184.39C374.797 182.79 377.54 180.965 380.135 179.06L380.098 178.794L380.528 178.641L380.545 178.66L380.301 178.876L380.047 178.777C377.271 180.06 374.623 181.794 371.985 183.349C372.215 179.856 371.927 175.62 372.738 172.264C372.693 170.719 372.886 169.256 373.096 167.73C372.763 164.456 373.422 160.914 373.606 157.631C373.837 153.496 373.876 149.328 374.075 145.185C376.191 143.705 390.865 134.622 391.296 133.617L390.801 133.655L391.329 133.993L390.627 133.726C389.117 134.427 387.666 135.474 386.237 136.334C382.375 138.658 378.471 141.156 374.452 143.186L374.179 143.322C374.298 139.659 374.249 135.983 374.259 132.318Q379.668 128.482 385.323 125.018C397.733 125.626 413.522 125.896 423.525 117.464C433.383 109.154 434.051 94.18 433.975 82.2312C433.956 79.2562 433.422 76.0705 433.701 73.1122C433.715 72.9609 433.733 72.8099 433.749 72.6587C438.61 69.4337 443.955 66.6924 449.056 63.851C452.957 62.9053 463.852 61.9826 467.922 62.3633ZM454.245 262.905C458.209 263.41 467.566 263.142 471.688 262.474C474.447 257.963 482.317 248.28 486.083 244.514C482.983 246.09 480.014 248.056 476.993 249.792L454.245 262.905ZM497.252 159.688C497.424 157.738 497.28 155.67 497.246 153.712C488.384 159.784 479.721 166.148 470.924 172.315C464.514 176.809 457.959 181.068 451.604 185.639L451.208 185.49L451.878 185.657L451.258 185.966L451.077 185.579L451.402 185.81L451.257 185.968C452.027 185.945 485.128 166.487 488.921 164.33C491.571 162.823 494.368 160.671 497.252 159.688ZM404.328 206.229C401.935 208.363 395.602 211.538 392.595 213.232Q382.13 219.094 371.791 225.174C371.883 226.764 371.705 229.361 372.29 230.788L406.703 206.57C406.003 206.294 405.084 206.301 404.328 206.229ZM371.464 208.919C371.243 210.809 371.299 212.762 371.329 214.664L400.184 194.393C405.97 190.377 411.889 186.554 417.595 182.423C412.116 184.725 405.952 189.051 400.771 192.135C391.127 197.877 381.327 203.561 371.464 208.919ZM428.495 261.359C429.541 261.817 438.149 262.368 439.515 262.18C441.397 259.038 460.173 244.333 464.225 240.867C464.169 240.891 464.115 240.916 464.059 240.939C460.962 242.21 458.163 244.388 455.259 246.056C446.399 251.144 437.523 256.625 428.495 261.359ZM497 137.558C486.259 144.839 475.974 152.886 465.031 159.857C465.296 160.298 465.477 160.565 465.905 160.858C471.289 157.391 476.982 154.359 482.522 151.147C487.33 148.36 492.168 145.182 497.217 142.882C497.295 141.449 497.642 138.8 497 137.558ZM405.44 259.865C407.414 260.603 411.065 260.265 413.205 260.299C422.08 252.919 431.756 246.506 440.96 239.551C437.049 240.899 431.454 244.917 427.735 247.134C420.412 251.503 412.965 255.857 405.44 259.865ZM411.002 145.919C405.882 148.267 400.949 151.63 396.093 154.508Q384.704 161.309 373.096 167.73C372.886 169.256 372.693 170.719 372.738 172.264C385.292 163.197 398.481 155.004 411.002 145.919ZM497.217 97.0714C490.309 101.608 483.668 106.56 476.804 111.171C471.487 114.743 464.336 118.816 459.626 122.958C463.862 120.736 467.921 118.158 472.034 115.72Q479.757 111.186 487.535 106.749C490.526 105.031 493.963 102.521 497.211 101.466C497.283 100.014 497.217 98.5268 497.217 97.0714ZM497.223 170.47Q486.979 177.697 476.483 184.553C472.511 187.192 467.879 189.768 464.372 192.986C475.366 186.652 486.193 180.055 497.28 173.876C497.324 172.755 497.465 171.571 497.223 170.47ZM406.12 222.019C395.245 228.031 384.91 235.38 373.753 240.836C373.994 241.872 374.241 242.893 374.37 243.951C378.533 241.302 382.503 238.249 386.595 235.479C390.304 232.968 404.012 224.457 406.12 222.019ZM467.922 62.3633C460.615 69.2395 451.245 73.9747 443.327 80.1349C447.624 78.4258 451.747 75.444 455.754 73.084L474.304 62.3996C472.208 62.1661 470.024 62.2092 467.922 62.3633ZM487.358 64.9087C485.573 66.8321 482.884 68.3244 480.709 69.7942L468.452 77.9984C465.627 79.8738 462.585 81.6814 460.037 83.918C465.383 81.1728 470.526 77.8416 475.703 74.7812C480.438 71.9815 485.305 69.3793 489.986 66.4954C489.141 65.9025 488.26 65.409 487.358 64.9087ZM400.926 178.213C391.068 183.588 381.458 189.597 371.774 195.29C371.483 196.337 371.494 197.313 371.488 198.388C377.958 193.205 385.437 188.823 392.358 184.261C395.178 182.401 398.5 180.565 400.926 178.213ZM469.443 142.356C472.233 141.123 474.86 139.421 477.479 137.865L489.398 130.782C491.647 129.451 494.729 127.192 497.253 126.628L497.292 123.492C495.199 125.183 492.861 126.623 490.627 128.121C483.738 132.736 475.895 137.256 469.443 142.356ZM497.218 223.998C492.189 228.604 486.84 232.701 481.616 237.063C486.954 234.549 492.051 231.047 497.232 228.178C497.285 226.776 497.277 225.399 497.218 223.998ZM384.514 259.702C385.228 260.015 386.08 260.513 386.836 260.677C393.837 255.652 401.311 251.241 408.191 246.059C404.919 247.554 401.83 249.551 398.736 251.384Q391.659 255.602 384.514 259.702Z"/>
	<path fill="#F10D5A" d="M419.531 197.535C417.651 199.526 414.88 201.033 412.709 202.733C417.22 202.36 421.742 201.942 426.269 201.866C434.129 201.735 442.006 202.317 449.864 202.497C454.231 202.597 458.689 202.256 463.034 202.501C463.958 202.553 465.292 202.566 466.013 203.162C466.073 203.763 466.1 203.885 465.654 204.364C461.376 208.949 418.876 208.058 411.38 207.288C409.82 207.127 408.227 206.942 406.703 206.57C406.003 206.294 405.084 206.301 404.328 206.229C404.428 205.591 404.345 205.055 404.976 204.703C406.323 203.951 408.078 203.91 409.502 203.208C412.949 201.509 416.06 199.193 419.531 197.535Z"/>
	<path fill="#F10D5A" d="M407.17 165.986C406.248 165.221 404.725 163.959 404.429 162.754C404.276 162.135 404.289 161.635 404.658 161.089C408.758 155.018 453.787 159.142 462.808 158.232L463.23 158.188Q464.122 159.032 465.031 159.857C465.296 160.298 465.477 160.565 465.905 160.858C465.931 161.432 466.017 162.151 465.811 162.697C464.729 165.573 459.249 165.314 456.805 166.067C455.826 166.369 455 167.225 454.048 167.678C454.166 166.976 454.867 166.976 454.897 166.288C454.183 166.11 442.573 166.524 440.656 166.513C429.508 166.445 418.306 165.511 407.17 165.986Z"/>
	<path fill="#F10D5A" d="M294.416 4.11169C303.462 3.56799 315.202 4.01311 322.674 9.63402C326.837 12.7656 329.472 17.7057 330.242 22.8259C330.851 26.8798 329.6 31.3015 329.395 35.4031C329.038 42.5289 329.185 49.7482 329.35 56.8805C329.981 84.1603 332.365 111.361 332.688 138.665C332.804 148.53 332.84 158.491 332.124 168.337C331.503 176.874 330.624 185.482 328.549 193.805C328.07 195.725 325.158 203.526 325.318 204.526C325.38 204.911 325.426 205.173 325.417 205.576C325.391 206.722 319.854 212.111 318.618 213.232C316.287 215.346 313.577 216.418 310.489 216.797C307.341 217.183 304.151 216.41 300.988 216.312C295.235 216.133 289.351 216.222 283.6 216.392C262.427 217.019 242.906 219.812 221.438 218.714C210.835 218.141 193.196 215.113 185.299 207.721C181.795 204.441 181.441 195.31 181.223 190.674C180.717 179.934 181.661 169.22 181.665 158.483C181.67 148.577 181.662 138.622 181.502 128.717C181.234 112.122 180.255 95.4464 181.932 78.8929C182.215 76.1016 182.362 72.8614 183.374 70.2392C184.472 67.3923 187.657 64.7635 189.582 62.4035C190.94 60.7383 192.136 58.9391 193.489 57.2653C199.788 49.4698 206.328 41.6113 213.085 34.2117C222.519 23.8806 233.043 14.4115 245.877 8.54042C248.124 7.51246 250.556 6.30351 252.97 5.77935C260.037 4.24438 266.648 5.05113 273.741 4.96268C280.625 4.87684 287.537 4.42263 294.416 4.11169ZM318.07 84.5644C315.119 85.4508 310.244 88.807 307.417 90.4364L278.141 107.573L277.729 107.359C274.124 108.056 267.327 107.139 263.402 107.073C256.714 106.962 229.318 107.264 225.029 111.016C224.749 111.694 224.756 111.675 224.985 112.373C226.028 113.451 227.227 113.73 228.658 114.032C225.258 116.517 221.407 118.554 217.78 120.695Q206.341 127.406 194.758 133.866C194.581 135.175 194.037 137.454 194.495 138.656C193.515 141.388 193.217 147.432 193.521 150.3C193.126 151.968 192.921 154.016 193.001 155.728C192.263 157.85 191.835 164.614 192.219 166.861C191.945 168.395 191.341 170.79 191.788 172.281C190.977 174.481 191.437 180.477 191.808 182.934C191.737 185.504 192.403 188.483 192.921 191.01C193.997 194.093 195.227 196.76 196.982 199.515C197.659 200.184 198.316 200.887 199.059 201.482C203.944 206.385 214.351 209.892 221.16 209.953L221.384 209.84C222.547 210.333 224.306 210.593 225.56 210.471C230.436 211.339 236.034 211.329 240.972 211.124C242.928 211.113 245.561 211.515 247.422 211.054C250.859 211.294 262.403 211.097 265.273 209.943C268.011 208.842 270.228 206.73 272.994 205.641L273.322 205.514C271.486 207.185 269.372 208.492 267.584 210.23C270.685 210.157 273.78 209.792 276.878 209.64C279.669 209.503 283.123 209.842 285.805 209.076C287.432 208.611 289.181 207.249 290.652 206.37C289.837 207.524 288.707 208.495 287.706 209.488C290.77 209.776 293.897 209.915 296.975 209.955C302.768 210.03 310.177 209.756 314.532 205.322C316.115 203.709 317.066 201.722 317.567 199.536C318.491 195.506 318.098 190.91 318.097 186.795L318.091 169.661C315.745 170.864 313.571 172.667 311.094 173.57C311.812 172.085 316.349 169.44 317.869 168.106L318.103 167.897L318.107 156.712C316.24 157.616 309.865 162.096 308.461 162.163C308.39 162.167 308.321 162.15 308.25 162.143L308.231 162.313C309.137 160.665 316.171 156.354 318.091 155.248C318.026 150.534 318.122 145.81 318.146 141.096C318.158 138.666 318.46 135.776 317.933 133.412C318.309 132.552 318.159 131.652 317.999 130.754C318.491 127.33 318.143 123.348 318.041 119.879C318.465 117.191 318.088 113.973 317.98 111.236C318.251 107.578 318.092 103.872 318.035 100.207Q318.1 97.7428 317.966 95.2814C318.212 91.721 318.102 88.1305 318.07 84.5644ZM288.754 11.5657C285.302 11.1261 273.092 12.1462 269.606 12.941C266.486 14.8274 263.299 16.5943 260.145 18.4226C258.313 19.4845 256.427 20.8387 254.457 21.6064C254.867 35.012 256.174 52.6484 246.303 63.1706C237.315 72.7522 223.803 72.0885 211.794 72.9189C206.076 76.9459 200.458 81.3275 194.584 85.1041C194.83 88.6581 194.851 92.3006 195.335 95.826C195.309 97.4679 195.122 99.5743 195.487 101.149C195.258 105.608 195.572 110.084 195.441 114.548Q195.276 120.276 194.976 125.999C194.845 128.464 194.39 131.418 194.758 133.866Q206.341 127.406 217.78 120.695C221.407 118.554 225.258 116.517 228.658 114.032C227.227 113.73 226.028 113.451 224.985 112.373C224.756 111.675 224.749 111.694 225.029 111.016C229.318 107.264 256.714 106.962 263.402 107.073C267.327 107.139 274.124 108.056 277.729 107.359L278.141 107.573L307.417 90.4364C310.244 88.807 315.119 85.4508 318.07 84.5644Q318.054 81.9181 317.979 79.2728C318.249 75.7084 318.078 72.0673 318.009 68.4969L318.12 63.509C317.898 61.3051 318.064 58.9279 318.069 56.7049L318.11 42.7039C316.904 43.506 315.721 44.3879 314.328 44.8288C315.167 43.7843 316.967 42.8575 318.109 42.0946C318.11 38.6867 318.351 35.065 317.969 31.6876C318.43 30.2406 317.983 27.5473 317.788 25.9988C316.611 22.7592 315.612 20.3234 313.232 17.7399C312.113 16.3979 310.191 15.1578 308.696 14.2702C305.176 12.1936 299.583 11.2933 295.544 11.5778C293.361 11.267 290.939 11.2978 288.754 11.5657ZM254.457 21.6064C256.427 20.8387 258.313 19.4845 260.145 18.4226C263.299 16.5943 266.486 14.8274 269.606 12.941C267.407 12.7007 265.157 13.1903 262.946 13.1758C261.016 13.1631 259.055 12.7268 257.127 12.9138C256.34 12.9901 255.552 13.1861 254.943 13.7166C254.264 14.307 254.035 15.1823 253.994 16.0518C253.911 17.8198 254.37 19.8094 254.457 21.6064ZM206.628 72.8391C202.599 75.4141 198.425 77.7642 194.288 80.1611C194.401 81.8058 194.544 83.4561 194.584 85.1041C200.458 81.3275 206.076 76.9459 211.794 72.9189Q209.213 72.7277 206.628 72.8391Z"/>
	<path fill="white" d="M194.46 71.8406C198.207 72.0747 203.063 71.9068 206.628 72.8391C202.599 75.4141 198.425 77.7642 194.288 80.1611C193.931 77.2624 194.099 74.7385 194.46 71.8406Z"/>
	<path fill="#E3006B" d="M241.355 19.797C241.352 21.3245 241.978 24.8712 241.22 26.06C238.575 28.521 235.748 30.8162 232.954 33.1057C236.088 32.4653 238.271 29.3063 241.347 28.51C242.382 31.556 241.932 41.7776 241.726 45.4068C241.418 50.8597 240.712 57.2829 236.296 61.0889C228.591 67.7297 209.771 65.4908 199.973 64.888C202.219 62.7388 206.156 61.0579 207.576 58.2988C204.99 60.0765 202.371 61.8293 199.538 63.1902C201.573 60.6461 204.034 58.3554 206.335 56.0511L216.548 45.8453Q229.363 33.213 241.355 19.797Z"/>
	<path fill="white" d="M232.954 33.1057L232.513 33.1868C232.014 33.6071 231.575 33.9481 230.997 34.2622L230.864 34.0208L231.091 33.4247C233.051 31.8191 237.838 26.4881 239.772 25.8601C240.513 25.6196 240.595 25.6913 241.22 26.06C238.575 28.521 235.748 30.8162 232.954 33.1057Z"/>
	<path fill="white" d="M288.754 11.5657C290.939 11.2978 293.361 11.267 295.544 11.5778C299.583 11.2933 305.176 12.1936 308.696 14.2702C310.191 15.1578 312.113 16.3979 313.232 17.7399C315.612 20.3234 316.611 22.7592 317.788 25.9988C317.983 27.5473 318.43 30.2406 317.969 31.6876C318.351 35.065 318.11 38.6867 318.109 42.0946C316.967 42.8575 315.167 43.7843 314.328 44.8288C315.721 44.3879 316.904 43.506 318.11 42.7039L318.069 56.7049C318.064 58.9279 317.898 61.3051 318.12 63.509L318.009 68.4969C318.078 72.0673 318.249 75.7084 317.979 79.2728Q318.054 81.9181 318.07 84.5644C315.119 85.4508 310.244 88.807 307.417 90.4364L278.141 107.573L277.729 107.359C274.124 108.056 267.327 107.139 263.402 107.073C256.714 106.962 229.318 107.264 225.029 111.016C224.749 111.694 224.756 111.675 224.985 112.373C226.028 113.451 227.227 113.73 228.658 114.032C225.258 116.517 221.407 118.554 217.78 120.695Q206.341 127.406 194.758 133.866C194.39 131.418 194.845 128.464 194.976 125.999Q195.276 120.276 195.441 114.548C195.572 110.084 195.258 105.608 195.487 101.149C195.122 99.5743 195.309 97.4679 195.335 95.826C194.851 92.3006 194.83 88.6581 194.584 85.1041C200.458 81.3275 206.076 76.9459 211.794 72.9189C223.803 72.0885 237.315 72.7522 246.303 63.1706C256.174 52.6484 254.867 35.012 254.457 21.6064C256.427 20.8387 258.313 19.4845 260.145 18.4226C263.299 16.5943 266.486 14.8274 269.606 12.941C273.092 12.1462 285.302 11.1261 288.754 11.5657ZM308.696 14.2702C305.233 17.23 301.224 19.7868 297.526 22.4543Q286.873 30.2194 276.06 37.759C272.228 40.4193 267.117 43.2044 263.895 46.4615L293.948 28.9576C300.37 25.2318 306.916 21.6394 313.232 17.7399C312.113 16.3979 310.191 15.1578 308.696 14.2702ZM271.62 58.3959C276.377 56.3862 280.884 53.0648 285.369 50.4651C296.207 44.1819 307.002 37.7406 317.969 31.6876C318.43 30.2406 317.983 27.5473 317.788 25.9988C314.383 28.7006 310.628 31.0778 307.08 33.5999Q296.136 41.461 285.019 49.0753C280.551 52.1215 275.81 54.9876 271.62 58.3959ZM195.335 95.826C195.309 97.4679 195.122 99.5743 195.487 101.149C197.633 99.7651 199.652 98.1794 201.75 96.7218L219.981 83.884C226.143 79.5734 232.764 75.6403 238.652 70.9777C234.51 72.5468 228.887 76.5132 224.949 78.8696C218.936 82.4674 212.857 85.9154 206.778 89.3967C202.991 91.5649 199.235 93.8683 195.335 95.826ZM317.979 79.2728Q305.35 88.3329 292.536 97.1305C288.543 99.8268 280.908 104.324 277.729 107.359L278.141 107.573L307.417 90.4364C310.244 88.807 315.119 85.4508 318.07 84.5644Q318.054 81.9181 317.979 79.2728ZM318.12 63.509C309.389 70.1974 300.012 76.3603 290.891 82.5026C286.667 85.3471 282.227 88.0445 278.215 91.1809L278.717 90.8683L278.738 91.336L278.218 91.1825C282.983 88.8761 287.382 85.9794 291.93 83.2887C297.232 80.1522 302.622 77.1561 307.961 74.0823C311.206 72.2141 314.556 69.9466 318.009 68.4969L318.12 63.509ZM288.754 11.5657C283.793 15.542 278.636 19.2026 273.429 22.8479C270.448 24.935 265.196 27.8784 262.971 30.4558C265.772 29.4476 270.245 26.252 272.994 24.6554C280.495 20.2974 288.174 16.1498 295.544 11.5778C293.361 11.267 290.939 11.2978 288.754 11.5657Z"/>
	<path fill="white" d="M318.07 84.5644C318.102 88.1305 318.212 91.721 317.966 95.2814Q318.1 97.7428 318.035 100.207C318.092 103.872 318.251 107.578 317.98 111.236C318.088 113.973 318.465 117.191 318.041 119.879C318.143 123.348 318.491 127.33 317.999 130.754C318.159 131.652 318.309 132.552 317.933 133.412C318.46 135.776 318.158 138.666 318.146 141.096C318.122 145.81 318.026 150.534 318.091 155.248C316.171 156.354 309.137 160.665 308.231 162.313L308.25 162.143C308.321 162.15 308.39 162.167 308.461 162.163C309.865 162.096 316.24 157.616 318.107 156.712L318.103 167.897L317.869 168.106C316.349 169.44 311.812 172.085 311.094 173.57C313.571 172.667 315.745 170.864 318.091 169.661L318.097 186.795C318.098 190.91 318.491 195.506 317.567 199.536C317.066 201.722 316.115 203.709 314.532 205.322C310.177 209.756 302.768 210.03 296.975 209.955C293.897 209.915 290.77 209.776 287.706 209.488C288.707 208.495 289.837 207.524 290.652 206.37C289.181 207.249 287.432 208.611 285.805 209.076C283.123 209.842 279.669 209.503 276.878 209.64C273.78 209.792 270.685 210.157 267.584 210.23C269.372 208.492 271.486 207.185 273.322 205.514L272.994 205.641C270.228 206.73 268.011 208.842 265.273 209.943C262.403 211.097 250.859 211.294 247.422 211.054C245.561 211.515 242.928 211.113 240.972 211.124C236.034 211.329 230.436 211.339 225.56 210.471C224.306 210.593 222.547 210.333 221.384 209.84L221.16 209.953C214.351 209.892 203.944 206.385 199.059 201.482C198.316 200.887 197.659 200.184 196.982 199.515C195.227 196.76 193.997 194.093 192.921 191.01C192.403 188.483 191.737 185.504 191.808 182.934C191.437 180.477 190.977 174.481 191.788 172.281C191.341 170.79 191.945 168.395 192.219 166.861C191.835 164.614 192.263 157.85 193.001 155.728C192.921 154.016 193.126 151.968 193.521 150.3C193.217 147.432 193.515 141.388 194.495 138.656C194.037 137.454 194.581 135.175 194.758 133.866Q206.341 127.406 217.78 120.695C221.407 118.554 225.258 116.517 228.658 114.032C227.227 113.73 226.028 113.451 224.985 112.373C224.756 111.675 224.749 111.694 225.029 111.016C229.318 107.264 256.714 106.962 263.402 107.073C267.327 107.139 274.124 108.056 277.729 107.359L278.141 107.573L307.417 90.4364C310.244 88.807 315.119 85.4508 318.07 84.5644ZM318.07 84.5644C315.119 85.4508 310.244 88.807 307.417 90.4364L278.141 107.573L277.729 107.359C274.124 108.056 267.327 107.139 263.402 107.073C256.714 106.962 229.318 107.264 225.029 111.016C224.749 111.694 224.756 111.675 224.985 112.373C226.028 113.451 227.227 113.73 228.658 114.032C225.258 116.517 221.407 118.554 217.78 120.695Q206.341 127.406 194.758 133.866C194.581 135.175 194.037 137.454 194.495 138.656C193.515 141.388 193.217 147.432 193.521 150.3C193.126 151.968 192.921 154.016 193.001 155.728C192.263 157.85 191.835 164.614 192.219 166.861C191.945 168.395 191.341 170.79 191.788 172.281C190.977 174.481 191.437 180.477 191.808 182.934L218.909 167.285C224.767 163.932 230.931 160.826 236.474 156.983C235.107 156.731 233.666 156.68 232.281 156.534C230.303 156.326 225.812 156.039 224.511 154.435C224.867 153.537 226.229 153.16 227.092 152.823C231.586 151.072 236.615 150.418 241.405 150.177C242.548 150.12 248.613 150.193 249.121 149.911C249.37 149.772 249.528 149.51 249.732 149.31C250.156 149.237 250.248 149.114 250.617 149.368L250.224 149.712L250.308 149.889C254.469 150.368 259.052 150.609 263.24 150.471L263.541 150.459C264.136 150.644 264.416 150.635 265.019 150.487Q280.474 141.221 296.138 132.314C303.338 128.132 310.551 123.492 318.041 119.879C318.465 117.191 318.088 113.973 317.98 111.236C318.251 107.578 318.092 103.872 318.035 100.207Q318.1 97.7428 317.966 95.2814C318.212 91.721 318.102 88.1305 318.07 84.5644ZM236.474 156.983C230.931 160.826 224.767 163.932 218.909 167.285L191.808 182.934C191.737 185.504 192.403 188.483 192.921 191.01Q215.994 173.895 239.466 157.333C238.591 156.964 237.42 157.027 236.474 156.983ZM226.101 182.706C219.319 186.271 212.778 190.526 206.177 194.436C203.216 196.19 200.168 198.204 196.982 199.515C197.659 200.184 198.316 200.887 199.059 201.482C204.67 197.258 210.531 193.438 216.388 189.566C219.541 187.482 223.423 185.379 226.101 182.706ZM240.972 211.124C242.928 211.113 245.561 211.515 247.422 211.054C251.171 206.665 260.645 201.01 265.627 196.991C262.522 198.112 259.46 200.416 256.627 202.109Q248.872 206.743 240.972 211.124ZM317.999 130.754C315.742 132.51 313.243 134.019 310.863 135.606C304.743 139.687 298.417 143.622 292.492 147.978C295.351 146.842 298.042 145.032 300.686 143.467C306.374 140.102 312.048 136.416 317.933 133.412C318.309 132.552 318.159 131.652 317.999 130.754ZM221.384 209.84C222.547 210.333 224.306 210.593 225.56 210.471C229.715 206.309 238.457 201.245 243.592 197.512L243.596 197.048L243.744 196.979L244.02 197.155L244.299 196.78C241.249 197.767 238.195 200.183 235.432 201.83Q228.518 206.028 221.384 209.84Z"/>
	<path fill="#F10D5A" d="M236.474 156.983C235.107 156.731 233.666 156.68 232.281 156.534C230.303 156.326 225.812 156.039 224.511 154.435C224.867 153.537 226.229 153.16 227.092 152.823C231.586 151.072 236.615 150.418 241.405 150.177C242.548 150.12 248.613 150.193 249.121 149.911C249.37 149.772 249.528 149.51 249.732 149.31C250.156 149.237 250.248 149.114 250.617 149.368L250.224 149.712L250.308 149.889C254.469 150.368 259.052 150.609 263.24 150.471L263.541 150.459C264.136 150.644 264.416 150.635 265.019 150.487C270.837 151.943 278.826 150.371 284.846 150.724C285.766 151.273 286.749 151.742 287.403 152.611C287.359 153.208 287.325 153.334 286.841 153.763C283.52 156.709 258.03 157.279 252.771 157.292C248.645 157.302 243.447 156.794 239.466 157.333C238.591 156.964 237.42 157.027 236.474 156.983Z"/>
	<path fill="white" d="M318.07 84.5644C318.102 88.1305 318.212 91.721 317.966 95.2814Q318.1 97.7428 318.035 100.207C318.092 103.872 318.251 107.578 317.98 111.236C318.088 113.973 318.465 117.191 318.041 119.879C310.551 123.492 303.338 128.132 296.138 132.314Q280.474 141.221 265.019 150.487C264.416 150.635 264.136 150.644 263.541 150.459L263.24 150.471C259.052 150.609 254.469 150.368 250.308 149.889L250.224 149.712L250.617 149.368C250.248 149.114 250.156 149.237 249.732 149.31C249.528 149.51 249.37 149.772 249.121 149.911C248.613 150.193 242.548 150.12 241.405 150.177C236.615 150.418 231.586 151.072 227.092 152.823C226.229 153.16 224.867 153.537 224.511 154.435C225.812 156.039 230.303 156.326 232.281 156.534C233.666 156.68 235.107 156.731 236.474 156.983C230.931 160.826 224.767 163.932 218.909 167.285L191.808 182.934C191.437 180.477 190.977 174.481 191.788 172.281C191.341 170.79 191.945 168.395 192.219 166.861C191.835 164.614 192.263 157.85 193.001 155.728C192.921 154.016 193.126 151.968 193.521 150.3C193.217 147.432 193.515 141.388 194.495 138.656C194.037 137.454 194.581 135.175 194.758 133.866Q206.341 127.406 217.78 120.695C221.407 118.554 225.258 116.517 228.658 114.032C227.227 113.73 226.028 113.451 224.985 112.373C224.756 111.675 224.749 111.694 225.029 111.016C229.318 107.264 256.714 106.962 263.402 107.073C267.327 107.139 274.124 108.056 277.729 107.359L278.141 107.573L307.417 90.4364C310.244 88.807 315.119 85.4508 318.07 84.5644ZM317.98 111.236C309.04 118.112 299.683 124.532 290.547 131.15C281.589 137.64 272.796 144.392 263.541 150.459C264.136 150.644 264.416 150.635 265.019 150.487Q280.474 141.221 296.138 132.314C303.338 128.132 310.551 123.492 318.041 119.879C318.465 117.191 318.088 113.973 317.98 111.236ZM236.946 125.105C229.922 128.459 223.253 133.061 216.536 137.021C208.909 141.517 201.036 145.616 193.521 150.3C193.126 151.968 192.921 154.016 193.001 155.728C202.362 148.779 212.146 142.138 221.788 135.576C226.831 132.144 232.191 128.924 236.946 125.105ZM234.649 142.378C229.524 145.144 224.564 148.279 219.567 151.27Q211.263 156.214 202.845 160.962C199.344 162.957 195.862 165.152 192.219 166.861C191.945 168.395 191.341 170.79 191.788 172.281Q206.436 161.892 221.243 151.731C224.959 149.192 231.823 145.431 234.649 142.378ZM317.966 95.2814C315.016 97.6558 311.745 99.7424 308.646 101.923Q300.348 107.816 291.91 113.509C286.922 116.864 281.839 120.106 276.996 123.669C281.464 121.689 285.706 118.798 289.915 116.304Q299.366 110.723 308.899 105.282C311.875 103.567 314.883 101.58 318.035 100.207Q318.1 97.7428 317.966 95.2814ZM228.658 114.032C225.258 116.517 221.407 118.554 217.78 120.695Q206.341 127.406 194.758 133.866C194.581 135.175 194.037 137.454 194.495 138.656C202.823 132.621 211.369 126.803 219.849 120.982C223.186 118.692 226.94 116.678 230.042 114.101L228.658 114.032Z"/>
	<path fill="#F10D5A" d="M228.658 114.032C227.227 113.73 226.028 113.451 224.985 112.373C224.756 111.675 224.749 111.694 225.029 111.016C229.318 107.264 256.714 106.962 263.402 107.073C267.327 107.139 274.124 108.056 277.729 107.359L278.141 107.573C280.129 107.933 286.202 108.377 287.401 110.004C287.452 110.073 287.48 110.154 287.52 110.229C287.274 110.794 286.924 110.953 286.373 111.19C281.635 113.226 276.11 114.132 271.002 114.445C266.825 114.7 262.616 114.617 258.436 114.486C254.443 114.362 231.786 112.635 230.042 114.101L228.658 114.032Z"/>
	<path fill="#F10D5A" d="M112.701 54.8567C114.823 54.6812 116.992 54.6794 119.121 54.6716C128.02 54.6391 138.681 55.5908 145.313 62.2528C148.3 65.2536 150.461 69.7056 151.071 73.8916C151.906 79.6224 151.375 86.5748 151.382 92.4532L151.42 128.816L152.184 235.873C152.189 245.078 149.964 255.021 143.204 261.705C138.774 266.085 132.965 268.491 126.872 269.435C118.864 270.676 111.303 269.305 103.365 268.501C99.4277 268.102 95.3786 267.945 91.4217 267.987C75.3383 268.155 59.3857 270.729 43.2743 270.537Q42.9147 270.54 42.5551 270.539C29.5659 270.51 14.3244 267.587 4.83876 258.064C3.63016 251.624 3.3349 244.731 2.88513 238.189C0.567492 204.482 1.21844 170.847 3.01035 137.133C3.23249 132.954 2.93508 124.357 4.32067 120.89C5.62186 117.634 10.6862 112.736 13.0943 109.806C18.9663 102.661 24.6191 95.3485 30.7108 88.3792C43.4794 73.7712 60.6734 57.2895 80.929 55.5111C85.0775 55.1468 89.222 55.5959 93.3757 55.6038C99.7901 55.6159 106.3 55.2818 112.701 54.8567ZM107.733 63.08C103.653 62.89 92.3374 63.2816 88.5203 64.5131C83.9814 66.8545 79.5713 69.5935 75.1736 72.1949C75.8047 85.7364 77.1615 103.717 67.393 114.476C60.7418 121.801 50.1504 123.807 40.6952 124.214C36.4616 124.397 32.0205 123.954 27.8351 124.413Q21.7338 128.869 15.5288 133.179C15.7919 136.883 15.6552 140.623 15.9636 144.312C18.232 142.756 37.0293 131.517 38.1053 131.447L38.0571 131.75C33.6964 134.857 29.0597 137.685 24.6 140.658C21.7002 142.59 18.832 144.842 15.8385 146.6C15.7311 150.3 15.488 154.025 15.4952 157.724C19.2757 155.463 23.5047 152.259 27.665 150.842C23.9966 153.796 19.5839 156.519 15.4963 158.876C15.2299 162.455 14.5266 166.603 14.8647 170.147C14.7332 171.893 14.5505 173.652 14.4901 175.402C14.2437 179.117 14.1023 182.889 13.6669 186.586L14.0024 186.441C16.568 185.317 18.9776 183.736 21.3827 182.306C26.2597 179.407 31.0853 176.364 36.1179 173.741L36.2756 173.863C34.5294 175.57 31.9934 176.881 29.9368 178.229C24.4847 181.801 18.7427 185.203 13.5862 189.184C13.4785 191.648 12.7742 197.922 13.4769 199.918C13.2005 200.95 12.8769 202.752 13.2898 203.745C12.368 205.335 12.9954 212.335 12.9057 214.466C13.0516 217.264 12.9532 220.272 13.2823 223.034C13.211 226.396 13.3214 230.231 13.925 233.542C14.2165 235.086 14.4953 236.574 14.5342 238.149C15.2419 241.24 15.7681 244.734 17.13 247.612C17.696 249.248 18.7041 252.416 20.0473 253.469C21.1446 255.886 23.9822 258.38 26.5041 259.297C27.0535 259.497 27.5994 259.604 28.1809 259.626C30.3577 260.038 31.9965 259.797 34.1236 259.352C36.7838 259.359 39.4627 259.097 42.1247 259.022C45.4802 258.928 48.8508 258.99 52.2085 258.974C54.1913 259.113 56.2006 259.325 58.188 259.291C63.2431 259.945 68.6925 260.556 73.7957 260.484C75.5265 259.382 77.1997 258.279 79.1184 257.523C78.7204 258.427 76.198 259.979 75.3204 260.661Q82.836 261.39 90.382 261.659L92.6253 260.483L92.8712 260.582L92.3591 261.345C93.4552 262.378 102.755 262.053 104.737 261.989C105.988 261.948 107.209 261.865 108.438 261.614C110.721 262.068 114.435 261.475 116.746 261.037C123.004 260.349 130.066 258.601 134.648 253.985C136.42 252.201 137.761 249.981 138.346 247.523C139.305 243.497 138.811 238.701 138.812 234.576L138.784 212.873C136.797 214.024 124.94 221.54 123.747 221.48C123.974 220.779 136.757 212.031 138.563 210.551L138.747 210.398C138.855 206.545 138.801 202.683 138.796 198.829C135.082 201.191 131.221 203.358 127.436 205.609C125.317 206.869 123.169 208.431 120.918 209.419L120.708 209.265C122.516 207.642 124.771 206.342 126.793 204.978C130.782 202.288 134.827 199.64 138.729 196.827C138.952 193.137 138.811 189.387 138.87 185.686C138.792 183.37 138.803 181.051 138.717 178.736C138.893 175.019 138.804 171.295 138.759 167.576L138.796 162.597C138.571 158.974 138.85 155.213 138.803 151.565C139.226 149.038 138.742 145.816 138.691 143.205C139.133 139.651 138.931 135.528 138.706 131.951C138.978 130.831 138.82 129.443 138.814 128.286C138.491 124.775 138.837 120.948 138.872 117.405C138.906 116.712 138.841 116.017 138.803 115.325C138.663 112.446 139.4 107.052 138.707 104.592C139.108 103.317 138.745 101.025 138.806 99.5876C138.502 96.0171 138.786 92.1825 138.792 88.5894C134.904 91.2354 130.324 93.9124 126.094 95.9474L125.944 95.8778C129.889 92.5851 134.561 90.2091 138.755 87.2536Q138.841 81.958 138.728 76.6629C134.062 78.5099 115.072 91.2132 112.756 91.5081C113.009 90.6349 135.147 76.4704 137.63 74.5681L137.855 74.3933C137.011 72.374 135.641 70.3753 134.067 68.8512C133.483 68.2855 132.579 67.4227 131.716 67.4278C130.276 66.0475 128.119 65.2673 126.218 64.7765C122.375 62.9203 116.26 62.9624 111.995 62.9902C110.578 62.8026 109.158 63.0743 107.733 63.08ZM75.1736 72.1949C79.5713 69.5935 83.9814 66.8545 88.5203 64.5131C86.1332 64.4734 76.6476 63.9837 74.9667 64.9736C74.3617 67.1106 74.9586 69.9946 75.1736 72.1949ZM23.3017 124.088Q19.2903 126.764 15.0321 129.027C15.3112 130.435 15.4946 131.742 15.5288 133.179Q21.7338 128.869 27.8351 124.413C26.329 124.248 24.8138 124.179 23.3017 124.088Z"/>
	<path fill="white" d="M15.3489 123.488C17.9699 123.523 20.7153 123.665 23.3017 124.088Q19.2903 126.764 15.0321 129.027C14.6587 127.186 15.0286 125.31 15.3489 123.488Z"/>
	<path fill="#E3006B" d="M61.6496 72.171C62.7735 73.6713 62.7599 90.7362 62.643 94.1682C62.4413 100.089 61.9804 107.49 57.2543 111.742C49.8441 118.409 30.8046 116.153 21.3124 115.63C20.7172 115.64 20.6366 115.736 20.1268 115.382C21.3802 112.668 41.017 93.8767 44.66 90.1972C50.4602 84.3388 56.2533 78.4066 61.6496 72.171Z"/>
	<path fill="white" d="M40.5181 111.286L40.6971 111.459C39.9538 112.999 37.6537 114.719 36.3993 115.946L33.9941 116.1L33.7483 115.685C35.366 113.941 38.4332 112.555 40.5181 111.286Z"/>
	<path fill="white" d="M62.1439 86.7179C62.5002 87.2881 62.4488 87.5226 62.487 88.1834C61.9613 89.6918 56.5781 92.2052 54.9681 93.1243C54.8746 93.0767 54.8575 92.9455 54.8129 92.8505Q58.3775 89.6636 62.1439 86.7179Z"/>
	<path fill="white" d="M107.733 63.08C109.158 63.0743 110.578 62.8026 111.995 62.9902C116.26 62.9624 122.375 62.9203 126.218 64.7765C128.119 65.2673 130.276 66.0475 131.716 67.4278C132.579 67.4227 133.483 68.2855 134.067 68.8512C135.641 70.3753 137.011 72.374 137.855 74.3933L137.63 74.5681C135.147 76.4704 113.009 90.6349 112.756 91.5081C115.072 91.2132 134.062 78.5099 138.728 76.6629Q138.841 81.958 138.755 87.2536C134.561 90.2091 129.889 92.5851 125.944 95.8778L126.094 95.9474C130.324 93.9124 134.904 91.2354 138.792 88.5894C138.786 92.1825 138.502 96.0171 138.806 99.5876C138.745 101.025 139.108 103.317 138.707 104.592C139.4 107.052 138.663 112.446 138.803 115.325C138.841 116.017 138.906 116.712 138.872 117.405C138.837 120.948 138.491 124.775 138.814 128.286C138.82 129.443 138.978 130.831 138.706 131.951C138.931 135.528 139.133 139.651 138.691 143.205C138.742 145.816 139.226 149.038 138.803 151.565C138.85 155.213 138.571 158.974 138.796 162.597L138.759 167.576C138.804 171.295 138.893 175.019 138.717 178.736C138.803 181.051 138.792 183.37 138.87 185.686C138.811 189.387 138.952 193.137 138.729 196.827C134.827 199.64 130.782 202.288 126.793 204.978C124.771 206.342 122.516 207.642 120.708 209.265L120.918 209.419C123.169 208.431 125.317 206.869 127.436 205.609C131.221 203.358 135.082 201.191 138.796 198.829C138.801 202.683 138.855 206.545 138.747 210.398L138.563 210.551C136.757 212.031 123.974 220.779 123.747 221.48C124.94 221.54 136.797 214.024 138.784 212.873L138.812 234.576C138.811 238.701 139.305 243.497 138.346 247.523C137.761 249.981 136.42 252.201 134.648 253.985C130.066 258.601 123.004 260.349 116.746 261.037C114.435 261.475 110.721 262.068 108.438 261.614C107.209 261.865 105.988 261.948 104.737 261.989C102.755 262.053 93.4552 262.378 92.3591 261.345L92.8712 260.582L92.6253 260.483L90.382 261.659Q82.836 261.39 75.3204 260.661C76.198 259.979 78.7204 258.427 79.1184 257.523C77.1997 258.279 75.5265 259.382 73.7957 260.484C68.6925 260.556 63.2431 259.945 58.188 259.291C56.2006 259.325 54.1913 259.113 52.2085 258.974C48.8508 258.99 45.4802 258.928 42.1247 259.022C39.4627 259.097 36.7838 259.359 34.1236 259.352C31.9965 259.797 30.3577 260.038 28.1809 259.626C27.5994 259.604 27.0535 259.497 26.5041 259.297C23.9822 258.38 21.1446 255.886 20.0473 253.469C18.7041 252.416 17.696 249.248 17.13 247.612C15.7681 244.734 15.2419 241.24 14.5342 238.149C14.4953 236.574 14.2165 235.086 13.925 233.542C13.3214 230.231 13.211 226.396 13.2823 223.034C12.9532 220.272 13.0516 217.264 12.9057 214.466C12.9954 212.335 12.368 205.335 13.2898 203.745C12.8769 202.752 13.2005 200.95 13.4769 199.918C12.7742 197.922 13.4785 191.648 13.5862 189.184C18.7427 185.203 24.4847 181.801 29.9368 178.229C31.9934 176.881 34.5294 175.57 36.2756 173.863L36.1179 173.741C31.0853 176.364 26.2597 179.407 21.3827 182.306C18.9776 183.736 16.568 185.317 14.0024 186.441L13.6669 186.586C14.1023 182.889 14.2437 179.117 14.4901 175.402C14.5505 173.652 14.7332 171.893 14.8647 170.147C14.5266 166.603 15.2299 162.455 15.4963 158.876C19.5839 156.519 23.9966 153.796 27.665 150.842C23.5047 152.259 19.2757 155.463 15.4952 157.724C15.488 154.025 15.7311 150.3 15.8385 146.6C18.832 144.842 21.7002 142.59 24.6 140.658C29.0597 137.685 33.6964 134.857 38.0571 131.75L38.1053 131.447C37.0293 131.517 18.232 142.756 15.9636 144.312C15.6552 140.623 15.7919 136.883 15.5288 133.179Q21.7338 128.869 27.8351 124.413C32.0205 123.954 36.4616 124.397 40.6952 124.214C50.1504 123.807 60.7418 121.801 67.393 114.476C77.1615 103.717 75.8047 85.7364 75.1736 72.1949C79.5713 69.5935 83.9814 66.8545 88.5203 64.5131C92.3374 63.2816 103.653 62.89 107.733 63.08ZM72.8221 180.039C66.7298 182.923 60.8974 186.953 55.0766 190.379C45.9186 195.77 36.6161 200.933 27.4213 206.265C23.2008 208.712 17.2058 212.727 12.9057 214.466C13.0516 217.264 12.9532 220.272 13.2823 223.034C18.1987 219.804 22.8703 215.879 27.6538 212.419C36.8214 205.788 46.1339 199.368 55.2518 192.667C60.3998 188.883 68.3623 184.055 72.8221 180.039ZM138.691 143.205C125.246 153.238 111.528 163.007 97.9055 172.803C92.3198 176.82 85.5058 180.866 80.3775 185.244C85.0467 183.011 89.4932 180.001 93.9751 177.4L121.124 161.65C126.934 158.252 132.773 154.538 138.803 151.565C139.226 149.038 138.742 145.816 138.691 143.205ZM71.8077 216.007C66.7861 218.587 61.9974 221.816 57.1248 224.681Q44.2414 232.15 31.2758 239.476C26.5617 242.169 21.9379 245.092 17.13 247.612C17.696 249.248 18.7041 252.416 20.0473 253.469Q38.806 239.453 57.967 225.993C61.7124 223.314 69.1405 219.009 71.8077 216.007ZM138.717 178.736Q127.615 186.561 116.673 194.608C113.259 197.087 109.739 200.158 106.007 202.101C106.506 202.71 107.059 203.305 107.434 204C110.927 201.342 115.193 199.276 119.001 197.058C125.577 193.226 132.122 189.203 138.87 185.686C138.792 183.37 138.803 181.051 138.717 178.736ZM86.3242 93.4447C91.0053 91.5874 95.5726 88.1868 99.9273 85.6102C105.459 82.3372 111.095 79.2349 116.654 76.0064C121.621 73.1215 126.59 70.0183 131.716 67.4278C130.276 66.0475 128.119 65.2673 126.218 64.7765C124.198 67.2648 119.791 69.7923 117.097 71.7265Q108.577 77.9383 99.9084 83.9406C95.3731 87.071 90.6772 90.0688 86.3242 93.4447ZM14.8647 170.147C14.7332 171.893 14.5505 173.652 14.4901 175.402C24.1565 168.367 34.0955 161.626 43.9295 154.825C47.8908 152.086 52.2234 149.651 55.9535 146.605L55.7037 146.52C51.8267 148.138 44.5438 153.012 40.6581 155.316C32.1232 160.374 23.4575 165.19 14.8647 170.147ZM56.6345 208.878C45.5866 214.836 34.8714 221.731 23.8885 227.899C20.6044 229.743 17.3586 232.016 13.925 233.542C14.2165 235.086 14.4953 236.574 14.5342 238.149C16.8935 236.759 19.1155 234.99 21.3736 233.43L37.7638 221.984C43.6216 217.923 51.4454 213.479 56.6345 208.878ZM96.4722 128.969C100.924 126.651 105.196 123.942 109.523 121.398Q118.723 115.992 127.998 110.717C131.492 108.704 135.057 106.271 138.707 104.592C139.108 103.317 138.745 101.025 138.806 99.5876Q125.763 108.908 112.49 117.896C107.152 121.508 101.492 124.939 96.4722 128.969ZM138.796 162.597C131.362 167.706 124.069 173.023 116.607 178.089C113.536 180.174 98.7471 189.502 97.114 191.423C97.7762 191.528 134.245 169.762 138.759 167.576L138.796 162.597ZM48.1774 179.763C42.4543 182.642 36.948 186.226 31.4543 189.526Q22.5285 194.831 13.4769 199.918C13.2005 200.95 12.8769 202.752 13.2898 203.745C20.821 198.139 28.8118 192.947 36.6329 187.752C40.3833 185.261 44.8919 182.819 48.1774 179.763ZM138.814 128.286C128.331 136.719 116.15 143.079 105.376 151.124C107.914 150.109 110.28 148.53 112.63 147.143L123.204 140.906C128.307 137.907 133.793 135.215 138.706 131.951C138.978 130.831 138.82 129.443 138.814 128.286ZM52.2085 258.974C54.1913 259.113 56.2006 259.325 58.188 259.291C61.6154 256.917 64.8478 254.134 68.2032 251.638C72.2852 248.601 76.5207 245.781 80.5761 242.708C76.6125 244.259 72.8058 247.1 69.1317 249.281Q60.7205 254.215 52.2085 258.974ZM59.0947 241.779C53.3192 244.409 47.8 248.196 42.3425 251.44C37.6701 254.218 32.7617 256.722 28.1809 259.626C30.3577 260.038 31.9965 259.797 34.1236 259.352C42.2731 253.232 50.9756 247.9 59.0947 241.779ZM108.438 261.614C110.721 262.068 114.435 261.475 116.746 261.037C119.202 258.037 122.05 255.297 124.443 252.291C119.129 255.413 113.917 258.783 108.438 261.614ZM107.733 63.08C102.546 67.5768 94.6811 71.3457 90.124 75.7895C94.5544 73.397 98.8439 70.7129 103.192 68.1721C106.104 66.4698 109.25 64.9372 111.995 62.9902C110.578 62.8026 109.158 63.0743 107.733 63.08ZM138.803 115.325L138.589 115.487C131.765 120.562 124.001 124.478 117.311 129.726C119.607 129.637 135.006 118.897 138.872 117.405C138.906 116.712 138.841 116.017 138.803 115.325Z"/>
	<path fill="#F10D5A" d="M48.7086 208.817C47.7719 207.808 46.3712 206.421 46.2475 204.982C46.1912 204.326 46.3302 203.873 46.738 203.358C51.3474 197.535 95.2516 201.459 104.721 200.682C105.183 201.093 105.593 201.637 106.007 202.101C106.506 202.71 107.059 203.305 107.434 204C107.389 204.426 107.334 204.856 107.228 205.272C106.448 208.331 100.182 208.596 97.6362 209.552C95.9275 210.194 94.4305 211.42 92.8787 212.369C92.0778 212.859 90.7884 213.834 89.887 213.61L90.2609 213.814L89.6737 213.976L89.8821 213.767C90.0666 213.792 90.4602 213.433 90.6163 213.322L90.2437 213.462Q92.9478 211.366 95.714 209.352C88.8953 209.382 82.1235 209.521 75.2997 209.31C66.4408 209.036 57.5719 208.394 48.7086 208.817Z"/>
	<path fill="#F10D5A" d="M61.537 157.359C75.2823 156.609 89.1328 157.707 102.897 157.549C103.575 157.902 104.2 158.31 104.832 158.739C105.985 159.522 107.771 160.64 107.978 162.149C108.05 162.675 107.913 163.158 107.571 163.577C105.161 166.535 95.8441 166.632 92.188 166.852C88.5464 167.133 84.8304 167.038 81.1776 167.035C70.9693 167.029 60.7399 166.477 50.5375 166.671Q49.7322 166.19 48.9614 165.656C47.7223 164.811 45.7514 163.578 45.6354 161.904C45.5987 161.375 45.8059 160.909 46.1463 160.517C48.583 157.709 57.8428 157.572 61.537 157.359Z"/>
</svg>
