<?xml version="1.0" encoding="utf-8" ?>
<svg xmlns="http://www.w3.org/2000/svg" xmlns:xlink="http://www.w3.org/1999/xlink" width="512" height="512">
	<path fill="#00FF59" d="M207.977 442.865C209.507 441.879 211.679 440.041 213.567 440.098C214.53 440.126 214.933 440.514 215.576 441.141C213.077 441.786 210.544 442.571 207.977 442.865Z"/>
	<path fill="#00D1D1" d="M178.369 159.629C180.009 158.736 181.764 157.64 183.704 158.21C184.665 158.492 185.384 159.169 186.046 159.887C183.935 160.521 180.586 159.835 178.369 159.629Z"/>
	<path fill="#F10D5A" d="M215.467 4.6056L217.898 5.5627C215.33 6.29695 208.784 9.13128 206.957 9.20305C210.09 7.18926 211.678 5.66795 215.467 4.6056Z"/>
	<path fill="#00D1D1" d="M90.194 164.386C88.9776 167.116 85.939 169.814 84.0289 172.209C83.82 171.199 83.6345 170.279 83.9775 169.275C84.8406 166.75 88.0072 165.549 90.194 164.386Z"/>
	<path fill="#2B2D42" d="M217.898 5.5627C228.722 4.05981 239.207 4.0062 250.107 4.76793C255.35 5.13434 260.656 5.79959 265.896 6.01627C267.944 6.10096 269.861 4.89226 271.866 4.98715C273.363 5.05799 274.371 6.2385 275.816 6.51143C280.492 7.3949 291.056 7.72129 295.058 5.25688C299.873 5.46631 306.646 5.99722 310.051 9.78827C315.631 16.0014 314.77 26.7771 314.195 34.538C313.729 40.8265 312.841 47.2002 312.804 53.5035C312.775 58.2851 314.336 63.3625 313.352 68.0762C312.863 70.4219 311.385 72.965 309.528 74.4926C307.477 76.1809 296.107 80.8706 294.041 80.5082C293.092 80.3416 292.203 79.8294 291.242 79.6963C287.415 79.1662 283.223 79.7368 279.325 79.45L279.37 124.458C279.369 131.087 278.932 138.887 279.44 145.403C283.756 147.803 297.434 157.36 300.835 158.145C305.439 159.207 320.127 158.495 325.497 158.421C330.284 158.355 335.077 158.503 339.871 158.43C351.849 158.248 412.081 156.646 420.034 160.207C426.175 162.956 430.567 169.5 432.361 175.79C436.094 188.883 433.261 203.446 432.477 216.778C432.117 222.898 432.268 228.756 432.857 234.86C441.31 233.737 453.751 232.629 460.919 237.99C465.097 241.114 466.792 246.246 467.412 251.23C468.44 259.492 467.044 267.664 466.966 275.915C466.903 282.496 467.8 289.027 467.146 295.608C466.85 298.592 466.339 301.756 464.779 304.362C461.05 306.615 456.243 309.081 452.062 310.296C449.398 311.07 446.377 311.246 443.626 311.595C423.109 314.195 402.447 311.116 381.889 310.393C379.086 310.294 376.236 310.387 373.437 310.568C370.205 310.778 366.406 311.612 363.251 310.849C359.411 309.92 355.966 307.027 354.029 303.636C348.071 293.207 352.575 273.669 352.766 261.772C352.852 256.435 351.258 250.639 352.722 245.419C353.683 241.993 356.251 239.272 359.351 237.633C367.115 233.526 377.821 234.35 386.358 234.81C386.035 230.622 386.253 226.291 386.261 222.086L386.288 198.806C379.509 198.73 372.535 198.055 366.029 200.23L363.478 199.452C359.531 198.233 348.757 198.368 344.673 199.107C343.194 199.375 341.829 199.924 340.471 200.552C338.85 199.85 337.373 199.188 335.611 198.942C335.461 198.921 335.312 198.895 335.162 198.875C331.484 198.382 323.38 198.436 319.695 199.149C318.342 199.41 317.047 199.987 315.776 200.505C314.493 200.014 313.174 199.434 311.835 199.124C308.151 198.27 300.837 198.213 297.431 199.772C295.353 200.723 293.355 202.116 291.406 203.311C287.417 205.757 283.457 208.271 279.418 210.632L279.408 266.682L279.415 283.425C279.42 287.055 279.548 290.731 279.286 294.353C287.913 293.213 299.917 292.065 307.276 297.615C311.439 300.754 313.149 305.553 313.829 310.561C314.714 317.085 313.65 323.135 313.62 329.594C313.567 340.731 316.483 355.602 309.107 365.089C305.705 369.466 300.621 371.229 295.281 371.844C290.302 372.416 284.232 372.251 279.292 371.237Q279.413 388.522 279.351 405.808Q279.413 422.961 279.28 440.114C292.795 438.632 307.45 439.172 318.578 448.021Q319.159 448.475 319.717 448.957Q320.275 449.44 320.807 449.95Q321.34 450.46 321.847 450.996Q322.353 451.532 322.832 452.093Q323.31 452.654 323.76 453.238Q324.21 453.822 324.63 454.429Q325.05 455.035 325.439 455.661Q325.828 456.288 326.184 456.934Q326.541 457.579 326.865 458.241Q327.189 458.904 327.479 459.582Q327.769 460.26 328.024 460.952Q328.28 461.644 328.5 462.347Q328.721 463.051 328.905 463.765Q329.09 464.479 329.239 465.201Q329.387 465.924 329.499 466.652Q329.611 467.381 329.686 468.115Q329.77 468.951 329.812 469.79Q329.855 470.629 329.855 471.469Q329.856 472.309 329.815 473.148Q329.774 473.987 329.692 474.822Q329.609 475.658 329.485 476.489Q329.361 477.32 329.197 478.144Q329.032 478.967 328.826 479.782Q328.62 480.596 328.375 481.399Q328.129 482.203 327.843 482.993Q327.558 483.783 327.234 484.558Q326.91 485.332 326.548 486.09Q326.185 486.848 325.786 487.587Q325.387 488.326 324.951 489.044Q324.516 489.763 324.045 490.458Q323.574 491.154 323.07 491.826Q322.565 492.497 322.028 493.143C314.734 502.073 303.781 506.734 292.505 507.806C288.758 508.162 285.134 508.152 281.389 507.818C278.82 507.589 276.089 507.132 273.513 507.225C270.645 507.329 267.738 507.82 264.883 508.128Q258.939 508.717 252.976 509.054C232.994 510.135 206.885 508.147 190.939 494.805C185.342 490.121 181.069 483.594 180.421 476.199C179.774 468.819 182.674 461.731 187.402 456.158C191.889 450.867 197.702 447.342 203.98 444.557C205.272 443.984 206.624 443.265 207.977 442.865C210.544 442.571 213.077 441.786 215.576 441.141C221.307 440.314 226.966 440.02 232.754 440.094C232.408 436.988 232.585 433.714 232.585 430.589L232.586 414.549C232.582 400.169 232.17 385.661 232.695 371.295C226.883 371.843 220.931 372.382 215.116 371.645C210.015 370.998 205.244 369.273 202.041 365.06C195.592 356.578 198.456 344.194 198.398 334.356C198.354 327.042 197.462 319.949 198.468 312.626C199.249 306.936 201.129 301.196 205.899 297.631C213.132 292.226 224.327 293.118 232.709 294.345C232.477 291.373 232.656 288.274 232.659 285.29L232.667 267.804L232.689 213.237C229.545 210.925 213.369 200.613 210.741 199.757C206.198 198.277 199.225 199.773 194.435 199.866C191.359 199.926 188.261 199.23 185.119 199.267C181.401 199.31 177.633 199.886 173.954 199.842C170.215 199.797 166.526 199.263 162.75 199.285C160.564 199.299 158.467 200.071 156.354 200.076C154.859 200.08 153.306 199.545 151.814 199.379C149.298 199.101 127.725 199.032 126.574 199.582C126.383 199.673 126.242 199.843 126.077 199.974C125.329 203.535 125.747 207.798 125.749 211.441C125.751 219.245 125.876 227.067 125.696 234.869C131.722 234.281 138.047 233.878 144.075 234.555C148.748 235.08 153.585 236.56 156.574 240.431C162.592 248.224 159.967 261.673 160.035 270.833C160.092 278.5 161.039 285.996 159.911 293.651C159.1 299.151 157.116 304.773 152.469 308.179C149.056 310.681 144.874 311.592 140.726 311.923C132.707 312.564 125.179 310.022 117.292 310.126C115.294 310.152 113.306 310.477 111.311 310.56C108.769 310.665 106.262 310.504 103.716 310.734C90.7638 311.904 76.6844 314.392 63.7099 312.276C57.6039 311.28 51.7872 309.058 48.1073 303.825Q47.5879 303.096 47.1497 302.316Q46.7115 301.536 46.3594 300.713Q46.0074 299.89 45.7456 299.035Q45.4838 298.179 45.3152 297.3C44.5962 293.425 44.982 289.118 44.8745 285.168C44.5841 274.493 43.4656 263.412 45.2751 252.82C46.3384 246.596 48.2456 241.156 53.5942 237.415C60.8061 232.371 70.9576 233.37 79.1222 234.863C78.5773 231.789 78.3779 228.598 78.0791 225.488C76.7064 211.195 76.2785 195.911 80.1777 181.954C81.1187 178.586 82.7328 175.449 84.0289 172.209C85.939 169.814 88.9776 167.116 90.194 164.386C93.292 162.253 97.1915 159.962 100.758 158.799C102.737 158.154 104.979 157.935 107.034 157.618C120.61 155.524 134.113 156.662 147.728 157.841C153.577 158.348 159.585 159.439 165.363 158.049C169.192 159.662 174.257 160.554 178.369 159.629C180.586 159.835 183.935 160.521 186.046 159.887C186.378 160.035 186.627 160.144 186.989 160.206C190.437 160.794 194.797 160.233 198.315 160.094C203.116 159.903 208.347 159.836 213.011 158.62C218.888 157.087 227.486 150.869 232.788 147.391Q232.535 124.187 232.669 100.982C232.672 94.1739 233.12 87.047 232.578 80.2825C232.106 79.9279 231.931 79.8409 231.313 79.8164C229.517 79.7453 227.502 80.1911 225.701 80.3689C219.805 80.9511 213.293 81.0648 207.828 78.4314C203.52 76.3558 200.976 73.0424 199.451 68.5772C196.042 58.5951 198.558 39.8751 198.834 28.8345C198.911 25.7495 198.265 21.1249 198.823 18.2916C199.27 16.0227 201.388 13.9644 202.387 11.8522C202.432 11.7565 202.475 11.6597 202.519 11.5635L206.957 9.20305C208.784 9.13128 215.33 6.29695 217.898 5.5627ZM223.805 446.548C221.062 446.484 218.35 446.943 215.73 447.73C209.152 448.776 202.7 452.966 198.781 458.302C195.631 462.592 193.704 467.609 194.569 472.995C194.585 473.094 194.609 473.192 194.629 473.29C194.721 475.443 195.207 477.478 195.405 479.604C196.543 482.8 197.7 486.314 199.983 488.897C200.642 489.083 200.885 489.065 201.501 488.743C204.181 487.344 212.317 481.695 214.386 481.146L214.386 481.447C213.305 482.516 212.011 483.225 210.799 484.123C207.885 486.282 204.455 488.539 201.891 491.075C203.676 492.908 207.676 496.384 210.29 496.654L210.414 496.605C213.621 498.695 218.38 499.489 222.116 500.189C226.86 500.745 232.403 501.747 237.144 501.035C241.713 501.555 247.177 501.209 251.75 500.625C255.699 500.995 268.139 500.158 271.533 498.719C275.561 497.009 279.295 494.045 283.217 492.02C280.71 494.702 277.385 496.515 274.911 499.271C278.596 499.209 290.099 499.843 292.98 498.785C295.701 497.786 298.406 495.643 300.892 494.106C299.32 496.146 297.301 497.904 295.618 499.888C298.203 499.742 300.704 499.328 303.14 498.428Q303.641 498.245 304.132 498.037Q304.624 497.829 305.104 497.596Q305.584 497.364 306.052 497.107Q306.519 496.851 306.974 496.571Q307.428 496.291 307.867 495.989Q308.307 495.687 308.731 495.363Q309.155 495.039 309.562 494.694Q309.969 494.349 310.358 493.984Q310.747 493.619 311.117 493.235Q311.487 492.85 311.838 492.448Q312.188 492.046 312.518 491.626Q312.847 491.207 313.155 490.771Q313.463 490.336 313.749 489.885Q314.035 489.435 314.298 488.971Q314.56 488.506 314.799 488.029Q315.038 487.552 315.253 487.064C318.637 479.568 318.087 471.102 315.203 463.565C314.5 461.967 313.795 459.927 312.486 458.733C312.478 458.633 312.495 458.528 312.463 458.432C311.605 455.891 307.883 452.979 305.781 451.514C302.645 449.404 299.295 447.872 295.472 447.645C294.651 447.401 293.932 447.316 293.074 447.325C291.192 447.344 277.942 448.224 276.894 448.512C276.821 448.484 276.748 448.453 276.674 448.426C276.565 448.386 276.455 448.351 276.346 448.312C275.013 447.839 273.049 448.219 271.611 448.17C268.867 447.624 258.522 446.806 256.049 447.09C255.464 446.965 254.889 447.043 254.299 447.088C252.355 445.96 243.395 445.99 240.695 445.841C235.556 445.634 228.713 444.853 223.805 446.548ZM275.83 9.58937C272.355 9.33943 261.856 10.0327 258.827 11.091C256.34 11.0172 253.711 11.2941 251.234 11.5323C248.368 11.5309 235.103 11.5185 233.301 12.4644C228.51 11.8828 223.67 11.8517 218.857 11.5362C216.573 11.3373 214.335 11.2245 212.042 11.2511C211.418 19.2425 210.619 27.5223 210.42 35.5173C211.014 35.1549 211.628 34.6513 212.345 34.647C212.036 35.4991 211.046 36.1309 210.36 36.7012C210.251 38.4322 209.369 48.1683 210.193 49.1618C214.677 46.8898 218.816 43.9255 223.269 41.5823C222.001 43.2165 212.067 50.8834 209.939 52.2127C210.148 58.8951 210.528 66.2269 214.449 71.8896L214.794 72.3949C215.415 72.9595 216.045 73.4678 216.719 73.9672C220.145 74.2661 223.808 74.5553 227.233 74.1704C230.163 74.414 239.644 74.3469 242.466 73.9403C243.816 73.7458 245.228 73.3 246.44 72.6733C249.286 71.203 251.681 69.0717 254.66 67.7806L254.977 67.6468C253.173 69.4409 247.906 72.3214 247.117 74.3223C250.148 75.126 262.194 74.3041 265.287 73.0688C266.702 73.9007 268.299 73.6052 269.901 73.5065C275.22 73.4343 280.361 74.6555 285.714 74.1314C287.443 74.265 289.355 74.4079 291.071 74.1459C293.989 74.4749 297.104 74.2548 300.04 74.2263C301.713 59.822 303.182 44.9952 301.983 30.5016Q301.583 27.5802 301.011 24.6876C300.274 21.2622 299.179 17.8848 296.859 15.1859C294.837 16.3682 292.816 17.5216 290.731 18.5934C291.925 17.0744 294.671 15.2567 296.463 14.6217C293.503 11.6784 290.317 10.3838 286.239 9.79815C284.457 8.88733 277.907 9.36291 275.83 9.58937ZM105.987 242.869C104.666 243.811 103.408 244.748 101.837 245.232C102.803 244.421 103.755 243.587 104.777 242.847C100.263 242.81 88.727 242.001 84.953 243.976C82.6283 245.192 80.7709 247.13 78.4886 248.432C80.0824 245.957 82.3704 244.441 84.9778 243.192C82.4268 242.973 66.6685 242.538 65.3929 243.318C65.2691 243.394 65.1431 243.465 65.0199 243.542C64.9245 243.601 64.8314 243.664 64.7372 243.725L64.3011 243.689L64.4117 243.128C62.6721 242.592 60.1406 242.934 58.3164 242.946C58.1906 255.841 56.3876 268.656 56.4966 281.596C58.3504 280.44 60.2365 279.028 62.2385 278.178L62.5206 278.253C61.1058 280.009 58.4897 281.46 56.5748 282.628C56.5914 286.391 57.0236 289.995 57.4091 293.721C57.9337 295.834 58.4592 297.921 59.1805 299.979C59.8613 301.236 60.6292 302.23 61.7394 303.141C65.3265 303.356 69.1909 303.449 72.7637 303.073C75.7717 303.276 81.2085 303.763 84.0066 302.974C87.3327 303.545 98.7944 303.688 101.833 302.852C103.044 303.565 107.865 303.299 109.271 303.001C114.493 303.757 121.089 303.214 126.432 303.204C131.92 303.193 137.633 303.592 143.094 303.175C144.335 303.08 145.715 302.964 146.788 302.296C147.23 300.12 146.779 297.236 146.832 294.976C146.942 290.353 147.305 285.721 147.543 281.102C145.953 282.053 144.376 283.065 142.669 283.791C144.211 282.159 146.039 280.831 147.676 279.296C147.933 274.846 148.428 270.492 148.252 266.023C148.463 264.584 148.515 262.628 148.193 261.209C148.657 258.109 147.846 252.995 146.747 250.099C146.029 247.876 145.057 246.097 143.779 244.148C142.881 243.105 142.35 243.01 141.006 242.908C137.725 242.658 130.998 242.152 127.944 243.061C125.836 243.688 123.595 246.333 121.484 246.408L121.352 246.253C122.228 245.452 123.113 244.813 123.644 243.724C123.581 243.361 123.663 243.158 123.304 242.965C121.999 242.263 108.526 242.749 105.987 242.869ZM430.806 241.386C427.502 241.009 413.469 242.449 410.306 243.616C408.399 242.824 398.567 243.564 396.049 243.951C389.983 244.074 383.808 243.689 377.766 244.048C375.697 243.766 373.572 243.684 371.486 243.663C369.534 243.288 367.539 243.151 365.561 242.969Q365.408 248.517 364.959 254.049C364.787 256.415 364.418 258.907 364.597 261.272L364.822 261.354C365.78 260.884 366.727 260.39 367.718 259.996C369.057 259.463 370.511 257.566 371.861 257.488C371.915 258.018 371.997 257.835 371.719 258.2C371.459 258.542 371.158 258.743 370.818 258.996C368.529 260.699 365.843 263.892 364.269 266.284C363.681 270.72 363.257 276.228 363.797 280.665C363.768 282.813 363.741 284.914 364.02 287.05C363.651 290.599 364.853 295.05 365.781 298.448C367.896 296.79 370.398 295.173 372.922 294.224C370.736 295.949 368.204 297.364 366.137 299.204C366.862 300.6 367.585 301.902 368.726 303.016C371.557 303.268 375.308 303.673 378.049 302.87C379.454 303.631 385.786 303.087 387.63 302.941C391.773 303.221 401.603 303.823 405.189 302.873Q408.717 303.257 412.257 303.006C417.492 303.364 422.824 303.185 428.069 303.18L453.613 303.151C455.18 296.531 455.86 284.985 455.636 278.096Q452.821 279.618 450.089 281.282C450.857 279.53 454.19 277.363 455.723 276.112C455.851 272.03 455.881 267.897 455.432 263.835C455.504 262.685 455.347 261.352 455.022 260.245C455.283 256.813 453.799 252.731 452.526 249.608C451.391 250.43 450.109 251.456 448.735 251.788C449.792 250.654 450.959 249.821 452.436 249.326C451.412 247.543 450.298 245.918 448.775 244.519C447.784 243.608 446.169 242.495 444.777 242.567C442.398 240.827 433.881 240.969 430.806 241.386ZM280.06 303.026L277.069 304.717C277.104 304.19 277.222 303.664 277.312 303.144C274.848 302.614 271.546 302.927 269.019 302.982C264.929 302.946 254.52 302.297 251.077 303.372C251.01 303.369 250.943 303.372 250.876 303.362C247.584 302.886 244.364 302.943 241.042 302.967C237.503 302.943 225.975 302.396 223.308 303.194C220.55 304.019 217.665 306.288 215.244 307.839C216.33 306.266 217.338 304.731 218.187 303.017C216.321 302.742 214.451 302.31 212.776 303.461C211.612 304.26 211.077 305.631 210.866 306.978C210.225 311.058 211.18 315.892 211.621 319.994C212.895 318.978 214.214 318.177 215.628 317.373Q213.845 319.551 211.757 321.439C211.46 325.96 210.531 332.329 210.797 336.643C210.49 338.167 210.526 339.667 210.4 341.204C210.102 343.235 209.717 351.206 210.816 352.718C210.88 352.806 210.951 352.888 211.019 352.974C210.572 354.33 211.685 356.759 212.212 358.057C213.124 359.836 214.14 361.273 215.571 362.679C223.64 362.828 223.676 362.776 230.458 358.58C231.813 357.742 233.16 356.765 234.627 356.139C235.569 355.736 235.927 355.537 236.682 356.283L236.203 355.88C236.126 355.987 236.053 356.096 235.974 356.201C234.102 358.679 230.437 360.308 228.074 362.399C230.529 362.931 233.605 362.674 236.126 362.701C238.698 362.728 241.404 362.92 243.95 362.58C249.518 361.835 254.405 357.126 259.396 354.747L259.175 354.936C256.668 357.058 251.887 360.97 249.036 362.372L249.038 362.369C249.4 362.401 249.588 362.491 249.935 362.573C252.093 363.087 264.901 362.829 267.732 362.455C269.981 362.63 272.261 362.32 274.494 362.554C275.554 362.886 288.546 362.892 290.238 362.682C291.625 362.509 293.071 361.983 294.411 361.584L294.559 361.801L294.187 362.497C294.645 362.709 294.982 362.768 295.479 362.731C297.025 362.618 298.402 361.835 299.391 360.658C303.975 355.204 301.24 340.203 300.699 333.433C300.15 333.763 299.51 334.28 298.87 334.224C299.216 333.503 300.008 333.163 300.667 332.76C300.579 328.701 300.938 324.578 301.075 320.515C298.993 321.588 297.092 322.962 294.945 323.922L294.831 323.801C296.545 321.942 299.019 320.535 301.127 319.144C301.164 315.561 301.364 311.652 300.53 308.149C299.809 306.161 298.888 304.423 297.102 303.211C296.381 302.881 295.664 302.565 294.874 302.453C292.177 302.07 289.18 302.605 286.472 302.803C284.34 302.959 282.196 302.972 280.06 303.026ZM203.593 174.469C202.676 175.7 202.112 177.242 202.319 178.8C202.37 179.18 202.487 179.525 202.615 179.884C202.532 181.17 203.763 182.6 204.578 183.524C205.775 184.882 207.478 186.575 209.148 187.293C210.809 188.969 213.343 190.237 215.428 191.351C218.627 192.845 221.54 194.593 224.476 196.546C226.695 198.053 229.124 199.723 231.526 200.905L240.966 206.225C242.624 205.251 244.294 204.144 246.088 203.445C244.94 204.642 243.314 205.784 241.875 206.607Q246.381 209.486 250.835 212.444C254.339 210.137 258.049 208.14 261.649 205.988C264.511 204.276 267.332 202.287 270.372 200.912C268.845 202.436 262.037 208.099 260.249 208.745C258.27 210.962 256.067 212.905 253.675 214.666C254.811 215.706 255.873 216.861 256.96 217.956C259.946 216.108 263.33 214.341 266.026 212.087C267.26 211.055 267.801 209.412 269.16 208.532C270.625 207.584 272.868 207.247 274.528 206.701C277.053 205.87 279.515 204.322 281.852 203.066C288.614 199.429 303.854 191.211 307.198 184.549C307.232 184.508 307.27 184.471 307.299 184.428C308.203 183.1 308.846 181.835 308.604 180.215C308.884 179.705 308.981 179.294 308.917 178.705C308.594 175.751 306.087 173.264 303.901 171.47Q300.508 173.471 297.087 175.423C298.962 173.705 301.119 172.242 303.158 170.724C300.328 168.823 297.471 166.955 294.446 165.379C292.641 163.743 289.48 162.601 287.24 161.569L287.02 161.315C285.897 160.41 278.458 156.537 277.259 156.414C275.526 154.911 273.174 153.777 271.197 152.604C268.042 150.862 265.148 148.638 261.989 146.876C261.343 145.953 259.797 145.157 258.877 144.478L257.961 144.142C257.453 143.018 255.961 142.773 255.305 141.851C254.854 141.219 255.999 140.511 255.327 140.121C255.256 140.178 255.185 140.236 255.114 140.292C251.766 142.935 247.767 145.091 244.147 147.354C236.891 151.888 229.662 156.484 222.356 160.935C217.9 163.65 213.251 166.066 209.028 169.146C207.19 170.486 204.657 172.427 203.593 174.469ZM387.551 164.063C384.975 163.593 380.205 164.218 377.675 164.809C374.733 164.495 361.185 165.567 358.509 166.6C356.772 165.828 352.987 166.629 351.098 167.041C348.358 166.625 335.179 166.763 332.777 167.357C331.294 166.789 329.064 167.03 327.494 167.106C325.6 169.319 323.186 171.097 321.35 173.329L321.673 173.716C322.105 176.791 321.995 179.408 320.502 182.229C320.123 182.945 319.583 183.663 319.523 184.486L319.886 184.63C320.543 184.253 321.241 183.684 321.996 183.714C321.452 185.162 313.516 191.729 311.943 193.253C316.61 194.266 324.147 193.87 329.012 193.551C331.496 193.905 334.759 193.903 337.221 193.439C340.103 194.095 350.953 194.048 353.787 193.435C355.439 193.999 360.927 193.869 362.626 193.511C365.552 194.102 376.46 194.051 379.224 193.392C380.907 194.08 389.918 193.874 391.766 193.501C393.146 193.93 395.214 193.738 396.688 193.78C397.262 195.07 398.477 199.694 399.365 200.245C401.09 199.964 402.969 198.421 404.434 197.5C403.139 199.329 401.099 200.634 399.961 202.532C398.628 204.758 399.115 211.47 399.098 214.389C399.095 215.067 399.247 216.169 399.072 216.805C399.037 216.932 398.961 217.045 398.905 217.165L399.124 217.288L399.114 218.155C401.297 217.37 403.281 215.753 405.378 214.713L405.682 214.565C404.021 216.186 402.356 217.82 400.829 219.57C397.17 223.764 398.262 229.795 398.614 234.957Q409.598 234.863 420.582 234.923C420.866 227.868 421.523 220.849 421.736 213.782C418.878 214.952 416.443 217.007 413.571 218.181C416.45 215.437 418.933 212.359 421.72 209.532C422.13 204.909 421.894 200.021 421.42 195.406Q418.078 197.289 414.791 199.265C416.438 196.837 418.983 194.564 421.046 192.456C420.982 188.235 420.005 183.47 418.501 179.527C417.93 178.116 417.349 176.766 416.611 175.433C415.325 171.59 411.511 168.467 408.068 166.597C406.243 165.703 404.265 165.144 402.272 164.775C398.021 163.451 391.903 163.329 387.551 164.063ZM105.851 164.56C102 165.148 98.6501 167.428 96.3656 170.543C92.9761 175.165 90.3842 184.898 90.8408 190.59C90.4512 192.786 90.4694 195.02 90.4187 197.244C89.8151 200.491 89.8303 207.073 90.309 210.348Q90.4923 214.155 90.5797 217.965C93.499 215.912 96.2157 213.318 98.9638 211.031L114.435 198.324Q116.095 196.398 117.869 194.577C122.009 190.374 132.588 193.439 137.973 193.016C141.997 193.276 149.405 193.618 153.297 193.092C158.693 193.672 165.928 193.315 171.392 192.757L171.628 193.362L171.697 192.989L171.566 192.872C171.666 192.927 171.761 192.992 171.866 193.037C173.388 193.686 186.695 193.278 188.566 192.671C190.627 192.003 192.373 190.464 194.435 189.674C194.538 189.634 194.641 189.598 194.745 189.56C193.761 190.88 192.498 191.864 191.24 192.909C194.205 193.454 197.544 193.183 200.56 193.151C196.978 191.421 193.56 189.782 191.473 186.187C190.029 183.699 189.746 180.932 190.576 178.183C191.691 174.486 194.863 170.544 198.091 168.469C199.404 167.625 200.87 166.957 202.243 166.21L201.919 166.159L202.216 166.133C201.138 166.003 200.292 166.283 199.297 166.693L199.609 166.186L199.403 165.966C194.386 166.357 189.215 166.132 184.24 166.782C180.731 166.3 176.715 166.687 173.145 166.675C165.672 166.65 157.801 166.542 150.366 165.696C148.237 165.39 145.962 165.403 143.804 165.22C140.914 164.975 137.878 164.444 134.983 164.548C132.215 163.772 123.252 163.069 120.555 163.64C118.292 162.55 109.329 163.354 106.733 164.222C106.434 164.322 106.142 164.438 105.851 164.56ZM245.02 220.726L245.116 227.556C247.29 226.237 249.504 224.677 251.829 223.655C249.683 226.315 247.24 228.661 245.097 231.352C245.082 234.203 244.497 243.531 245.32 245.521L246.08 245.622C245.937 246.27 245.583 246.658 245.179 247.159C244.951 249.756 244.56 258.114 245.412 260.254C246.015 260.126 246.42 259.756 246.896 259.388L247.267 259.382L247.284 259.943L246.047 261.16C244.9 262.284 245 263.445 244.986 264.956C244.97 266.719 244.695 274.808 245.417 276.005L245.544 276.039L245.601 275.732L245.774 275.586L246.003 275.728C247.819 274.632 249.61 273.517 251.372 272.336C249.983 275.028 247.023 277.207 245.186 279.695C244.949 284.475 244.724 289.592 245.183 294.355L247.339 293.258C247.464 293.569 247.337 293.673 247.222 293.977L247.706 294.041L247.189 294.153C248.996 294.935 263.852 294.394 267.014 294.481C266.481 287.058 266.91 279.434 266.836 271.985C264.677 273.004 262.585 274.241 260.562 275.508C262.461 273.024 264.9 270.979 266.762 268.485C266.862 265.502 267.319 256.151 266.719 253.882L266.406 253.684C265.854 254.111 265.324 254.625 264.662 254.854L264.401 254.633C264.818 253.616 266.155 252.958 266.8 252.018C266.822 250.018 267.244 240.041 266.931 238.766C266.847 238.428 266.63 238.114 266.45 237.825C266.97 233.084 266.994 228.192 266.856 223.425C266.922 222.102 266.892 220.873 266.767 219.555L266.571 219.139C265.379 219.102 263.939 220.222 262.865 220.726C256.948 223.503 250.946 223.371 245.02 220.726ZM247.283 79.4611C246.697 79.5619 246.116 79.6661 245.523 79.7188C244.814 80.5473 244.88 88.639 245.131 90.022C245.153 90.142 245.194 90.2577 245.226 90.3755C245.222 91.6574 245.128 92.9991 245.366 94.2616C244.709 96.4968 244.72 106.967 245.573 108.912L245.927 109.039C246.527 108.608 247.462 107.732 248.218 107.742C248.021 108.685 245.845 110.49 245.133 111.388C244.939 120.889 245.155 130.393 245.025 139.894C247.841 138.351 250.626 137.063 253.676 136.057C256.082 135.903 258.445 135.684 260.859 135.576C262.904 135.797 265.051 136.732 266.987 137.42C266.57 133.268 266.874 128.825 266.871 124.634C266.865 117.435 266.738 110.211 266.971 103.016C266.244 103.395 264.92 104.278 264.115 104.119C264.698 102.992 265.973 102.005 266.821 101.033C266.929 96.2967 266.692 91.5503 266.91 86.8187C265.415 87.6257 262.621 89.7134 261.029 89.8943C261.35 88.2673 265.375 84.6866 266.687 83.3159C266.92 82.0121 266.938 80.7005 266.986 79.3799C262.834 79.2194 258.666 79.3708 254.511 79.3708C252.424 79.0553 249.289 78.8813 247.283 79.4611Z"/>
	<path fill="#00D1D1" d="M253.675 214.666C253.282 214.435 253.478 214.563 253.007 214.21C252.504 213.832 252.652 214.076 252.562 213.453C253.794 211.458 258.163 209.94 260.249 208.745C258.27 210.962 256.067 212.905 253.675 214.666Z"/>
	<path fill="#00D1D1" d="M312.619 165.917C317.553 166.159 322.585 166.555 327.494 167.106C325.6 169.319 323.186 171.097 321.35 173.329C319.62 169.66 316.003 167.768 312.619 165.917Z"/>
	<path fill="#00D1D1" d="M114.435 198.324C112.771 206.205 112.74 212.984 113.057 220.945L110.356 223.65C111.39 223.218 112.309 222.767 113.242 222.144C113.292 224.251 114.019 233.722 112.904 234.895C112.844 234.958 112.772 235.009 112.706 235.066C112.039 235.001 111.932 234.762 111.516 234.264Q111.318 234.026 111.132 233.779C110.501 233.953 109.978 234.161 109.383 234.435C106.903 235.576 94.8029 234.988 91.3735 234.983L91.2354 231.383L91.3896 231.155C91.9573 230.336 92.5595 229.726 93.3118 229.077L93.4744 228.498L93.2469 228.234C92.5878 228.547 92.0399 228.935 91.4543 229.362L91.4013 229.2L91.1026 229.133L91.5139 229.032C91.5167 228.459 91.5716 228.959 91.242 228.302C90.7195 227.26 90.5359 219.513 90.5797 217.965C93.499 215.912 96.2157 213.318 98.9638 211.031L114.435 198.324Z"/>
	<path fill="#00D1D1" d="M247.283 79.4611C249.289 78.8813 252.424 79.0553 254.511 79.3708C258.666 79.3708 262.834 79.2194 266.986 79.3799C266.938 80.7005 266.92 82.0121 266.687 83.3159C265.375 84.6866 261.35 88.2673 261.029 89.8943C262.621 89.7134 265.415 87.6257 266.91 86.8187C266.692 91.5503 266.929 96.2967 266.821 101.033C265.973 102.005 264.698 102.992 264.115 104.119C264.92 104.278 266.244 103.395 266.971 103.016C266.738 110.211 266.865 117.435 266.871 124.634C266.874 128.825 266.57 133.268 266.987 137.42C265.051 136.732 262.904 135.797 260.859 135.576C258.445 135.684 256.082 135.903 253.676 136.057C250.626 137.063 247.841 138.351 245.025 139.894C245.155 130.393 244.939 120.889 245.133 111.388C245.845 110.49 248.021 108.685 248.218 107.742C247.462 107.732 246.527 108.608 245.927 109.039L245.573 108.912C244.72 106.967 244.709 96.4968 245.366 94.2616C245.128 92.9991 245.222 91.6574 245.226 90.3755C245.194 90.2577 245.153 90.142 245.131 90.022C244.88 88.639 244.814 80.5473 245.523 79.7188C246.116 79.6661 246.697 79.5619 247.283 79.4611ZM245.226 90.3755C245.222 91.6574 245.128 92.9991 245.366 94.2616C247.68 91.3342 250.187 88.6173 252.765 85.9249C250.156 87.1904 247.831 89.0407 245.226 90.3755Z"/>
	<path fill="#F10D5A" d="M253.676 136.057C254.446 135.25 255.774 134.457 256.897 134.29C258.546 134.045 259.545 134.665 260.859 135.576C258.445 135.684 256.082 135.903 253.676 136.057Z"/>
	<path fill="#F10D5A" d="M247.283 79.4611C249.289 78.8813 252.424 79.0553 254.511 79.3708C253.617 79.8588 252.655 80.4569 251.656 80.6827C249.879 81.0843 248.731 80.3678 247.283 79.4611Z"/>
	<path fill="#00D1D1" d="M246.277 371.288C253.154 371.07 260.068 371.179 266.949 371.229C267.034 383.399 267.158 378.069 260.974 386.876L260.831 387.084Q263.834 385.126 266.89 383.253C266.767 388.059 266.969 392.86 266.792 397.669C266.003 398.581 264.132 400.035 263.921 401.115C264.746 401.124 265.688 400.201 266.481 399.841L266.804 400.101C267.319 404.608 266.973 409.745 266.79 414.284C265.482 416.415 263.34 417.977 261.887 420.038L262.089 420.306C263.481 419.225 265.156 418.336 266.788 417.673L267.04 417.573C266.698 420.846 267.402 438.489 266.92 439.762C266.862 439.917 266.709 440.018 266.603 440.146L265.676 440.122L245.103 440.053C245.112 436.184 244.974 432.302 245.041 428.434C245.116 424.075 248.49 421.441 251.358 418.64C249.794 419.391 246.904 421.625 245.403 421.926C244.654 417.498 245.099 412.341 245.244 407.843C245.967 407.071 248.147 405.218 248.337 404.323C247.473 403.98 246.374 405.689 245.382 405.605C244.557 401.206 245.135 395.89 245.176 391.385C247.015 388.795 249.3 386.405 251.563 384.185C249.333 385.136 247.244 386.603 245.178 387.868C245.247 384.8 244.49 374.255 245.461 372.223C245.598 371.937 246.056 371.542 246.277 371.288Z"/>
	<path fill="#00D1D1" d="M245.02 220.726C250.946 223.371 256.948 223.503 262.865 220.726C263.939 220.222 265.379 219.102 266.571 219.139L266.767 219.555C266.892 220.873 266.922 222.102 266.856 223.425C266.994 228.192 266.97 233.084 266.45 237.825C266.63 238.114 266.847 238.428 266.931 238.766C267.244 240.041 266.822 250.018 266.8 252.018C266.155 252.958 264.818 253.616 264.401 254.633L264.662 254.854C265.324 254.625 265.854 254.111 266.406 253.684L266.719 253.882C267.319 256.151 266.862 265.502 266.762 268.485C264.9 270.979 262.461 273.024 260.562 275.508C262.585 274.241 264.677 273.004 266.836 271.985C266.91 279.434 266.481 287.058 267.014 294.481C263.852 294.394 248.996 294.935 247.189 294.153L247.706 294.041L247.222 293.977C247.337 293.673 247.464 293.569 247.339 293.258L245.183 294.355C244.724 289.592 244.949 284.475 245.186 279.695C247.023 277.207 249.983 275.028 251.372 272.336C249.61 273.517 247.819 274.632 246.003 275.728L245.774 275.586L245.601 275.732L245.544 276.039L245.417 276.005C244.695 274.808 244.97 266.719 244.986 264.956C245 263.445 244.9 262.284 246.047 261.16L247.284 259.943L247.267 259.382L246.896 259.388C246.42 259.756 246.015 260.126 245.412 260.254C244.56 258.114 244.951 249.756 245.179 247.159C245.583 246.658 245.937 246.27 246.08 245.622L245.32 245.521C244.497 243.531 245.082 234.203 245.097 231.352C247.24 228.661 249.683 226.315 251.829 223.655C249.504 224.677 247.29 226.237 245.116 227.556L245.02 220.726ZM266.767 219.555C264.696 222.44 262.157 224.886 259.822 227.546C262.164 226.186 264.453 224.666 266.856 223.425C266.922 222.102 266.892 220.873 266.767 219.555Z"/>
	<path fill="#00D1D1" d="M105.851 164.56C106.142 164.438 106.434 164.322 106.733 164.222C109.329 163.354 118.292 162.55 120.555 163.64C123.252 163.069 132.215 163.772 134.983 164.548C137.878 164.444 140.914 164.975 143.804 165.22C145.962 165.403 148.237 165.39 150.366 165.696C157.801 166.542 165.672 166.65 173.145 166.675C176.715 166.687 180.731 166.3 184.24 166.782C189.215 166.132 194.386 166.357 199.403 165.966L199.609 166.186L199.297 166.693C200.292 166.283 201.138 166.003 202.216 166.133L201.919 166.159L202.243 166.21C200.87 166.957 199.404 167.625 198.091 168.469C194.863 170.544 191.691 174.486 190.576 178.183C189.746 180.932 190.029 183.699 191.473 186.187C193.56 189.782 196.978 191.421 200.56 193.151C197.544 193.183 194.205 193.454 191.24 192.909C192.498 191.864 193.761 190.88 194.745 189.56C194.641 189.598 194.538 189.634 194.435 189.674C192.373 190.464 190.627 192.003 188.566 192.671C186.695 193.278 173.388 193.686 171.866 193.037C171.761 192.992 171.666 192.927 171.566 192.872L171.697 192.989L171.628 193.362L171.392 192.757C165.928 193.315 158.693 193.672 153.297 193.092C149.405 193.618 141.997 193.276 137.973 193.016C132.588 193.439 122.009 190.374 117.869 194.577Q116.095 196.398 114.435 198.324L98.9638 211.031C96.2157 213.318 93.499 215.912 90.5797 217.965Q90.4923 214.155 90.309 210.348C89.8303 207.073 89.8151 200.491 90.4187 197.244C90.4694 195.02 90.4512 192.786 90.8408 190.59C90.3842 184.898 92.9761 175.165 96.3656 170.543C98.6501 167.428 102 165.148 105.851 164.56ZM134.983 164.548C129.894 170.718 123.733 176.469 117.973 182.015C115.858 184.05 113.563 185.989 111.587 188.156Q130.914 176.817 150.366 165.696C148.237 165.39 145.962 165.403 143.804 165.22C140.914 164.975 137.878 164.444 134.983 164.548ZM137.973 193.016C141.997 193.276 149.405 193.618 153.297 193.092C154.416 191.029 156.152 189.101 157.592 187.236C160.336 183.684 163.059 180.099 165.961 176.673C160.534 179.778 155.194 183.059 149.759 186.162C145.857 188.391 141.645 190.434 137.973 193.016ZM90.309 210.348Q90.4923 214.155 90.5797 217.965C93.499 215.912 96.2157 213.318 98.9638 211.031L114.435 198.324Q116.095 196.398 117.869 194.577C115.432 195.834 113.122 197.348 110.75 198.725L96.933 206.645C94.7659 207.876 92.5731 209.322 90.309 210.348ZM184.24 166.782C180.88 171.983 176.76 176.896 172.927 181.758C178.294 178.322 183.857 175.17 189.379 171.993C192.477 170.21 195.93 167.867 199.297 166.693L199.609 166.186L199.403 165.966C194.386 166.357 189.215 166.132 184.24 166.782ZM105.851 164.56C103.993 168.705 100.883 172.619 98.4935 176.499C105.186 172.35 113.494 166.937 120.555 163.64C118.292 162.55 109.329 163.354 106.733 164.222C106.434 164.322 106.142 164.438 105.851 164.56ZM90.8408 190.59C90.4512 192.786 90.4694 195.02 90.4187 197.244C95.0576 192.01 100.551 187.548 105.209 182.361C100.381 185.045 95.8011 188.128 90.8408 190.59Z"/>
	<path fill="#00D1D1" d="M387.551 164.063C391.903 163.329 398.021 163.451 402.272 164.775C404.265 165.144 406.243 165.703 408.068 166.597C411.511 168.467 415.325 171.59 416.611 175.433C417.349 176.766 417.93 178.116 418.501 179.527C420.005 183.47 420.982 188.235 421.046 192.456C418.983 194.564 416.438 196.837 414.791 199.265Q418.078 197.289 421.42 195.406C421.894 200.021 422.13 204.909 421.72 209.532C418.933 212.359 416.45 215.437 413.571 218.181C416.443 217.007 418.878 214.952 421.736 213.782C421.523 220.849 420.866 227.868 420.582 234.923Q409.598 234.863 398.614 234.957C398.262 229.795 397.17 223.764 400.829 219.57C402.356 217.82 404.021 216.186 405.682 214.565L405.378 214.713C403.281 215.753 401.297 217.37 399.114 218.155L399.124 217.288L398.905 217.165C398.961 217.045 399.037 216.932 399.072 216.805C399.247 216.169 399.095 215.067 399.098 214.389C399.115 211.47 398.628 204.758 399.961 202.532C401.099 200.634 403.139 199.329 404.434 197.5C402.969 198.421 401.09 199.964 399.365 200.245C398.477 199.694 397.262 195.07 396.688 193.78C395.214 193.738 393.146 193.93 391.766 193.501C389.918 193.874 380.907 194.08 379.224 193.392C376.46 194.051 365.552 194.102 362.626 193.511C360.927 193.869 355.439 193.999 353.787 193.435C350.953 194.048 340.103 194.095 337.221 193.439C334.759 193.903 331.496 193.905 329.012 193.551C324.147 193.87 316.61 194.266 311.943 193.253C313.516 191.729 321.452 185.162 321.996 183.714C321.241 183.684 320.543 184.253 319.886 184.63L319.523 184.486C319.583 183.663 320.123 182.945 320.502 182.229C321.995 179.408 322.105 176.791 321.673 173.716L321.35 173.329C323.186 171.097 325.6 169.319 327.494 167.106C329.064 167.03 331.294 166.789 332.777 167.357C335.179 166.763 348.358 166.625 351.098 167.041C352.987 166.629 356.772 165.828 358.509 166.6C361.185 165.567 374.733 164.495 377.675 164.809C380.205 164.218 384.975 163.593 387.551 164.063ZM379.224 193.392C380.907 194.08 389.918 193.874 391.766 193.501C394.954 188.846 398.668 184.128 402.453 179.947C400.502 180.959 398.617 182.264 396.714 183.381C390.936 186.772 385.159 190.288 379.224 193.392ZM373.908 181.688C367.414 185.743 360.638 190.014 353.787 193.435C355.439 193.999 360.927 193.869 362.626 193.511C365.658 189.162 370.423 185.731 373.908 181.688ZM377.675 164.809C374.326 168.937 370.09 172.105 366.693 176.122C373.426 171.954 380.439 167.533 387.551 164.063C384.975 163.593 380.205 164.218 377.675 164.809ZM402.272 164.775C398.964 169.254 394.362 172.487 391.009 176.826C396.546 173.187 402.607 170.325 408.068 166.597C406.243 165.703 404.265 165.144 402.272 164.775ZM329.012 193.551C331.496 193.905 334.759 193.903 337.221 193.439C340.583 189.514 344.81 186.319 348.081 182.398Q338.636 188.127 329.012 193.551ZM351.098 167.041C348.843 170.229 345.285 173.068 342.438 175.775C347.965 173.077 352.939 169.245 358.509 166.6C356.772 165.828 352.987 166.629 351.098 167.041ZM416.611 175.433C414.723 178.765 411.88 181.783 409.428 184.719C412.364 182.994 415.4 180.913 418.501 179.527C417.93 178.116 417.349 176.766 416.611 175.433ZM327.494 167.106C325.6 169.319 323.186 171.097 321.35 173.329L321.673 173.716C325.381 171.605 328.981 169.312 332.777 167.357C331.294 166.789 329.064 167.03 327.494 167.106Z"/>
	<path fill="#F10D5A" d="M203.593 174.469C204.657 172.427 207.19 170.486 209.028 169.146C213.251 166.066 217.9 163.65 222.356 160.935C229.662 156.484 236.891 151.888 244.147 147.354C247.767 145.091 251.766 142.935 255.114 140.292C255.185 140.236 255.256 140.178 255.327 140.121C255.999 140.511 254.854 141.219 255.305 141.851C255.961 142.773 257.453 143.018 257.961 144.142L258.877 144.478C259.797 145.157 261.343 145.953 261.989 146.876C265.148 148.638 268.042 150.862 271.197 152.604C273.174 153.777 275.526 154.911 277.259 156.414C278.458 156.537 285.897 160.41 287.02 161.315L287.24 161.569C289.48 162.601 292.641 163.743 294.446 165.379C297.471 166.955 300.328 168.823 303.158 170.724C301.119 172.242 298.962 173.705 297.087 175.423Q300.508 173.471 303.901 171.47C306.087 173.264 308.594 175.751 308.917 178.705C308.981 179.294 308.884 179.705 308.604 180.215C308.846 181.835 308.203 183.1 307.299 184.428C307.27 184.471 307.232 184.508 307.198 184.549C303.854 191.211 288.614 199.429 281.852 203.066C279.515 204.322 277.053 205.87 274.528 206.701C272.868 207.247 270.625 207.584 269.16 208.532C267.801 209.412 267.26 211.055 266.026 212.087C263.33 214.341 259.946 216.108 256.96 217.956C255.873 216.861 254.811 215.706 253.675 214.666C256.067 212.905 258.27 210.962 260.249 208.745C262.037 208.099 268.845 202.436 270.372 200.912C267.332 202.287 264.511 204.276 261.649 205.988C258.049 208.14 254.339 210.137 250.835 212.444Q246.381 209.486 241.875 206.607C243.314 205.784 244.94 204.642 246.088 203.445C244.294 204.144 242.624 205.251 240.966 206.225L231.526 200.905C229.124 199.723 226.695 198.053 224.476 196.546C221.54 194.593 218.627 192.845 215.428 191.351C213.343 190.237 210.809 188.969 209.148 187.293C207.478 186.575 205.775 184.882 204.578 183.524C203.763 182.6 202.532 181.17 202.615 179.884C202.487 179.525 202.37 179.18 202.319 178.8C202.112 177.242 202.676 175.7 203.593 174.469ZM287.02 161.315Q279.217 168.771 271.283 176.087C268.521 178.609 265.412 180.97 262.871 183.708L279.019 174.119C281.981 172.398 285.29 170.847 288.056 168.849C290.284 167.899 292.382 166.636 294.446 165.379C292.641 163.743 289.48 162.601 287.24 161.569L287.02 161.315ZM255.199 178.886Q245.35 184.827 235.349 190.508C231.888 192.513 228.202 195.136 224.476 196.546C226.695 198.053 229.124 199.723 231.526 200.905C233.479 198.836 235.68 196.994 237.755 195.048C241.251 191.771 244.711 188.443 248.277 185.242C250.516 183.232 253.443 181.306 255.199 178.886ZM271.197 152.604C266.707 156.563 262.381 160.693 257.904 164.664C254.842 167.38 251.507 169.942 248.618 172.83C254.395 169.663 260.111 166.123 265.766 162.724C269.381 160.551 273.301 157.805 277.259 156.414C275.526 154.911 273.174 153.777 271.197 152.604ZM257.961 144.142C254.799 146.712 251.811 149.49 248.698 152.12C246.338 154.113 240.702 158.017 239.211 160.236C244.673 156.787 250.499 153.751 255.821 150.116C256.902 148.261 257.929 146.405 258.877 144.478L257.961 144.142ZM225.311 178.126C226.114 179.442 226.094 180.194 225.97 181.698C227.801 180.422 229.484 178.499 231.132 176.977C233.538 174.755 236.053 172.646 238.504 170.472C234.303 172.135 229.491 175.907 225.311 178.126Z"/>
	<path fill="#00D1D1" d="M258.877 144.478C259.797 145.157 261.343 145.953 261.989 146.876C260.072 148.061 257.972 149.436 255.821 150.116C256.902 148.261 257.929 146.405 258.877 144.478Z"/>
	<path fill="#00D1D1" d="M296.385 190.399C300.305 186.871 304.541 183.584 308.604 180.215C308.846 181.835 308.203 183.1 307.299 184.428C307.27 184.471 307.232 184.508 307.198 184.549C303.758 185.535 299.844 188.805 296.385 190.399Z"/>
	<path fill="#00D1D1" d="M218.578 166.263C215.844 168.831 212.906 171.198 210.059 173.641C207.621 175.734 205.213 177.993 202.615 179.884C202.487 179.525 202.37 179.18 202.319 178.8C202.112 177.242 202.676 175.7 203.593 174.469C208.874 172.455 213.394 168.518 218.578 166.263Z"/>
	<path fill="#00D1D1" d="M225.311 178.126C226.114 179.442 226.094 180.194 225.97 181.698C222.331 184.693 218.918 188.164 215.428 191.351C213.343 190.237 210.809 188.969 209.148 187.293C214.23 183.996 219.893 180.846 225.311 178.126Z"/>
	<path fill="#00D1D1" d="M287.24 161.569C289.48 162.601 292.641 163.743 294.446 165.379C292.382 166.636 290.284 167.899 288.056 168.849C286.377 167.533 286.258 165.906 286.011 163.937L287.24 161.569Z"/>
	<path fill="#F10D5A" d="M280.06 303.026C282.196 302.972 284.34 302.959 286.472 302.803C289.18 302.605 292.177 302.07 294.874 302.453C295.664 302.565 296.381 302.881 297.102 303.211C298.888 304.423 299.809 306.161 300.53 308.149C301.364 311.652 301.164 315.561 301.127 319.144C299.019 320.535 296.545 321.942 294.831 323.801L294.945 323.922C297.092 322.962 298.993 321.588 301.075 320.515C300.938 324.578 300.579 328.701 300.667 332.76C300.008 333.163 299.216 333.503 298.87 334.224C299.51 334.28 300.15 333.763 300.699 333.433C301.24 340.203 303.975 355.204 299.391 360.658C298.402 361.835 297.025 362.618 295.479 362.731C294.982 362.768 294.645 362.709 294.187 362.497L294.559 361.801L294.411 361.584C293.071 361.983 291.625 362.509 290.238 362.682C288.546 362.892 275.554 362.886 274.494 362.554C272.261 362.32 269.981 362.63 267.732 362.455C264.901 362.829 252.093 363.087 249.935 362.573C249.588 362.491 249.4 362.401 249.038 362.369L249.036 362.372C251.887 360.97 256.668 357.058 259.175 354.936L259.396 354.747C254.405 357.126 249.518 361.835 243.95 362.58C241.404 362.92 238.698 362.728 236.126 362.701C233.605 362.674 230.529 362.931 228.074 362.399C230.437 360.308 234.102 358.679 235.974 356.201C236.053 356.096 236.126 355.987 236.203 355.88L236.682 356.283C235.927 355.537 235.569 355.736 234.627 356.139C233.16 356.765 231.813 357.742 230.458 358.58C223.676 362.776 223.64 362.828 215.571 362.679C214.14 361.273 213.124 359.836 212.212 358.057C211.685 356.759 210.572 354.33 211.019 352.974C210.951 352.888 210.88 352.806 210.816 352.718C209.717 351.206 210.102 343.235 210.4 341.204C210.526 339.667 210.49 338.167 210.797 336.643C210.531 332.329 211.46 325.96 211.757 321.439Q213.845 319.551 215.628 317.373C214.214 318.177 212.895 318.978 211.621 319.994C211.18 315.892 210.225 311.058 210.866 306.978C211.077 305.631 211.612 304.26 212.776 303.461C214.451 302.31 216.321 302.742 218.187 303.017C217.338 304.731 216.33 306.266 215.244 307.839C217.665 306.288 220.55 304.019 223.308 303.194C225.975 302.396 237.503 302.943 241.042 302.967C244.364 302.943 247.584 302.886 250.876 303.362C250.943 303.372 251.01 303.369 251.077 303.372C254.52 302.297 264.929 302.946 269.019 302.982C271.546 302.927 274.848 302.614 277.312 303.144C277.222 303.664 277.104 304.19 277.069 304.717L280.06 303.026ZM297.102 303.211C294.167 305.931 290.897 308.341 287.737 310.793C282.69 314.711 277.654 318.652 272.552 322.497C269.329 324.926 265.996 327.207 262.877 329.77C266.895 327.756 270.68 325.228 274.538 322.924C279.659 319.868 284.856 316.929 290.003 313.917C293.32 311.976 296.928 309.458 300.53 308.149C299.809 306.161 298.888 304.423 297.102 303.211ZM241.872 334.933C237.742 337.284 233.755 339.866 229.659 342.272L211.019 352.974C210.572 354.33 211.685 356.759 212.212 358.057C214.819 355.478 218.052 353.292 220.969 351.057C225.066 347.917 229.104 344.713 233.269 341.663C236.067 339.614 239.55 337.515 241.872 334.933ZM264.89 306.876Q259.53 311.661 253.948 316.185C251.21 318.384 248.128 320.47 245.65 322.945C253.484 318.491 261.018 313.425 269.052 309.321C267.214 309.006 266.006 308.391 264.89 306.876ZM210.797 336.643C210.49 338.167 210.526 339.667 210.4 341.204C212.891 339.061 215.297 336.818 217.858 334.755C220.762 332.417 223.877 330.231 226.577 327.662C221.371 330.082 216.127 333.913 210.797 336.643ZM267.732 362.455C269.981 362.63 272.261 362.32 274.494 362.554C277.113 359.217 280.256 356.577 283.11 353.471C277.864 356.148 272.967 359.668 267.732 362.455ZM238.519 306.123C236.607 307.809 234.995 309.854 233.231 311.693C231.554 313.441 229.721 315.053 228.075 316.823C232.388 314.324 236.565 311.666 240.992 309.356C239.616 308.399 239.047 307.728 238.519 306.123Z"/>
	<path fill="#00D1D1" d="M241.042 302.967C244.364 302.943 247.584 302.886 250.876 303.362C250.943 303.372 251.01 303.369 251.077 303.372C249.213 304.372 242.258 308.246 240.992 309.356C239.616 308.399 239.047 307.728 238.519 306.123C239.3 305.035 240.189 304 241.042 302.967Z"/>
	<path fill="#00D1D1" d="M269.019 302.982C271.546 302.927 274.848 302.614 277.312 303.144C277.222 303.664 277.104 304.19 277.069 304.717C274.617 306.373 271.726 308.067 269.052 309.321C267.214 309.006 266.006 308.391 264.89 306.876C265.967 305.971 268.559 304.242 269.019 302.982Z"/>
	<path fill="#F10D5A" d="M430.806 241.386C433.881 240.969 442.398 240.827 444.777 242.567C446.169 242.495 447.784 243.608 448.775 244.519C450.298 245.918 451.412 247.543 452.436 249.326C450.959 249.821 449.792 250.654 448.735 251.788C450.109 251.456 451.391 250.43 452.526 249.608C453.799 252.731 455.283 256.813 455.022 260.245C455.347 261.352 455.504 262.685 455.432 263.835C455.881 267.897 455.851 272.03 455.723 276.112C454.19 277.363 450.857 279.53 450.089 281.282Q452.821 279.618 455.636 278.096C455.86 284.985 455.18 296.531 453.613 303.151L428.069 303.18C422.824 303.185 417.492 303.364 412.257 303.006Q408.717 303.257 405.189 302.873C401.603 303.823 391.773 303.221 387.63 302.941C385.786 303.087 379.454 303.631 378.049 302.87C375.308 303.673 371.557 303.268 368.726 303.016C367.585 301.902 366.862 300.6 366.137 299.204C368.204 297.364 370.736 295.949 372.922 294.224C370.398 295.173 367.896 296.79 365.781 298.448C364.853 295.05 363.651 290.599 364.02 287.05C363.741 284.914 363.768 282.813 363.797 280.665C363.257 276.228 363.681 270.72 364.269 266.284C365.843 263.892 368.529 260.699 370.818 258.996C371.158 258.743 371.459 258.542 371.719 258.2C371.997 257.835 371.915 258.018 371.861 257.488C370.511 257.566 369.057 259.463 367.718 259.996C366.727 260.39 365.78 260.884 364.822 261.354L364.597 261.272C364.418 258.907 364.787 256.415 364.959 254.049Q365.408 248.517 365.561 242.969C367.539 243.151 369.534 243.288 371.486 243.663C373.572 243.684 375.697 243.766 377.766 244.048C383.808 243.689 389.983 244.074 396.049 243.951C398.567 243.564 408.399 242.824 410.306 243.616C413.469 242.449 427.502 241.009 430.806 241.386ZM430.806 241.386L430.355 241.842C429.858 243.152 421.895 248.885 420.229 250.956C416.148 253.835 412.372 257.625 408.53 260.86C404.835 263.971 400.727 266.843 397.307 270.235Q420.789 255.966 444.777 242.567C442.398 240.827 433.881 240.969 430.806 241.386ZM378.049 302.87C379.454 303.631 385.786 303.087 387.63 302.941C390.396 300.256 393.478 297.982 396.497 295.595C399.241 293.427 401.905 291.18 404.691 289.063C407.392 287.01 410.25 285.055 412.732 282.739C408.324 284.765 404.153 287.82 399.936 290.268C392.675 294.485 385.162 298.417 378.049 302.87ZM363.797 280.665C363.768 282.813 363.741 284.914 364.02 287.05C369.759 282.569 375.068 277.391 380.72 272.776C381.997 271.733 386.516 268.674 387.16 267.414C386.132 267.465 367.625 278.854 364.115 280.516L363.797 280.665ZM425.594 290.793Q415.634 297.243 405.189 302.873Q408.717 303.257 412.257 303.006C413.795 301.396 415.371 299.848 417.057 298.393C419.533 296.258 423.926 293.469 425.594 290.793ZM391.941 248.6C388.213 253.082 384.143 257.097 380.24 261.401C385.689 258.233 391.018 254.89 396.52 251.803C395.794 251.766 395.052 251.719 394.364 251.458C393.071 250.965 392.497 249.775 391.941 248.6ZM455.022 260.245C449.045 265.061 442.231 269.743 436.577 274.781C443.012 271.423 448.912 267.08 455.432 263.835C455.504 262.685 455.347 261.352 455.022 260.245ZM371.486 243.663C370.877 245.732 369.675 247.703 368.669 249.609C371.439 247.495 374.579 245.474 377.766 244.048C375.697 243.766 373.572 243.684 371.486 243.663Z"/>
	<path fill="#00D1D1" d="M396.049 243.951C398.567 243.564 408.399 242.824 410.306 243.616C406.212 246.829 401.08 249.295 396.52 251.803C395.794 251.766 395.052 251.719 394.364 251.458C393.071 250.965 392.497 249.775 391.941 248.6C393.365 247.582 394.951 245.333 396.049 243.951Z"/>
	<path fill="#00D1D1" d="M420.229 250.956C421.895 248.885 429.858 243.152 430.355 241.842C430.882 243.473 431.289 244.77 430.505 246.403C429.346 248.816 426.611 250.328 424.154 251.115C422.589 251.616 421.725 251.615 420.229 250.956Z"/>
	<path fill="#F10D5A" d="M105.987 242.869C108.526 242.749 121.999 242.263 123.304 242.965C123.663 243.158 123.581 243.361 123.644 243.724C123.113 244.813 122.228 245.452 121.352 246.253L121.484 246.408C123.595 246.333 125.836 243.688 127.944 243.061C130.998 242.152 137.725 242.658 141.006 242.908C142.35 243.01 142.881 243.105 143.779 244.148C145.057 246.097 146.029 247.876 146.747 250.099C147.846 252.995 148.657 258.109 148.193 261.209C148.515 262.628 148.463 264.584 148.252 266.023C148.428 270.492 147.933 274.846 147.676 279.296C146.039 280.831 144.211 282.159 142.669 283.791C144.376 283.065 145.953 282.053 147.543 281.102C147.305 285.721 146.942 290.353 146.832 294.976C146.779 297.236 147.23 300.12 146.788 302.296C145.715 302.964 144.335 303.08 143.094 303.175C137.633 303.592 131.92 303.193 126.432 303.204C121.089 303.214 114.493 303.757 109.271 303.001C107.865 303.299 103.044 303.565 101.833 302.852C98.7944 303.688 87.3327 303.545 84.0066 302.974C81.2085 303.763 75.7717 303.276 72.7637 303.073C69.1909 303.449 65.3265 303.356 61.7394 303.141C60.6292 302.23 59.8613 301.236 59.1805 299.979C58.4592 297.921 57.9337 295.834 57.4091 293.721C57.0236 289.995 56.5914 286.391 56.5748 282.628C58.4897 281.46 61.1058 280.009 62.5206 278.253L62.2385 278.178C60.2365 279.028 58.3504 280.44 56.4966 281.596C56.3876 268.656 58.1906 255.841 58.3164 242.946C60.1406 242.934 62.6721 242.592 64.4117 243.128L64.3011 243.689L64.7372 243.725C64.8314 243.664 64.9245 243.601 65.0199 243.542C65.1431 243.465 65.2691 243.394 65.3929 243.318C66.6685 242.538 82.4268 242.973 84.9778 243.192C82.3704 244.441 80.0824 245.957 78.4886 248.432C80.7709 247.13 82.6283 245.192 84.953 243.976C88.727 242.001 100.263 242.81 104.777 242.847C103.755 243.587 102.803 244.421 101.837 245.232C103.408 244.748 104.666 243.811 105.987 242.869ZM143.779 244.148C143.728 244.201 143.678 244.256 143.626 244.309C141.092 246.917 137.833 249.151 134.983 251.417C129.208 256.008 123.416 260.593 117.566 265.087C114.624 267.347 111.422 269.447 108.622 271.87L108.839 272.217L108.439 272.396L108.233 272.248L108.138 272.466L108.753 272.72L108.283 272.39C117.977 267.066 127.38 261.124 136.981 255.615C140.204 253.766 143.419 251.738 146.747 250.099C146.029 247.876 145.057 246.097 143.779 244.148ZM93.3778 272.909C89.627 274.968 86.0318 277.289 82.3598 279.481Q74.4576 284.116 66.4996 288.654C63.5104 290.354 60.5424 292.305 57.4091 293.721C57.9337 295.834 58.4592 297.921 59.1805 299.979C63.8541 295.785 68.9503 291.959 73.9094 288.11C76.7462 285.908 79.4923 283.584 82.3484 281.41C85.9807 278.644 90.1253 276.118 93.3778 272.909ZM72.7637 303.073C75.7717 303.276 81.2085 303.763 84.0066 302.974C86.649 300.386 89.6382 298.113 92.4911 295.759C98.6383 290.687 104.892 285.789 111.108 280.807C107.107 282.515 103.561 285.369 99.794 287.53Q90.1381 292.943 80.5749 298.518C78.0772 299.961 75.0348 301.319 72.7637 303.073ZM101.833 302.852C103.044 303.565 107.865 303.299 109.271 303.001C113.207 298.565 118.053 295.045 122.329 290.966C115.327 294.534 108.82 299.187 101.833 302.852ZM148.193 261.209C144.213 264.902 139.935 268.36 135.665 271.712C133.395 273.494 130.917 275.18 128.81 277.142C131.455 275.983 133.903 274.287 136.366 272.781C140.23 270.419 144.189 268.029 148.252 266.023C148.463 264.584 148.515 262.628 148.193 261.209Z"/>
	<path fill="#F10D5A" d="M275.83 9.58937C277.907 9.36291 284.457 8.88733 286.239 9.79815C290.317 10.3838 293.503 11.6784 296.463 14.6217C294.671 15.2567 291.925 17.0744 290.731 18.5934C292.816 17.5216 294.837 16.3682 296.859 15.1859C299.179 17.8848 300.274 21.2622 301.011 24.6876Q301.583 27.5802 301.983 30.5016C303.182 44.9952 301.713 59.822 300.04 74.2263C297.104 74.2548 293.989 74.4749 291.071 74.1459C289.355 74.4079 287.443 74.265 285.714 74.1314C280.361 74.6555 275.22 73.4343 269.901 73.5065C268.299 73.6052 266.702 73.9007 265.287 73.0688C262.194 74.3041 250.148 75.126 247.117 74.3223C247.906 72.3214 253.173 69.4409 254.977 67.6468L254.66 67.7806C251.681 69.0717 249.286 71.203 246.44 72.6733C245.228 73.3 243.816 73.7458 242.466 73.9403C239.644 74.3469 230.163 74.414 227.233 74.1704C223.808 74.5553 220.145 74.2661 216.719 73.9672C216.045 73.4678 215.415 72.9595 214.794 72.3949L214.449 71.8896C210.528 66.2269 210.148 58.8951 209.939 52.2127C212.067 50.8834 222.001 43.2165 223.269 41.5823C218.816 43.9255 214.677 46.8898 210.193 49.1618C209.369 48.1683 210.251 38.4322 210.36 36.7012C211.046 36.1309 212.036 35.4991 212.345 34.647C211.628 34.6513 211.014 35.1549 210.42 35.5173C210.619 27.5223 211.418 19.2425 212.042 11.2511C214.335 11.2245 216.573 11.3373 218.857 11.5362C223.67 11.8517 228.51 11.8828 233.301 12.4644C235.103 11.5185 248.368 11.5309 251.234 11.5323C253.711 11.2941 256.34 11.0172 258.827 11.091C261.856 10.0327 272.355 9.33943 275.83 9.58937ZM214.794 72.3949C215.415 72.9595 216.045 73.4678 216.719 73.9672C220.145 74.2661 223.808 74.5553 227.233 74.1704C229.326 71.1798 233.498 68.4542 236.333 66.1257L253.73 52.0038C256.729 49.5988 259.845 47.3299 262.736 44.7956C258.828 46.4829 255.034 49.2743 251.354 51.4321L229.256 64.1384C225.074 66.5789 219.005 70.4985 214.794 72.3949ZM275.83 9.58937C275.801 9.65449 275.774 9.7202 275.744 9.78471C274.021 13.4911 261.888 22.1279 258.057 25.0799C256.809 26.0416 254.692 27.2572 253.842 28.5194L254.011 28.5234L253.983 28.2824L254.191 28.071L254.588 28.3933C254.653 28.3432 254.717 28.2912 254.784 28.243C256.62 26.9209 258.787 25.8413 260.729 24.659Q270.043 19.0993 279.47 13.7331C281.681 12.4525 284.162 11.2689 286.239 9.79815C284.457 8.88733 277.907 9.36291 275.83 9.58937ZM218.857 11.5362C217.702 15.673 215.712 20.3083 213.554 24.0131C218.07 21.0043 222.815 18.2413 227.546 15.5853C229.405 14.5417 231.555 13.663 233.301 12.4644C228.51 11.8828 223.67 11.8517 218.857 11.5362ZM274.675 46.1122C277.489 44.8613 280.091 43.0988 282.733 41.5253Q289.25 37.6293 295.819 33.8229C297.72 32.7315 299.921 31.1957 301.983 30.5016Q301.583 27.5802 301.011 24.6876C295.715 28.54 290.845 33.0977 285.783 37.2597C282.137 40.258 278.183 42.9611 274.675 46.1122ZM251.234 11.5323C248.584 15.4427 243.173 18.9893 239.574 22.1278C243.125 20.4762 246.49 18.2327 249.858 16.2307C252.822 14.4693 255.87 12.8585 258.827 11.091C256.34 11.0172 253.711 11.2941 251.234 11.5323ZM285.714 74.1314C287.443 74.265 289.355 74.4079 291.071 74.1459C291.114 74.0575 291.159 73.9698 291.201 73.8806C292.07 72.0275 293.2 70.4511 294.382 68.7907C291.667 70.8439 288.637 72.4063 285.714 74.1314Z"/>
	<path fill="#00D1D1" d="M265.287 73.0688C269.122 70.7028 273.139 68.3549 277.165 66.3303C274.88 68.8637 272.239 71.0265 269.901 73.5065C268.299 73.6052 266.702 73.9007 265.287 73.0688Z"/>
	<path fill="#00FF59" d="M223.805 446.548C228.713 444.853 235.556 445.634 240.695 445.841C243.395 445.99 252.355 445.96 254.299 447.088C254.889 447.043 255.464 446.965 256.049 447.09C258.522 446.806 268.867 447.624 271.611 448.17C273.049 448.219 275.013 447.839 276.346 448.312C276.455 448.351 276.565 448.386 276.674 448.426C276.748 448.453 276.821 448.484 276.894 448.512C277.942 448.224 291.192 447.344 293.074 447.325C293.932 447.316 294.651 447.401 295.472 447.645C299.295 447.872 302.645 449.404 305.781 451.514C307.883 452.979 311.605 455.891 312.463 458.432C312.495 458.528 312.478 458.633 312.486 458.733C313.795 459.927 314.5 461.967 315.203 463.565C318.087 471.102 318.637 479.568 315.253 487.064Q315.038 487.552 314.799 488.029Q314.56 488.506 314.298 488.971Q314.035 489.435 313.749 489.885Q313.463 490.336 313.155 490.771Q312.847 491.207 312.518 491.626Q312.188 492.046 311.838 492.448Q311.487 492.85 311.117 493.235Q310.747 493.619 310.358 493.984Q309.969 494.349 309.562 494.694Q309.155 495.039 308.731 495.363Q308.307 495.687 307.867 495.989Q307.428 496.291 306.974 496.571Q306.519 496.851 306.052 497.107Q305.584 497.364 305.104 497.596Q304.624 497.829 304.132 498.037Q303.641 498.245 303.14 498.428C300.704 499.328 298.203 499.742 295.618 499.888C297.301 497.904 299.32 496.146 300.892 494.106C298.406 495.643 295.701 497.786 292.98 498.785C290.099 499.843 278.596 499.209 274.911 499.271C277.385 496.515 280.71 494.702 283.217 492.02C279.295 494.045 275.561 497.009 271.533 498.719C268.139 500.158 255.699 500.995 251.75 500.625C247.177 501.209 241.713 501.555 237.144 501.035C232.403 501.747 226.86 500.745 222.116 500.189C218.38 499.489 213.621 498.695 210.414 496.605L210.29 496.654C207.676 496.384 203.676 492.908 201.891 491.075C204.455 488.539 207.885 486.282 210.799 484.123C212.011 483.225 213.305 482.516 214.386 481.447L214.386 481.146C212.317 481.695 204.181 487.344 201.501 488.743C200.885 489.065 200.642 489.083 199.983 488.897C197.7 486.314 196.543 482.8 195.405 479.604C195.207 477.478 194.721 475.443 194.629 473.29C194.609 473.192 194.585 473.094 194.569 472.995C193.704 467.609 195.631 462.592 198.781 458.302C202.7 452.966 209.152 448.776 215.73 447.73C218.35 446.943 221.062 446.484 223.805 446.548ZM210.414 496.605C213.621 498.695 218.38 499.489 222.116 500.189C224.517 495.675 249.952 476.234 255.641 470.764C251.692 472.561 247.862 475.28 244.101 477.469Q232.304 484.358 220.407 491.072C217.216 492.883 213.852 495.412 210.414 496.605ZM295.472 447.645C291.815 451.313 287.694 454.611 283.765 457.988C279.251 461.869 274.824 465.854 270.294 469.716C267.697 471.93 264.858 473.993 262.411 476.361C266.375 474.363 270.135 471.93 273.952 469.666L294.448 457.635C298.137 455.516 301.89 453.238 305.781 451.514C302.645 449.404 299.295 447.872 295.472 447.645ZM277.889 477.474C264.287 485.278 250.86 493.431 237.144 501.035C241.713 501.555 247.177 501.209 251.75 500.625C253.511 498.311 255.97 496.458 258.147 494.541Q264.638 488.828 271.245 483.25C273.474 481.336 275.827 479.573 277.889 477.474ZM254.299 447.088C249.815 450.045 243.965 453.978 238.94 455.73C237.123 454.785 236.094 454.079 234.957 452.304C233.08 453.825 231.365 455.81 229.661 457.532C225.83 461.404 222.054 465.315 218.036 468.998C222.6 466.544 226.983 463.732 231.446 461.098C239.557 456.312 247.77 451.575 256.049 447.09C255.464 446.965 254.889 447.043 254.299 447.088ZM312.486 458.733C308.214 462.559 303.985 466.452 299.646 470.201C296.86 472.608 293.911 474.835 291.253 477.384C296.673 474.365 302 471.108 307.348 467.959C309.939 466.434 312.455 464.807 315.203 463.565C314.5 461.967 313.795 459.927 312.486 458.733ZM194.629 473.29C194.721 475.443 195.207 477.478 195.405 479.604C200.29 474.092 205.893 469.094 211.164 463.956C205.585 466.823 200.426 470.864 194.629 473.29ZM215.73 447.73C214.413 450.36 211.367 452.948 209.394 455.169C214.132 452.17 218.968 449.38 223.805 446.548C221.062 446.484 218.35 446.943 215.73 447.73Z"/>
	<path fill="#00D1D1" d="M271.611 448.17C273.049 448.219 275.013 447.839 276.346 448.312C276.455 448.351 276.565 448.386 276.674 448.426C276.748 448.453 276.821 448.484 276.894 448.512C269.56 452.798 262.157 457.494 254.562 461.273L271.611 448.17Z"/>
	<path fill="#00D1D1" d="M240.695 445.841C243.395 445.99 252.355 445.96 254.299 447.088C249.815 450.045 243.965 453.978 238.94 455.73C237.123 454.785 236.094 454.079 234.957 452.304C236.365 450.562 240.043 447.771 240.695 445.841Z"/>
</svg>
