<svg width="1116" height="169" viewBox="0 0 1116 169" fill="none" xmlns="http://www.w3.org/2000/svg">
<g clip-path="url(#clip0_3371_846)">
<path d="M-0.5 123.839V45.4463H14.8628V110.186H50.562V123.839H-0.5Z" fill="white"/>
<path d="M61.8047 123.84V45.4473H77.1675V123.84H61.8047Z" fill="white"/>
<path d="M147.098 91.6902C147.098 97.3421 146.546 102.003 145.44 105.673C144.409 109.343 142.456 112.646 139.583 115.582C136.267 119.032 132.767 121.381 129.083 122.629C125.472 123.877 121.567 124.501 117.367 124.501C112.873 124.501 108.931 123.803 105.541 122.409C102.152 120.941 99.0941 118.886 96.3679 116.243C94.3784 114.261 92.8311 112.206 91.7258 110.077C90.6943 107.949 89.9206 105.636 89.4049 103.141C88.9627 100.572 88.668 97.7825 88.5206 94.7729C88.447 91.7636 88.4102 88.3871 88.4102 84.6435C88.4102 80.9 88.447 77.5236 88.5206 74.514C88.668 71.5047 88.9627 68.7521 89.4049 66.2564C89.9206 63.6873 90.6943 61.3384 91.7258 59.2099C92.8311 57.0812 94.3784 55.0259 96.3679 53.0442C99.0941 50.4016 102.152 48.3832 105.541 46.9885C108.931 45.5205 112.873 44.7864 117.367 44.7864C121.936 44.7864 125.951 45.4837 129.414 46.8783C132.878 48.2729 135.825 50.1447 138.256 52.4936C140.688 54.769 142.604 57.4115 144.004 60.421C145.477 63.4304 146.472 66.5868 146.988 69.8898H131.515C129.746 62.2561 125.03 58.4392 117.367 58.4392C115.231 58.4392 113.352 58.8429 111.731 59.6503C110.11 60.3842 108.71 61.3753 107.531 62.623C106.794 63.4304 106.168 64.348 105.652 65.3756C105.21 66.3298 104.841 67.6144 104.547 69.2291C104.252 70.844 104.031 72.8993 103.883 75.395C103.81 77.8173 103.773 80.9 103.773 84.6435C103.773 88.3871 103.81 91.5067 103.883 94.0024C104.031 96.4246 104.252 98.4431 104.547 100.058C104.841 101.673 105.21 102.994 105.652 104.022C106.168 105.049 106.794 105.967 107.531 106.774C108.71 108.022 110.11 109.013 111.731 109.747C113.352 110.481 115.231 110.848 117.367 110.848C119.725 110.848 121.825 110.481 123.667 109.747C125.509 108.94 127.057 107.838 128.309 106.444C129.562 104.976 130.446 103.398 130.962 101.71C131.551 99.9478 131.846 98.0394 131.846 95.9841V93.1214H117.367V80.2395H147.098V91.6902Z" fill="white"/>
<path d="M200.341 123.84V91.0297H173.705V123.84H158.342V45.4473H173.705V77.4871H200.341V45.4473H215.703V123.84H200.341Z" fill="white"/>
<path d="M267.081 59.0999V123.84H251.718V59.0999H226.947L231.161 45.4473H291.263L287.638 59.0999H267.081Z" fill="white"/>
<path d="M1115.51 27.0715C1115.51 41.7465 1103.61 53.6429 1088.94 53.6429C1074.26 53.6429 1062.37 41.7465 1062.37 27.0715C1062.37 12.3964 1074.26 0.5 1088.94 0.5C1103.61 0.5 1115.51 12.3964 1115.51 27.0715Z" fill="#E0E0E0"/>
<path d="M356.707 99.7004C356.039 103.224 354.923 106.417 353.361 109.279C351.8 112.069 349.829 114.454 347.45 116.436C345.146 118.418 342.469 119.959 339.421 121.06C336.447 122.088 333.213 122.602 329.718 122.602C325.704 122.602 322.059 121.941 318.789 120.62C315.592 119.299 312.804 117.464 310.424 115.115C308.564 113.28 307.115 111.481 306.075 109.72C305.034 107.885 304.253 105.756 303.732 103.334C303.211 100.912 302.878 98.0857 302.729 94.8559C302.579 91.5528 302.506 87.5158 302.506 82.7448C302.506 77.9735 302.579 73.9731 302.729 70.7435C302.878 67.4404 303.211 64.5778 303.732 62.1555C304.253 59.7332 305.034 57.6413 306.075 55.8796C307.115 54.0446 308.564 52.2095 310.424 50.3745C312.804 48.0257 315.592 46.1905 318.789 44.8693C322.059 43.5481 325.704 42.8875 329.718 42.8875C336.929 42.8875 342.878 44.9428 347.562 49.0532C352.321 53.0903 355.369 58.6688 356.707 65.7889H350.573C349.384 60.2837 346.931 55.9898 343.213 52.9069C339.57 49.7507 335.071 48.1724 329.718 48.1724C323.77 48.1724 318.752 50.1911 314.662 54.228C313.249 55.6226 312.133 57.1275 311.316 58.7422C310.498 60.3571 309.866 62.2656 309.421 64.4675C309.049 66.5963 308.789 69.1654 308.64 72.1747C308.564 75.1108 308.528 78.6341 308.528 82.7448C308.528 86.8552 308.564 90.4151 308.64 93.4246C308.789 96.3607 309.049 98.9297 309.421 101.132C309.866 103.26 310.498 105.132 311.316 106.747C312.133 108.362 313.249 109.867 314.662 111.261C318.752 115.298 323.77 117.317 329.718 117.317C335.071 117.317 339.607 115.775 343.325 112.692C347.117 109.536 349.606 105.206 350.796 99.7004H356.707Z" fill="white"/>
<path d="M425.276 121.941L418.361 102.894H381.335L374.42 121.941H367.951L397.173 43.5483H402.526L431.745 121.941H425.276ZM383.23 97.6087H416.466L399.848 51.4756L383.23 97.6087Z" fill="white"/>
<path d="M496.076 66.1194C496.076 69.716 495.444 72.909 494.179 75.6982C492.989 78.4875 491.317 80.8731 489.161 82.855C487.078 84.7634 484.552 86.2315 481.577 87.2591C478.677 88.2133 475.517 88.6904 472.097 88.6904H449.01V121.941H442.988V43.5483H472.097C475.517 43.5483 478.677 44.0622 481.577 45.0898C484.552 46.1175 487.078 47.5855 489.161 49.4939C491.317 51.4024 492.989 53.7512 494.179 56.5404C495.444 59.3297 496.076 62.5227 496.076 66.1194ZM490.052 66.1194C490.052 60.2473 488.306 55.9166 484.811 53.1273C481.391 50.2645 476.929 48.8333 471.427 48.8333H449.01V83.4054H471.427C476.929 83.4054 481.391 82.0108 484.811 79.2216C488.306 76.3589 490.052 71.9914 490.052 66.1194Z" fill="white"/>
<path d="M507.318 121.942V43.5486H513.34V121.942H507.318Z" fill="white"/>
<path d="M554.249 48.8333V121.941H548.227V48.8333H524.584V43.5483H578.005V48.8333H554.249Z" fill="white"/>
<path d="M646.573 121.941L639.658 102.894H602.63L595.715 121.941H589.248L618.467 43.5483H623.821L653.04 121.941H646.573ZM604.527 97.6087H637.761L621.143 51.4756L604.527 97.6087Z" fill="white"/>
<path d="M664.283 121.941V43.5483H670.307V116.656H712.463V121.941H664.283Z" fill="white"/>
<path d="M780.71 91.6902C780.71 97.4155 780.139 102.113 778.994 105.783C777.92 109.453 776.058 112.72 773.41 115.582C767.684 121.528 760.492 124.501 751.832 124.501C743.673 124.501 736.803 121.638 731.221 115.913C727.929 112.536 725.854 108.609 724.994 104.132C724.135 99.7277 723.707 93.2317 723.707 84.6435C723.707 76.0555 724.135 69.5595 724.994 65.1553C725.854 60.6779 727.929 56.7508 731.221 53.3744C736.803 47.649 743.673 44.7864 751.832 44.7864C760.062 44.7864 766.648 47.1352 771.585 51.8331C776.523 56.5307 779.53 62.5496 780.604 69.8898H765.575C763.713 62.2561 759.132 58.4392 751.832 58.4392C747.825 58.4392 744.64 59.8338 742.278 62.623C740.775 64.5314 739.773 66.8437 739.273 69.5595C738.843 72.202 738.628 77.23 738.628 84.6435C738.628 92.204 738.843 97.3421 739.273 100.058C739.773 102.7 740.775 104.939 742.278 106.774C744.496 109.49 747.682 110.848 751.832 110.848C756.271 110.848 759.812 109.38 762.461 106.444C764.751 103.728 765.896 100.242 765.896 95.9841V93.0114H751.832V80.2395H780.71V91.6902Z" fill="white"/>
<path d="M849.817 123.84H832.534L817.611 92.5711H806.876V123.84H791.953V45.4473H821.905C829.492 45.4473 835.504 47.7595 839.941 52.3837C844.45 57.0079 846.703 62.6966 846.703 69.4496C846.703 74.6611 845.38 79.0286 842.731 82.5518C840.085 86.0751 836.756 88.5708 832.747 90.0388L849.817 123.84ZM828.775 76.9365C830.781 75.028 831.782 72.5325 831.782 69.4496C831.782 66.3666 830.781 63.8712 828.775 61.9627C826.772 60.0543 824.16 59.1001 820.94 59.1001H806.876V79.7993H820.94C824.16 79.7993 826.772 78.8449 828.775 76.9365Z" fill="white"/>
<path d="M917.421 74.8434C917.492 76.8987 917.527 80.1651 917.527 84.6425C917.527 89.1201 917.492 92.3865 917.421 94.4418C917.349 96.4969 917.099 99.066 916.669 102.149C916.239 105.158 915.452 107.727 914.307 109.856C913.234 111.985 911.767 114.003 909.905 115.912C904.323 121.637 897.453 124.5 889.294 124.5C881.063 124.5 874.156 121.637 868.574 115.912C866.714 114.003 865.247 112.022 864.174 109.966C863.099 107.837 862.349 105.195 861.919 102.039C861.489 98.8826 861.239 96.3502 861.167 94.4418C861.095 92.5334 861.061 89.2669 861.061 84.6425C861.061 80.0183 861.095 76.7518 861.167 74.8434C861.239 72.935 861.489 70.4027 861.919 67.2465C862.349 64.0901 863.099 61.4843 864.174 59.429C865.247 57.3005 866.714 55.2818 868.574 53.3734C874.156 47.6481 881.063 44.7854 889.294 44.7854C897.453 44.7854 904.323 47.6481 909.905 53.3734C911.767 55.2818 913.234 57.3005 914.307 59.429C915.452 61.5578 916.239 64.1635 916.669 67.2465C917.099 70.2558 917.349 72.7883 917.421 74.8434ZM901.855 99.9468C902.354 97.0842 902.606 91.9827 902.606 84.6425C902.606 77.3025 902.354 72.2377 901.855 69.4484C901.353 66.5858 900.351 64.3104 898.848 62.622C896.486 59.8328 893.302 58.4382 889.294 58.4382C885.213 58.4382 881.993 59.8328 879.631 62.622C878.13 64.3104 877.126 66.549 876.626 69.3384C876.196 72.1276 875.981 77.229 875.981 84.6425C875.981 92.0562 876.196 97.1576 876.626 99.9468C877.126 102.736 878.13 104.975 879.631 106.663C881.993 109.452 885.213 110.847 889.294 110.847C893.302 110.847 896.486 109.452 898.848 106.663C900.351 104.975 901.353 102.736 901.855 99.9468Z" fill="white"/>
<path d="M985.023 96.9753C985.023 105.123 982.338 111.766 976.971 116.904C971.604 121.968 964.912 124.501 956.896 124.501C948.881 124.501 942.189 121.968 936.82 116.904C931.453 111.766 928.77 105.123 928.77 96.9753V45.4473H943.692V96.4246C943.692 100.902 944.872 104.426 947.234 106.995C949.596 109.564 952.816 110.848 956.896 110.848C960.975 110.848 964.195 109.564 966.557 106.995C968.99 104.426 970.207 100.902 970.207 96.4246V45.4473H985.023V96.9753Z" fill="white"/>
<path d="M1044.25 52.4938C1048.83 57.1914 1051.12 62.9902 1051.12 69.89C1051.12 76.7898 1048.83 82.5886 1044.25 87.2862C1039.67 91.9839 1033.55 94.3327 1025.89 94.3327H1011.19V123.84H996.266V45.4473H1025.89C1033.55 45.4473 1039.67 47.7961 1044.25 52.4938ZM1033.19 77.7072C1035.2 75.7256 1036.2 73.1196 1036.2 69.89C1036.2 66.6604 1035.2 64.0546 1033.19 62.0728C1031.19 60.0909 1028.51 59.1001 1025.14 59.1001H1011.19V80.5699H1025.14C1028.51 80.5699 1031.19 79.6157 1033.19 77.7072Z" fill="white"/>
</g>
<defs>
<clipPath id="clip0_3371_846">
<rect width="1116" height="169" fill="white"/>
</clipPath>
</defs>
</svg>
