<svg width="601" height="169" viewBox="0 0 601 169" fill="none" xmlns="http://www.w3.org/2000/svg">
<path d="M97.4009 126.1C87.0009 134.6 73.6009 139.8 58.3009 139.8C25.3009 139.8 -0.399088 115.4 0.900912 83.8999C-0.399088 52.3999 25.2009 28.0999 58.3009 29.2999C74.1009 28.6999 87.5009 33.5999 97.9009 42.0999L88.8009 53.7999C82.0009 44.6999 71.4009 39.3999 58.2009 39.3999C35.0009 39.3999 18.0009 57.6999 18.0009 83.9999C18.0009 110.3 35.0009 128.8 58.2009 128.8C71.0009 128.8 81.2009 123.8 88.2009 115.1L97.4009 126.1ZM599.801 117.4H600.901V137.8H522.401V136.7C526.601 131.5 527.701 125.6 527.701 113.5V54.3999C527.701 42.3999 526.601 36.0999 522.401 31.1999V30.0999H598.801V48.3999H598.001C594.801 43.1999 588.601 41.1999 574.001 41.1999H543.101V64.6999H566.701C579.301 64.6999 584.201 62.6999 588.601 59.4999H589.501V80.9999H588.601C585.401 76.6999 579.401 75.7999 566.701 75.7999H543.101V126.6H576.101C589.601 126.7 597.001 124.6 599.801 117.4ZM416.001 94.1999C416.001 122.5 431.501 139.8 459.401 139.8C487.301 139.8 502.801 122.6 502.801 94.1999V54.3999C502.801 42.3999 503.701 36.0999 508.101 31.1999V30.0999H486.201V31.1999C489.401 35.9999 490.401 42.2999 490.401 54.3999V94.1999C490.401 115.3 480.201 126.6 460.601 126.6C441.001 126.6 431.501 114.6 431.501 94.1999V54.3999C431.501 42.3999 432.601 36.0999 436.601 31.1999V30.0999H410.901V31.1999C415.101 35.9999 416.001 42.2999 416.001 54.3999V94.1999ZM339.501 137.8V136.7C343.701 131.5 345.701 125.6 345.701 113.5V41.2999H333.001C319.601 41.2999 312.601 43.2999 308.301 49.2999H307.401V30.1999H398.101V49.2999H397.301C393.101 43.3999 386.901 41.2999 372.401 41.2999H360.101V113.5C360.101 125.5 362.201 131.5 366.101 136.7V137.8H339.501ZM264.801 49.1999H265.901L289.901 108.3H242.401L264.801 49.1999ZM308.301 113.5L274.201 30.0999H260.801L227.801 113.5C224.601 120.5 222.101 125.5 220.801 128.7C219.301 132.2 217.201 134.6 215.101 136.7V137.8H238.001V136.7C235.901 134.7 235.701 132.6 235.901 129.8C236.101 126.7 237.001 123.5 238.001 118.3H293.101C294.401 123.5 295.401 126.6 296.101 130.7C296.501 132.6 296.101 135.7 294.001 136.6V137.7H320.801V136.6C318.701 134.6 317.201 132.5 315.501 129.7C313.601 126.4 312.101 122.8 310.001 117.7L308.301 113.5ZM159.501 128.7C182.101 128.7 196.501 110.4 196.501 83.8999C196.501 57.3999 182.201 39.2999 159.501 39.2999C136.801 39.2999 122.301 57.5999 122.301 83.8999C122.301 110.2 137.801 128.7 159.501 128.7ZM159.501 139.8C128.601 139.8 104.601 115.4 105.701 83.8999C104.601 52.3999 128.501 28.0999 159.501 29.2999C191.601 28.1999 214.201 52.4999 214.201 83.8999C214.201 115.4 190.401 139.8 159.501 139.8Z" fill="white"/>
</svg>
