<svg width="681" height="169" viewBox="0 0 681 169" fill="none" xmlns="http://www.w3.org/2000/svg">
<g clip-path="url(#clip0_3371_842)">
<path d="M29.4081 97.9786H20.2336V138.528H0.751953V30.6991H29.4081C48.8897 30.6991 58.404 40.1001 58.404 57.3164V71.3613C58.2907 88.5776 48.7764 97.9786 29.4081 97.9786ZM38.9224 56.297C38.9224 48.595 35.5244 46.1031 29.4081 46.1031H20.2336V82.5745H29.4081C35.6377 82.5745 38.9224 80.0827 38.9224 72.3807V56.297ZM65.5397 138.528V30.6991H85.0213V123.124H116.962V138.528H65.5397ZM150.942 139.887C131.913 139.887 121.946 130.033 121.946 112.816V30.6991H141.427V113.949C141.427 121.651 145.278 124.369 151.508 124.369C157.738 124.369 161.589 121.651 161.589 113.949V30.6991H179.938V112.816C179.824 130.033 169.97 139.887 150.942 139.887ZM219.581 93.7878V78.3837H246.764V112.59C246.764 129.806 236.91 139.66 217.768 139.66C198.74 139.66 188.772 129.806 188.772 112.59V56.5235C188.772 39.3072 198.626 29.4531 217.768 29.4531C236.797 29.4531 246.764 39.3072 246.764 56.5235V66.9439H228.415V55.3909C228.415 47.6888 224.564 44.7439 218.335 44.7439C212.105 44.7439 208.254 47.6888 208.254 55.3909V113.609C208.254 121.311 212.105 124.03 218.335 124.03C224.564 124.03 228.415 121.311 228.415 113.609V93.7878H219.581ZM460.836 97.9786H451.661V138.528H432.18V30.6991H460.836C480.317 30.6991 489.832 40.1001 489.832 57.3164V71.3613C489.718 88.6909 480.204 97.9786 460.836 97.9786ZM470.35 56.297C470.35 48.595 466.952 46.1031 460.836 46.1031H451.661V82.5745H460.836C467.065 82.5745 470.35 80.0827 470.35 72.3807V56.297ZM496.967 138.528V30.6991H516.449V123.124H548.39V138.528H496.967ZM603.663 138.528L600.265 118.933H576.366L572.968 138.528H555.072L574.894 30.6991H603.323L623.145 138.528H603.663ZM588.372 49.8409L578.971 104.435H597.66L588.372 49.8409ZM655.765 102.849V138.641H636.284V102.849L611.705 30.6991H631.98L646.817 79.8562L661.655 30.6991H680.344L655.765 102.849ZM296.148 42.9317H274.401L259.223 125.615H272.928L275.534 110.664H293.769L296.374 125.615H311.439L296.148 42.9317ZM284.482 57.5429L291.617 99.3378H277.233L284.482 57.5429ZM348.476 125.502H363.767V42.8185H350.515V92.3154L335.224 42.8185H316.536V125.502H329.901V65.698L348.476 125.502ZM372.375 125.615H395.935C410.772 125.615 418.135 118.366 418.135 105.228V63.4327C418.135 50.1807 410.772 43.045 395.935 43.045H372.375V125.615ZM395.595 54.7113C400.352 54.7113 403.184 56.8633 403.184 62.7531V105.681C403.184 111.57 400.352 113.723 395.595 113.723H387.213V54.7113H395.595Z" fill="white"/>
<path fill-rule="evenodd" clip-rule="evenodd" d="M311.437 125.615L296.146 42.9314H274.4L259.223 125.615L272.927 125.615L275.532 110.664L275.533 110.664H293.769L296.374 125.615L311.437 125.615ZM291.617 99.3375L284.481 57.5426L277.232 99.3375H291.617ZM363.766 125.502L348.476 125.502L329.9 65.6977V65.7003L329.899 65.6977V125.502L316.535 125.502V42.8181H335.223L350.514 92.3151V92.3124L350.514 92.315V42.8181L363.766 42.8181V125.502ZM395.934 125.615H372.375V43.0446L395.933 43.0447C395.933 43.0447 395.934 43.0446 395.934 43.0446C397.337 43.0446 398.673 43.1084 399.942 43.2351C412.097 44.4487 418.133 51.4335 418.133 63.4324V105.227C418.133 116.723 412.497 123.711 401.148 125.278C399.527 125.502 397.789 125.615 395.934 125.615ZM403.183 62.7528C403.183 56.863 400.351 54.711 395.594 54.711H387.212V113.722H395.594C400.351 113.722 403.183 111.57 403.183 105.68V62.7528Z" fill="#E0E0E0"/>
</g>
<defs>
<clipPath id="clip0_3371_842">
<rect width="680.724" height="169" fill="white" transform="translate(0.166016)"/>
</clipPath>
</defs>
</svg>
