<svg width="480" height="120" viewBox="0 0 480 120" fill="none" xmlns="http://www.w3.org/2000/svg">
<path d="M194.518 32.1265H203.738V77.1757H194.518V32.1265Z" fill="black"/>
<path d="M208.617 60.1056C208.617 49.7994 216.348 42.3516 226.898 42.3516C237.487 42.3516 245.178 49.7994 245.178 60.1056C245.178 70.4117 237.487 77.8596 226.898 77.8596C216.308 77.8596 208.617 70.4117 208.617 60.1056ZM226.898 69.2845C232.052 69.2845 235.837 65.4599 235.837 60.1861C235.837 54.9122 232.052 51.0877 226.898 51.0877C221.744 51.0877 217.959 54.9122 217.959 60.1861C217.959 65.3794 221.744 69.2845 226.898 69.2845Z" fill="black"/>
<path d="M250.047 62.8038V43.0369H259.268V61.7168C259.268 66.6284 261.563 69.3257 265.67 69.3257C270.502 69.3257 273.562 66.3063 273.562 61.5155V43.0771H282.783V77.1761H274.085L273.844 73.1502C271.226 76.1696 267.482 77.78 263.053 77.78C254.879 77.8202 250.047 72.5464 250.047 62.8038Z" fill="black"/>
<path d="M288.301 60.1061C288.301 49.8 295.468 42.3521 305.252 42.3521C309.198 42.3521 312.702 43.5599 315.56 45.7741V32.1265H324.781V77.1757H316.809L316.446 73.7538C313.467 76.3303 309.641 77.8601 305.252 77.8601C295.106 77.8601 288.301 70.0097 288.301 60.1061ZM306.581 69.2851C311.856 69.2851 315.641 65.5008 315.641 60.1867C315.641 54.8725 311.856 51.0882 306.581 51.0882C301.347 51.0882 297.602 54.8725 297.602 60.1867C297.562 65.4203 301.347 69.2851 306.581 69.2851Z" fill="black"/>
<path d="M329.207 43.842V43.0771H338.79L341.81 52.9807L345.353 64.0921L352.964 44.8888H359.97L367.701 64.1323L371.204 52.9405L374.224 43.0369H383.726V43.8018L372.371 77.1359H363.755L360.332 68.3595L356.386 57.7715L352.36 68.3595L348.856 77.1359H340.361L329.207 43.842Z" fill="black"/>
<path d="M384.572 60.1056C384.572 49.6786 391.86 42.3516 401.765 42.3516C406.114 42.3516 409.98 43.8814 412.838 46.4579L413.201 43.036H421.173V77.1349H413.201L412.838 73.7129C409.859 76.2895 406.034 77.8193 401.765 77.8193C391.538 77.8596 384.572 70.1299 384.572 60.1056ZM402.973 69.2845C408.208 69.2845 411.953 65.5002 411.953 60.1861C411.953 54.872 408.168 51.0877 402.973 51.0877C397.699 51.0877 393.914 54.872 393.914 60.1861C393.914 65.4197 397.699 69.2845 402.973 69.2845Z" fill="black"/>
<path d="M429.271 32.1265H438.492V77.1757H429.271V32.1265Z" fill="black"/>
<path d="M455.359 62.1593V77.1757H446.139V32.1265H455.359V57.6101L465.144 42.9963H475.532V43.8417L464.339 59.5022L476.66 76.29V77.1355H465.828L455.359 62.1593Z" fill="black"/>
<path d="M175.436 69.2863C170.161 69.2863 166.618 65.5423 166.618 60.1879C166.618 54.8335 170.161 51.0895 175.436 51.0895C178.778 51.0895 181.556 52.7401 183.046 55.5179L190.616 50.9284C187.636 45.6948 182.08 42.5144 175.275 42.5144C164.725 42.5144 157.316 49.922 157.316 60.2684C157.316 70.6149 164.765 78.0224 175.275 78.0224C182.16 78.0224 187.717 74.8017 190.696 69.6084L182.845 65.3007C181.315 67.676 178.738 69.2863 175.436 69.2863Z" fill="black"/>
<path d="M20.8209 22.7856C11.4794 32.3672 5.76172 45.4914 5.76172 59.9443C5.76172 74.3971 11.4794 87.4408 20.8209 97.0626C15.9086 85.6694 13.2108 73.149 13.2108 59.9845C13.1303 46.7395 15.9086 34.2191 20.8209 22.7856Z" fill="black"/>
<path d="M26.9418 102.497C31.0086 105.597 35.5988 108.093 40.4709 109.905C30.0019 95.9753 23.8011 78.6641 23.8011 59.9439C23.8011 41.1432 30.0422 23.832 40.5514 9.90259C35.6793 11.7545 31.0891 14.2102 26.9418 17.3102C20.1772 30.0318 16.2715 44.5249 16.2715 59.9439C16.352 75.3629 20.1772 89.856 26.9418 102.497Z" fill="black"/>
<path d="M45.9442 111.636C49.7291 112.602 53.7557 113.125 57.8225 113.246C43.488 100.001 34.5089 81.0394 34.5089 60.0245C34.5089 38.929 43.488 19.9672 57.903 6.72217C53.8362 6.84294 49.8902 7.3663 46.0247 8.33251C34.1062 22.2217 27.0195 40.2575 27.0195 59.9842C27.0195 79.7109 34.1062 97.7064 45.9442 111.636Z" fill="black"/>
<path d="M37.6914 59.9847C37.6914 81.3217 47.3953 100.445 62.5754 113.086C65.5953 112.925 68.5346 112.442 71.3935 111.757C54.925 100.404 44.0936 81.4425 44.0936 59.9444C44.0936 38.4061 54.925 19.4444 71.4337 8.09147C68.5749 7.40708 65.6355 6.96423 62.6156 6.76294C47.3551 19.5249 37.6914 38.6074 37.6914 59.9847Z" fill="black"/>
<path d="M48.3242 59.9841C48.3242 81.3211 59.7193 100.001 76.7515 110.227C79.3285 109.301 81.7847 108.214 84.1603 106.966C66.7255 98.4712 54.7667 80.6769 54.7667 59.9841C54.7667 39.2912 66.806 21.4567 84.2409 13.0024C81.9055 11.7544 79.409 10.6674 76.832 9.74146C59.7596 20.0074 48.3242 38.6873 48.3242 59.9841Z" fill="black"/>
<path d="M58.9902 59.9843C58.9902 79.9928 71.1906 97.0624 88.5449 104.269C90.3166 103.141 91.9675 101.813 93.5781 100.444C76.5459 94.8482 64.3052 78.8253 64.3052 59.9843C64.3052 41.0628 76.6264 25.0802 93.6586 19.4842C92.048 18.1154 90.3971 16.8674 88.6255 15.6597C71.1906 22.8659 58.9902 39.9758 58.9902 59.9843Z" fill="black"/>
<path d="M69.6621 59.9842C69.6621 77.5369 81.7417 92.2312 98.0894 96.2168C99.4585 94.7273 100.707 93.1974 101.915 91.5871C86.6541 89.1716 74.9771 75.9265 74.9771 60.0244C74.9771 44.0821 86.6541 30.837 101.955 28.4618C100.747 26.8514 99.4987 25.2411 98.1297 23.832C81.7417 27.7371 69.6621 42.4717 69.6621 59.9842Z" fill="black"/>
<path d="M81.3398 59.9843C81.3398 73.6722 92.1712 84.9044 105.741 85.468C109.848 77.8994 112.264 69.2035 112.264 59.9038C112.264 50.6846 109.928 41.9485 105.781 34.4202C92.1712 35.0643 81.3398 46.2159 81.3398 59.9843Z" fill="black"/>
</svg>
