<svg width="280" height="169" viewBox="0 0 280 169" fill="none" xmlns="http://www.w3.org/2000/svg">
<g clip-path="url(#clip0_3371_832)">
<path fill-rule="evenodd" clip-rule="evenodd" d="M115.652 169C102.74 169 88.9707 160.871 88.9707 145.311C88.9707 129.053 102.74 121.373 115.652 121.373C128.463 121.373 142.232 129.951 142.232 145.411C142.232 161.12 128.463 169 115.652 169ZM115.652 129.302C105.161 129.302 98.2007 136.384 98.2007 145.461C98.2007 154.138 105.161 161.07 115.652 161.07C126.042 161.07 133.002 154.338 133.002 145.461C133.002 136.434 126.042 129.302 115.652 129.302Z" fill="white"/>
<path d="M24.2078 168.402C29.9073 168.402 35.0518 166.906 38.6832 165.21C42.4156 163.514 45.1898 161.669 46.4506 160.472V142.568H23.4008L23.3 149.5H37.9771V155.934C34.6482 158.577 29.2517 160.372 24.1574 160.372C15.8353 160.372 8.97585 154.338 8.97585 144.862C8.97585 135.437 15.3814 129.801 24.1574 129.801C28.1419 129.801 31.622 130.4 34.043 131.347C36.0607 132.145 40.9024 134.439 42.3651 135.487L46.5011 129.502C45.3409 128.305 40.1459 124.814 35.7579 123.468C31.4204 122.171 26.5784 121.922 24.2583 121.922C12.9099 121.922 -0.00195312 129.502 -0.00195312 145.012C-0.00195312 160.272 12.7082 168.402 24.2078 168.402Z" fill="white"/>
<path d="M52.4004 122.669L52.5013 167.753H90.7327V159.923H62.2356V122.669H52.4004Z" fill="white"/>
<path fill-rule="evenodd" clip-rule="evenodd" d="M147.123 167.753H171.888C180.361 167.753 188.028 163.015 188.028 155.385C188.028 150.498 184.094 145.71 180.26 145.012C180.311 144.912 180.26 144.862 180.26 144.862C184.043 143.366 187.523 140.224 187.523 135.087C187.523 128.255 181.269 122.669 171.131 122.669H147.224L147.123 167.753ZM156.656 129.801H170.375C175.822 129.701 178.545 132.594 178.545 135.736C178.545 139.177 175.015 141.92 169.568 141.92L156.656 141.87V129.801ZM156.656 148.602H170.122C175.57 148.602 178.293 151.495 178.293 154.886C178.293 158.178 175.015 160.671 169.568 160.671H156.656V148.602Z" fill="white"/>
<path fill-rule="evenodd" clip-rule="evenodd" d="M226.763 167.753L222.325 157.679L201.292 157.729L196.804 167.753H187.473L208.404 122.52H216.424L236.447 167.753H226.763ZM211.985 133.541H211.935L204.42 150.398H219.349L211.985 133.541Z" fill="white"/>
<path d="M240.281 122.669L240.382 167.753H278.613V159.923H250.116V122.669H240.281Z" fill="white"/>
<path d="M185.377 65.6186C185.377 59.4346 183.344 54.0485 179.178 50.1587C174.909 46.2687 168.913 43.4757 161.189 41.5807C157.428 40.6831 152.855 39.7854 147.57 38.8878C142.285 37.9901 138.219 37.2917 135.475 36.6933C130.394 35.5962 127.04 34.0004 125.719 32.7038C124.296 31.3072 123.584 29.7114 123.584 27.0183V26.7191C123.686 24.0261 124.906 22.0312 128.768 19.9366C132.223 18.0415 137 17.0441 143.098 17.0441H144.622C150.924 17.2435 156.92 18.241 162.815 20.0363C168.913 22.0312 172.063 24.1258 175.824 26.9186L183.344 12.9546C183.344 12.9546 171.047 5.17472 165.051 3.87807C158.952 2.58143 152.346 1.78347 145.13 1.58398H142.996C132.63 1.58398 123.686 3.6786 116.267 7.96751C108.441 12.4559 103.868 19.2384 103.664 27.2178V28.0158C103.664 34.3993 106.002 40.0846 110.677 44.3736C115.454 48.8618 122.568 51.7545 131.715 53.6495C136.187 54.5472 140.354 55.2453 144.317 55.844C148.179 56.4424 151.737 57.1406 154.989 57.9385C159.156 58.9359 162.002 60.3322 163.628 61.6291C164.847 62.7262 165.559 64.2223 165.66 67.1147V67.6136C165.457 70.7055 164.136 72.8997 160.071 75.0942C156.412 76.9892 151.025 78.0864 144.114 78.0864H142.183C136.695 77.9866 130.699 76.8895 124.296 74.8948C117.893 72.8997 109.762 66.3168 109.762 66.3168L100.514 80.7796C105.799 85.1683 115.352 89.856 121.552 91.2526C127.548 92.5492 134.256 93.3471 141.573 93.5465H144.216C150.009 93.5465 155.192 93.0479 159.766 91.851C164.847 90.5541 169.421 88.7588 173.384 86.2654C177.043 83.9712 180.092 80.979 182.227 77.4879C184.361 73.9971 185.58 70.3065 185.682 66.5162C185.343 66.2669 185.357 66.0175 185.371 65.7682C185.374 65.7183 185.377 65.6685 185.377 65.6186Z" fill="white"/>
<path fill-rule="evenodd" clip-rule="evenodd" d="M88.9266 24.5248C84.9631 18.1413 79.2716 12.9547 72.1574 9.16448C67.8886 6.87041 62.807 5.17481 57.0141 3.9779C51.0177 2.68124 43.1921 2.08276 33.5368 2.08276H-0.00195312V92.4494H33.8417C42.9886 92.4494 50.408 91.9507 56.201 90.7539C61.9939 89.6568 67.279 87.8612 72.0556 85.268C78.9666 81.5775 84.5564 76.3908 88.7234 69.7081C92.8904 63.0254 95.0248 55.4451 95.0248 47.266C95.0248 38.6883 92.9919 31.008 88.9266 24.5248ZM75.3078 47.1663C75.3078 53.3503 74.19 58.3375 72.0556 62.2275C69.9213 66.1173 66.6691 69.2094 62.1974 71.7029C58.5386 73.6979 54.5748 75.0942 50.2045 75.7924C45.7329 76.5903 40.3463 76.9892 34.2481 76.9892H19.0034V17.7423H34.2481C40.1431 17.7423 45.2247 18.1413 49.3914 18.8395C53.457 19.5377 57.319 20.7346 60.8761 22.53C65.7545 24.9238 69.2099 28.1156 71.6492 32.1053C74.0883 35.8954 75.3078 40.8825 75.3078 47.1663Z" fill="white"/>
<path d="M188.117 17.7421V1.88306H277.553V17.7421H242.389V92.2497H223.282V17.7421H188.117Z" fill="white"/>
</g>
<defs>
<clipPath id="clip0_3371_832">
<rect width="280" height="169" fill="white"/>
</clipPath>
</defs>
</svg>
