<svg width="488" height="170" viewBox="0 0 488 170" fill="none" xmlns="http://www.w3.org/2000/svg">
<path d="M454.69 73.7746L470.993 101.712H487.202L469.784 71.5709C474.828 69.544 479.152 66.0523 482.202 61.5441C485.518 56.8902 487.269 51.2989 487.202 45.5805C487.248 41.9021 486.537 38.2536 485.113 34.8634C483.688 31.4732 481.581 28.4142 478.922 25.8778C476.334 23.2415 473.238 21.1601 469.823 19.7602C466.407 18.3602 462.743 17.671 459.054 17.7343H416.796V101.712H430.809V31.7535H459.054C460.892 31.7321 462.714 32.0862 464.411 32.7941C466.108 33.502 467.643 34.549 468.923 35.8711C470.25 37.1307 471.303 38.6519 472.016 40.3391C472.728 42.0263 473.085 43.843 473.064 45.6751C473.048 49.3953 471.567 52.9587 468.943 55.5899C466.319 58.2211 462.765 59.7072 459.054 59.7249H454.468M224.084 101.682H278.852V87.6077H237.714V17.4138H224.084V101.682ZM16.4681 15.5H0.00390625L44.3298 101.682L88.6222 15.5H72.161L44.3298 69.477L16.4681 15.5ZM174.113 101.682H190.584L146.242 15.5L101.901 101.682H118.369L146.209 47.7385L174.113 101.682ZM346.642 32.4495C350.329 32.4085 353.985 33.1177 357.39 34.5343C360.795 35.9508 363.879 38.0452 366.453 40.6907C369.109 43.2358 371.214 46.3012 372.639 49.6964C374.063 53.0916 374.775 56.744 374.732 60.4269C374.767 64.1275 374.051 67.7966 372.627 71.2113C371.204 74.6261 369.103 77.7153 366.453 80.2913C363.849 82.9029 360.749 84.9637 357.336 86.3516C353.923 87.7395 350.267 88.4261 346.584 88.3708C342.888 88.4213 339.218 87.7329 335.79 86.3456C332.362 84.9584 329.244 82.9002 326.618 80.2913C323.992 77.7017 321.914 74.6079 320.507 71.1948C319.101 67.7817 318.396 64.1195 318.433 60.4269C318.403 56.7424 319.125 53.0907 320.555 49.6962C321.984 46.3017 324.091 43.236 326.746 40.6876C329.342 38.0465 332.44 35.9557 335.859 34.5399C339.277 33.1241 342.944 32.4152 346.642 32.4495ZM346.709 18.4394C341.159 18.3279 335.646 19.3637 330.513 21.4822C325.38 23.6006 320.737 26.7562 316.874 30.7524C312.882 34.5719 309.718 39.1759 307.581 44.2765C305.444 49.3771 304.38 54.8647 304.454 60.3964C304.365 65.9247 305.424 71.4111 307.562 76.5079C309.7 81.6046 312.871 86.2004 316.874 90.0038C333.372 106.468 360.049 106.468 376.547 90.0038C380.596 86.2297 383.807 81.6422 385.968 76.5407C388.13 71.4391 389.194 65.9381 389.092 60.3964C389.164 54.8536 388.086 49.3563 385.926 44.2533C383.767 39.1502 380.573 34.5527 376.547 30.7524C372.675 26.7676 368.03 23.6193 362.899 21.5012C357.767 19.3832 352.258 18.3432 346.709 18.4394Z" fill="white"/>
<path d="M452.178 150.934C450.387 151.646 448.47 151.984 446.544 151.926C445.137 152.026 443.725 151.822 442.403 151.325C441.082 150.829 439.883 150.053 438.889 149.05C437.894 148.047 437.127 146.84 436.64 145.513C436.153 144.186 435.957 142.768 436.067 141.358C435.997 139.891 436.236 138.426 436.768 137.057C437.301 135.688 438.115 134.448 439.157 133.415C440.199 132.382 441.446 131.581 442.818 131.063C444.189 130.546 445.654 130.323 447.117 130.41C448.852 130.335 450.581 130.652 452.178 131.338L451.477 133.538C450.138 132.932 448.68 132.637 447.211 132.678C446.081 132.598 444.948 132.766 443.89 133.171C442.832 133.576 441.875 134.208 441.087 135.023C440.298 135.838 439.696 136.816 439.324 137.888C438.952 138.96 438.818 140.101 438.932 141.23C438.821 142.335 438.954 143.451 439.32 144.499C439.686 145.548 440.277 146.503 441.052 147.297C441.826 148.091 442.765 148.706 443.801 149.098C444.838 149.489 445.948 149.648 447.053 149.563C448.604 149.597 450.145 149.303 451.575 148.699L452.178 150.934ZM414.222 130.889H417.151V149.435H426.256V151.669H414.38L414.222 130.889ZM389.99 130.889H392.761V149.435H401.835V151.669H389.99V130.889ZM364.93 155.5C365.782 153.088 366.428 150.616 366.851 148.095L370.054 147.774C369.263 150.384 368.188 152.899 366.851 155.277L364.93 155.5ZM352.893 141.166C353.639 141.307 354.394 141.371 355.152 141.358C358.337 141.358 360.502 139.762 360.502 136.954C360.502 134.146 358.462 132.836 355.472 132.836C354.607 132.813 353.741 132.888 352.893 133.059V141.166ZM350.152 131.112C351.892 130.855 353.649 130.728 355.408 130.73C357.545 130.562 359.671 131.173 361.394 132.455C362.609 133.563 363.282 135.147 363.24 136.795C363.293 138.439 362.711 140.039 361.617 141.264C359.864 142.812 357.584 143.623 355.25 143.529C354.512 143.551 353.774 143.487 353.051 143.339V151.669H350.28L350.152 131.112ZM323.119 130.889V143.196C323.119 147.832 325.22 149.813 328.085 149.813C330.954 149.813 333.246 147.768 333.246 143.196V130.794H336.048V142.973C336.048 149.365 332.577 151.956 327.991 151.956C323.405 151.956 320.348 149.59 320.348 143.196V130.794L323.119 130.889ZM290.924 141.358C290.924 145.861 293.378 149.816 297.739 149.816C302.102 149.816 304.554 145.891 304.554 141.2C304.554 137.018 302.358 132.708 297.772 132.708C293.187 132.708 290.924 136.795 290.924 141.264V141.358ZM307.422 141.071C307.422 148.189 302.97 152.02 297.565 152.02C296.222 152.028 294.892 151.75 293.663 151.206C292.434 150.662 291.334 149.864 290.434 148.864C289.534 147.863 288.854 146.683 288.439 145.4C288.025 144.118 287.885 142.763 288.028 141.423C287.721 138.617 288.616 135.815 290.492 133.715C291.418 132.677 292.552 131.845 293.82 131.276C295.088 130.706 296.462 130.411 297.852 130.41C299.195 130.398 300.526 130.672 301.756 131.212C302.987 131.752 304.089 132.547 304.992 133.545C306.819 135.559 307.702 138.263 307.422 140.977V141.071ZM265.578 140.626H268.413C271.342 140.626 273.19 139.06 273.19 136.667C273.19 134.274 271.214 132.836 268.318 132.836C267.4 132.801 266.482 132.866 265.578 133.029V140.626ZM262.84 131.048C264.59 130.78 266.357 130.643 268.126 130.636C270.313 130.418 272.502 131.021 274.271 132.327C275.38 133.352 275.995 134.805 275.958 136.316C275.955 137.508 275.564 138.666 274.846 139.616C274.128 140.565 273.122 141.255 271.978 141.581C273.708 142.308 274.923 143.901 275.163 145.763C275.538 147.716 276.092 149.627 276.82 151.477H273.857C273.237 149.878 272.778 148.222 272.487 146.532C271.85 143.657 270.672 142.573 268.19 142.476H265.578V151.48H262.837L262.84 131.048ZM249.339 150.647C247.238 151.41 245.015 151.797 242.78 151.797C239.869 151.967 237.008 150.98 234.817 149.05C233.321 147.452 232.336 145.442 231.988 143.279C231.641 141.115 231.948 138.896 232.869 136.909C233.791 134.921 235.284 133.256 237.158 132.126C239.032 130.997 241.2 130.455 243.383 130.572C245.202 130.523 247.013 130.848 248.702 131.527L248.002 133.697C246.526 133.056 244.927 132.752 243.319 132.806C242.187 132.702 241.047 132.845 239.975 133.226C238.904 133.606 237.928 134.215 237.114 135.009C236.3 135.804 235.667 136.766 235.26 137.83C234.852 138.893 234.68 140.032 234.753 141.169C234.648 142.284 234.787 143.408 235.161 144.464C235.534 145.519 236.133 146.48 236.915 147.28C237.698 148.079 238.645 148.698 239.69 149.092C240.736 149.486 241.855 149.647 242.969 149.563C244.217 149.636 245.463 149.45 246.632 149.02V142.827H242.332V140.659H249.339V150.647ZM190.303 130.794H193.08V149.34H202.209V151.574H190.272L190.303 130.794ZM172.118 142.955L170.017 136.954C169.539 135.58 169.222 134.369 168.902 133.157C168.586 134.369 168.266 135.644 167.822 136.923L165.593 142.955H172.118ZM165.115 145.03L162.913 151.571H160.081L167.34 130.791H170.525L177.785 151.571H174.855L172.563 145.027L165.115 145.03ZM143.048 133.059H136.677V130.794H152.441V133.059H146.071V151.574H143.3L143.048 133.059ZM124.838 130.794V151.574H122.092V130.794H124.838ZM98.7216 141.071C99.4677 141.215 100.223 141.279 100.981 141.264C104.166 141.264 106.331 139.667 106.331 136.859C106.331 134.051 104.294 132.739 101.301 132.739C100.435 132.715 99.5699 132.791 98.7216 132.965V141.071ZM95.9202 131.017C97.6708 130.762 99.4374 130.635 101.206 130.636C103.333 130.466 105.449 131.078 107.159 132.357C108.423 133.477 109.114 135.104 109.038 136.795C109.074 137.613 108.945 138.43 108.661 139.198C108.376 139.965 107.941 140.668 107.382 141.264C105.632 142.818 103.35 143.63 101.015 143.529C100.239 143.508 99.4682 143.39 98.7216 143.178V151.51H95.9507L95.9202 131.017ZM77.7051 142.955L75.6041 136.954C75.126 135.58 74.8063 134.369 74.4896 133.157C74.1699 134.369 73.8502 135.644 73.4056 136.923L71.335 142.955H77.7051ZM70.7078 145.03L68.5062 151.574H65.6683L72.9397 130.794H76.1309L83.4023 151.574H80.47L78.171 145.03H70.7078ZM54.3318 150.934C52.5404 151.643 50.624 151.98 48.6986 151.926C47.2913 152.026 45.8788 151.822 44.5576 151.325C43.2365 150.829 42.0376 150.053 41.043 149.05C40.0484 148.047 39.2814 146.84 38.7943 145.513C38.3073 144.186 38.1116 142.768 38.2208 141.358C38.1503 139.885 38.3911 138.414 38.9273 137.041C39.4636 135.668 40.2832 134.423 41.3324 133.39C42.3817 132.356 43.637 131.556 45.0161 131.043C46.3952 130.529 47.867 130.314 49.335 130.41C51.0706 130.34 52.7972 130.654 54.3958 131.338L53.6954 133.538C52.3557 132.935 50.8978 132.641 49.4294 132.678C48.2983 132.598 47.1634 132.766 46.1038 133.171C45.0442 133.576 44.0854 134.207 43.2941 135.021C42.5028 135.835 41.898 136.813 41.522 137.885C41.1459 138.957 41.0076 140.099 41.1166 141.23C41.0114 142.337 41.1487 143.453 41.5188 144.501C41.889 145.549 42.483 146.503 43.2594 147.297C44.0358 148.09 44.9758 148.704 46.0137 149.096C47.0516 149.487 48.1622 149.647 49.268 149.563C50.8191 149.597 52.36 149.303 53.7898 148.699L54.3318 150.934Z" fill="white"/>
</svg>
