<?xml version="1.0" encoding="UTF-8"?>
<svg id="Camada_2" data-name="Camada 2" xmlns="http://www.w3.org/2000/svg" viewBox="0 0 539.84 117.27">
  <defs>
    <style>
      .cls-1 {
        fill: #fff;
        stroke-width: 0px;
      }
    </style>
  </defs>
  <g id="Camada_11" data-name="Camada 11">
    <g>
      <path class="cls-1" d="M174.9,78.11l10.15-39.1c.81-3.07,2.41-4.6,4.8-4.6s3.99,1.53,4.8,4.6l10.15,39.1c.22.81.65,1.22,1.29,1.22s1.01-.5,1.15-1.49l10.69-42.88h3.72l-11.23,43.9c-.72,2.66-2.21,3.99-4.46,3.99-1.44,0-2.5-.4-3.18-1.18s-1.2-1.84-1.56-3.15l-10.28-38.89c-.18-.9-.54-1.35-1.08-1.35s-.9.45-1.08,1.35l-10.28,38.89c-.23.81-.47,1.49-.74,2.03-.27.54-.76,1.06-1.45,1.56-.7.5-1.55.74-2.54.74-2.26,0-3.74-1.33-4.46-3.99l-11.23-43.9h3.72l10.69,42.88c.14.99.52,1.49,1.15,1.49s1.06-.41,1.29-1.22Z"/>
      <path class="cls-1" d="M255.66,82.31h-17.59c-4.6,0-7.81-1.53-9.64-4.6-1.83-3.07-2.74-7.42-2.74-13.05,0-6.4,1.12-11.1,3.35-14.1,2.23-3,6.23-4.5,12.01-4.5,10.28,0,15.42,4.56,15.42,13.66,0,2.12-.36,3.63-1.08,4.53-.72.9-2.07,1.35-4.06,1.35h-21.98c0,1.8.1,3.41.3,4.8.2,1.4.59,2.81,1.15,4.23.56,1.42,1.46,2.53,2.71,3.31,1.24.79,2.76,1.18,4.57,1.18h17.59v3.18ZM229.35,62.42h21.98c.99,0,1.49-.54,1.49-1.62v-.47c0-4.19-.96-7.09-2.87-8.69-1.92-1.6-4.86-2.4-8.83-2.4s-7.15.96-9,2.87c-1.85,1.92-2.77,5.36-2.77,10.32Z"/>
      <path class="cls-1" d="M279,82.31h-7.58c-2.53,0-4.36-.35-5.51-1.05-1.15-.7-1.72-2.22-1.72-4.57v-41.73h3.52v11.5h11.29c5.5,0,9.32,1.43,11.47,4.3,2.14,2.86,3.21,7.34,3.21,13.43s-1.07,10.69-3.21,13.66c-2.14,2.98-5.96,4.46-11.47,4.46ZM267.7,49.64v26.72c0,1.04.14,1.76.41,2.16.27.41.97.61,2.1.61h8.79c2.3,0,4.21-.35,5.72-1.05,1.51-.7,2.64-1.76,3.38-3.18.74-1.42,1.25-2.95,1.52-4.6.27-1.65.41-3.69.41-6.12,0-4.91-.73-8.57-2.2-10.96-1.47-2.39-4.41-3.59-8.83-3.59h-11.29Z"/>
    </g>
    <g>
      <g>
        <path class="cls-1" d="M348.84,39.89v8.49h-22.48c-1.08,0-1.84.22-2.28.66-.44.44-.66,1.2-.66,2.28v6.06h24.85v8.12h-24.85v6.68c0,1.08.22,1.84.66,2.28.44.44,1.2.66,2.28.66h22.73v8.49h-30.28c-4.41,0-6.62-2.23-6.62-6.68v-30.28c0-4.5,2.21-6.74,6.62-6.74h30.03Z"/>
        <path class="cls-1" d="M353.08,83.6v-7.18h18.36c1.5,0,2.25-.67,2.25-2,0-.42-.12-.79-.37-1.12-.25-.33-.62-.61-1.12-.84-.5-.23-.97-.42-1.41-.56-.44-.15-.97-.29-1.59-.44-.62-.15-1.06-.26-1.31-.34l-6.74-2.06c-3.12-.96-5.31-2.14-6.56-3.56-1.25-1.41-1.87-3.47-1.87-6.18,0-3.04.74-5.27,2.22-6.68,1.48-1.41,3.78-2.12,6.9-2.12h20.6v7.18h-17.73c-1.75,0-2.62.56-2.62,1.69,0,.79.34,1.38,1.03,1.78.69.4,1.7.8,3.03,1.22l7.74,2.37c1.66.5,3,.97,4,1.4,1,.44,2,1.04,3,1.81,1,.77,1.72,1.74,2.15,2.9.44,1.17.66,2.56.66,4.18,0,2.87-.68,5.02-2.03,6.43-1.35,1.42-3.49,2.12-6.4,2.12h-22.17Z"/>
        <path class="cls-1" d="M409.09,83.6h-6.81c-8.2,0-12.3-3.66-12.3-10.99v-14.92h-4.62v-7.18h4.62v-10.61h9.74v10.61h9.37v7.18h-9.37v11.36c0,2.54.6,4.4,1.81,5.59,1.21,1.19,3.12,1.78,5.74,1.78h1.81v7.18Z"/>
        <path class="cls-1" d="M445.18,50.51v26.85c0,4.16-2.08,6.24-6.24,6.24h-13.99c-4.08,0-7.26-.96-9.55-2.87-2.29-1.91-3.43-4.91-3.43-8.99v-21.23h9.74v18.73c0,2.54.54,4.38,1.62,5.53,1.08,1.15,2.85,1.72,5.31,1.72h4.56c.79,0,1.35-.17,1.69-.5.33-.33.5-.89.5-1.69v-23.79h9.8ZM433,33.52l4.62,5.74-11.05,9.05-4.56-5.68,10.99-9.12Z"/>
        <path class="cls-1" d="M476.15,83.6h-13.05c-5.04,0-8.56-1.4-10.58-4.21-2.02-2.81-3.03-6.92-3.03-12.33s1.01-9.52,3.03-12.33c2.02-2.81,5.55-4.21,10.58-4.21h9.55v-10.61h9.74v37.46c0,4.16-2.08,6.24-6.24,6.24ZM472.65,73.92v-16.23h-6.81c-1.08,0-2.03.18-2.84.53-.81.35-1.44.81-1.87,1.37s-.78,1.28-1.03,2.15c-.25.87-.42,1.71-.5,2.5-.08.79-.12,1.73-.12,2.81,0,1.46.07,2.68.22,3.65.15.98.43,1.95.84,2.9.42.96,1.07,1.67,1.97,2.12.89.46,2.05.69,3.47.69h4.18c.91,0,1.56-.18,1.94-.53.37-.35.56-1.01.56-1.97Z"/>
        <path class="cls-1" d="M497.37,47.01h-9.74v-7.12h9.74v7.12ZM487.63,83.6v-33.09h9.74v33.09h-9.74Z"/>
      </g>
      <path class="cls-1" d="M535.66,53.49c-2.79-2.39-7.51-3.59-14.17-3.59s-11.38,1.2-14.17,3.59c-2.79,2.39-4.18,6.84-4.18,13.33s1.39,10.99,4.18,13.36c2.79,2.37,7.51,3.56,14.17,3.56s11.38-1.19,14.17-3.56c2.79-2.37,4.18-6.83,4.18-13.36s-1.39-10.94-4.18-13.33ZM521.16,72.4l-2.59,2.59-8-8,8.33-8.33,2.59,2.59-5.74,5.74,5.42,5.42ZM524.07,74.99l-2.59-2.59,5.74-5.74-5.42-5.42,2.59-2.59,8,8-8.33,8.33Z"/>
    </g>
    <path class="cls-1" d="M96.48,0H20.2C9.04,0,0,9.09,0,20.3v76.67c0,11.21,9.04,20.3,20.2,20.3h76.28c11.15,0,20.2-9.09,20.2-20.3V20.3c0-11.21-9.04-20.3-20.2-20.3ZM92.42,75.89v14.13h-46.46v-14.13h-13.69V31.04h13.69v-13.9h13.9v13.9h-13.9v44.84h32.56v-13.9h13.9v13.9ZM24.25,83.7h13.9v13.9h-13.9v-13.9ZM69.72,57.72h-4.01c-.89,0-1.53-.27-1.91-.8-.38-.54-.57-1.41-.57-2.63v-4.19c0-1.82.82-2.73,2.47-2.73h9.38v4.05h-6.33c-.68,0-1.02.42-1.02,1.27s.34,1.29,1.02,1.29h3.25c1.36,0,2.3.41,2.83,1.22.53.81.8,2.16.8,4.05s-.26,3.2-.79,4c-.53.8-1.47,1.19-2.84,1.19h-8.58v-4.05h6.29c.86,0,1.3-.45,1.3-1.34s-.43-1.32-1.3-1.32ZM60.74,53.85v4.14h-6.09v6.43h-4.51v-14.38c0-.84.19-1.5.58-1.97.39-.47.92-.71,1.62-.71h10.1v4.14h-6.91c-.59,0-.88.36-.88,1.07v1.27h6.09Z"/>
  </g>
</svg>