<?xml version="1.0" encoding="UTF-8"?>
<svg id="Camada_2" data-name="Camada 2" xmlns="http://www.w3.org/2000/svg" viewBox="0 0 500 500">
  <defs>
    <style>
      .cls-1 {
        fill: #fe9f00;
      }

      .cls-1, .cls-2 {
        stroke-width: 0px;
      }

      .cls-2 {
        fill: #fec007;
      }
    </style>
  </defs>
  <path class="cls-1" d="M441.42,452.95h-132.28c-6.99-2.92-9.45-8.15-9.43-15.68.14-86.1.07-172.19.06-258.29.02-37.33.06-74.66,0-112,0-4.51,1.99-7.69,5.33-10.37.68-.55,1.14-1.37,1.71-2.06,44.87,0,89.74,0,134.61,0,0,.37-.18.89,0,1.07,2.2,2.26,4.44,4.49,6.71,6.67.19.18.71.03,1.07.04v382.83c-.36,0-.88-.15-1.07.04-2.27,2.19-4.51,4.41-6.71,6.67-.18.18,0,.71,0,1.07Z"/>
  <path class="cls-2" d="M299.76,178.98c.01,86.1.08,172.19-.06,258.29-.01,7.53,2.45,12.76,9.43,15.68H57.81c-2.33-2.33-4.67-4.67-7-7,0-45.13,0-90.26,0-135.39.17.15.33.29.5.44,4.35-7.64,11.65-7.5,19.09-7.48,33.58.09,67.17.04,100.75.04h4.16c0-2.01,0-3.44,0-4.86,0-35.79,0-71.57.04-107.36,0-1.48.22-3.07.77-4.42,2.55-6.25,7.79-7.86,13.95-7.86,36.56,0,73.13-.04,109.69-.06Z"/>
</svg>