<?xml version="1.0" encoding="UTF-8"?>
<svg id="Camada_2" data-name="Camada 2" xmlns="http://www.w3.org/2000/svg" viewBox="0 0 2873.45 660.16">
  <defs>
    <style>
      .cls-1 {
        font-family: Magistral-Medium, Magistral;
        font-weight: 500;
      }

      .cls-1, .cls-2, .cls-3 {
        fill: #030f1a;
      }

      .cls-1, .cls-3 {
        font-size: 390px;
      }

      .cls-2 {
        stroke-width: 0px;
      }

      .cls-3 {
        font-family: Magistral-Light, Magistral;
        font-weight: 300;
      }
    </style>
  </defs>
  <g id="rascunhos">
    <g>
      <text class="cls-1" transform="translate(1507.3 547.45)"><tspan x="0" y="0">Estúdio</tspan></text>
      <text class="cls-3" transform="translate(709.14 544.33)"><tspan x="0" y="0">Web</tspan></text>
      <g>
        <g>
          <path class="cls-2" d="M294.29,367.08c0,2.93-2.4,5.33-5.33,5.33h-10.16c-2.93,0-5.33-2.4-5.33-5.33v-92.35c0-2.93.68-7.63,1.51-10.44l9.59-11.19c2.74-1.03,7.38-1.88,10.31-1.88h61.09c2.93,0,5.33,2.4,5.33,5.33v7.52c0,2.93-2.4,5.33-5.33,5.33h-48.47c-2.93,0-7.69.26-10.58.58l-1.05,1.15c-1.05,1.16-1.09,1.62-1.09,1.62-.27,2.92-.48,7.7-.48,10.63v13.41c0,2.93,2.4,5.33,5.33,5.33h38.22c2.93,0,5.33,2.4,5.33,5.33v7.52c0,2.93-2.4,5.33-5.33,5.33h-38.22c-2.93,0-5.33,2.4-5.33,5.33v41.45Z"/>
          <path class="cls-2" d="M375.14,372.41c-2.93,0-5.33-2.4-5.33-5.33v-7.52c0-2.93,2.4-5.33,5.33-5.33h40.12c2.93,0,7.68-.47,10.55-1.04,0,0,2.29-.46,4.08-3.46,1.79-3,2.68-7.67,2.68-14.02,0-5.65-.87-9.84-2.6-12.55-1.73-2.71-4.14-3.14-4.14-3.14-2.88-.51-7.64-.93-10.57-.93h-20.25c-2.93,0-7.71-.3-10.61-.67,0,0-6.54-.83-10.01-3.83-3.47-3-4.55-11.85-4.55-11.85-.36-2.91-.65-7.68-.65-10.61v-19.99c0-2.93.34-7.7.75-10.6,0,0,.48-3.38,2.95-6.15,2.47-2.77,5.7-3.3,5.7-3.3,2.89-.47,7.65-.86,10.58-.86h55.88c2.93,0,5.33,2.4,5.33,5.33v7.52c0,2.93-2.4,5.33-5.33,5.33h-44.53c-2.93,0-6.19.05-7.25.12l-.68.23c-.68.23-1.29.81-1.81,1.73l-.53.93c-.14,1.78-.26,5.63-.26,8.56v4.41c0,2.93.21,7.72.46,10.63,0,0,.09,1.01,1.19,2.57s1.27,1.58,1.27,1.58c2.9.42,7.67.75,10.6.75h20.72c2.93,0,7.68.46,10.56,1.01,0,0,10.14,1.96,13.77,7.9,3.63,5.95,5.44,14.28,5.44,25.02,0,4.27-.16,8.08-.47,11.43-.32,3.35-1,6.72-2.05,10.13-1.05,3.41-2.44,6.23-4.18,8.48s-4.1,4.07-7.09,5.45c-3,1.39-5.34,1.6-5.34,1.6-2.92.26-7.7.48-10.63.48h-49.1Z"/>
        </g>
        <path class="cls-2" d="M81.62,408.44c-26.54,18.21-53.08,36.42-79.63,54.63-.22,12.16.91,43.72,22.57,72.56,40.11,53.39,111.84,45.83,115.49,45.38,11.65-26.35,23.3-52.7,34.95-79.04-8.51-.76-37.45-4.42-62.29-28.35-26.65-25.67-30.38-57.12-31.1-65.18Z"/>
        <path class="cls-2" d="M78.66,67.57c.52-7.2,3.16-28.27,22.52-46.88C113.78,8.58,128.05,2.72,136.16.01c-2.12,0-4.24,0-6.36-.01C58.41,0,0,49.34,0,109.64c.03,108.47.05,216.94.08,325.41,26.34-18.32,52.68-36.64,79.02-54.96-.15-104.18-.29-208.35-.44-312.53Z"/>
        <path class="cls-2" d="M591.4,423.3c-5.04,12.08-14.77,31.26-32.49,48.3-28.08,27-58.6,31.68-70.68,32.76-95.09-.22-190.18-.45-285.27-.67l-34.89,79.33h311.89c61.35,0,111.54-58.41,111.54-129.8-.04-9.97-.07-19.94-.11-29.91Z"/>
      </g>
    </g>
    <circle class="cls-2" cx="2751.57" cy="441.67" r="21.4"/>
  </g>
</svg>