<?xml version="1.0" encoding="utf-8" ?>
<svg xmlns="http://www.w3.org/2000/svg" xmlns:xlink="http://www.w3.org/1999/xlink" width="279" height="279">
	<path fill="white" transform="matrix(0.544922 0 0 0.544922 0 -1.52588e-05)" d="M456.097 102.57C457.205 102.741 458.229 102.995 459.128 103.703C460.353 104.669 461.017 106.076 461.183 107.607C461.448 110.035 460.542 112.498 459.004 114.359C456.03 117.96 450.967 118.761 446.586 119.173C445.833 132.608 438.621 133.792 428.428 139.408C426.795 140.307 425.012 141.4 424.081 143.071C422.698 145.552 425.671 147.401 426.25 149.822C426.533 151.008 426.493 152.474 425.759 153.5C424.795 154.846 422.922 155.642 421.352 155.912C419.966 155.759 418.644 155.223 417.486 154.453C415.362 153.039 413.65 150.172 413.221 147.658C412.818 145.3 413.102 142.537 413.797 140.254C417.112 129.362 429.138 129.756 434.312 123.867C437.171 120.613 435.492 115.944 438.058 112.555C440.81 108.922 446.039 108.447 450.204 107.809C451.053 105.916 451.888 104.545 453.442 103.144C454.319 102.926 455.213 102.759 456.097 102.57Z"/>
	<path fill="white" transform="matrix(0.544922 0 0 0.544922 0 -1.52588e-05)" d="M369.302 29.0515L369.801 29.0329C371.495 28.9848 373.008 29.4127 374.222 30.6499C375.591 32.0458 376.084 34.1756 376.052 36.0769C376.018 38.0572 375.342 39.9637 374.288 41.6262C370.116 48.2109 362.225 47.8026 360.215 50.1862C359.625 50.885 361.709 57.2806 361.908 58.5745C364.098 72.8052 350.807 72.6124 345.029 80.4138C345.955 81.0905 346.926 81.7513 347.549 82.7388C348.35 84.0086 348.686 85.5763 348.288 87.0414C347.786 88.89 346.397 90.0318 344.772 90.8887C343.717 91.0166 342.749 91.0049 341.716 90.7124C339.219 90.0053 337.262 88.2522 336.104 85.9474C335.036 83.8217 334.762 81.3514 335.038 79.0074C336.409 67.3482 349.812 66.8959 351.445 61.5976C352.417 58.4449 347.755 52.5716 350.035 46.598C352.433 40.3142 359.605 39.0291 365.048 36.6313C365.035 34.9652 364.942 33.2541 365.689 31.7127C366.43 30.1843 367.785 29.6033 369.302 29.0515Z"/>
	<path fill="white" transform="matrix(0.544922 0 0 0.544922 0 -1.52588e-05)" d="M423.701 59.2944C424.535 59.2833 425.343 59.2799 426.155 59.4967C427.451 59.8424 428.666 60.5197 429.317 61.7374C430.039 63.0881 430.068 64.747 429.62 66.1858C427.49 73.0196 417.658 79.0287 411.641 82.136C411.935 84.0875 412.127 86.0163 412.059 87.9931C411.744 97.146 405.398 101.623 397.244 103.783C393.602 104.748 389.463 105.117 386.6 107.769C385.934 109.559 387.624 111.054 388.174 112.723C388.59 113.984 388.505 115.322 387.874 116.498C386.832 118.437 385.279 118.951 383.325 119.568C382.641 119.365 381.921 119.174 381.264 118.895C378.972 117.925 377.044 115.659 376.224 113.341C375.109 110.193 375.493 106.551 376.875 103.549C380.832 94.9562 389.956 95.5353 397.5 92.6288C406.282 89.2451 397.698 81.4992 400.414 76.071C402.013 72.875 409.234 71.8713 412.515 69.6734C414.175 68.5612 415.765 67.1379 417.098 65.6514C419.168 63.3444 420.644 60.3493 423.701 59.2944Z"/>
	<path fill="white" transform="matrix(0.544922 0 0 0.544922 0 -1.52588e-05)" d="M234.314 76.61Q242.141 76.3344 249.972 76.4875Q252.316 76.5574 254.657 76.6845Q256.998 76.8116 259.335 76.9957Q261.673 77.1799 264.005 77.4211Q266.337 77.6622 268.663 77.9602Q270.988 78.2582 273.306 78.6128Q275.624 78.9675 277.932 79.3786Q280.24 79.7896 282.538 80.2569Q284.835 80.7242 287.121 81.2474Q289.406 81.7707 291.678 82.3495Q293.951 82.9283 296.208 83.5624Q298.465 84.1965 300.706 84.8855Q302.947 85.5745 305.171 86.318Q307.394 87.0615 309.599 87.859Q311.804 88.6565 313.989 89.5076Q316.174 90.3586 318.337 91.2627Q320.5 92.1669 322.641 93.1235Q324.781 94.0802 326.898 95.0888Q329.014 96.0974 331.106 97.1573Q333.197 98.2172 335.262 99.3279Q337.327 100.439 339.364 101.599Q341.401 102.76 343.409 103.97Q345.418 105.18 347.396 106.439Q349.374 107.698 351.321 109.004Q353.267 110.311 355.182 111.665Q357.096 113.018 358.977 114.418Q360.858 115.818 362.704 117.264Q364.55 118.709 366.36 120.199Q368.17 121.69 369.943 123.223Q371.717 124.757 373.452 126.334Q375.187 127.911 376.884 129.529Q378.58 131.148 380.236 132.807Q381.893 134.467 383.508 136.166C392.671 145.837 400.196 156.146 407.613 167.172C412.429 174.332 417.132 181.47 421.215 189.083Q422.606 191.672 423.913 194.304Q425.22 196.936 426.442 199.609Q427.664 202.282 428.799 204.992Q429.934 207.703 430.981 210.449Q432.029 213.194 432.988 215.973Q433.946 218.751 434.815 221.558Q435.684 224.365 436.462 227.199Q437.241 230.033 437.927 232.89Q438.614 235.748 439.209 238.626Q439.803 241.504 440.305 244.4Q440.807 247.295 441.215 250.206Q441.623 253.116 441.938 256.038Q442.253 258.96 442.473 261.89Q442.694 264.821 442.82 267.757Q442.946 270.693 442.978 273.631Q443.01 276.57 442.947 279.508Q442.868 281.923 442.73 284.334Q442.591 286.746 442.394 289.154Q442.196 291.562 441.94 293.964Q441.683 296.366 441.368 298.761Q441.052 301.156 440.678 303.543Q440.304 305.929 439.871 308.306Q439.439 310.683 438.948 313.048Q438.457 315.414 437.908 317.766Q437.359 320.119 436.753 322.457Q436.146 324.796 435.483 327.119Q434.819 329.441 434.098 331.747Q433.378 334.053 432.601 336.341Q431.824 338.628 430.991 340.896Q430.158 343.163 429.27 345.41Q428.382 347.657 427.439 349.881Q426.496 352.105 425.498 354.305Q424.5 356.505 423.449 358.68Q422.398 360.855 421.294 363.004Q420.189 365.153 419.033 367.273Q417.876 369.394 416.667 371.486Q415.459 373.578 414.199 375.639Q412.94 377.701 411.63 379.731Q410.321 381.761 408.961 383.758Q407.602 385.755 406.194 387.718Q404.787 389.682 403.331 391.61Q401.875 393.538 400.373 395.429Q398.871 397.321 397.322 399.175Q395.774 401.03 394.18 402.845Q392.586 404.661 390.949 406.437Q389.311 408.213 387.63 409.948Q385.95 411.683 384.227 413.377Q382.504 415.07 380.74 416.721C348.038 447.662 306.927 467.267 262.802 475.499C251.266 477.651 239.651 478.715 227.991 479.901Q208.559 482.041 189.022 482.75Q169.485 483.459 149.949 482.733Q132.236 481.663 114.63 479.448Q97.0244 477.233 79.5989 473.882C73.8324 472.785 67.4184 472.097 61.9052 470.149C58.8252 469.061 55.7855 467.386 53.601 464.912C51.7268 462.79 50.5897 459.976 50.8654 457.114Q50.8996 456.75 50.9706 456.392Q51.0416 456.034 51.1487 455.685Q51.2558 455.336 51.3978 455Q51.5398 454.663 51.7153 454.343Q51.8908 454.023 52.098 453.722Q52.3051 453.421 52.5418 453.143Q52.7785 452.865 53.0422 452.613Q53.306 452.36 53.594 452.136C55.0561 450.977 56.9255 450.491 58.7322 450.168C64.3307 449.168 70.3499 449.232 76.0344 448.901Q101.219 447.463 126.441 447.838C137.674 448.104 148.84 448.613 160.02 449.763C156.028 447.473 151.892 445.452 147.911 443.134Q140.845 439.023 134.172 434.301Q127.499 429.578 121.272 424.282Q119.38 422.633 117.528 420.939Q115.677 419.244 113.868 417.504Q112.059 415.765 110.293 413.981Q108.527 412.198 106.805 410.372Q105.083 408.546 103.407 406.678Q101.73 404.81 100.1 402.902Q98.4696 400.994 96.8866 399.046Q95.3036 397.098 93.7689 395.112Q92.2341 393.126 90.7485 391.103Q89.2629 389.081 87.8273 387.022Q86.3917 384.963 85.007 382.87Q83.6223 380.777 82.2893 378.65Q80.9563 376.523 79.6759 374.365Q78.3954 372.206 77.1683 370.017Q75.9411 367.827 74.768 365.608Q73.5948 363.39 72.4764 361.143Q71.358 358.896 70.2951 356.622Q69.2321 354.349 68.2251 352.05Q67.2182 349.751 66.2679 347.428Q65.3176 345.105 64.4245 342.759Q63.5314 340.414 62.6961 338.047Q61.8608 335.68 61.0838 333.294Q60.3067 330.907 59.5884 328.502Q58.8701 326.097 58.2109 323.676Q57.5517 321.254 56.9521 318.817Q56.3525 316.38 55.8128 313.928Q55.2731 311.477 54.7937 309.014Q54.3142 306.55 53.8953 304.075Q53.4763 301.601 53.1182 299.117Q52.7601 296.633 52.4629 294.14Q52.1657 291.648 51.9298 289.149Q51.6938 286.651 51.5191 284.147Q51.3406 281.77 51.2208 279.39Q51.1009 277.01 51.0399 274.628Q50.9788 272.245 50.9765 269.862Q50.9743 267.479 51.0308 265.096Q51.0873 262.713 51.2027 260.333Q51.318 257.952 51.492 255.576Q51.666 253.199 51.8986 250.827Q52.1311 248.455 52.4222 246.09Q52.7132 243.724 53.0626 241.367Q53.4119 239.009 53.8192 236.661Q54.2266 234.313 54.6918 231.975Q55.157 229.638 55.6797 227.313Q56.2024 224.987 56.7823 222.676Q57.3623 220.364 57.9991 218.068Q58.6358 215.771 59.3291 213.491Q60.0223 211.211 60.7716 208.948Q61.5209 206.686 62.3258 204.443Q63.1307 202.199 63.9907 199.977Q64.8507 197.754 65.7653 195.553Q66.6798 193.352 67.6484 191.175Q68.617 188.997 69.639 186.844Q70.661 184.691 71.7359 182.564Q72.8107 180.437 73.9377 178.337Q75.0647 176.237 76.2431 174.166Q77.4216 172.094 78.6508 170.052Q79.88 168.011 81.1592 166Q82.4384 163.989 83.7668 162.01Q85.0952 160.032 86.4721 158.086Q87.8489 156.141 89.2733 154.23Q90.6977 152.319 92.1689 150.444Q93.64 148.569 95.1569 146.731Q96.6739 144.893 98.2357 143.093Q99.5052 141.618 100.804 140.17Q102.104 138.721 103.432 137.299Q104.76 135.877 106.117 134.482Q107.474 133.087 108.859 131.72Q110.244 130.353 111.656 129.015Q113.069 127.676 114.508 126.367Q115.947 125.057 117.413 123.777Q118.878 122.497 120.37 121.247Q121.861 119.996 123.377 118.777Q124.894 117.557 126.434 116.369Q127.975 115.18 129.54 114.023Q131.104 112.866 132.692 111.741Q134.28 110.616 135.89 109.523Q137.5 108.431 139.132 107.371Q140.764 106.312 142.418 105.285Q144.071 104.259 145.745 103.266Q147.418 102.274 149.112 101.315Q150.805 100.357 152.518 99.4332Q154.231 98.5094 155.962 97.6206Q157.693 96.7318 159.442 95.8782Q161.19 95.0247 162.956 94.2069Q164.722 93.389 166.504 92.6072Q168.286 91.8254 170.083 91.0799Q171.881 90.3344 173.693 89.6255Q175.505 88.9166 177.331 88.2447Q179.158 87.5728 180.997 86.9381Q182.837 86.3033 184.689 85.7061Q186.541 85.1088 188.404 84.5493Q190.268 83.9898 192.143 83.4682Q194.017 82.9466 195.902 82.4632Q197.787 81.9797 199.682 81.5347Q201.576 81.0896 203.479 80.6831C213.713 78.5097 223.901 77.4104 234.314 76.61ZM239.186 87.1155C189.649 88.9647 144.153 108.929 110.319 145.426Q108.803 147.055 107.327 148.721Q105.852 150.387 104.417 152.088Q102.983 153.79 101.59 155.526Q100.198 157.262 98.8486 159.032Q97.4993 160.801 96.1936 162.604Q94.888 164.406 93.627 166.239Q92.3659 168.073 91.1501 169.937Q89.9343 171.801 88.7646 173.694Q87.5948 175.588 86.4718 177.509Q85.3488 179.43 84.2732 181.378Q83.1976 183.327 82.17 185.301Q81.1424 187.275 80.1635 189.273Q79.1846 191.272 78.255 193.294Q77.3254 195.316 76.4455 197.36Q75.5657 199.404 74.7362 201.469Q73.9068 203.534 73.1281 205.619Q72.3495 207.704 71.6221 209.807Q70.8948 211.91 70.2192 214.031Q69.5436 216.151 68.9201 218.288Q68.2967 220.424 67.7258 222.575Q67.1548 224.726 66.6368 226.89Q66.1187 229.055 65.6538 231.231Q65.189 233.407 64.7775 235.594Q64.3661 237.782 64.0084 239.978Q63.6507 242.175 63.3468 244.379Q63.043 246.584 62.7933 248.795Q62.5436 251.007 62.3481 253.223Q62.1527 255.44 62.0116 257.661Q61.8705 259.882 61.7839 262.106Q61.6972 264.33 61.6651 266.555Q61.6329 268.78 61.6553 271.005Q61.6777 273.231 61.7546 275.455Q61.8268 277.694 61.9541 279.93Q62.0814 282.167 62.2639 284.4Q62.4463 286.632 62.6838 288.86Q62.9212 291.087 63.2135 293.308Q63.5059 295.529 63.8529 297.742Q64.1998 299.955 64.6013 302.159Q65.0028 304.363 65.4584 306.556Q65.9141 308.75 66.4238 310.931Q66.9334 313.112 67.4966 315.28Q68.0599 317.449 68.6765 319.602Q69.293 321.756 69.9625 323.894Q70.632 326.031 71.354 328.152Q72.076 330.272 72.8501 332.375Q73.6241 334.477 74.4498 336.559Q75.2755 338.641 76.1522 340.703Q77.029 342.764 77.9563 344.803Q78.8837 346.843 79.861 348.858Q80.8383 350.874 81.8651 352.865Q82.8919 354.856 83.9674 356.821Q85.0429 358.786 86.1666 360.724Q87.2902 362.662 88.4613 364.571Q89.6325 366.481 90.8503 368.361Q92.0681 370.241 93.332 372.091Q94.5958 373.94 95.9049 375.758Q97.2139 377.576 98.5674 379.361Q99.9209 381.146 101.318 382.897Q102.715 384.648 104.155 386.364Q105.595 388.08 107.077 389.76Q108.558 391.44 110.081 393.083Q111.604 394.726 113.166 396.331Q114.729 397.936 116.331 399.502Q117.933 401.068 119.573 402.594Q121.203 404.122 122.871 405.609Q124.538 407.096 126.242 408.542Q127.946 409.987 129.684 411.39Q131.423 412.794 133.196 414.153Q134.969 415.513 136.775 416.829Q138.581 418.144 140.418 419.415Q142.256 420.686 144.125 421.911Q145.993 423.136 147.891 424.314Q149.79 425.493 151.716 426.624Q153.643 427.755 155.597 428.839Q157.551 429.922 159.531 430.957Q161.512 431.992 163.517 432.978Q165.522 433.964 167.551 434.9Q169.579 435.836 171.631 436.721Q173.682 437.607 175.754 438.442Q177.827 439.277 179.919 440.06Q182.012 440.843 184.123 441.575Q186.234 442.307 188.363 442.986Q190.491 443.665 192.636 444.292Q194.781 444.918 196.94 445.492Q199.099 446.065 201.272 446.585Q203.445 447.105 205.63 447.571Q207.816 448.038 210.012 448.45Q212.207 448.862 214.413 449.22Q216.618 449.578 218.832 449.881Q221.046 450.184 223.266 450.433Q225.486 450.682 227.712 450.876Q229.938 451.07 232.168 451.208Q234.398 451.347 236.631 451.431Q238.864 451.515 241.098 451.544Q243.332 451.572 245.566 451.546Q247.8 451.52 250.033 451.438Q252.309 451.363 254.582 451.23Q256.854 451.098 259.123 450.909Q261.392 450.721 263.656 450.475Q265.919 450.229 268.176 449.928Q270.433 449.626 272.681 449.267Q274.93 448.909 277.168 448.495Q279.407 448.08 281.635 447.61Q283.863 447.14 286.078 446.615Q288.293 446.089 290.495 445.508Q292.696 444.928 294.882 444.292Q297.069 443.656 299.238 442.967Q301.408 442.277 303.56 441.533Q305.712 440.789 307.844 439.991Q309.977 439.194 312.089 438.343Q314.201 437.493 316.291 436.59Q318.381 435.687 320.448 434.732Q322.515 433.777 324.557 432.771Q326.599 431.765 328.616 430.708Q330.633 429.651 332.622 428.544Q334.612 427.437 336.573 426.28Q338.534 425.124 340.466 423.919Q342.398 422.714 344.299 421.461Q346.2 420.209 348.07 418.909Q349.939 417.609 351.775 416.263Q353.611 414.916 355.413 413.525Q357.215 412.133 358.982 410.697Q360.748 409.261 362.479 407.781Q364.209 406.301 365.902 404.778Q367.594 403.256 369.248 401.691Q370.903 400.127 372.517 398.521Q374.132 396.916 375.706 395.271Q377.28 393.626 378.812 391.942Q380.319 390.305 381.786 388.631Q383.252 386.957 384.677 385.247Q386.101 383.537 387.483 381.793Q388.865 380.049 390.204 378.271Q391.543 376.493 392.837 374.683Q394.131 372.873 395.38 371.031Q396.63 369.189 397.833 367.317Q399.037 365.445 400.194 363.544Q401.35 361.643 402.46 359.714Q403.57 357.785 404.632 355.829Q405.693 353.873 406.706 351.892Q407.72 349.91 408.684 347.905Q409.648 345.899 410.562 343.87Q411.476 341.841 412.34 339.79Q413.204 337.739 414.017 335.667Q414.83 333.596 415.591 331.505Q416.353 329.414 417.063 327.305Q417.773 325.195 418.43 323.069Q419.088 320.943 419.693 318.802Q420.298 316.66 420.85 314.504Q421.401 312.348 421.9 310.179Q422.399 308.01 422.844 305.83Q423.288 303.649 423.679 301.459Q424.07 299.268 424.407 297.068Q424.744 294.868 425.026 292.661Q425.309 290.453 425.537 288.24Q425.765 286.026 425.938 283.807Q426.111 281.589 426.23 279.366Q426.348 277.144 426.412 274.919Q426.475 272.695 426.484 270.469Q426.493 268.244 426.446 266.019Q426.4 263.794 426.299 261.571Q426.184 259.323 426.015 257.078Q425.846 254.833 425.622 252.593Q425.399 250.353 425.121 248.119Q424.843 245.885 424.512 243.658Q424.18 241.431 423.794 239.213Q423.409 236.995 422.969 234.787Q422.53 232.58 422.038 230.383Q421.545 228.186 421 226.002Q420.454 223.818 419.856 221.648Q419.257 219.477 418.606 217.322Q417.956 215.167 417.253 213.028Q416.55 210.89 415.796 208.769Q415.041 206.648 414.236 204.545Q413.43 202.443 412.574 200.361Q411.718 198.279 410.812 196.218Q409.905 194.158 408.949 192.12Q407.993 190.081 406.988 188.067Q405.983 186.053 404.929 184.063Q403.876 182.074 402.774 180.11Q401.673 178.147 400.524 176.211Q399.375 174.275 398.18 172.367Q396.985 170.459 395.744 168.581Q394.503 166.703 393.216 164.855Q391.93 163.008 390.599 161.192Q389.269 159.376 387.895 157.593Q386.52 155.81 385.103 154.06Q383.686 152.311 382.227 150.597Q380.768 148.882 379.268 147.204Q377.768 145.525 376.228 143.883Q374.688 142.241 373.108 140.637Q371.528 139.033 369.91 137.468Q368.292 135.903 366.637 134.377C330.682 101.709 287.561 86.4719 239.186 87.1155Z"/>
	<path fill="white" transform="matrix(0.544922 0 0 0.544922 0 -1.52588e-05)" d="M314.586 111.044C315.215 111.108 315.874 111.182 316.485 111.346C317.874 111.718 319.177 112.88 319.79 114.166C321.626 118.013 317.825 120.443 316.692 123.706C316.046 125.563 316.426 127.546 317.331 129.252C317.781 130.1 318.566 130.78 319.355 131.304C323.465 134.039 326.57 130.712 330.182 131.901C331.597 132.366 333.135 133.864 333.705 135.234C334.199 136.423 334.076 137.634 333.516 138.776C332.563 140.717 330.513 141.908 328.512 142.507C324.219 143.792 319.05 143.12 315.113 141.072C315.154 144.058 314.873 146.933 313.871 149.765C312.655 153.202 310.494 156.33 307.115 157.913C306.435 158.034 305.677 158.065 304.989 158.014C303.607 157.912 302.096 157.01 301.259 155.926C297.804 151.454 304.468 147.788 304.734 143.526C304.847 141.705 303.987 139.67 302.734 138.364C299.909 135.421 295.883 137.153 292.417 136.904C290.544 136.77 289.672 136.115 288.472 134.725L288.239 134.451C287.878 132.791 287.573 131.181 288.275 129.563C288.918 128.083 290.167 127.14 291.65 126.583C296.22 124.868 301.667 125.811 305.976 127.788C305.851 123.544 306.485 119.446 308.705 115.765C310.147 113.374 311.849 111.719 314.586 111.044Z"/>
	<path fill="white" transform="matrix(0.544922 0 0 0.544922 0 -1.52588e-05)" d="M241.422 317.355Q245.573 317.099 249.725 317.342Q251.208 317.429 252.685 317.59Q254.161 317.75 255.628 317.984Q257.095 318.217 258.549 318.523Q260.003 318.829 261.439 319.206Q262.876 319.584 264.292 320.032Q265.709 320.48 267.101 320.998Q268.493 321.516 269.858 322.102Q271.223 322.688 272.557 323.341Q273.892 323.994 275.192 324.712Q276.492 325.43 277.755 326.212Q279.018 326.994 280.241 327.837Q281.464 328.681 282.644 329.583Q283.823 330.486 284.956 331.447Q286.09 332.407 287.174 333.422Q288.259 334.437 289.292 335.505Q290.324 336.573 291.303 337.69C301.329 349.084 306.648 362.645 311.609 376.785C312.883 380.417 315.356 386.486 315.015 390.262C314.891 391.64 314.322 392.479 313.248 393.34C312.046 394.303 310.477 394.845 308.935 394.601C307.369 394.353 306.149 393.36 305.416 391.977C303.503 388.369 302.61 383.282 301.336 379.328C297.789 368.32 293.11 357.212 286.056 347.962C276.583 335.538 265.517 330.086 250.302 328.017C244.099 327.854 238.184 328.142 232.117 329.586C211.463 334.499 194.886 349.957 184.375 367.891Q182.05 371.84 180.072 375.973C178.89 378.506 177.87 381.216 176.389 383.59C175.585 384.879 174.855 385.756 173.296 386.043C171.672 386.342 169.861 385.845 168.577 384.816C167.676 384.094 167.03 383.077 166.913 381.917C166.631 379.11 168.544 375.587 169.716 373.112Q171.434 369.413 173.403 365.841Q175.372 362.269 177.582 358.841Q179.792 355.413 182.233 352.146Q184.674 348.879 187.334 345.787C201.112 330.059 220.264 318.781 241.422 317.355Z"/>
	<path fill="white" transform="matrix(0.544922 0 0 0.544922 0 -1.52588e-05)" d="M113.022 179.578C120.292 180.486 127.613 182.527 134.696 184.376Q145.683 187.223 156.457 190.79Q167.232 194.357 177.746 198.63Q188.261 202.902 198.47 207.86Q208.679 212.819 218.538 218.442C220.367 219.488 222.825 220.872 223.35 223.069Q223.418 223.341 223.457 223.619Q223.497 223.897 223.507 224.177Q223.518 224.458 223.5 224.738Q223.483 225.018 223.436 225.295Q223.39 225.571 223.316 225.842Q223.241 226.113 223.14 226.374Q223.038 226.636 222.91 226.886Q222.783 227.135 222.63 227.371C221.876 228.543 220.73 229.415 219.353 229.7C218.471 229.883 217.703 229.792 216.857 229.506C214.352 228.66 207.619 224.7 205.288 223.176C204.373 228.561 203.01 233.883 200.682 238.84Q199.351 241.741 197.544 244.373C193.499 250.209 187.534 254.428 180.485 255.676C171.359 257.291 161.689 254.935 154.159 249.611Q153.441 249.103 152.748 248.56Q152.055 248.017 151.39 247.441Q150.724 246.866 150.088 246.258Q149.451 245.65 148.845 245.012Q148.239 244.374 147.665 243.707Q147.09 243.04 146.549 242.346Q146.008 241.652 145.502 240.933Q144.995 240.213 144.525 239.469Q144.054 238.726 143.62 237.96Q143.186 237.195 142.79 236.409Q142.394 235.623 142.037 234.818Q141.68 234.014 141.362 233.193Q141.045 232.373 140.768 231.537Q140.491 230.702 140.255 229.854Q140.019 229.006 139.824 228.148Q139.63 227.29 139.478 226.423C137.679 215.759 140.719 207.432 146.832 198.857Q138.01 196.116 129.053 193.856C125.529 192.974 112.203 190.559 109.82 189.06C108.832 188.437 108.271 187.414 108.02 186.294C107.698 184.859 107.881 183.139 108.726 181.909C109.856 180.264 111.138 179.899 113.022 179.578Z"/>
	<path fill="white" transform="matrix(0.544922 0 0 0.544922 0 -1.52588e-05)" d="M379.885 188.355C381.834 188.232 383.563 188.13 385.249 189.282Q385.479 189.439 385.692 189.619Q385.905 189.798 386.098 189.999Q386.291 190.2 386.463 190.42Q386.634 190.64 386.781 190.877Q386.928 191.113 387.05 191.364Q387.172 191.614 387.268 191.876Q387.363 192.138 387.43 192.409Q387.498 192.679 387.537 192.955C387.729 194.256 387.423 195.549 386.591 196.58C385.663 197.731 384.256 198.394 382.835 198.705C378.22 199.713 373.073 199.574 368.338 200.133C361.186 200.978 354.067 202.408 346.919 203.121Q347.161 203.504 347.396 203.891Q347.832 204.612 348.232 205.353Q348.632 206.094 348.995 206.854Q349.358 207.614 349.683 208.392Q350.008 209.169 350.294 209.961Q350.58 210.753 350.827 211.558Q351.074 212.364 351.28 213.18Q351.487 213.997 351.654 214.822Q351.82 215.648 351.945 216.481Q352.071 217.314 352.155 218.152Q352.239 218.99 352.281 219.831Q352.324 220.672 352.325 221.515Q352.326 222.357 352.286 223.198Q352.246 224.04 352.164 224.878Q352.082 225.716 351.959 226.549Q351.836 227.383 351.672 228.209Q351.508 229.035 351.303 229.852Q351.081 230.711 350.817 231.558Q350.552 232.404 350.247 233.237Q349.941 234.07 349.594 234.886Q349.248 235.703 348.861 236.501Q348.475 237.299 348.05 238.078Q347.624 238.856 347.161 239.613Q346.698 240.369 346.197 241.101Q345.697 241.834 345.161 242.541Q344.626 243.248 344.056 243.928Q343.486 244.607 342.883 245.258Q342.28 245.908 341.646 246.528Q341.011 247.148 340.347 247.736Q339.683 248.324 338.991 248.879Q338.298 249.433 337.579 249.953Q336.86 250.472 336.116 250.956Q335.373 251.439 334.606 251.885C326.754 256.53 316.963 258.193 308.086 255.845C300.482 253.833 295.13 249.036 291.266 242.323C287.556 235.431 286.585 227.835 285.985 220.155C282.2 221.586 276.166 225.108 272.252 224.86C270.369 224.741 269.436 223.817 268.224 222.491C268.066 221.838 267.886 221.165 267.798 220.498C267.609 219.052 267.761 217.535 268.746 216.393C270.909 213.885 278.42 211.687 281.634 210.45C311.866 198.811 347.481 190.185 379.885 188.355Z"/>
</svg>
