<?xml version="1.0" encoding="utf-8" ?>
<svg xmlns="http://www.w3.org/2000/svg" xmlns:xlink="http://www.w3.org/1999/xlink" width="512" height="512">
	<path fill="white" d="M230.305 49.1001C235.832 48.7617 241.48 48.9731 246.931 49.9584C253.082 51.0701 260.703 52.7609 264.465 58.1846C268.954 58.3664 273.562 57.8452 278.064 57.7643C284.247 57.6533 290.475 57.9799 296.642 58.3934C333.481 60.8635 370.702 73.9295 399.351 97.5288C436.972 128.519 453.106 168.582 457.636 216.223C463.615 279.095 448.013 340.319 407.382 389.297C397.753 400.905 387.131 410.793 375.342 420.15C352.034 438.649 333.609 448.665 304.387 455.587C295.954 457.585 287.249 459.304 278.614 460.111C276.218 460.593 273.757 460.788 271.323 460.981C245.642 463.011 209.185 459.163 184.417 452.024C178.134 450.213 172.004 447.818 165.943 445.377C146.209 437.426 126.567 427.376 110.349 413.42C70.6537 379.263 55.5069 329.993 51.5664 279.289C47.2518 223.773 58.632 163.652 95.6717 120.467Q101.926 113.254 108.936 106.773Q115.945 100.291 123.624 94.6189C141.451 81.5434 161.623 71.4805 181.929 62.8861C192.364 58.4695 203.012 54.2986 214.044 51.6214Q222.064 49.6478 230.305 49.1001ZM221.315 65.7736C210.876 69.0797 200.417 71.8238 190.127 75.6714C147.521 91.6028 109.348 117.099 87.9778 158.334C61.7298 208.981 60.2011 281.295 77.2607 335.004C90.1258 375.508 113.43 402.341 151.076 421.812C186.766 440.272 230.508 448.726 270.497 445.3C277.928 444.663 285.055 443.108 292.378 441.854C334.024 431.732 360.268 416.747 388.935 384.458C398.507 373.676 407.307 362.314 414.815 349.989Q420.369 340.893 424.86 331.227Q429.351 321.561 432.72 311.449C445.625 272.55 447.205 226.512 437.528 186.717C428.07 147.819 406.952 118.238 372.61 97.3532C340.6 77.8857 303.425 71.5449 266.426 73.7406Q258.219 74.2431 250.069 75.3292C245.73 75.9354 228.609 79.6019 225.545 78.9166C222.928 78.3314 220.863 75.8926 220.231 73.3644C219.373 69.9346 221.632 66.11 221.631 66.102C221.602 65.9671 221.451 65.8923 221.356 65.7928C221.345 65.7821 221.329 65.78 221.315 65.7736Z"/>
	<path fill="white" d="M187.078 178.842C191.486 178.585 196.063 179.735 199.572 182.473C203.58 185.599 205.813 190.239 206.364 195.236C206.961 200.649 205.67 206.345 202.162 210.595C198.977 214.453 194.626 216.383 189.713 216.818C184.915 217.023 180.408 216.091 176.62 212.981C172.767 209.818 170.537 205.36 170.053 200.423C169.503 194.823 170.731 189.077 174.411 184.705C177.741 180.749 182.067 179.294 187.078 178.842Z"/>
	<path fill="white" d="M325.316 178.841C330.124 178.68 334.773 179.832 338.487 183.009C342.238 186.218 344.303 191.029 344.678 195.895C345.089 201.236 343.736 206.809 340.167 210.908C336.818 214.755 332.427 216.482 327.436 216.849C322.958 217.017 318.543 215.942 314.978 213.131C311.022 210.011 308.788 205.362 308.262 200.401C307.68 194.916 309.014 189.084 312.584 184.792C315.923 180.778 320.263 179.301 325.316 178.841Z"/>
	<path fill="white" d="M168.816 112.318C171.372 112.245 173.516 113.082 175.796 114.128C195.872 123.335 215.083 136.018 232.321 149.761C235.201 152.057 240.433 155.349 241.64 158.898C242.313 160.877 242.058 163.047 241.092 164.885C239.93 167.096 238.132 168.251 235.806 168.974C233.439 169.081 231.75 168.687 229.759 167.395C226.479 165.267 223.577 162.29 220.475 159.884Q210.609 152.227 200.174 145.366Q189.22 138.325 177.706 132.245C173.993 130.294 169.978 128.656 166.398 126.488C164.482 125.327 163.102 124.359 162.613 122.055C162.17 119.973 162.496 117.244 163.67 115.442C164.891 113.566 166.709 112.772 168.816 112.318Z"/>
	<path fill="white" d="M336.344 112.335Q337.276 112.318 338.198 112.456C340.131 112.737 341.908 113.886 343.041 115.465Q343.262 115.776 343.45 116.108Q343.638 116.44 343.793 116.789Q343.947 117.138 344.066 117.501Q344.184 117.864 344.266 118.236Q344.348 118.609 344.393 118.988Q344.437 119.367 344.443 119.749Q344.449 120.13 344.418 120.51Q344.386 120.891 344.316 121.266C344.022 122.892 343.21 124.675 341.786 125.587C336.411 129.027 330.32 131.546 324.706 134.611Q308.943 143.196 294.442 153.772Q289.414 157.396 284.59 161.288C281.802 163.555 279.025 166.196 275.93 168.015C274.987 168.569 274.042 168.805 272.984 169.029C271.22 169 269.676 168.789 268.17 167.791C266.512 166.692 265.277 164.967 264.969 162.994C264.643 160.903 264.903 158.54 266.257 156.846C268.334 154.248 271.423 152.112 274.01 150.043Q279.945 145.259 286.121 140.79Q292.297 136.322 298.697 132.181Q305.098 128.04 311.705 124.239Q318.312 120.437 325.109 116.985C328.587 115.234 332.446 112.858 336.344 112.335Z"/>
	<path fill="white" d="M250.191 295.868Q253.418 295.906 256.639 296.091Q258.019 296.183 259.397 296.309Q260.775 296.435 262.149 296.595Q263.523 296.754 264.893 296.948Q266.262 297.141 267.627 297.368Q268.992 297.595 270.35 297.855Q271.709 298.115 273.061 298.409Q274.413 298.702 275.757 299.029Q277.101 299.355 278.437 299.714Q279.773 300.074 281.1 300.466Q282.426 300.858 283.743 301.282Q285.06 301.706 286.366 302.163Q287.671 302.619 288.966 303.108Q290.26 303.596 291.542 304.116Q292.824 304.636 294.093 305.187Q295.361 305.739 296.616 306.321Q297.871 306.903 299.111 307.516Q300.352 308.128 301.577 308.771Q302.801 309.414 304.01 310.087Q305.219 310.76 306.411 311.462Q307.603 312.164 308.777 312.896Q309.951 313.627 311.107 314.387Q312.263 315.146 313.4 315.934Q314.538 316.722 315.655 317.538Q316.772 318.353 317.869 319.196Q318.966 320.038 320.043 320.908Q321.119 321.777 322.173 322.672Q323.228 323.568 324.26 324.489Q325.292 325.41 326.301 326.356Q327.311 327.302 328.297 328.272Q329.282 329.243 330.244 330.237Q331.206 331.232 332.143 332.249Q333.08 333.267 333.992 334.307C338.727 339.636 352.333 357.246 351.748 363.893C351.572 365.897 350.498 367.661 348.954 368.919C347.282 370.281 345.051 371.083 342.886 370.827C341.256 370.634 339.822 369.866 338.723 368.656C336.337 366.032 334.931 362.164 333.149 359.093Q329.519 352.974 324.995 347.483C309.061 328.119 285.208 314.227 260.062 311.767C226.012 308.713 195.244 322.152 173.738 348.617C170.631 352.44 166.008 361.054 162.914 363.383C162.063 364.024 160.936 364.326 159.935 364.655C157.792 364.143 155.873 363.518 154.183 362.015C152.66 360.659 151.776 358.868 151.691 356.825C151.431 350.617 163.349 336.624 167.837 331.916C190.199 308.459 217.94 296.655 250.191 295.868Z"/>
</svg>
