<?xml version="1.0" encoding="utf-8" ?>
<svg xmlns="http://www.w3.org/2000/svg" xmlns:xlink="http://www.w3.org/1999/xlink" width="2458" height="2393">
	<path fill="white" fill-opacity="0.98823529" transform="matrix(8.05902 0 0 8.05724 0 -0.00012207)" d="M235.232 54.7922C235.804 55.1799 236.711 55.7139 237.087 56.2921C237.375 56.7357 237.254 56.9373 237.145 57.4184C237.911 61.9968 237.515 67.0417 237.489 71.6893C237.457 77.4186 237.704 83.0153 237.947 88.7357C238.043 91.0011 237.938 93.3423 238.164 95.5919L238.514 121.914C238.599 126.171 239.076 130.398 238.959 134.66C239.349 140.557 239.265 146.509 239.317 152.419C239.342 155.253 239.091 158.541 239.675 161.314C239.985 163.981 239.914 166.676 240.232 169.341C242.034 184.439 246.247 203.333 256.062 215.286C258.684 218.48 262.327 220.466 265.083 223.526C263.898 227.063 261.931 230.459 260.218 233.769Q258.863 234.115 257.492 234.392C249.925 235.891 242.252 236.894 234.622 238.013C203.329 242.6 146.632 249.473 118.028 234.622C114.572 232.827 110.867 230.367 108.449 227.263C106.516 224.782 104.824 220.849 102.228 219.1C101.343 219.034 100.221 220.368 99.4806 220.931C96.299 223.347 93.7922 223.336 90.0341 222.804C85.6601 227.829 80.3415 232.335 75.5715 237.001C68.8236 243.602 62.3032 250.44 55.4966 256.98C51.4009 257.04 43.2485 257.293 39.8124 255.179C36.4206 253.093 35.4869 249.662 34.6681 246.032C37.09 240.935 46.1145 233.281 50.4414 229.113C53.0342 226.615 55.5193 224.005 58.1203 221.515C61.1324 218.633 64.229 215.898 67.1618 212.925C68.7901 211.275 71.0119 209.639 72.3151 207.762C73.7256 205.731 73.7055 202.373 74.7219 200.041C75.2689 198.786 76.5518 198.005 77.1267 196.752C77.8787 195.113 76.2288 192.088 75.6844 190.463C74.9869 188.381 74.8049 186.069 74.6078 183.894C73.7497 174.421 75.8352 165.602 80.7479 157.431C82.3357 154.79 84.7714 152.783 86.147 150.036C85.8039 145.024 86.0405 139.859 86.0405 134.83L86.0372 107.171L85.8018 78.8667C85.8051 75.2094 85.6798 71.4799 85.8864 67.8287C85.9384 66.9091 86.2041 66.1998 86.6026 65.3766C87.6251 63.4367 89.6073 61.9852 90.9698 60.2828C91.9597 59.0459 92.6898 57.6938 93.7435 56.4748C99.5233 56.4644 105.366 57.3579 111.119 57.8847C117.644 58.4822 124.197 58.8119 130.731 59.3283C134.222 59.6042 138.055 59.0527 141.457 59.7171L141.738 59.6704C155.019 59.7657 168.442 59.8971 181.714 59.3856C188.726 59.1153 195.709 58.4815 202.708 58.0032C213.522 57.2642 224.513 56.4072 235.232 54.7922ZM96.7399 142.58C100.829 140.858 104.849 139.56 109.218 138.749C113.854 139.067 118.439 139.103 123.075 138.743C125.571 138.872 128.154 139.825 130.453 140.757C136.822 143.337 141.905 146.602 146.524 151.725C154.668 160.756 157.748 171.238 157.128 183.297C156.642 192.764 151.786 203.366 144.726 209.727Q143.479 210.857 142.153 211.894Q140.828 212.93 139.43 213.868Q138.033 214.805 136.571 215.639Q135.109 216.473 133.591 217.198Q132.072 217.924 130.505 218.537Q128.938 219.15 127.331 219.648Q125.723 220.146 124.084 220.526Q122.445 220.906 120.782 221.166C123.578 222.886 126.302 224.715 129.347 225.973C137.333 229.274 150.726 230.459 159.432 230.843C160.91 230.908 166.466 230.693 167.444 231.213C172.611 231.557 177.751 231.043 182.905 231.06C184.629 230.924 186.417 231.015 188.151 230.951Q194.608 230.654 201.06 230.249Q215.234 229.39 229.314 227.552Q243.394 225.714 257.313 222.907L257.157 222.771C255.331 221.163 253.745 219.027 252.235 217.129C240.458 202.325 236.524 183.02 235.238 164.567C234.529 161.59 234.645 156.979 234.788 153.856C234.001 150.959 234.5 144.417 234.446 141.195C234.339 134.835 234.038 128.486 233.949 122.124C233.516 119.905 233.701 117.234 233.635 114.959C233.394 106.636 233.962 98.061 233.209 89.7798C232.751 86.6218 233.031 83.2127 232.938 80.0128C232.748 73.4377 232.336 66.7125 232.526 60.1428C227.702 60.6992 222.829 60.9581 217.992 61.4068Q198.34 63.3769 178.603 64.1104Q158.866 64.8438 139.122 64.3376Q126.504 64.0462 113.935 62.9033C109.039 62.484 104.135 61.8311 99.2476 61.4489C98.5888 61.3974 98.1408 61.3737 97.5917 61.7642C96.6098 65.0264 96.9677 69.3307 96.7932 72.7492C96.5506 77.5012 96.1719 82.2422 96.049 87.0007C95.8141 96.0901 95.9824 105.229 95.991 114.323C95.9998 123.71 95.8036 133.23 96.7399 142.58ZM111.418 216.598C115.077 216.309 118.639 216.899 122.271 216.039C130.735 214.888 139.751 209.303 144.882 202.505C150.825 194.63 154.004 184.489 152.511 174.624C151.139 165.563 146.123 156.189 138.644 150.739C130.423 144.748 120.632 141.723 110.475 143.348C100.978 144.868 91.9498 149.797 86.2559 157.661C80.4932 165.62 77.7124 175.815 79.2829 185.584C80.768 194.823 85.7224 203.443 93.3472 208.944C98.8328 212.901 104.845 215.235 111.418 216.598ZM73.4009 213.129C71.1449 216.074 67.9404 218.61 65.2893 221.243C59.7271 226.768 54.2736 232.403 48.5847 237.798C46.6108 239.67 40.8203 244.598 39.6362 246.773C39.5932 246.852 39.5945 247.19 39.6003 247.274C39.6585 248.127 40.1879 249.076 40.4449 249.905C42.3463 251.336 44.1224 251.999 46.4992 252.129C51.0623 247.51 55.912 243.248 60.5149 238.686C67.004 232.254 73.252 225.559 80.0074 219.402C77.3826 217.686 75.8431 214.944 73.4009 213.129ZM239.675 161.314C239.091 158.541 239.342 155.253 239.317 152.419C239.265 146.509 239.349 140.557 238.959 134.66C239.076 130.398 238.599 126.171 238.514 121.914L238.164 95.5919C237.938 93.3423 238.043 91.0011 237.947 88.7357C237.704 83.0153 237.457 77.4186 237.489 71.6893C237.515 67.0417 237.911 61.9968 237.145 57.4184C236.673 57.9045 236.547 57.9807 236.442 58.6639C235.978 61.6743 236.39 65.4262 236.382 68.5135C236.366 75.0582 236.197 81.6062 236.293 88.1511C236.358 92.5125 236.996 96.8195 237.121 101.178C237.425 111.782 237.151 122.384 237.394 132.985C237.473 136.434 237.977 139.856 238.084 143.307C238.251 148.678 237.979 154.396 238.641 159.704C238.702 160.194 238.85 160.552 239.197 160.902C239.347 161.053 239.508 161.184 239.675 161.314ZM86.6026 65.3766C86.2041 66.1998 85.9384 66.9091 85.8864 67.8287C85.6798 71.4799 85.8051 75.2094 85.8018 78.8667L86.0372 107.171L86.0405 134.83C86.0405 139.859 85.8039 145.024 86.147 150.036L87.0713 149.84C87.3718 146.409 87.1368 142.765 87.131 139.311L87.1094 119.102L86.9943 84.6242C86.9888 78.753 87.2601 72.7961 87.0634 66.9377C87.0434 66.3405 86.8988 65.8913 86.6026 65.3766ZM233.209 89.7798C233.962 98.061 233.394 106.636 233.635 114.959C233.701 117.234 233.516 119.905 233.949 122.124C234.084 121.95 234.213 121.775 234.317 121.579C235.304 119.718 234.2 96.0722 234.1 92.9C234.042 91.0449 234.511 88.2521 233.976 86.5481C233.542 86.9097 233.333 89.1127 233.209 89.7798ZM167.444 231.213C165.851 232.072 163.302 231.488 161.522 231.852C162.333 232.388 184.743 232.021 187.408 231.905Q184.289 231.734 181.175 231.494L182.905 231.06C177.751 231.043 172.611 231.557 167.444 231.213ZM234.788 153.856C234.645 156.979 234.529 161.59 235.238 164.567C235.463 163.028 235.342 161.348 235.406 159.788C235.69 152.851 235.943 145.496 235.339 138.588L235.222 138.586C235.04 142.669 235.666 150.181 234.835 153.675C234.82 153.735 234.803 153.795 234.788 153.856ZM111.418 216.598L111.279 217.032L110.555 217.357C110.622 217.394 110.688 217.433 110.757 217.467C112.391 218.28 120.185 217.449 122.054 216.809L122.271 216.039C118.639 216.899 115.077 216.309 111.418 216.598ZM141.457 59.7171C139.986 60.7422 134.747 60.1829 132.572 60.4404L132.567 60.5513C134.41 60.5394 140.831 60.8642 142.055 60.375L141.618 60.1192L141.738 59.6704L141.457 59.7171Z"/>
	<path fill="white" fill-opacity="0.94509804" transform="matrix(8.05902 0 0 8.05724 0 -0.00012207)" d="M141.457 59.7171L141.738 59.6704L141.618 60.1192L142.055 60.375C140.831 60.8642 134.41 60.5394 132.567 60.5513L132.572 60.4404C134.747 60.1829 139.986 60.7422 141.457 59.7171Z"/>
	<path fill="white" fill-opacity="0.92156863" transform="matrix(8.05902 0 0 8.05724 0 -0.00012207)" d="M111.418 216.598C115.077 216.309 118.639 216.899 122.271 216.039L122.054 216.809C120.185 217.449 112.391 218.28 110.757 217.467C110.688 217.433 110.622 217.394 110.555 217.357L111.279 217.032L111.418 216.598Z"/>
	<path fill="white" fill-opacity="0.95686275" transform="matrix(8.05902 0 0 8.05724 0 -0.00012207)" d="M234.788 153.856C234.803 153.795 234.82 153.735 234.835 153.675C235.666 150.181 235.04 142.669 235.222 138.586L235.339 138.588C235.943 145.496 235.69 152.851 235.406 159.788C235.342 161.348 235.463 163.028 235.238 164.567C234.529 161.59 234.645 156.979 234.788 153.856Z"/>
	<path fill="white" fill-opacity="0.94509804" transform="matrix(8.05902 0 0 8.05724 0 -0.00012207)" d="M167.444 231.213C172.611 231.557 177.751 231.043 182.905 231.06L181.175 231.494Q184.289 231.734 187.408 231.905C184.743 232.021 162.333 232.388 161.522 231.852C163.302 231.488 165.851 232.072 167.444 231.213Z"/>
	<path fill="white" fill-opacity="0.96078432" transform="matrix(8.05902 0 0 8.05724 0 -0.00012207)" d="M233.209 89.7798C233.333 89.1127 233.542 86.9097 233.976 86.5481C234.511 88.2521 234.042 91.0449 234.1 92.9C234.2 96.0722 235.304 119.718 234.317 121.579C234.213 121.775 234.084 121.95 233.949 122.124C233.516 119.905 233.701 117.234 233.635 114.959C233.394 106.636 233.962 98.061 233.209 89.7798Z"/>
	<path fill="white" fill-opacity="0.97254902" transform="matrix(8.05902 0 0 8.05724 0 -0.00012207)" d="M86.6026 65.3766C86.8988 65.8913 87.0434 66.3405 87.0634 66.9377C87.2601 72.7961 86.9888 78.753 86.9943 84.6242L87.1094 119.102L87.131 139.311C87.1368 142.765 87.3718 146.409 87.0713 149.84L86.147 150.036C85.8039 145.024 86.0405 139.859 86.0405 134.83L86.0372 107.171L85.8018 78.8667C85.8051 75.2094 85.6798 71.4799 85.8864 67.8287C85.9384 66.9091 86.2041 66.1998 86.6026 65.3766Z"/>
	<path fill="white" fill-opacity="0.94509804" transform="matrix(8.05902 0 0 8.05724 0 -0.00012207)" d="M239.675 161.314C239.508 161.184 239.347 161.053 239.197 160.902C238.85 160.552 238.702 160.194 238.641 159.704C237.979 154.396 238.251 148.678 238.084 143.307C237.977 139.856 237.473 136.434 237.394 132.985C237.151 122.384 237.425 111.782 237.121 101.178C236.996 96.8195 236.358 92.5125 236.293 88.1511C236.197 81.6062 236.366 75.0582 236.382 68.5135C236.39 65.4262 235.978 61.6743 236.442 58.6639C236.547 57.9807 236.673 57.9045 237.145 57.4184C237.911 61.9968 237.515 67.0417 237.489 71.6893C237.457 77.4186 237.704 83.0153 237.947 88.7357C238.043 91.0011 237.938 93.3423 238.164 95.5919L238.514 121.914C238.599 126.171 239.076 130.398 238.959 134.66C239.349 140.557 239.265 146.509 239.317 152.419C239.342 155.253 239.091 158.541 239.675 161.314ZM238.959 134.66C239.076 130.398 238.599 126.171 238.514 121.914L238.164 95.5919C237.399 98.0867 237.879 101.746 237.836 104.382C237.709 112.218 237.671 119.923 237.904 127.766C237.993 130.746 237.89 133.906 238.264 136.855C238.733 135.72 238.571 133.455 238.628 132.176L238.626 132.459C238.623 133.274 238.678 133.885 238.959 134.66Z"/>
	<path fill="white" fill-opacity="0.84313726" transform="matrix(8.05902 0 0 8.05724 0 -0.00012207)" d="M238.959 134.66C238.678 133.885 238.623 133.274 238.626 132.459L238.628 132.176C238.571 133.455 238.733 135.72 238.264 136.855C237.89 133.906 237.993 130.746 237.904 127.766C237.671 119.923 237.709 112.218 237.836 104.382C237.879 101.746 237.399 98.0867 238.164 95.5919L238.514 121.914C238.599 126.171 239.076 130.398 238.959 134.66Z"/>
	<path fill="white" transform="matrix(8.05902 0 0 8.05724 0 -0.00012207)" d="M112.668 150.074C118.405 149.287 125.83 151.426 130.657 154.505Q131.271 154.905 131.865 155.335Q132.458 155.764 133.03 156.223Q133.602 156.681 134.151 157.167Q134.7 157.652 135.224 158.164Q135.749 158.676 136.248 159.213Q136.746 159.75 137.218 160.311Q137.69 160.872 138.134 161.455Q138.577 162.039 138.992 162.643Q139.407 163.247 139.791 163.871Q140.176 164.495 140.529 165.137Q140.883 165.779 141.204 166.438Q141.526 167.096 141.815 167.77Q142.104 168.443 142.36 169.13Q142.616 169.817 142.837 170.515Q143.059 171.214 143.246 171.923Q143.434 172.631 143.586 173.348C145.202 180.718 143.884 188.784 139.783 195.132C134.431 203.417 127.085 206.902 117.713 208.904C116.667 209.049 115.4 208.857 114.341 208.802C108.916 208.516 103.989 207.466 99.3669 204.479C92.8745 200.283 87.8654 192.864 86.2728 185.321C84.7507 178.111 86.2892 170.055 90.3202 163.899C96.1147 155.049 102.707 152.159 112.668 150.074ZM111.203 155.048C103.965 156.993 97.8598 159.913 93.9832 166.671C90.6719 172.443 89.0729 178.741 90.8873 185.319C92.7812 192.187 97.1307 197.596 103.339 201.076C108.226 203.816 113.066 204.149 118.549 203.971C125.257 202.675 131.813 199.035 135.664 193.251C139.249 187.867 140.616 180.77 139.286 174.451C138.023 168.453 134.183 162.521 129.012 159.184C123.346 155.526 117.865 154.586 111.203 155.048Z"/>
	<path fill="white" fill-opacity="0.94901961" transform="matrix(8.05902 0 0 8.05724 0 -0.00012207)" d="M109.218 138.749C113.561 137.91 118.771 137.476 123.075 138.743C118.439 139.103 113.854 139.067 109.218 138.749Z"/>
	<path fill="white" fill-opacity="0.8509804" transform="matrix(8.05902 0 0 8.05724 0 -0.00012207)" d="M150.121 101.469C153.107 101.011 156.35 101.277 159.362 101.377C159.699 106.456 159.355 111.582 159.458 116.671Q155.656 116.747 151.854 116.679C153.842 116.123 156.394 116.407 158.464 116.427C158.482 112.172 159.13 105.947 158.233 101.908C155.541 101.464 152.819 101.819 150.121 101.469Z"/>
	<path fill="white" fill-opacity="0.98823529" transform="matrix(8.05902 0 0 8.05724 0 -0.00012207)" d="M195.876 106.125C196.088 106.097 196.293 106.072 196.506 106.064C199.062 105.972 205.022 105.805 206.827 107.815C207.225 108.259 207.184 108.549 207.162 109.099C206.768 109.976 206.147 110.409 205.402 110.975L191.625 110.983C188.941 110.966 182.759 111.739 180.559 110.414C180.078 110.125 179.699 109.685 179.591 109.123C179.472 108.51 179.609 107.828 180.016 107.349C181.74 105.32 192.438 106.615 195.635 106.161L195.876 106.125Z"/>
	<path fill="white" transform="matrix(8.05902 0 0 8.05724 0 -0.00012207)" d="M150.121 101.469C152.819 101.819 155.541 101.464 158.233 101.908C159.13 105.947 158.482 112.172 158.464 116.427C156.394 116.407 153.842 116.123 151.854 116.679C151.371 116.701 150.885 116.637 150.403 116.596C149.536 115.123 150.075 103.974 150.121 101.469Z"/>
	<path fill="white" fill-opacity="0.98823529" transform="matrix(8.05902 0 0 8.05724 0 -0.00012207)" d="M196.793 120.878C199.495 120.613 205.378 120.205 207.719 121.472C208.298 121.785 208.762 122.281 208.896 122.94C209.025 123.568 208.884 124.403 208.506 124.928C208.2 125.355 207.67 125.576 207.169 125.663C205.941 125.877 204.47 125.703 203.217 125.69C198.81 125.642 193.571 125.082 189.281 125.919L189.048 125.966L188.925 125.969C186.158 126.03 179.616 126.388 177.611 124.467C177.213 123.366 177.833 122.051 178.156 120.937C183.025 121.087 192.311 121.502 196.793 120.878Z"/>
	<path fill="white" fill-opacity="0.98431373" transform="matrix(8.05902 0 0 8.05724 0 -0.00012207)" d="M194.872 90.1231C198.528 89.5212 204.806 89.9777 208.104 91.6668C207.804 92.7648 207.562 93.9199 206.744 94.7538C204.808 95.5929 191.38 95.0049 188.562 94.9542C184.606 94.9265 180.187 95.8339 176.356 94.6065C175.485 94.3273 174.819 94 174.372 93.1554C174.268 92.4341 174.516 91.8848 174.951 91.307C175.285 90.8623 175.648 90.6138 176.183 90.4729C179.944 89.4835 189.821 90.9118 194.651 90.1594L194.872 90.1231Z"/>
	<path fill="white" transform="matrix(8.05902 0 0 8.05724 0 -0.00012207)" d="M210.444 161.415C213.134 162.188 215.891 162.895 218.333 164.304C222.941 166.963 226.005 171.79 227.393 176.83C226.062 177.04 224.754 177.253 223.439 177.555C218.606 178.687 213.798 179.717 208.872 180.357C209.326 174.422 209.487 167.132 210.444 161.415Z"/>
	<path fill="white" fill-opacity="0.98431373" transform="matrix(8.05902 0 0 8.05724 0 -0.00012207)" d="M133.95 90.3724C136.675 90.181 139.494 90.3362 142.229 90.3444C142.52 93.3646 142.25 96.5481 142.224 99.5908Q142.119 108.176 142.232 116.761L141.769 116.989C138.901 116.988 136.029 117.022 133.164 116.885C133.007 114.135 132.665 91.5628 133.242 90.5191L133.95 90.3724Z"/>
	<path fill="white" transform="matrix(8.05902 0 0 8.05724 0 -0.00012207)" d="M116.534 78.5476Q120.647 78.4428 124.759 78.5877L125.646 78.6961C125.725 78.8089 125.973 79.0858 126 79.2025C126.305 80.5482 125.886 90.1295 125.874 92.2175C125.825 100.461 126.252 108.862 125.896 117.083L125.864 117.25C124.811 117.86 118.052 117.41 116.548 117.356C116.224 104.454 116.454 91.4576 116.534 78.5476ZM124.759 78.5877C123.875 79.4441 121.436 79.3925 120.263 79.3755Q118.606 79.3355 116.953 79.2193C117.236 82.058 117.097 84.9708 117.087 87.8242L117.035 105.225C117.031 108.864 116.865 112.628 117.292 116.244L117.433 116.35C117.724 112.829 117.588 109.236 117.587 105.703L117.568 88.7818C117.56 85.7962 117.413 82.7444 117.674 79.7694C119.161 78.9239 122.824 79.5185 124.55 79.6497C124.178 84.6949 123.823 115.022 125.354 116.922L125.896 117.083C126.252 108.862 125.825 100.461 125.874 92.2175C125.886 90.1295 126.305 80.5482 126 79.2025C125.973 79.0858 125.725 78.8089 125.646 78.6961L124.759 78.5877Z"/>
	<path fill="white" fill-opacity="0.95294118" transform="matrix(8.05902 0 0 8.05724 0 -0.00012207)" d="M124.759 78.5877L125.646 78.6961C125.725 78.8089 125.973 79.0858 126 79.2025C126.305 80.5482 125.886 90.1295 125.874 92.2175C125.825 100.461 126.252 108.862 125.896 117.083L125.354 116.922C123.823 115.022 124.178 84.6949 124.55 79.6497C122.824 79.5185 119.161 78.9239 117.674 79.7694C117.413 82.7444 117.56 85.7962 117.568 88.7818L117.587 105.703C117.588 109.236 117.724 112.829 117.433 116.35L117.292 116.244C116.865 112.628 117.031 108.864 117.035 105.225L117.087 87.8242C117.097 84.9708 117.236 82.058 116.953 79.2193Q118.606 79.3355 120.263 79.3755C121.436 79.3925 123.875 79.4441 124.759 78.5877Z"/>
	<path fill="white" transform="matrix(8.05902 0 0 8.05724 0 -0.00012207)" d="M202.175 166.339C202.056 169.477 202.58 172.803 202.886 175.93C203.207 179.217 203.389 182.491 203.845 185.767C209.357 185.596 218.156 185.376 223.468 185.924C223.003 191.47 220.631 196.582 216.346 200.22C212.349 203.612 207.238 204.896 202.086 204.429Q201.159 204.344 200.245 204.168Q199.331 203.992 198.438 203.728Q197.545 203.464 196.682 203.115Q195.82 202.765 194.995 202.332Q194.171 201.9 193.393 201.389Q192.615 200.878 191.89 200.293Q191.165 199.709 190.501 199.057Q189.837 198.404 189.24 197.69Q188.554 196.84 187.963 195.921Q187.371 195.003 186.88 194.027Q186.389 193.051 186.005 192.028Q185.621 191.006 185.347 189.948C184.313 186.336 184.608 181.828 186.137 178.425C188.587 173.297 191.424 169.675 197.011 167.707C198.696 167.114 200.433 166.721 202.175 166.339ZM185.347 189.948L185.56 189.702L185.866 190.028L186.08 189.717C186.061 187.773 186.631 179.572 186.137 178.425C184.608 181.828 184.313 186.336 185.347 189.948Z"/>
	<path fill="white" fill-opacity="0.97254902" transform="matrix(8.05902 0 0 8.05724 0 -0.00012207)" d="M185.347 189.948C184.313 186.336 184.608 181.828 186.137 178.425C186.631 179.572 186.061 187.773 186.08 189.717L185.866 190.028L185.56 189.702L185.347 189.948Z"/>
</svg>
