<?xml version="1.0" encoding="UTF-8"?>
<svg id="Camada_2" data-name="Camada 2" xmlns="http://www.w3.org/2000/svg" viewBox="0 0 1433.92 486.16">
  <defs>
    <style>
      .cls-1, .cls-2 {
        font-family: Magistral-Light, Magistral;
        font-weight: 300;
      }

      .cls-1, .cls-3 {
        letter-spacing: .23em;
      }

      .cls-2 {
        letter-spacing: .21em;
      }

      .cls-3 {
        font-family: Magistral-Medium, Magistral;
        font-weight: 500;
      }

      .cls-4 {
        fill: #e5003c;
      }

      .cls-4, .cls-5 {
        stroke-width: 0px;
      }

      .cls-5, .cls-6 {
        fill: #1e1e1e;
      }

      .cls-6 {
        font-size: 71.88px;
      }
    </style>
  </defs>
  <g id="FINAL">
    <g>
      <g>
        <g>
          <path class="cls-5" d="M243.08,0C108.83,0,0,108.83,0,243.08s108.83,243.08,243.08,243.08,243.08-108.83,243.08-243.08S377.33,0,243.08,0ZM127.49,359.04c-6.78-.29-13.58-.06-20.38-.06v.1c-6.79,0-13.59-.2-20.38.06-6.73.25-8.92-1.86-6.64-8.78,14.87-45.06,29.52-90.19,44.18-135.31,8.29-25.49,16.65-50.96,24.65-76.54,7.78-24.89,19.03-33.49,45.2-33.67,5.25-.04,10.5-.15,15.74.05,8.97.35,10.4,2.34,7.64,10.94-5.29,16.42-10.77,32.78-16.13,49.18-20.01,61.2-40.1,122.38-59.88,183.66-2.38,7.37-6.33,10.71-14,10.38ZM237.31,315.95c-3.92,11.97-7.4,24.14-12.22,35.75-1.36,3.27-6.62,6.73-10.27,6.94-14.12.82-28.31.37-42.48.36-5.83,0-8.85-2.33-6.84-8.59,3.84-12,7.17-24.2,11.86-35.87,1.35-3.36,6.35-6.72,10.12-7.32,7.2-1.16,14.73-.34,22.12-.34,7.08-.02,14.17-.12,21.25,0,6.1.1,8.39,3.21,6.47,9.07ZM391.68,134.29c-10.04,32.06-20.46,64-30.77,95.98-6.9,21.42-13.98,42.78-20.79,64.23-3.49,10.99-2.54,12.07,9.32,12.17,6.49.05,12.98-.09,19.46.04,10.75.22,12.25,2.09,9.32,12.16-3.02,10.36-6.59,20.56-9.48,30.95-1.89,6.79-5.98,9.42-12.82,9.33-14.21-.19-28.42-.06-42.63-.07-14.52,0-29.04-.07-43.56.02-8.11.05-10.39-3.52-7.9-11.11,6.16-18.74,12.22-37.52,18.07-56.35,3.52-11.35,3.03-11.85-9.24-11.88-22.55-.06-45.1.05-67.65-.09-10.66-.07-11.78-1.67-8.67-11.27,16.2-50.16,32.61-100.26,48.48-150.52,2.99-9.47,7.77-13.25,17.88-13.1,34.28.49,68.58.17,102.87.22,3.39,0,6.82.09,10.15.63,16.12,2.61,22.87,13.02,17.97,28.67Z"/>
          <path class="cls-4" d="M316.33,147.36c-6.65-.03-11.97,4.79-12.01,10.88-.04,6.21,5.17,11.03,11.95,11.04,6.66.01,12.02-4.81,12.07-10.85.05-6.09-5.33-11.05-12.01-11.08Z"/>
        </g>
        <path class="cls-4" d="M209.6,306.88c7.08-.02,14.17-.12,21.25,0,6.1.1,8.39,3.21,6.47,9.06-3.92,11.97-7.4,24.14-12.22,35.75-1.36,3.27-6.62,6.73-10.27,6.94-14.12.82-28.31.37-42.48.36-5.83,0-8.85-2.33-6.84-8.59,3.84-12,7.17-24.2,11.86-35.87,1.35-3.36,6.35-6.72,10.12-7.32,7.2-1.16,14.73-.34,22.12-.34Z"/>
      </g>
      <g>
        <text class="cls-6" transform="translate(637.78 358.46)"><tspan class="cls-3" x="0" y="0">WEB </tspan><tspan class="cls-1" x="258.25" y="0">E</tspan><tspan class="cls-2" x="319.49" y="0">S</tspan><tspan class="cls-1" x="379.72" y="0">TÚDIO</tspan></text>
        <g>
          <path class="cls-5" d="M722.32,268.7h-62.7c-7.46,0-13.13-1.75-17.01-5.24-3.89-3.5-5.83-9.44-5.83-17.83v-117.01c0-8.39,1.94-14.33,5.83-17.83,3.88-3.5,9.56-5.24,17.01-5.24h59.44c12.59,0,23.23,2.18,31.93,6.53,8.7,4.35,15.3,10.49,19.81,18.41,4.5,7.93,7.69,16.4,9.56,25.41,1.87,9.01,2.8,19.19,2.8,30.53,0,9.01-.51,17.25-1.52,24.71-1.01,7.46-2.88,14.88-5.59,22.26-2.72,7.38-6.26,13.56-10.61,18.53-4.35,4.97-10.22,9.01-17.6,12.12-7.38,3.11-15.89,4.66-25.52,4.66ZM712.53,123.25h-43.35c-4.2,0-7.03.82-8.51,2.45-1.48,1.63-2.21,4.47-2.21,8.51v105.59c0,4.35.7,7.31,2.1,8.86,1.4,1.56,4.27,2.33,8.63,2.33h44.52c7.92,0,14.76-1.17,20.51-3.5,5.75-2.33,10.29-5.36,13.64-9.09,3.34-3.73,5.98-8.51,7.92-14.33,1.94-5.83,3.22-11.61,3.85-17.36.62-5.75.93-12.51.93-20.28,0-9.63-.62-17.91-1.86-24.82-1.25-6.91-3.5-13.44-6.76-19.58-3.26-6.14-8.2-10.8-14.8-13.98-6.61-3.18-14.8-4.78-24.59-4.78Z"/>
          <path class="cls-5" d="M910.42,268.7h-64.56c-17.25,0-28.98-5.09-35.2-15.27-6.22-10.18-9.32-25.52-9.32-46.03,0-23,4.2-39.35,12.59-49.06,8.39-9.71,22.92-14.57,43.59-14.57,17.87,0,31.7,3.61,41.49,10.84,9.79,7.23,14.68,19.62,14.68,37.18,0,7.46-1.4,12.94-4.2,16.43-2.8,3.5-7.54,5.24-14.22,5.24h-73.65c0,5.75.35,10.69,1.05,14.8.7,4.12,1.98,8.2,3.85,12.24,1.87,4.04,4.78,7.11,8.74,9.21,3.96,2.1,8.89,3.15,14.8,3.15h60.37v15.85ZM821.61,197.61h65.96c3.73,0,5.59-2.1,5.59-6.29v-.93c0-20.51-11.81-30.77-35.43-30.77-12.9,0-22.14,2.84-27.74,8.51-5.59,5.67-8.39,15.5-8.39,29.49Z"/>
          <path class="cls-5" d="M933.03,268.7V105.54h19.58v163.16h-19.58Z"/>
          <rect class="cls-5" x="976.14" y="145.16" width="19.58" height="123.54"/>
          <path class="cls-5" d="M1019.26,268.7v-79.02c0-15.23,3.73-26.46,11.19-33.68,7.46-7.23,18.88-10.84,34.26-10.84h13.52v15.85h-10.02c-10.57,0-18.1,2.72-22.61,8.16-4.51,5.44-6.76,13.91-6.76,25.41v74.12h-19.58Z"/>
          <rect class="cls-5" x="1090.12" y="145.16" width="19.58" height="123.54"/>
          <path class="cls-5" d="M1239.53,145.16v103.26c0,13.52-6.29,20.28-18.88,20.28h-45.68c-27.82,0-41.72-13.36-41.72-40.09v-83.44h19.58v79.95c0,18.49,8.23,27.74,24.71,27.74h35.2c2.48,0,4.31-.58,5.48-1.75s1.75-3.22,1.75-6.18v-99.76h19.58Z"/>
          <path class="cls-5" d="M1262.83,268.7v-103.26c0-13.52,6.29-20.28,18.88-20.28h110.48c27.81,0,41.72,13.37,41.72,40.09v83.44h-19.58v-79.95c0-18.49-8.24-27.74-24.71-27.74h-31.47v107.69h-19.58v-107.69h-48.95c-2.49,0-4.31.58-5.48,1.75s-1.75,3.23-1.75,6.18v99.76h-19.58Z"/>
          <path class="cls-4" d="M990.19,105.56c2.23,0,4.45-.04,6.68,0,1.92.03,2.64,1.01,2.03,2.85-1.23,3.76-2.32,7.58-3.84,11.23-.43,1.03-2.08,2.11-3.23,2.18-4.44.26-8.89.12-13.35.11-1.83,0-2.78-.73-2.15-2.7,1.21-3.77,2.25-7.6,3.73-11.27.42-1.05,1.99-2.11,3.18-2.3,2.26-.36,4.63-.11,6.95-.11Z"/>
          <path class="cls-4" d="M1104.17,105.56c2.23,0,4.45-.04,6.68,0,1.92.03,2.64,1.01,2.03,2.85-1.23,3.76-2.32,7.58-3.84,11.23-.43,1.03-2.08,2.11-3.23,2.18-4.44.26-8.89.12-13.35.11-1.83,0-2.78-.73-2.15-2.7,1.21-3.77,2.25-7.6,3.73-11.27.42-1.05,1.99-2.11,3.18-2.3,2.26-.36,4.63-.11,6.95-.11Z"/>
        </g>
      </g>
    </g>
  </g>
</svg>