<?xml version="1.0" encoding="UTF-8"?>
<svg id="Camada_2" data-name="Camada 2" xmlns="http://www.w3.org/2000/svg" viewBox="0 0 1326.08 429.77">
  <defs>
    <style>
      .cls-1 {
        letter-spacing: .21em;
      }

      .cls-1, .cls-2, .cls-3 {
        font-family: Magistral-Light, Magistral;
        font-weight: 300;
      }

      .cls-2 {
        letter-spacing: .23em;
      }

      .cls-4 {
        font-size: 86.03px;
      }

      .cls-4, .cls-5 {
        fill: #1e1e1e;
      }

      .cls-3, .cls-6 {
        letter-spacing: .23em;
      }

      .cls-7 {
        fill: #e5003c;
      }

      .cls-7, .cls-5 {
        stroke-width: 0px;
      }

      .cls-6 {
        font-family: Magistral-Medium, Magistral;
        font-weight: 500;
      }
    </style>
  </defs>
  <g id="limnha">
    <g>
      <path class="cls-5" d="M657,104.38l-39.22,97.39c-2.13,5.25-4.29,9.07-6.47,11.45-2.19,2.37-5.35,3.56-9.48,3.56s-7.32-1.19-9.57-3.56c-2.25-2.38-4.44-6.19-6.57-11.45l-39.03-97.39c-1.13-2.75-2.25-4.13-3.38-4.13-1.63,0-2.44,1.25-2.44,3.75l.38,111.27h-17.45v-118.03c0-4.75,1.47-8.41,4.41-10.98,2.94-2.56,7.04-3.85,12.29-3.85s9.01,1.25,11.63,3.75c2.63,2.5,5,6.26,7.13,11.26l39.22,97.2c1.13,3,2.25,4.5,3.38,4.5s2.25-1.5,3.38-4.5l39.22-97.2c2-5,4.32-8.75,6.94-11.26,2.63-2.5,6.5-3.75,11.63-3.75s9.38,1.28,12.38,3.85c3,2.57,4.5,6.22,4.5,10.98v118.03h-17.45l.38-111.27c0-2.5-.81-3.75-2.44-3.75-1.13,0-2.25,1.38-3.38,4.13Z"/>
      <path class="cls-5" d="M793.97,115.82l-59.3,131.54h-16.51l15.2-32.09-43.16-99.45h16.51l34.71,82.19,36.03-82.19h16.51Z"/>
      <path class="cls-5" d="M878.41,215.28h-39.78c-16.01,0-27.05-4.13-33.12-12.38-6.07-8.26-9.1-20.76-9.1-37.53s3.06-28.74,9.19-37.06c6.13-8.32,17.14-12.48,33.03-12.48h37.72v12.76h-34.9c-11.51,0-19.17,2.97-22.99,8.91-3.82,5.94-5.72,15.23-5.72,27.86s1.88,22.46,5.63,28.33c3.75,5.88,11.45,8.82,23.08,8.82h36.97v12.76Z"/>
      <path class="cls-5" d="M971.67,215.28h-51.98c-13.89,0-23.33-4.1-28.33-12.29-5-8.19-7.51-20.55-7.51-37.06,0-18.51,3.38-31.68,10.13-39.5,6.76-7.82,18.45-11.73,35.09-11.73,14.38,0,25.52,2.91,33.4,8.73,7.88,5.82,11.82,15.79,11.82,29.93,0,6-1.13,10.41-3.38,13.23-2.25,2.81-6.07,4.22-11.45,4.22h-59.3c0,4.63.28,8.6.84,11.92.56,3.32,1.6,6.6,3.1,9.85,1.5,3.25,3.85,5.72,7.04,7.41s7.16,2.53,11.92,2.53h48.6v12.76ZM900.18,158.04h53.1c3,0,4.5-1.69,4.5-5.07v-.75c0-16.51-9.51-24.77-28.52-24.77-10.39,0-17.83,2.28-22.33,6.85-4.5,4.57-6.76,12.48-6.76,23.74Z"/>
      <path class="cls-5" d="M989.87,215.28V83.93h15.76v131.35h-15.76Z"/>
      <path class="cls-5" d="M1040.53,101.19h-16.14v-17.26h16.14v17.26ZM1024.58,215.28v-99.45h15.76v99.45h-15.76Z"/>
      <rect class="cls-7" x="1024.4" y="83.93" width="16.14" height="17.26"/>
      <path class="cls-5" d="M1144.86,115.82v83.13c0,10.88-5.07,16.32-15.2,16.32h-36.78c-22.39,0-33.59-10.76-33.59-32.27v-67.18h15.76v64.36c0,14.89,6.63,22.33,19.89,22.33h28.33c2,0,3.47-.47,4.41-1.41s1.41-2.59,1.41-4.97v-80.31h15.76Z"/>
      <path class="cls-5" d="M1163.63,215.28v-83.13c0-10.88,5.07-16.32,15.2-16.32h88.94c22.39,0,33.59,10.76,33.59,32.27v67.18h-15.76v-64.36c0-14.89-6.63-22.33-19.89-22.33h-25.33v86.69h-15.76v-86.69h-39.41c-2,0-3.47.47-4.41,1.41s-1.41,2.6-1.41,4.97v80.31h-15.76Z"/>
    </g>
  </g>
  <g id="FINAL">
    <text class="cls-4" transform="translate(530.03 339.69)"><tspan class="cls-6" x="0" y="0">WEB </tspan><tspan class="cls-3" x="309.11" y="0">E</tspan><tspan class="cls-1" x="382.41" y="0">S</tspan><tspan class="cls-2" x="454.5" y="0">TÚDIO</tspan></text>
    <g>
      <path class="cls-5" d="M429.68,215.5c.08,118.29-96.17,214.27-214.88,214.27C95.62,429.78-.01,334.53,0,215.83.01,96.26,95.63.05,214.5,0c118.68-.05,215.1,96.51,215.18,215.5ZM118.18,215.19v-.07c19.15,0,38.29.1,57.44-.04,10.45-.07,18.18-4.37,21.05-15.12,3.03-11.34-1.13-22.71-9.89-27.31-9.41-4.93-18.88-2.54-27.8,7.02-7.74,8.29-17.44,9.94-24.98,4.24-6.98-5.28-8.73-15.01-3.08-23.45,19.85-29.6,47.95-45.43,83.48-45.48,35.93-.05,64.35,15.77,84.21,45.96,5.4,8.21,3.86,17.01-2.8,22.58-7.44,6.21-17.38,4.57-25.69-4.26-8.73-9.27-18.76-11.58-27.94-6.45-8.43,4.71-12.28,15.24-9.7,26.52,2.25,9.85,9.55,15.62,21.71,15.7,37.94.24,75.89.36,113.83-.04,18.04-.19,27.22-10.55,24.57-28.42-1.82-12.28-5.28-24.51-9.59-36.19-27.6-74.79-104.79-122.68-184.84-115.18C116.87,42.84,49.81,104.71,36.79,184.07c-3.22,19.63,5.88,30.73,26.04,31.06,18.44.3,36.9.06,55.35.06ZM350.84,260.68c.57-2.22,1.13-4.43,1.7-6.65,9.17,1.37,18.3,3.34,27.52,3.88,5.27.31,11.66-.32,15.63-3.19,2.4-1.73,3.13-10.6,1.05-12.63-3.52-3.44-9.83-5.39-15-5.45-8.18-.09-16.39,2.83-24.59,2.85-89.45.23-178.91.31-268.36-.03-14.44-.05-28.86-2.89-43.32-3.33-4.46-.14-10.63,2.26-13.05,5.63-2.05,2.86-1.49,10.34.95,12.95,2.84,3.03,8.92,3.43,13.71,4.06,2.07.27,4.35-2.19,6.68-2.63,7.87-1.49,15.84-3.02,24.02,1.26-7.9,8.89-8.95,8.88-26.11,13.61-4.14,1.14-9.42,6.02-10.03,9.85-.62,3.84,2.95,10.55,6.49,12.25,3.52,1.7,10.15.05,13.91-2.42,15.28-10.07,29.7-21.44,45.04-31.41,4.64-3.01,11.19-4.09,16.91-4.24,19.48-.51,38.98-.29,58.47-.16,3.13.02,6.26,1,11.58,1.92-3.52,4.16-5.09,6.87-7.4,8.63-23.19,17.67-46.11,35.76-70.02,52.41-7.55,5.26-18.08,6.07-26.8,9.91-3.99,1.76-8.9,5.46-9.77,9.14-.87,3.64,1.73,9.72,4.84,12.2,2.67,2.13,8.32,1.37,12.4.57,2.29-.45,3.97-3.68,6.07-5.48,8.36-7.15,17.65-12.38,30.18-15.86-1.84,12.67-6.42,20.77-13.63,28.44-3.19,3.4-4.25,10.76-3.09,15.55.7,2.87,8.42,6.72,11.46,5.67,4.33-1.49,8.22-6.56,10.49-11.03,2.27-4.45,1.91-10.17,3.4-15.11,8.22-27.16,20.48-51.59,45.8-67.18,2.91-1.79,5.01-4.85,7.77-6.93,2.36-1.78,5.15-2.99,7.75-4.46,1.04,3.05,3.38,6.31,2.93,9.13-4.54,28.79-9.41,57.53-14.59,86.21-.63,3.51-3.28,6.89-5.64,9.81-4.62,5.72-7.17,12.11-1.78,17.79,2.72,2.87,8.85,4.64,12.77,3.79,7.76-1.66,7.98-8.5,8.59-15.66.92-10.89,4.01-21.59,6.17-32.37,1.96.06,3.93.13,5.89.19,1.88,10.94,4.41,21.83,5.43,32.85.67,7.23,1.77,13.94,9.56,15.14,3.96.61,9.79-1.59,12.56-4.58,5.1-5.51,2.1-11.35-2.13-16.8-2.91-3.75-5.89-8.18-6.7-12.69-4.99-28.02-9.47-56.13-13.84-84.26-.45-2.91,1-6.11,1.96-11.34,11.57,9.99,20.82,18.87,30.99,26.51,10.74,8.06,18.25,17.84,22.08,30.71,4.14,13.91,8.22,27.88,13.34,41.44,1.45,3.86,6.14,8.43,9.86,8.95,3.71.51,9.81-2.69,11.66-6.03,1.83-3.29.24-8.98-1.02-13.27-.68-2.3-4.07-3.67-5.8-5.82-5.56-6.94-10-14.34-8.97-27.52,11.98,8.08,21.28,15.06,31.29,20.79,4.49,2.57,10.81,4.35,15.53,3.23,2.95-.7,7.14-8.71,5.98-11.29-2.02-4.49-7.27-8.26-12.02-10.61-6.05-2.99-13.96-2.82-19.31-6.54-25.08-17.43-49.6-35.65-74.18-53.79-2.84-2.1-4.77-5.44-8.76-10.13,5.89-1.05,9.37-2.16,12.85-2.21,14.62-.21,29.33.95,43.84-.32,30.88-2.71,50.81,17.43,72.52,33.61,5.31,3.96,9.8,9.23,16.08,5.29,3.67-2.3,7.1-8.05,7.18-12.3.13-7.31-6.23-9.33-12.88-11.07-8.29-2.18-16.1-6.19-24.12-9.4Z"/>
      <path class="cls-5" d="M214.01,56.22c66.1,1.32,126.54,43.31,148.49,104.51,5.72,15.95-2.74,28.58-17.59,26.29-8.47-1.31-11.84-7.46-14.66-14.59-10.69-27.11-28.17-48.5-53.46-63.42-64.23-37.9-148.21-9.56-176.23,59.62-.65,1.61-1.21,3.27-1.86,4.88-4.79,11.69-13.74,16.45-23.65,12.61-9.27-3.59-12.9-12.79-8.33-24.66,18.95-49.31,53.59-82.31,104.4-97.25,13.88-4.08,28.58-5.39,42.9-7.97Z"/>
    </g>
  </g>
</svg>