<?xml version="1.0" encoding="UTF-8"?>
<svg id="Camada_2" data-name="Camada 2" xmlns="http://www.w3.org/2000/svg" viewBox="0 0 2861.65 583.01">
  <defs>
    <style>
      .cls-1 {
        fill: #fff;
        stroke-width: 0px;
      }
    </style>
  </defs>
  <g id="rascunhos">
    <g>
      <path class="cls-1" d="M1749.49,506.5v40.95h-179.01c-26.52,0-39.78-13.65-39.78-40.95v-191.1c0-27.3,13.26-40.95,39.78-40.95h177.45v40.95h-146.25c-7.8,0-13,1.3-15.6,3.9s-3.9,7.8-3.9,15.6v52.65h161.85v40.95h-161.85v58.5c0,7.8,1.3,13,3.9,15.6,2.6,2.6,7.8,3.9,15.6,3.9h147.81Z"/>
      <path class="cls-1" d="M1774.06,547.45v-35.1h116.22c5.2,0,9.68-1.56,13.46-4.68,3.77-3.12,5.66-7.8,5.66-14.04,0-4.16-.78-7.73-2.34-10.72-1.56-2.99-4.16-5.46-7.8-7.41-3.64-1.95-6.76-3.38-9.36-4.29-2.6-.91-6.76-2.08-12.48-3.51-5.72-1.43-9.49-2.4-11.31-2.92l-39.78-10.92c-21.32-5.72-35.82-13.19-43.49-22.43-7.67-9.23-11.5-21.77-11.5-37.63,0-18.72,4.68-32.24,14.04-40.56,9.36-8.32,24.44-12.48,45.24-12.48h116.61v35.1h-109.59c-7.8,0-13.39,1.3-16.77,3.9-3.38,2.6-5.07,7.54-5.07,14.82,0,5.46,1.88,10.08,5.66,13.84,3.77,3.77,7.41,6.31,10.92,7.61,3.51,1.3,8.78,2.99,15.79,5.07l44.46,12.48c9.1,2.6,16.12,4.75,21.06,6.43,4.94,1.69,10.59,4.16,16.96,7.41,6.37,3.25,11.18,6.83,14.43,10.73,3.25,3.9,6.04,8.97,8.38,15.21,2.34,6.24,3.51,13.39,3.51,21.45,0,17.16-3.77,30.23-11.31,39.2-7.54,8.97-20.67,13.46-39.39,13.46h-132.21Z"/>
      <path class="cls-1" d="M2100.1,547.45h-28.47c-24.7,0-43.55-5.2-56.55-15.6-13-10.4-19.5-27.69-19.5-51.87v-104.13h-28.47v-35.1h28.47v-66.3h45.63v66.3h58.89v35.1h-58.89v94.77c0,15.08,3.9,25.81,11.7,32.17,7.8,6.37,19.76,9.56,35.88,9.56h11.31v35.1Z"/>
      <path class="cls-1" d="M2309.13,340.75v171.6c0,23.4-11.7,35.1-35.1,35.1h-75.66c-25.48,0-45.24-5.33-59.28-15.99-14.04-10.66-21.06-28.86-21.06-54.6v-136.11h45.63v124.02c0,16.12,3.38,28.08,10.14,35.88,6.76,7.8,17.81,11.7,33.15,11.7h44.85c7.8,0,11.7-3.9,11.7-11.7v-159.9h45.63ZM2236.98,248.32l24.96,29.25-64.74,51.48-24.57-28.86,64.35-51.87Z"/>
      <path class="cls-1" d="M2530.65,274.45v237.9c0,23.4-11.7,35.1-35.1,35.1h-72.15c-31.2,0-53.11-8.84-65.71-26.52-12.61-17.68-18.92-43.42-18.92-77.22s6.24-59.41,18.72-76.83c12.48-17.42,34.45-26.13,65.91-26.13h61.62v-66.3h45.63ZM2485.02,375.85h-50.31c-10.66,0-19.37,1.56-26.13,4.68-6.76,3.12-11.7,8.06-14.82,14.82-3.12,6.76-5.2,13.72-6.24,20.86-1.04,7.15-1.56,16.32-1.56,27.5s.52,20.35,1.56,27.5c1.04,7.15,3.12,14.17,6.24,21.06,3.12,6.89,8.06,11.96,14.82,15.21,6.76,3.25,15.47,4.88,26.13,4.88h38.61c7.8,0,11.7-3.9,11.7-11.7v-124.8Z"/>
      <path class="cls-1" d="M2612.15,313.45h-45.63v-42.12h45.63v42.12ZM2566.52,547.45v-206.7h45.63v206.7h-45.63Z"/>
      <circle class="cls-1" cx="2751.67" cy="443.89" r="21.4"/>
      <path class="cls-1" d="M2667.82,361.21c17.42-15.34,45.37-23.01,83.85-23.01s66.43,7.67,83.85,23.01c17.42,15.34,26.13,42.77,26.13,82.29s-8.65,67.73-25.94,83.07c-17.29,15.34-45.31,23.01-84.04,23.01s-66.76-7.67-84.04-23.01c-17.29-15.34-25.93-43.03-25.93-83.07s8.71-66.95,26.13-82.29ZM2688.88,443.5c0,25.74,4.68,44.01,14.04,54.79,9.36,10.79,25.61,16.19,48.75,16.19s39.39-5.39,48.75-16.19c9.36-10.79,14.04-29.05,14.04-54.79s-4.68-43.55-14.04-54.21c-9.36-10.66-25.61-15.99-48.75-15.99s-39.39,5.33-48.75,15.99c-9.36,10.66-14.04,28.73-14.04,54.21Z"/>
      <g>
        <path class="cls-1" d="M806.25,520.15l58.5-225.42c4.68-17.68,13.91-26.52,27.69-26.52s23.01,8.84,27.69,26.52l58.5,225.42c1.3,4.68,3.77,7.02,7.41,7.02s5.85-2.86,6.63-8.58l61.62-247.26h21.45l-64.74,253.11c-4.16,15.34-12.74,23.01-25.74,23.01-8.32,0-14.43-2.28-18.33-6.83s-6.89-10.59-8.97-18.13l-59.28-224.25c-1.04-5.2-3.12-7.8-6.24-7.8s-5.2,2.6-6.24,7.8l-59.28,224.25c-1.3,4.68-2.73,8.58-4.29,11.7-1.56,3.12-4.36,6.11-8.38,8.97-4.03,2.86-8.91,4.29-14.62,4.29-13,0-21.58-7.67-25.74-23.01l-64.74-253.11h21.45l61.62,247.26c.78,5.72,2.99,8.58,6.63,8.58s6.11-2.34,7.41-7.02Z"/>
        <path class="cls-1" d="M1262.54,544.33h-101.4c-26.52,0-45.04-8.84-55.58-26.52-10.53-17.68-15.79-42.77-15.79-75.27,0-36.92,6.43-64.02,19.3-81.32,12.87-17.29,35.94-25.93,69.23-25.93,59.28,0,88.92,26.26,88.92,78.78,0,12.22-2.08,20.93-6.24,26.13-4.16,5.2-11.96,7.8-23.4,7.8h-126.75c0,10.4.58,19.63,1.76,27.69,1.17,8.06,3.38,16.18,6.63,24.38,3.25,8.19,8.45,14.56,15.6,19.11,7.15,4.55,15.92,6.83,26.33,6.83h101.4v18.33ZM1110.83,429.67h126.75c5.72,0,8.58-3.12,8.58-9.36v-2.73c0-24.18-5.53-40.88-16.57-50.12-11.05-9.23-28.02-13.84-50.9-13.84s-41.21,5.53-51.87,16.58c-10.66,11.05-15.99,30.88-15.99,59.47Z"/>
        <path class="cls-1" d="M1387.73,544.33h-43.68c-14.56,0-25.16-2.01-31.79-6.04-6.63-4.03-9.95-12.8-9.95-26.33v-240.63h20.28v66.3h65.13c31.72,0,53.75,8.26,66.11,24.77,12.35,16.51,18.52,42.31,18.52,77.42s-6.18,61.62-18.52,78.78c-12.35,17.16-34.39,25.74-66.11,25.74ZM1322.6,355.96v154.05c0,5.98.78,10.14,2.34,12.48,1.56,2.34,5.59,3.51,12.09,3.51h50.7c13.26,0,24.24-2.01,32.96-6.04,8.71-4.03,15.21-10.14,19.5-18.33,4.29-8.19,7.21-17.03,8.78-26.52,1.56-9.49,2.34-21.26,2.34-35.29,0-28.34-4.23-49.4-12.67-63.18-8.45-13.78-25.42-20.67-50.9-20.67h-65.13Z"/>
      </g>
      <g>
        <g>
          <path class="cls-1" d="M294.29,367.08c0,2.93-2.4,5.33-5.33,5.33h-10.16c-2.93,0-5.33-2.4-5.33-5.33v-92.35c0-2.93.68-7.63,1.51-10.44l9.59-11.19c2.74-1.03,7.38-1.88,10.31-1.88h61.09c2.93,0,5.33,2.4,5.33,5.33v7.52c0,2.93-2.4,5.33-5.33,5.33h-48.47c-2.93,0-7.69.26-10.58.58l-1.05,1.15c-1.05,1.16-1.09,1.62-1.09,1.62-.27,2.92-.48,7.7-.48,10.63v13.41c0,2.93,2.4,5.33,5.33,5.33h38.22c2.93,0,5.33,2.4,5.33,5.33v7.52c0,2.93-2.4,5.33-5.33,5.33h-38.22c-2.93,0-5.33,2.4-5.33,5.33v41.45Z"/>
          <path class="cls-1" d="M375.14,372.41c-2.93,0-5.33-2.4-5.33-5.33v-7.52c0-2.93,2.4-5.33,5.33-5.33h40.12c2.93,0,7.68-.47,10.55-1.04,0,0,2.29-.46,4.08-3.46,1.79-3,2.68-7.67,2.68-14.02,0-5.65-.87-9.84-2.6-12.55-1.73-2.71-4.14-3.14-4.14-3.14-2.88-.51-7.64-.93-10.57-.93h-20.25c-2.93,0-7.71-.3-10.61-.67,0,0-6.54-.83-10.01-3.83-3.47-3-4.55-11.85-4.55-11.85-.36-2.91-.65-7.68-.65-10.61v-19.99c0-2.93.34-7.7.75-10.6,0,0,.48-3.38,2.95-6.15,2.47-2.77,5.7-3.3,5.7-3.3,2.89-.47,7.65-.86,10.58-.86h55.88c2.93,0,5.33,2.4,5.33,5.33v7.52c0,2.93-2.4,5.33-5.33,5.33h-44.53c-2.93,0-6.19.05-7.25.12l-.68.23c-.68.23-1.29.81-1.81,1.73l-.53.93c-.14,1.78-.26,5.63-.26,8.56v4.41c0,2.93.21,7.72.46,10.63,0,0,.09,1.01,1.19,2.57s1.27,1.58,1.27,1.58c2.9.42,7.67.75,10.6.75h20.72c2.93,0,7.68.46,10.56,1.01,0,0,10.14,1.96,13.77,7.9,3.63,5.95,5.44,14.28,5.44,25.02,0,4.27-.16,8.08-.47,11.43-.32,3.35-1,6.72-2.05,10.13-1.05,3.41-2.44,6.23-4.18,8.48s-4.1,4.07-7.09,5.45c-3,1.39-5.34,1.6-5.34,1.6-2.92.26-7.7.48-10.63.48h-49.1Z"/>
        </g>
        <path class="cls-1" d="M81.62,408.44c-26.54,18.21-53.08,36.42-79.63,54.63-.22,12.16.91,43.72,22.57,72.56,40.11,53.39,111.84,45.83,115.49,45.38,11.65-26.35,23.3-52.7,34.95-79.04-8.51-.76-37.45-4.42-62.29-28.35-26.65-25.67-30.38-57.12-31.1-65.18Z"/>
        <path class="cls-1" d="M78.66,67.57c.52-7.2,3.16-28.27,22.52-46.88C113.78,8.58,128.05,2.72,136.16.01c-2.12,0-4.24,0-6.36-.01C58.41,0,0,49.34,0,109.64c.03,108.47.05,216.94.08,325.41,26.34-18.32,52.68-36.64,79.02-54.96-.15-104.18-.29-208.35-.44-312.53Z"/>
        <path class="cls-1" d="M591.4,423.3c-5.04,12.08-14.77,31.26-32.49,48.3-28.08,27-58.6,31.68-70.68,32.76-95.09-.22-190.18-.45-285.27-.67l-34.89,79.33h311.89c61.35,0,111.54-58.41,111.54-129.8-.04-9.97-.07-19.94-.11-29.91Z"/>
      </g>
    </g>
  </g>
</svg>