<?xml version="1.0" encoding="UTF-8"?>
<svg id="Camada_3" data-name="Camada 3" xmlns="http://www.w3.org/2000/svg" viewBox="0 0 500 500">
  <defs>
    <style>
      .cls-1 {
        fill: #7fadf7;
      }

      .cls-1, .cls-2, .cls-3, .cls-4, .cls-5, .cls-6, .cls-7, .cls-8 {
        stroke-width: 0px;
      }

      .cls-2 {
        fill: #9ec1f8;
      }

      .cls-3 {
        fill: #4254b5;
      }

      .cls-4 {
        fill: #4175de;
      }

      .cls-5 {
        fill: #4085f3;
      }

      .cls-6 {
        fill: #23346d;
      }

      .cls-7 {
        fill: #6099f5;
      }

      .cls-8 {
        fill: #324492;
      }
    </style>
  </defs>
  <path class="cls-2" d="M39.52,220.02c3.83-10.5,7.76-20.96,11.46-31.5,13.76-39.21,27.43-78.46,41.24-117.66.43-1.22,2.05-2.88,3.11-2.88,25.34-.08,50.68.03,76.02.11-1.59,9.55-3.14,19.11-4.79,28.65-3.67,21.24-7.36,42.47-11.09,63.7-3.59,20.42-7.23,40.83-10.85,61.24-35.03,0-70.07-.02-105.1-.03,0-.55,0-1.1,0-1.65Z"/>
  <path class="cls-1" d="M39.52,221.67c35.03,0,70.07.02,105.1.03,0,0,.34-.06.34-.06-.04,9.32-.08,18.64-.12,27.95-.28.59-.72,1.17-.81,1.79-4.04,29.44-34.36,50.16-63.33,42.99-5.63-1.39-10.96-3.99-16.43-6.04-2.29-1.9-4.63-3.74-6.85-5.72-8.37-7.49-14-16.63-16.53-27.63-.29-1.27-.91-2.47-1.38-3.7v-29.61Z"/>
  <path class="cls-4" d="M435.81,288.11c.04.27.13.54.13.81.01,49.57.02,99.14.02,148.71,0,.52-.11,1.04-.2,1.82-1.03.06-1.94.17-2.86.17-60.11,0-120.23,0-180.34,0-.82,0-1.64-.09-2.46-.13,0-60.89,0-121.78-.04-182.67,0-1.57-.47-3.13-.71-4.7.21-.85.42-1.69.64-2.54.45,1.66.97,3.3,1.33,4.97,5.74,26.82,32.95,44.93,59.75,40.47,20-3.33,37.84-18.92,42.67-38.84.53-2.2,1.13-4.39,1.69-6.59.24.62.6,1.22.69,1.86,3.42,24.33,25.72,43.85,50.27,44.27,10.59.18,20.21-2.78,29.42-7.62Z"/>
  <path class="cls-5" d="M249.34,252.12c.25,1.57.71,3.13.71,4.7.04,60.89.04,121.78.04,182.67-1.09.05-2.19.13-3.28.13-59.46,0-118.93,0-178.39,0-1.22,0-2.43,0-3.84,0-.15-.83-.36-1.47-.36-2.1,0-49.73.03-99.47.06-149.2,5.47,2.04,10.8,4.64,16.43,6.04,28.97,7.17,59.29-13.55,63.33-42.99.09-.62.53-1.19.81-1.79.25.75.62,1.49.74,2.26,3.87,24.14,24.2,42.39,48.45,43.71,27.71,1.51,49.73-16.17,55.31-43.43Z"/>
  <path class="cls-8" d="M329.03,67.94h77.98c3.38,9.69,6.78,19.45,10.19,29.2,14.11,40.34,28.22,80.67,42.32,121.01.4,1.15.64,2.35.95,3.53-35.01,0-70.02.02-105.03.03-.45-2.52-.92-5.03-1.36-7.55-2.3-13.05-4.62-26.1-6.89-39.16-4.83-27.73-9.67-55.45-14.44-83.19-1.36-7.93-2.49-15.91-3.73-23.86Z"/>
  <path class="cls-3" d="M144.62,221.69c3.62-20.41,7.27-40.82,10.85-61.24,3.73-21.23,7.42-42.46,11.09-63.7,1.65-9.54,3.2-19.1,4.79-28.65,5.18-.08,10.37-.24,15.55-.23,21.04,0,42.08.06,63.12.1,0,51.25-.01,102.49-.02,153.74-35.02-.02-70.03-.05-105.05-.07l-.34.06Z"/>
  <path class="cls-1" d="M250.01,221.71c0-51.25.01-102.49.02-153.74,26.33,0,52.67-.02,79-.03,1.24,7.95,2.37,15.93,3.73,23.86,4.77,27.74,9.61,55.46,14.44,83.19,2.27,13.06,4.59,26.11,6.89,39.16.44,2.52.91,5.03,1.36,7.55,0,0-.21-.1-.21-.1-35.02,0-70.04,0-105.06.01l-.17.09Z"/>
  <path class="cls-6" d="M355.45,221.71c35.01,0,70.02-.02,105.03-.03-.15,9.69.38,19.45-.62,29.05-1.47,14.12-8.76,25.35-19.89,34.09-1.39,1.09-2.76,2.19-4.14,3.29-9.21,4.85-18.84,7.81-29.42,7.62-24.55-.42-46.85-19.94-50.27-44.27-.09-.64-.46-1.24-.69-1.86-.06-9.33-.12-18.67-.19-28,0,0,.21.1.21.1Z"/>
  <path class="cls-8" d="M144.96,221.64c35.02.02,70.03.05,105.05.07l.17-.09c-.07,9.32-.13,18.64-.2,27.97-.21.85-.42,1.69-.64,2.54-5.57,27.26-27.6,44.94-55.31,43.43-24.25-1.32-44.58-19.57-48.45-43.71-.12-.77-.49-1.51-.74-2.26.04-9.32.08-18.64.12-27.95Z"/>
  <path class="cls-7" d="M249.98,249.58c.07-9.32.13-18.64.2-27.97,35.02,0,70.04,0,105.06-.01.06,9.33.12,18.67.19,28-.57,2.19-1.16,4.38-1.69,6.59-4.83,19.92-22.67,35.52-42.67,38.84-26.8,4.46-54.02-13.65-59.75-40.47-.36-1.68-.88-3.32-1.33-4.97Z"/>
</svg>