<?xml version="1.0" encoding="UTF-8"?>
<svg id="Camada_2" data-name="Camada 2" xmlns="http://www.w3.org/2000/svg" viewBox="0 0 312.29 253.49">
  <defs>
    <style>
      .cls-1 {
        fill: #fff;
      }

      .cls-1, .cls-2 {
        stroke-width: 0px;
      }

      .cls-2 {
        fill: #e5003c;
      }
    </style>
  </defs>
  <g id="Camada_11" data-name="Camada 11">
    <path class="cls-1" d="M137.52,11.01c2.75-8.56,1.33-10.55-7.59-10.9-5.21-.2-10.44-.09-15.66-.05-26.02.18-37.21,8.75-44.95,33.55-7.95,25.49-16.27,50.87-24.51,76.27C30.22,154.85,15.66,199.83.87,244.72c-2.27,6.89-.09,9,6.6,8.75,6.75-.25,13.51-.06,20.26-.06v-.1c6.76,0,13.52-.23,20.26.06,7.63.33,11.56-2.99,13.92-10.34,19.67-61.06,39.65-122.03,59.55-183.02,5.33-16.34,10.79-32.64,16.04-49.01Z"/>
    <path class="cls-2" d="M150.78,201.41c-7.04-.12-14.09-.03-21.13,0-7.35,0-14.83-.82-21.99.33-3.75.6-8.72,3.95-10.06,7.3-4.66,11.62-7.97,23.78-11.79,35.74-2,6.24,1,8.56,6.81,8.56,14.09.01,28.2.45,42.24-.36,3.63-.21,8.87-3.65,10.22-6.92,4.79-11.57,8.25-23.69,12.15-35.62,1.91-5.83-.37-8.93-6.43-9.03Z"/>
    <path class="cls-1" d="M292.85.84c-3.31-.54-6.73-.62-10.1-.63-34.1-.04-68.21.28-102.3-.22-10.05-.15-14.8,3.61-17.78,13.05-15.78,50.09-32.1,100.01-48.21,150-3.09,9.57-1.97,11.17,8.63,11.23,22.43.14,44.85.03,67.28.09,12.2.03,12.7.53,9.19,11.84-5.81,18.77-11.84,37.48-17.97,56.16-2.48,7.56-.21,11.12,7.85,11.07,14.44-.09,28.88-.03,43.32-.02,14.13,0,28.27-.13,42.39.07,6.8.09,10.87-2.53,12.75-9.3,2.87-10.36,6.42-20.52,9.43-30.84,2.92-10.03,1.42-11.9-9.26-12.12-6.45-.13-12.9,0-19.35-.04-11.79-.1-12.74-1.17-9.26-12.13,6.77-21.37,13.81-42.66,20.68-64,10.25-31.86,20.61-63.7,30.6-95.64,4.88-15.6-1.84-25.97-17.87-28.57ZM246.18,74.98c-6.74-.01-11.92-4.8-11.88-10.98.04-6.06,5.33-10.86,11.94-10.82,6.64.03,11.98,4.96,11.94,11.02-.04,6-5.38,10.8-12,10.79Z"/>
    <path class="cls-2" d="M246.24,53.17c-6.61-.03-11.9,4.76-11.94,10.82-.04,6.18,5.14,10.97,11.88,10.98,6.62.01,11.96-4.78,12-10.79.04-6.05-5.3-10.99-11.94-11.02Z"/>
  </g>
</svg>