<?xml version="1.0" encoding="utf-8" ?>
<svg xmlns="http://www.w3.org/2000/svg" xmlns:xlink="http://www.w3.org/1999/xlink" width="459" height="378">
	<path fill="white" fill-opacity="0.98823529" transform="scale(1.49511 1.49407)" d="M48.5371 22.2259C52.3967 21.8827 56.3551 22.0526 60.2313 22.0524L79.6565 22.0541L141.297 22.0592L192.019 22.0518L208.203 22.0605C211.245 22.077 214.426 21.9431 217.445 22.318C221.276 22.7938 224.99 24.6864 227.926 27.1493C232.659 31.1208 233.395 36.3992 233.89 42.2599C234.599 50.6649 233.947 59.3324 233.979 67.7769L234.236 117.279C234.229 125.305 233.756 133.43 233.993 141.438C234.017 142.274 234.012 143.307 234.46 144.032C236.096 145.178 239.265 144.93 241.246 145.037C248.793 145.446 264.434 145.509 270.007 150.718C271.436 152.053 272.014 153.583 272.349 155.466C273.368 161.201 272.728 170.201 272.739 176.263L272.762 191.962C272.763 195.99 272.896 200.188 272.34 204.182C272.095 205.944 271.514 207.623 270.483 209.084C268.604 211.746 265.073 214.306 261.89 215.044C256.056 213.093 249.847 213.116 243.763 212.851C241.368 212.747 238.9 212.727 236.553 212.198C235.555 215.595 234.524 218.994 233.69 222.435C233.049 225.083 232.607 227.956 231.732 230.525C229.402 232.441 226.843 233.455 223.934 234.148C220.08 230.475 210.063 221.912 207.606 217.966C207.181 217.284 206.759 216.62 205.938 216.442C202.831 215.768 198.825 216.213 195.627 216.197C187.545 216.159 178.115 216.366 170.145 215.668C169.79 215.512 169.401 215.36 169.075 215.15C168.377 214.702 168.341 214.234 168.149 213.496C167.781 203.35 167.691 192.779 168.607 182.668C161.192 183.033 153.615 182.785 146.183 182.786L105.77 182.783L73.375 182.787C66.7945 182.8 60.2045 183.216 53.6255 182.975C50.4283 182.857 47.2661 182.347 44.0819 182.07C42.7477 173.373 43.1915 164.883 43.2944 156.125L43.5046 125.949L43.2722 64.151C43.2746 53.6165 42.8665 42.9149 43.5812 32.408C43.7547 29.8565 43.9924 27.144 45.5394 25.0168C46.3918 23.8448 47.4008 23.0835 48.5371 22.2259ZM72.0222 56.125C64.2812 56.5208 56.2776 56.3864 48.521 56.2285L48.0145 177.54C54.739 178.211 61.4741 178.027 68.2233 178.028L95.6591 178.025L148.4 178.014C153.848 178.016 159.34 178.32 164.775 178.242C165.781 178.227 168.526 178.248 169.308 177.704L169.453 177.347L169.319 177.325C168.983 177.266 168.737 177.222 168.445 177.029C167.407 174.185 168.988 154.989 169.076 150.938L169.306 147.433C178.223 145.607 188.689 145.112 197.8 145.036C200.989 145.009 204.187 145.252 207.372 145.162C211.774 145.038 216.439 144.169 220.824 144.667C220.601 136.587 220.767 128.471 220.778 120.388C220.791 111.561 220.666 102.72 220.814 93.895Q221.142 81.2864 221.016 68.6742C221.015 64.6419 221.134 60.5668 220.968 56.539C214.305 55.6156 206.797 56.21 200.021 56.2222L161.206 56.2338L99.9112 56.013C90.6733 56.0123 81.2437 55.6273 72.0222 56.125ZM203.901 149.606Q193.257 150.264 182.606 150.806C179.568 150.953 176.33 151.376 173.311 151.208C171.983 161.607 172.965 172.376 172.929 182.832C172.916 186.444 172.042 189.983 172.069 193.62C172.109 198.99 173.311 205.796 172.213 210.966C177.063 211.06 181.916 211.264 186.767 211.267C192.322 211.271 201.815 210.691 206.998 211.948C208.978 212.429 210.117 213.186 211.493 214.62C215.649 218.953 219.038 223.684 223.766 227.544Q224.314 223.239 225.485 219.061Q226.344 216.058 226.998 213.003C226.685 212.097 226.122 210.98 226.549 210.053C226.964 209.149 227.737 208.755 228.631 208.455C230.002 207.994 231.508 207.806 232.949 207.742C237.382 207.547 256.613 208.497 259.876 209.964C261.979 207.357 262.563 159.813 261.896 153.451C261.852 153.032 261.763 152.663 261.517 152.321C257.61 149.433 211.628 149.371 203.901 149.606ZM50.9057 26.5608C49.5471 27.2221 48.9791 28.1706 48.5118 29.593C46.9776 34.2625 48.4732 45.536 48.1226 51.2971C58.5287 51.0877 68.9696 51.2703 79.3794 51.2713L139.218 51.2748L185.972 51.2719C196.892 51.2691 207.816 51.1395 218.73 51.5351L220.961 51.7969C221.028 46.5396 221.167 41.2089 220.944 35.9543C220.821 33.0289 220.411 30.1225 220.267 27.1986C217.167 27.2583 214.081 26.8684 210.972 26.8985Q176.113 27.3382 141.256 26.7894L50.9057 26.5608ZM168.149 213.496C168.341 214.234 168.377 214.702 169.075 215.15C169.401 215.36 169.79 215.512 170.145 215.668C170.11 214.02 170.153 212.299 169.836 210.68L169.509 210.619C168.64 211.341 169.116 212.605 168.149 213.496Z"/>
	<path fill="white" fill-opacity="0.97254902" transform="scale(1.49511 1.49407)" d="M168.149 213.496C169.116 212.605 168.64 211.341 169.509 210.619L169.836 210.68C170.153 212.299 170.11 214.02 170.145 215.668C169.79 215.512 169.401 215.36 169.075 215.15C168.377 214.702 168.341 214.234 168.149 213.496Z"/>
	<path fill="white" fill-opacity="0.98823529" transform="scale(1.49511 1.49407)" d="M107.882 33.0135C109.002 33.1747 110.305 33.2915 111.346 33.7464C112.756 34.3633 114.134 35.5659 114.698 37.0236C115.141 38.1689 115.127 39.5237 114.612 40.6445C113.881 42.2372 112.348 43.4239 110.743 44.0166C110.195 44.1279 109.597 44.2261 109.036 44.1671C107.814 44.0384 106.188 42.9936 105.457 42.0289C104.58 40.8709 104.079 39.3673 104.294 37.9124C104.618 35.726 106.205 34.2842 107.882 33.0135Z"/>
	<path fill="white" fill-opacity="0.98823529" transform="scale(1.49511 1.49407)" d="M83.0311 33.4917C83.5019 33.4704 83.9593 33.5063 84.4251 33.573C86.4224 33.8586 88.73 34.6053 89.9607 36.3188C90.6796 37.3198 90.9212 38.5216 90.6928 39.7298C90.3209 41.697 88.7509 43.2436 87.1472 44.3065C85.9907 44.5738 84.801 44.6155 83.6202 44.6934C82.5653 43.8804 81.4307 43.0114 80.727 41.8606C79.9226 40.5452 79.5924 38.9693 79.9929 37.4632C80.4243 35.8409 81.6075 34.3454 83.0311 33.4917Z"/>
	<path fill="white" fill-opacity="0.98823529" transform="scale(1.49511 1.49407)" d="M59.4115 33.7942C60.1607 33.7548 60.8946 33.7648 61.6401 33.8608C63.3417 34.0798 65.119 34.9381 66.1605 36.3354Q66.4219 36.6846 66.608 37.0792Q66.7941 37.4738 66.8972 37.8976Q67.0004 38.3215 67.0164 38.7574Q67.0324 39.1934 66.9607 39.6237C66.6337 41.6709 64.929 43.3982 63.3024 44.5567C62.4203 44.7329 61.5402 44.8254 60.6455 44.9125C59.6669 44.4894 58.5878 43.9585 57.783 43.2574C55.9506 41.6613 55.8913 39.618 55.742 37.3693C56.6819 35.7347 57.6964 34.6043 59.4115 33.7942Z"/>
	<path fill="white" fill-opacity="0.96078432" transform="scale(1.49511 1.49407)" d="M238.812 185.698C239.578 186.365 240.4 187.013 241.046 187.8L240.429 189.951L240.15 189.383L239.948 189.371C239.56 189.038 238.997 186.307 238.812 185.698Z"/>
	<path fill="white" fill-opacity="0.98823529" transform="scale(1.49511 1.49407)" d="M208.413 153.326C208.975 152.988 209.575 152.645 210.189 152.416C213.197 151.294 216.42 151.829 219.223 153.197C219.941 154.807 220.027 156.087 220.028 157.82C223.191 159.152 226.215 160.772 229.239 162.389C230.973 162.114 233.144 161.498 234.879 161.681C235.917 161.791 236.752 162.721 237.351 163.506C243.238 171.225 236.776 171.72 236.372 175.104C236.223 176.346 235.972 182.331 236.468 183.227C236.932 184.064 238.061 184.774 238.697 185.554L238.812 185.698C238.997 186.307 239.56 189.038 239.948 189.371L240.15 189.383L240.429 189.951C239.901 191.801 239.371 194.159 237.699 195.318C235.79 196.642 232.792 195.809 230.696 195.455C227.894 196.735 225.139 198.893 222.483 200.518C222.155 202.407 221.967 205.407 220.481 206.766C218.847 208.259 214.54 207.639 212.387 207.586C209.211 205.388 210.115 202.766 208.138 201.35C206.973 200.515 205.501 199.901 204.209 199.285C199.752 197.161 198.854 197.237 194.103 197.955C192.472 196.251 189.053 193.025 189.065 190.56C189.075 188.456 191.185 186.825 192.534 185.465C192.419 182.117 192.012 178.8 192.008 175.442C190.306 174.454 189.264 173.388 188.16 171.796C188.262 170.536 188.335 169.065 188.855 167.904C188.878 167.852 188.903 167.8 188.926 167.747C189.673 166.054 190.982 164.673 192.171 163.275L194.342 162.486C195.727 162.953 197.104 163.369 198.52 163.729Q198.707 163.643 198.892 163.554C201.949 162.089 205.656 160.18 207.191 157.017C207.722 155.924 207.996 154.501 208.413 153.326ZM212.655 157.023L212.546 157.235C211.824 158.652 211.558 160.598 210.571 161.814C210.562 161.825 200.253 168.337 199.711 168.613C198.262 168.57 196.128 167.876 194.801 168.226C194.12 168.896 193.758 169.761 193.35 170.61C194.896 172.107 196.888 173.477 196.899 175.835C196.905 177.073 196.592 178.288 196.62 179.525C196.706 183.32 197.913 186.853 194.821 189.877Q194.44 190.253 194.045 190.615C195.01 191.349 195.967 192.151 197.016 192.761C199.633 191.967 200.701 191.722 203.202 193.061C205.326 194.199 210.763 196.73 212.055 198.348C213.212 199.796 213.851 201.707 215.255 202.923C215.312 202.972 215.366 203.024 215.422 203.073C215.456 203.103 215.491 203.131 215.526 203.159C216.578 202.691 216.874 202.195 217.29 201.124C217.875 199.613 218.259 197.984 218.683 196.42C221.715 194.92 225.834 191.494 228.877 190.675C230.631 190.204 233.738 191.327 235.144 190.012C235.216 189.346 235.105 189.071 234.665 188.548C233.828 187.554 232.602 186.727 232.002 185.56C231.382 184.355 231.706 175.118 231.515 172.793C232.354 171.475 234.03 169.515 233.696 167.937C232.857 167.226 231.735 167.4 230.722 167.483C229.877 167.552 229.034 167.65 228.19 167.717C224.51 165.046 221.252 164.239 217.407 162.212C216.775 160.918 215.988 157.704 214.733 157.164C214.178 156.925 213.251 157.01 212.655 157.023Z"/>
	<path fill="white" fill-opacity="0.98823529" transform="scale(1.49511 1.49407)" d="M213.165 170.055C214.948 169.887 217.14 170.191 218.788 170.892C221.087 171.87 222.669 173.714 223.556 176.026C224.558 178.64 224.61 181.537 223.43 184.102C221.917 187.392 219.249 188.686 216.054 189.878C214.312 190.158 211.894 189.628 210.346 188.855C208.063 187.715 206.002 185.624 205.195 183.173C204.349 180.605 204.671 177.424 205.926 175.042C207.511 172.034 210.106 170.986 213.165 170.055ZM213.185 174.706C211.526 176.083 209.798 177.404 209.582 179.721Q209.562 179.954 209.565 180.187Q209.569 180.42 209.596 180.652Q209.623 180.884 209.673 181.112Q209.724 181.34 209.797 181.561Q209.871 181.783 209.966 181.996Q210.061 182.209 210.178 182.411Q210.294 182.614 210.431 182.803Q210.567 182.992 210.722 183.167C211.51 184.05 213.02 184.979 214.216 185.028C214.762 185.05 215.317 185.018 215.862 184.985C217.449 183.775 219.188 182.578 219.468 180.452C219.632 179.21 219.117 177.782 218.81 176.583C216.95 175.634 215.259 175.035 213.185 174.706Z"/>
	<path fill="white" fill-opacity="0.97647059" transform="scale(1.49511 1.49407)" d="M160.488 125.362C162.566 125.121 167.104 125.291 168.742 126.65C169.223 127.049 169.267 127.313 169.306 127.892C169.194 128.17 169.062 128.44 168.85 128.657C166.484 131.086 160.595 130.613 157.438 130.601C155.278 130.622 152.534 130.873 150.481 130.084C149.729 129.795 149.309 129.45 148.965 128.707C148.88 127.886 149.022 127.419 149.345 126.671C151.031 124.841 157.975 125.524 160.488 125.362Z"/>
	<path fill="white" fill-opacity="0.98039216" transform="scale(1.49511 1.49407)" d="M190.647 105.11C192.353 104.903 198.111 105.126 199.426 106.022C199.967 106.39 200.377 106.868 200.45 107.538C200.533 108.307 200.14 108.86 199.702 109.433C195.078 110.966 176.569 110.191 170.482 110.214C166.43 110.23 162.403 110.501 158.355 110.589C155.836 110.604 152.613 110.999 150.202 110.286C149.416 110.053 148.596 109.626 148.24 108.842C147.767 107.799 148.408 106.535 148.784 105.541C153.436 105.525 158.102 105.239 162.749 105.291C172.053 105.395 181.349 105.821 190.647 105.11Z"/>
	<path fill="white" fill-opacity="0.98039216" transform="scale(1.49511 1.49407)" d="M201.527 84.3612C203.098 84.1687 205.487 84.1883 207.046 84.4847C207.906 84.6483 208.84 85.0662 209.295 85.8554C209.888 86.8825 209.304 88.0976 208.963 89.1254C199.536 89.4396 190.059 89.1816 180.625 89.2188C177.593 89.2307 174.575 89.4733 171.546 89.5394C166.517 89.6492 161.468 89.5851 156.438 89.5846C153.377 89.6011 150.926 89.0606 148.022 88.1885C148.238 87.3289 148.43 86.0526 148.981 85.3554C149.424 84.794 149.98 84.6237 150.659 84.5475C154.569 84.1088 158.929 84.4782 162.876 84.4819L187.338 84.5047C192.035 84.5084 196.845 84.7183 201.527 84.3612Z"/>
	<path fill="white" fill-opacity="0.98431373" transform="scale(1.49511 1.49407)" d="M108.876 81.1039C116.366 80.7862 130.968 80.6122 137.966 82.1316Q138.793 86.6546 139.189 91.2356C139.796 98.3667 140.808 133.325 137.649 137.075C133.548 138.94 97.8851 138.778 90.375 138.767C85.3535 138.794 65.5023 138.86 61.4826 137.179C61.1247 137.029 60.9671 136.813 60.8398 136.444C60.2559 134.747 60.0949 132.684 59.9878 130.904C59.697 126.075 60.0546 121.138 59.9885 116.287C59.8598 106.849 59.3647 97.4756 60.0155 88.0386C60.1389 86.2504 60.2634 84.0292 61.0802 82.4116C63.2861 80.4276 85.1679 81.4845 89.7062 81.4954C96.0166 81.5105 102.598 81.7165 108.876 81.1039ZM104.72 86.1366C99.5734 86.4151 94.3739 86.1698 89.2176 86.2463C81.2125 86.3652 73.2537 86.7271 65.2364 86.5724C63.7327 93.8917 64.0193 101.37 64.0063 108.799C64.0009 111.922 63.8069 115.153 63.9902 118.265C64.1143 120.372 64.4798 122.458 64.6641 124.559C64.8515 126.697 64.847 128.789 65.261 130.905Q72.13 124.194 78.7124 117.201C80.8121 114.959 82.6781 112.337 84.9435 110.28C86.3307 109.02 87.8819 107.811 89.6876 107.229C90.9618 108.13 92.0703 109.102 93.1908 110.186C94.6529 111.604 101.973 120.812 103.182 120.751C103.733 120.723 104.131 120.526 104.556 120.194C106.254 118.867 107.658 117.011 109.266 115.551C111.159 113.833 113.263 112.392 115.179 110.717C118.001 112.284 120.917 113.487 123.589 115.356C127.268 117.929 130.753 121.669 134.824 123.527C135.493 115.558 135.429 107.26 135.04 99.2702C134.834 95.0578 134.051 90.3949 134.398 86.2349C124.544 86.2208 114.558 85.5336 104.72 86.1366ZM89.4975 112.633C87.0203 116.658 73.8463 129.67 69.8739 132.853C75.3499 134.03 80.9861 134.093 86.5625 134.047C92.8731 134.025 99.4219 133.649 105.709 134.152C101.955 127.421 96.6304 121.853 91.8761 115.845C91.2266 115.025 90.2516 113.127 89.4975 112.633ZM115.451 115.882C113.056 119.378 109.486 123.036 105.948 125.383C107.647 128.108 109.094 131.068 110.892 133.712C115.501 133.901 120.192 133.602 124.792 133.275C127.081 133.298 132.636 133.899 134.242 132.065C134.469 131.805 134.573 131.56 134.524 131.222C134.181 128.861 129.114 125.114 127.173 123.785Q122.996 120.965 118.791 118.187C117.72 117.47 116.567 116.461 115.451 115.882Z"/>
	<path fill="white" fill-opacity="0.98823529" transform="scale(1.49511 1.49407)" d="M103.826 91.8151C104.344 91.8336 104.869 91.8558 105.383 91.9293C107.887 92.288 109.179 93.8086 110.581 95.7268C110.851 97.3462 110.955 98.7134 110.45 100.315C109.525 103.254 107.013 104.387 104.486 105.702C103.385 105.536 102.303 105.309 101.275 104.87C98.735 103.785 97.8096 101.419 96.8336 99.0494C97.3978 96.992 98.3045 95.279 99.4066 93.4699C100.837 92.6668 102.202 92.0824 103.826 91.8151ZM103.825 96.9052C102.991 97.5301 102.235 98.154 102.101 99.2502C102.051 99.6662 102.186 99.8419 102.358 100.21C102.976 100.686 103.434 100.757 104.186 100.849C104.888 100.168 105.784 99.4165 105.827 98.3619C105.85 97.8216 105.705 97.7111 105.387 97.3092C104.839 97.0437 104.456 96.8624 103.825 96.9052Z"/>
</svg>
