<?xml version="1.0" encoding="UTF-8"?>
<svg id="Camada_1" data-name="Camada 1" xmlns="http://www.w3.org/2000/svg" viewBox="0 0 500 500">
  <defs>
    <style>
      .cls-1 {
        fill: #4de066;
      }

      .cls-1, .cls-2, .cls-3, .cls-4, .cls-5, .cls-6, .cls-7, .cls-8, .cls-9, .cls-10, .cls-11, .cls-12, .cls-13, .cls-14, .cls-15 {
        stroke-width: 0px;
      }

      .cls-2 {
        fill: #fcba25;
      }

      .cls-3 {
        fill: #fdba24;
      }

      .cls-4 {
        fill: #4ce066;
      }

      .cls-5 {
        fill: #45c767;
      }

      .cls-6 {
        fill: #fefdfd;
      }

      .cls-7 {
        fill: #fe4a4a;
      }

      .cls-8 {
        fill: #4ee066;
      }

      .cls-9 {
        fill: #1fa4e7;
      }

      .cls-10 {
        fill: #fdda56;
      }

      .cls-11 {
        fill: #46c868;
      }

      .cls-12 {
        fill: #fcda56;
      }

      .cls-13 {
        fill: #45c768;
      }

      .cls-14 {
        fill: #e63540;
      }

      .cls-15 {
        fill: #a7edfa;
      }
    </style>
  </defs>
  <path class="cls-15" d="M141.22,406.18c-12.39,5.49-24.8,10.96-37.17,16.48-22.5,10.05-44.97,20.16-67.49,30.18-5.87,2.61-7.22,2.18-11.18-2.73,0-2.34,0-4.68,0-7.02,1.74-8.74,3.61-17.46,5.2-26.23,3.93-21.62,7.73-43.26,11.6-64.89.13-.7.52-1.36.79-2.03.67-.27,1.37-.49,2.01-.82,29.44-15.54,58.85-31.11,88.31-46.6,5.12-2.7,10.41-5.08,15.62-7.6-.28,4.21-.53,8.42-.86,12.63-1.4,18-2.81,36-4.25,53.99-.76,9.43-1.73,18.85-2.34,28.29-.35,5.44-.18,10.91-.25,16.36Z"/>
  <path class="cls-7" d="M174.47,205.61c-3.09-7.36-6.55-14.59-9.2-22.11-8.44-23.99-10.42-48.27-.4-72.25,13.22-31.62,36.99-50.6,70.78-56.86,1.57-.29,3.16-.45,4.74-.67,2.65.68,5.29,1.38,7.94,2.05,19.35,4.89,35.54,14.74,48.54,30.06,12.37,14.58,19.69,31.32,21.42,50.18,2.02,22-3.1,42.84-12.77,62.57-8.44,17.22-18.87,33.23-31.81,47.35-11.29,12.32-23.44,23.87-35.21,35.76-5.46-4.93-10.92-9.86-16.38-14.79-12.99-13.25-25.21-27.15-35.53-42.62-4.12-6.17-8.09-12.44-12.12-18.67ZM250.38,179.22c18.81.01,33.94-15.04,34.03-33.86.1-18.95-15.24-34.25-34.2-34.12-18.83.13-33.87,15.28-33.81,34.06.06,18.82,15.17,33.9,33.98,33.91Z"/>
  <path class="cls-4" d="M358.81,406.1c-20.71,9.22-41.42,18.45-62.14,27.66-1.46.65-2.95,1.24-4.42,1.85-14.07-14.49-28.13-28.97-42.2-43.45-.05-.29-.07-.57-.06-.86.03-29.01.06-58.02.09-87.03-.02-.19-.02-.38-.02-.57.97-.27,1.99-.42,2.91-.82,18.46-8,36.95-15.94,55.32-24.13,3.08-1.37,5.11-1.31,7.81.83,11.77,9.32,23.74,18.39,35.64,27.55.3.64.6,1.27.91,1.91.57,7.52,1.18,15.03,1.71,22.56.92,13.32,1.74,26.65,2.71,39.96.4,5.49,1.27,10.94,1.55,16.43.3,6.02.16,12.07.21,18.11Z"/>
  <path class="cls-9" d="M428.16,243.06c2.19,1.15,4.71,1.94,6.47,3.56,1.99,1.84,4.26,4.24,4.74,6.72,4.61,23.82,8.89,47.7,13.24,71.57,3.98,21.87,7.96,43.74,11.88,65.62.35,1.97.22,4.03.31,6.05-1.04-1.19-2.1-2.38-3.13-3.58-25.38-29.46-50.74-58.93-76.15-88.36-12.32-14.26-24.74-28.44-37.12-42.65,0,0-.04-.16-.04-.16.37-.37.74-.74,1.11-1.12,1.01-.09,2.05-.07,3.04-.29,14.77-3.31,29.55-6.62,44.31-10,10.46-2.4,20.9-4.91,31.35-7.37Z"/>
  <path class="cls-9" d="M141.22,406.18c.07-5.46-.1-10.93.25-16.36.61-9.44,1.58-18.86,2.34-28.29,1.44-18,2.85-35.99,4.25-53.99.33-4.21.57-8.42.86-12.63,0,0,.22-.17.22-.17,0,0-.05-.27-.05-.27.93,1.29,1.91,2.56,2.79,3.89,21.64,32.86,43.24,65.74,64.91,98.58,10.98,16.65,22.09,33.21,33.14,49.82,0,2.49.02,4.97.03,7.46-7.78-3.27-15.61-6.41-23.32-9.84-28.49-12.68-56.94-25.45-85.41-38.19Z"/>
  <path class="cls-1" d="M50.79,309.74c1.53-9.49,2.97-18.99,4.6-28.45,1.56-9.06,3.43-18.06,4.95-27.13.61-3.62,2.26-6.08,5.48-7.86,28.6-15.86,57.15-31.81,85.77-47.64,1.53-.84,3.58-.75,5.38-1.09-.32,4.49-.62,8.98-.96,13.47-1.14,15.34-2.28,30.68-3.42,46.02-.32.22-.63.45-.95.67-.82.29-1.69.48-2.44.88-27.85,14.67-55.67,29.38-83.54,44.01-4.86,2.55-9.91,4.76-14.87,7.12Z"/>
  <path class="cls-14" d="M238.5,281.69c11.77-11.89,23.92-23.43,35.21-35.76,12.94-14.12,23.37-30.13,31.81-47.35,9.67-19.73,14.79-40.57,12.77-62.57-1.73-18.86-9.05-35.6-21.42-50.18-12.99-15.32-29.18-25.16-48.54-30.06-2.65-.67-5.29-1.37-7.94-2.05,44.98-5.44,85,23.74,97.63,62.46,6.07,18.6,6.3,37.35,1.01,55.9-3.16,11.09-8.32,21.6-12.58,32.37-.83,1.54-1.51,3.18-2.52,4.6-9.95,13.99-19.95,27.93-29.94,41.89-9.05,9.11-17.85,18.5-27.26,27.22-5.04,4.67-11.14,8.19-16.76,12.23-3.83-2.9-7.65-5.81-11.48-8.71Z"/>
  <path class="cls-13" d="M358.81,406.1c-.05-6.04.09-12.08-.21-18.11-.27-5.49-1.15-10.95-1.55-16.43-.96-13.32-1.78-26.64-2.71-39.96-.52-7.52-1.13-15.04-1.71-22.56.45.34.99.6,1.35,1.02,17.14,20.65,34.24,41.33,51.38,61.98,22.26,26.82,44.55,53.63,66.82,80.44-3.38,2.47-6.6,1.17-9.89-.31-32.46-14.58-64.93-29.14-97.41-43.68-1.99-.89-4.05-1.6-6.08-2.4Z"/>
  <path class="cls-2" d="M472.18,452.49c-22.27-26.81-44.56-53.62-66.82-80.44-17.14-20.65-34.24-41.33-51.38-61.98-.35-.42-.89-.69-1.35-1.02-.3-.64-.6-1.27-.91-1.91-1.11-15.04-2.23-30.09-3.34-45.13,12.38,14.21,24.8,28.39,37.12,42.65,25.41,29.43,50.77,58.91,76.15,88.36,1.04,1.2,2.09,2.39,3.13,3.58,1.48,6.6,3.11,13.18,4.41,19.82,1.81,9.23,3.39,18.51,5.04,27.78.55,3.06.91,6.1-2.06,8.3Z"/>
  <path class="cls-12" d="M50.79,309.74c4.96-2.36,10.01-4.57,14.87-7.12,27.87-14.63,55.69-29.34,83.54-44.01.76-.4,1.63-.59,2.44-.88-.02,2.32.11,4.66-.08,6.97-.78,9.93-1.65,19.85-2.49,29.77l.05.27s-.22.17-.22.17c-5.21,2.53-10.5,4.91-15.62,7.6-29.46,15.5-58.87,31.07-88.31,46.6-.64.34-1.34.55-2.01.82,2.41-13.14,4.81-26.27,7.21-39.41.22-.28.43-.56.65-.84,0,0-.04.05-.04.05Z"/>
  <path class="cls-5" d="M152.6,257.06c1.14-15.34,2.29-30.68,3.42-46.02.33-4.49.64-8.98.96-13.47,4.27,1.94,8.54,3.88,12.81,5.83,1.57.72,3.12,1.47,4.68,2.21,4.04,6.23,8.01,12.5,12.12,18.67,10.32,15.47,22.54,29.37,35.53,42.62-9.37-1.23-18.75-2.36-28.1-3.7-13.81-1.97-27.61-4.09-41.41-6.14Z"/>
  <path class="cls-2" d="M428.16,243.06c-10.45,2.46-20.89,4.97-31.35,7.37-14.76,3.38-29.53,6.69-44.31,10-.99.22-2.03.2-3.04.29-.36-.04-.72-.07-1.08-.11-.64-10.48-1.27-20.96-1.91-31.44,13.14-3.2,26.28-6.4,39.42-9.61,14.09,7.83,28.17,15.67,42.26,23.5Z"/>
  <path class="cls-12" d="M249.95,454.22c0-2.49-.02-4.97-.03-7.46.04-18.2.08-36.4.12-54.6,14.07,14.48,28.13,28.97,42.2,43.45-14.1,6.2-28.2,12.4-42.29,18.6Z"/>
  <path class="cls-8" d="M293.99,250.95c9.99-13.96,19.99-27.91,29.94-41.89,1.01-1.41,1.69-3.06,2.52-4.6,3.53-1.56,7.04-3.15,10.6-4.65,1.95-.82,3.97-1.47,5.96-2.2.87,10.45,1.74,20.9,2.61,31.36-14.62,6.5-29.22,13.03-43.87,19.46-2.48,1.09-5.17,1.7-7.76,2.53Z"/>
  <path class="cls-11" d="M345.62,228.96c-.87-10.45-1.74-20.9-2.61-31.36,1.79.32,3.82.21,5.33,1.04,12.57,6.88,25.05,13.93,37.56,20.92-13.14,3.2-26.28,6.4-39.42,9.61-.29-.07-.57-.14-.86-.21Z"/>
  <path class="cls-1" d="M50.83,309.69c-.22.28-.43.56-.65.84.22-.28.43-.56.65-.84Z"/>
  <path class="cls-3" d="M250.05,392.16c-.04,18.2-.08,36.4-.12,54.6-11.05-16.6-22.15-33.17-33.14-49.82-21.67-32.84-43.27-65.72-64.91-98.58-.88-1.33-1.86-2.59-2.79-3.89.84-9.92,1.71-19.84,2.49-29.77.18-2.31.06-4.65.08-6.97.32-.23.63-.45.95-.67,13.8,2.05,27.6,4.17,41.41,6.14,9.35,1.34,18.73,2.47,28.1,3.7,5.46,4.93,10.92,9.86,16.38,14.79,3.82,2.91,7.65,5.81,11.48,8.72.03,4.43.05,8.86.08,13.29,0,.19,0,.38.02.57-19.72-2.39-39.43-4.79-60.07-7.29,1.16,1.99,1.7,2.99,2.3,3.94,9.37,14.79,18.72,29.6,28.15,44.36,9.81,15.36,19.69,30.68,29.53,46.02,0,.29.01.58.06.86Z"/>
  <path class="cls-6" d="M250.38,179.22c-18.8-.01-33.91-15.1-33.98-33.91-.06-18.78,14.98-33.93,33.81-34.06,18.95-.13,34.29,15.17,34.2,34.12-.1,18.82-15.22,33.87-34.03,33.86Z"/>
  <path class="cls-10" d="M250.05,303.7c-.03-4.43-.05-8.86-.08-13.29,5.62-4.04,11.72-7.57,16.76-12.23,9.41-8.72,18.21-18.11,27.26-27.22,2.59-.83,5.28-1.44,7.76-2.53,14.65-6.42,29.25-12.96,43.87-19.46.29.07.57.14.86.21.63,10.48,1.27,20.96,1.9,31.44-.01.41-.02.82-.03,1.23,0,0,.04.16.04.16,1.11,15.04,2.23,30.09,3.34,45.13-11.9-9.16-23.87-18.23-35.64-27.55-2.7-2.14-4.73-2.2-7.81-.83-18.37,8.19-36.86,16.13-55.32,24.13-.92.4-1.94.55-2.91.82Z"/>
  <path class="cls-5" d="M249.98,391.3c-9.85-15.34-19.73-30.65-29.53-46.02-9.42-14.76-18.77-29.57-28.15-44.36-.61-.96-1.15-1.96-2.3-3.94,20.64,2.51,40.36,4.9,60.07,7.29-.03,29.01-.06,58.02-.09,87.03Z"/>
  <path class="cls-2" d="M348.35,261.84c.01-.41.02-.82.03-1.23.36.04.72.07,1.08.11-.37.37-.74.74-1.11,1.12Z"/>
</svg>