<?xml version="1.0" encoding="utf-8" ?>
<svg xmlns="http://www.w3.org/2000/svg" xmlns:xlink="http://www.w3.org/1999/xlink" width="2288" height="1679">
	<path fill="white" fill-opacity="0.98823529" transform="scale(7.08359 7.08439)" d="M231.543 46.6071C232.517 47.098 233.557 47.5462 234.09 48.5451C234.683 51.681 228.61 67.2954 226.688 70.2394C225.99 70.1412 224.853 70.0893 224.254 69.6999C223.788 69.3976 223.578 69.1175 223.484 68.5698C222.981 65.6642 228.31 52.2373 229.84 49.1197C230.281 48.2203 230.934 47.3989 231.543 46.6071Z"/>
	<path fill="white" transform="scale(7.08359 7.08439)" d="M256.911 51.1215C257.248 51.1062 257.598 51.0949 257.932 51.1535C258.671 51.2834 259.292 51.5525 259.745 52.1632C260.053 52.9279 259.927 53.4971 259.614 54.2241C258.391 57.074 246.306 69.0034 243.381 70.1332L242.888 70.3961C242.369 70.1403 241.865 69.722 241.599 69.193C240.224 66.457 251.125 56.4778 253.457 54.3489C254.444 53.4473 256.466 52.3073 256.911 51.1215Z"/>
	<path fill="white" fill-opacity="0.98823529" transform="scale(7.08359 7.08439)" d="M280.049 74.1245C280.088 74.1176 280.127 74.1099 280.166 74.1036C280.972 73.9752 281.767 74.0923 282.43 74.5866C282.923 74.9541 283.313 75.5393 283.374 76.1573C283.433 76.765 283.205 77.3139 282.828 77.7772C281.321 79.6264 260.283 82.7788 256.557 83.141C256.132 83.1977 255.65 83.284 255.223 83.2536C254.76 83.2207 254.43 82.9832 254.132 82.6429C253.468 81.8874 253.543 81.0769 253.622 80.1461C253.999 79.3841 254.885 79.0073 255.648 78.7394C258.46 77.7514 261.691 77.498 264.636 77.0357Q269.862 76.2235 275.055 75.2181C276.634 74.921 278.363 74.7186 279.877 74.1867L280.049 74.1245Z"/>
	<path fill="white" transform="scale(7.08359 7.08439)" d="M54.9334 79.6383C56.3762 78.7581 57.4349 78.0256 59.1644 77.932C65.6009 77.5836 72.065 77.7742 78.5047 77.8192L100.824 77.8201L182.75 77.8186L220.446 77.899C224.855 77.9136 233.584 77.3749 237.536 78.3095C238.287 78.4872 239.549 78.9178 239.985 79.5946C242.518 83.1052 242.567 92.8912 241.941 97.1323C241.848 97.7606 241.633 98.399 241.349 98.9668C245.897 100.679 250.686 109.189 252.625 113.446C258.264 125.829 257.815 138.982 253.1 151.518C252.096 154.188 251.156 157.146 248.518 158.617C250.487 159.547 252.039 160.931 252.813 163.018C253.693 165.394 252.861 170.502 252.891 170.559C253.591 171.869 255.862 173.035 256.919 174.217C258.552 176.044 259.963 178.065 261.596 179.899C265.971 184.814 283.298 202.983 285.008 207.525C285.769 209.549 285.157 212.304 284.252 214.181C283.354 216.043 281.848 217.63 279.864 218.31C276.7 219.394 272.738 219.122 269.738 217.655C264.533 215.109 252.555 199.214 248.208 193.982C245.334 190.523 242.38 187.121 239.292 183.86C238.856 183.399 237.747 181.906 237.187 181.787L237.186 181.814C234.287 181.031 231.921 180.207 230.36 177.418C230.016 176.805 229.782 176.132 229.552 175.469C225.869 176.656 222.107 178.072 218.33 178.9C205.892 181.626 191.788 180.163 180.389 174.328Q179.371 173.811 178.38 173.245Q177.389 172.678 176.427 172.063Q175.466 171.447 174.536 170.785Q173.606 170.123 172.711 169.415Q171.815 168.707 170.956 167.956Q170.096 167.204 169.276 166.411Q168.455 165.617 167.674 164.784Q166.894 163.951 166.156 163.08Q165.418 162.209 164.725 161.302Q164.031 160.396 163.383 159.455Q162.736 158.515 162.136 157.544Q161.535 156.573 160.984 155.573Q160.433 154.574 159.933 153.548Q159.432 152.522 158.983 151.472Q158.535 150.422 158.138 149.352Q157.742 148.281 157.4 147.192C156.844 145.447 156.515 143.667 156.072 141.895C137.511 143.021 118.972 143.194 100.395 143.722C90.9203 143.992 81.4804 144.283 72.0008 144.244C67.7774 144.227 63.444 144.381 59.2432 143.911C57.0427 143.665 54.9634 143.416 53.2559 141.875C49.8568 138.808 49.6034 132.814 49.2423 128.538C48.7051 126.434 48.7396 123.799 48.771 121.64C47.9099 117.772 48.3378 95.5589 49.1788 91.5243C50.1528 87.7609 53.2138 83.3304 54.9334 79.6383ZM65.021 82.8905L64.8332 82.9158C62.7268 83.1875 60.3097 82.7623 58.2854 83.2434C57.8546 91.9138 58.5682 100.567 58.85 109.225C59.004 113.957 58.6187 119.306 59.4325 123.927C59.6768 125.314 60.385 126.781 61.3492 127.809C61.7417 128.228 62.1768 128.614 62.6065 128.993C66.5794 129.908 70.9914 129.521 75.0563 129.507L89.3256 129.499L147.771 129.473C151.251 129.475 161.968 128.988 164.326 129.769C165.32 128.973 165.374 125.827 165.63 124.474C168.275 110.51 176.697 99.1137 189.121 92.3762C191.687 90.9844 194.52 90.0698 197.184 88.8681C210.816 85.6634 223.012 86.183 235.308 93.6309C235.975 94.0347 236.603 94.5956 237 95.2737C237.328 93.3567 237.935 84.4663 237.072 82.9614C232.88 83.2536 228.581 82.8063 224.376 82.7755L197.289 82.7544L104.019 82.7708L78.7521 82.7452C74.2549 82.7385 69.4906 82.4388 65.021 82.8905ZM207.41 91.8301C204.659 92.2716 201.83 92.6645 199.145 93.4164C190.105 95.9478 182.406 101.712 176.95 109.269C171.142 117.315 167.955 128.414 169.57 138.276C171.372 149.284 176.995 159.752 186.23 166.337C192.909 171.1 200.182 173.638 208.313 174.377C209.896 174.521 211.698 174.798 213.263 174.53Q213.733 174.449 214.187 174.302C226.487 172.345 236.869 167.805 244.412 157.387C251.468 147.643 253.347 136.792 251.422 125.092C249.86 115.599 243.522 105.71 235.709 100.138C228.587 95.0591 219.772 91.62 210.944 91.6894C209.889 91.6977 208.612 91.6049 207.583 91.7954C207.525 91.8061 207.467 91.8185 207.41 91.8301ZM249.729 175.367C249.592 176.489 248.814 177.093 247.936 177.775C247.189 178.357 245.799 179.088 245.413 179.913C245.442 179.929 245.472 179.945 245.501 179.962C248.053 181.447 250.202 185.131 252.103 187.416C255.175 191.105 258.425 194.68 261.57 198.311C265.292 202.607 271.512 210.772 276.079 213.635C277.185 213.852 278.085 213.844 279.05 213.19C279.904 212.611 280.56 211.65 280.726 210.627C280.878 209.685 280.659 208.596 280.088 207.823C276.578 203.078 272.107 198.815 268.186 194.395C262.504 187.989 257.12 181.009 250.712 175.309C250.381 175.308 250.054 175.292 249.729 175.367ZM48.771 121.64C50.0096 118.836 48.5332 114.724 49.4813 111.654C49.6712 110.041 49.5518 108.259 49.5803 106.624C49.6686 101.557 49.6771 96.5712 49.1788 91.5243C48.3378 95.5589 47.9099 117.772 48.771 121.64ZM48.771 121.64C48.7396 123.799 48.7051 126.434 49.2423 128.538C49.5342 122.885 49.6747 117.315 49.4813 111.654C48.5332 114.724 50.0096 118.836 48.771 121.64Z"/>
	<path fill="white" fill-opacity="0.95294118" transform="scale(7.08359 7.08439)" d="M48.771 121.64C50.0096 118.836 48.5332 114.724 49.4813 111.654C49.6747 117.315 49.5342 122.885 49.2423 128.538C48.7051 126.434 48.7396 123.799 48.771 121.64Z"/>
	<path fill="white" fill-opacity="0.96470588" transform="scale(7.08359 7.08439)" d="M48.771 121.64C47.9099 117.772 48.3378 95.5589 49.1788 91.5243C49.6771 96.5712 49.6686 101.557 49.5803 106.624C49.5518 108.259 49.6712 110.041 49.4813 111.654C48.5332 114.724 50.0096 118.836 48.771 121.64Z"/>
	<path fill="white" transform="scale(7.08359 7.08439)" d="M208.378 97.8259C215.842 96.7521 224.809 99.9752 230.788 104.304C238.511 109.897 243.205 117.887 244.655 127.269C245.971 135.786 243.707 145.669 238.603 152.629C232.459 161.009 223.637 165.538 213.505 167.117C205.824 167.546 197.637 165.584 191.301 161.165C183.924 156.021 178.271 148.082 176.696 139.137C174.976 129.364 176.941 120.431 182.687 112.311C189.231 103.064 197.62 99.6747 208.378 97.8259ZM239.432 140.038L239.845 139.361C239.8 137.458 240.495 135.61 240.398 133.721C241.406 131.403 239.304 124.065 238.36 121.671Q238.089 120.979 237.784 120.301Q237.479 119.623 237.141 118.961Q236.802 118.299 236.431 117.655Q236.06 117.011 235.658 116.386Q235.255 115.761 234.822 115.157Q234.389 114.553 233.927 113.971Q233.464 113.389 232.973 112.831Q232.482 112.273 231.964 111.74Q231.445 111.207 230.901 110.7Q230.357 110.194 229.789 109.715Q229.22 109.236 228.628 108.786Q228.037 108.336 227.423 107.916Q226.81 107.497 226.176 107.108Q225.543 106.719 224.891 106.362Q224.238 106.005 223.569 105.681Q222.9 105.357 222.216 105.067Q221.552 104.786 220.876 104.538Q220.199 104.29 219.511 104.076Q218.823 103.861 218.126 103.68Q217.428 103.5 216.723 103.353Q216.017 103.207 215.305 103.095Q214.594 102.983 213.877 102.906Q213.161 102.829 212.441 102.788Q211.722 102.746 211.001 102.739Q210.281 102.733 209.561 102.761Q208.841 102.79 208.123 102.854Q207.405 102.918 206.691 103.016Q205.978 103.115 205.27 103.249Q204.561 103.382 203.861 103.55Q203.16 103.718 202.468 103.92Q201.777 104.122 201.096 104.358Q200.415 104.593 199.746 104.862C192.135 107.948 186.193 113.259 182.995 120.946C179.985 128.181 179.656 136.169 182.669 143.473C185.902 151.309 191.879 157.141 199.688 160.362C206.763 163.281 215.106 162.887 222.096 159.947C229.819 156.697 235.34 150.976 238.468 143.231C238.853 142.277 239.313 141.052 239.432 140.038ZM240.398 133.721C240.495 135.61 239.8 137.458 239.845 139.361L239.432 140.038C239.984 140.153 240.218 140.228 240.77 140.056C240.971 139.747 241.058 139.462 241.114 139.1C241.358 137.504 241.361 135.066 240.398 133.721Z"/>
	<path fill="white" fill-opacity="0.97254902" transform="scale(7.08359 7.08439)" d="M240.398 133.721C241.361 135.066 241.358 137.504 241.114 139.1C241.058 139.462 240.971 139.747 240.77 140.056C240.218 140.228 239.984 140.153 239.432 140.038L239.845 139.361C239.8 137.458 240.495 135.61 240.398 133.721Z"/>
	<path fill="white" transform="scale(7.08359 7.08439)" d="M78.8847 100.791C79.8376 100.779 80.7949 100.93 81.6788 101.289Q82.0127 101.423 82.331 101.59Q82.6494 101.758 82.9489 101.957Q83.2483 102.156 83.5258 102.385Q83.8032 102.614 84.0557 102.87Q84.3082 103.126 84.533 103.407Q84.7579 103.688 84.9527 103.99Q85.1475 104.293 85.3103 104.613Q85.473 104.934 85.602 105.27Q85.7302 105.587 85.8254 105.915Q85.9207 106.243 85.9821 106.579Q86.0435 106.916 86.0703 107.256Q86.0972 107.597 86.0893 107.939Q86.0814 108.28 86.0387 108.619Q85.9961 108.959 85.9192 109.292Q85.8423 109.625 85.7319 109.948Q85.6215 110.271 85.4788 110.582C84.4931 112.691 82.7279 113.799 80.6102 114.544C78.9672 114.554 77.6095 114.172 76.1852 113.321Q75.9045 113.152 75.6419 112.956Q75.3793 112.76 75.1373 112.539Q74.8953 112.318 74.6763 112.075Q74.4573 111.831 74.2634 111.567Q74.0695 111.303 73.9027 111.021Q73.7358 110.739 73.5975 110.442Q73.4593 110.145 73.3511 109.836Q73.2428 109.526 73.1656 109.208Q73.0873 108.892 73.0406 108.57Q72.994 108.248 72.9794 107.923Q72.9649 107.598 72.9826 107.273Q73.0003 106.949 73.05 106.627Q73.0998 106.306 73.1812 105.991Q73.2625 105.676 73.3746 105.37Q73.4868 105.065 73.6286 104.772Q73.7704 104.479 73.9405 104.202C75.0311 102.433 76.8855 101.249 78.8847 100.791Z"/>
	<path fill="white" transform="scale(7.08359 7.08439)" d="M103.002 101.036Q103.957 100.885 104.921 100.961Q105.885 101.037 106.804 101.336C108.471 101.866 109.81 102.99 110.597 104.552C111.386 106.117 111.616 108.146 111.057 109.821C110.27 112.178 108.508 113.274 106.416 114.33C106.379 114.34 106.342 114.352 106.305 114.36C103.721 114.941 101.938 113.752 99.8134 112.486C99.0547 110.951 98.5355 109.248 97.9989 107.623C98.1639 106.958 98.322 106.264 98.5596 105.62C99.311 103.584 101.049 101.916 103.002 101.036Z"/>
	<path fill="white" transform="scale(7.08359 7.08439)" d="M129.334 101.028C130.588 100.87 131.617 101.132 132.761 101.63Q133.07 101.767 133.364 101.935Q133.658 102.103 133.934 102.299Q134.209 102.495 134.464 102.718Q134.719 102.941 134.95 103.188Q135.181 103.435 135.386 103.705Q135.591 103.974 135.768 104.262Q135.946 104.55 136.093 104.855Q136.241 105.159 136.357 105.477Q136.478 105.804 136.567 106.141Q136.656 106.478 136.711 106.822Q136.765 107.166 136.786 107.514Q136.807 107.862 136.793 108.21Q136.78 108.558 136.732 108.904Q136.684 109.249 136.602 109.588Q136.521 109.927 136.406 110.256Q136.292 110.585 136.145 110.901C135.202 112.919 133.685 113.822 131.672 114.522C130.453 114.526 129.155 114.519 128.005 114.08C126.218 113.396 124.644 112.068 123.894 110.282Q123.772 109.987 123.68 109.682Q123.588 109.376 123.527 109.063Q123.465 108.75 123.435 108.432Q123.405 108.114 123.407 107.795Q123.409 107.476 123.443 107.159Q123.476 106.841 123.541 106.529Q123.606 106.216 123.701 105.912Q123.797 105.607 123.922 105.314C124.997 102.784 126.956 101.96 129.334 101.028Z"/>
</svg>
