<?xml version="1.0" encoding="UTF-8"?>
<svg id="Camada_4" data-name="Camada 4" xmlns="http://www.w3.org/2000/svg" viewBox="0 0 500 500">
  <defs>
    <style>
      .cls-1 {
        fill: #fed944;
      }

      .cls-1, .cls-2, .cls-3, .cls-4, .cls-5, .cls-6, .cls-7, .cls-8 {
        stroke-width: 0px;
      }

      .cls-2 {
        fill: #5ecdf3;
      }

      .cls-3 {
        fill: #d7dbea;
      }

      .cls-4 {
        fill: #fe6426;
      }

      .cls-5 {
        fill: #eceff4;
      }

      .cls-6 {
        fill: #0d90bc;
      }

      .cls-7 {
        fill: #0fa8dc;
      }

      .cls-8 {
        fill: #6fbe6b;
      }
    </style>
  </defs>
  <path class="cls-7" d="M469.89,193.82c-.56,3.85-1.29,7.69-1.67,11.56-6.23,63.36-55.13,118.79-117.37,133.02-40.21,9.19-78.29,3.81-114.2-16.56-10.68-7.54-21.36-15.08-32.82-23.18-.51.65-1.46,2.11-2.66,3.31-51.96,52-103.94,103.98-155.95,155.93-1.37,1.37-3.13,2.37-4.71,3.53-13.58-14.53-13.9-36.25-.75-51.1,1.23-1.39,2.56-2.71,3.87-4.02,44.86-44.86,89.72-89.72,134.57-134.58,1.21-1.21,2.35-2.49,3.53-3.74,6.65,10.45,13.97,20.36,22.82,28.88.7-.3,1.02-.35,1.2-.53,4.88-4.81,9.71-9.68,14.65-14.44,1.18-1.14,2.72-1.91,4.09-2.85,33.6,31.3,72.87,42.87,117.95,33.52,69.46-14.4,114.23-87.51,96.06-156.39-5.94-22.53-16.98-42.07-33.19-58.74,1.41-1.57,2.77-3.19,4.22-4.72,4.66-4.91,9.36-9.79,14.04-14.69.36.23.79.39,1.08.69,24.69,25.49,39.46,55.72,43.54,91.06.5,4.29,1.13,8.56,1.7,12.85v11.19Z"/>
  <path class="cls-2" d="M423.58,78.04c-4.68,4.89-9.38,9.78-14.04,14.69-1.45,1.53-2.82,3.14-4.22,4.72-.26-.03-.52-.06-.78-.1-.97-1.05-1.85-2.18-2.91-3.14-27.14-24.65-58.96-36.23-95.64-33.93-32.28,2.02-60.13,14.48-82.55,37.62-31.7,32.73-42.83,72.09-34.01,116.71,4.9,24.79,16.64,46.22,35.06,63.78,0,.22,0,.45,0,.67-1.37.94-2.91,1.71-4.09,2.85-4.94,4.76-9.77,9.62-14.65,14.44-.19.18-.51.23-1.2.53-8.84-8.52-16.16-18.43-22.82-28.88-11.16-19.13-18.53-39.55-21.02-61.65-4.58-40.63,4.79-77.75,29.11-110.57,25.47-34.38,59.82-54.65,102.16-61.26.8-.13,1.57-.51,2.35-.78,13.2,0,26.39,0,39.59,0,.8.25,1.58.62,2.4.74,33.85,4.98,62.98,19.4,87.26,43.55Z"/>
  <path class="cls-6" d="M40.51,461.45c1.58-1.17,3.33-2.16,4.71-3.53,52.01-51.95,103.99-103.93,155.95-155.93,1.2-1.2,2.15-2.67,2.66-3.31,11.46,8.1,22.14,15.64,32.82,23.18-1.44,1.11-3.04,2.07-4.31,3.35-45.43,45.38-90.81,90.81-136.25,136.18-14.94,14.92-35.65,16.48-51.71,4-1.44-1.12-2.58-2.61-3.87-3.92Z"/>
  <path class="cls-3" d="M404.54,97.35c.26.04.52.07.78.1,16.21,16.67,27.24,36.22,33.18,58.74,18.17,68.88-26.6,141.99-96.06,156.39-45.08,9.35-84.35-2.22-117.95-33.52.01-.22.01-.45,0-.67,1.01-1.19,1.94-2.46,3.04-3.57,7.55-7.59,15.15-15.13,22.67-22.75,1.16-1.18,1.94-2.73,2.89-4.11.5.36,1,.72,1.51,1.08.35.45.64.95,1.05,1.35,23.5,22.85,51.36,31.26,83.44,24.58,17.83-3.71,33.02-12.48,45.35-26.01,15.65-16.93,23.73-36.95,24.27-59.97.22-9.38-5.76-15.62-15.03-15.68-17.35-.12-34.71-.11-52.06,0-9.24.06-16.19,6.96-16.03,15.58.16,8.56,6.93,15.05,16.02,15.16,8.46.1,16.92.01,25.38.04,1.05,0,2.11.21,3.41.35-2.28,8-6.68,14.29-11.67,20.25-.98.83-1.97,1.64-2.92,2.49-13.76,12.19-29.75,16.4-47.71,13.08-11.04-2.04-20.02-8.01-28.12-15.49-.32-.57-.65-1.14-.97-1.71.75-.66,1.54-1.29,2.25-1.99,40.26-40.25,80.52-80.51,120.77-120.78.91-.91,1.67-1.95,2.5-2.93Z"/>
  <path class="cls-5" d="M253.1,247.97c-.96,1.38-1.73,2.93-2.89,4.11-7.51,7.62-15.12,15.16-22.67,22.75-1.1,1.1-2.03,2.37-3.04,3.57-18.42-17.56-30.16-38.99-35.06-63.78-8.82-44.62,2.31-83.98,34.01-116.71,22.42-23.14,50.27-35.61,82.55-37.62,36.67-2.29,68.5,9.28,95.64,33.93,1.05.96,1.94,2.09,2.91,3.14-.83.98-1.6,2.03-2.5,2.93-40.25,40.27-80.5,80.52-120.77,120.78-.71.71-1.5,1.33-2.25,1.99-7.81-8.51-12.03-18.61-13.13-30.02-1.56-16.13,3.64-30.06,14.02-42.25.47-.32.99-.58,1.4-.97,13.93-13.38,30.41-18.06,49.33-14.61,2.23.41,4.58.79,6.8.52,9.28-1.12,15.91-8.26,16.2-17.15.3-9.02-5.84-16.36-15.44-18.34-12.19-2.52-24.43-2.75-36.63-.14-18.39,3.94-34.34,12.29-47,26.44-19.94,21.25-27.47,46.43-23.41,75.11,2.5,17.67,10.43,32.88,21.95,46.33Z"/>
  <path class="cls-8" d="M279.99,224.77c8.1,7.48,17.08,13.46,28.12,15.49,17.96,3.32,33.95-.9,47.71-13.08.96-.85,1.95-1.66,2.92-2.49,8.57,8.09,17.13,16.19,25.7,24.28-12.33,13.53-27.53,22.3-45.35,26.01-32.09,6.68-59.95-1.73-83.44-24.58-.4-.39-.7-.9-1.05-1.35,8.46-8.1,16.93-16.19,25.39-24.29Z"/>
  <path class="cls-1" d="M279.99,224.77c-8.46,8.1-16.93,16.19-25.39,24.29-.5-.36-1-.72-1.51-1.08-11.52-13.45-19.45-28.67-21.95-46.33-4.06-28.68,3.47-53.86,23.41-75.11,8.45,8.09,16.9,16.17,25.36,24.25-10.38,12.19-15.58,26.13-14.02,42.25,1.1,11.41,5.32,21.52,13.13,30.02.32.57.65,1.14.97,1.71Z"/>
  <path class="cls-7" d="M384.45,248.97c-8.57-8.09-17.13-16.19-25.7-24.28,4.99-5.95,9.38-12.25,11.67-20.25-1.31-.14-2.36-.34-3.41-.35-8.46-.03-16.92.06-25.38-.04-9.09-.11-15.87-6.6-16.02-15.16-.16-8.62,6.79-15.52,16.03-15.58,17.35-.1,34.71-.11,52.06,0,9.27.06,15.25,6.3,15.03,15.68-.54,23.02-8.63,43.04-24.27,59.97Z"/>
  <path class="cls-4" d="M279.91,150.78c-8.45-8.08-16.9-16.17-25.36-24.25,12.67-14.15,28.62-22.5,47-26.44,12.2-2.62,24.44-2.38,36.63.14,9.61,1.98,15.74,9.32,15.44,18.34-.29,8.88-6.91,16.03-16.2,17.15-2.22.27-4.57-.11-6.8-.52-18.92-3.45-35.41,1.23-49.33,14.61-.4.39-.93.65-1.4.97Z"/>
</svg>