<?xml version="1.0" encoding="utf-8" ?>
<svg xmlns="http://www.w3.org/2000/svg" xmlns:xlink="http://www.w3.org/1999/xlink" width="380" height="408">
	<path fill="white" fill-opacity="0.98823529" transform="scale(1.46718 1.46763)" d="M81.1383 65.9005C81.6073 63.2367 82.0063 60.5384 82.7681 57.9388C86.0787 46.6402 93.5422 36.8681 103.14 30.1275C115.346 21.555 131.124 16.6401 146.051 19.3006C158.491 21.5179 170.571 29.415 177.759 39.8135C179.657 42.5592 181.695 45.9848 182.37 49.2821C192.999 49.8923 201.309 51.6533 208.732 59.9924C214.058 65.9759 217.474 74.5054 216.953 82.6059C216.829 84.5314 215.904 87.2449 216.214 89.0778C217.577 89.9885 219.79 90.1465 221.376 90.6648C227.89 92.7943 231.761 98.2356 233.068 104.789C234.412 111.527 233.199 118.998 229.342 124.751C224.927 131.337 217.288 135.875 209.595 137.36C202.753 138.681 195.785 138.985 188.845 139.407Q175.025 140.333 161.174 140.492C150.189 140.518 139.217 140.036 128.221 140.279C129.778 146.048 128.936 152.322 129.52 158.204C129.564 158.653 129.546 159.34 129.969 159.584C130.672 159.988 132.227 160.03 133.053 160.17C137.857 160.98 142.268 163.191 144.102 168.032C144.351 168.687 144.402 169.358 144.403 170.052C146.591 172.036 179.429 168.634 183.284 171.75C184.348 172.61 184.321 174.612 184.383 175.882C184.606 180.424 184.336 184.977 184.54 189.519C189.26 189.506 194.318 189.125 198.999 189.607C199.707 189.754 200.38 189.798 201.099 189.828C203.886 191.284 205.791 192.977 206.782 196.077C208.266 200.727 207.228 208.598 207.207 213.604L207.131 239.307C205.606 241.531 203.888 243.429 202.013 245.356C194.419 245.682 186.793 245.229 179.201 245.031C173.824 244.89 167.512 245.48 162.311 244.019C162.071 243.752 161.947 243.601 161.841 243.247Q161.175 224.939 161.453 206.621C161.533 201.785 161.418 196.938 161.861 192.119C161.756 191.476 161.805 190.948 162.161 190.392C164.37 188.601 176.06 189.462 179.449 189.642C180.165 188.587 179.773 177.677 179.747 175.609C168.048 175.287 156.334 175.693 144.635 175.425C142.923 179.177 141.327 181.942 137.353 183.722C133.174 185.594 128.121 185.672 123.857 184.022C121.179 182.986 118.54 180.574 117.292 177.954C116.997 177.335 117.118 176.559 116.824 176.014C116.587 175.576 115.985 175.552 115.529 175.511C111.564 175.153 107.299 175.462 103.306 175.476L79.7555 175.482C78.1554 175.478 75.5443 175.91 74.0972 175.554C74.0518 175.543 74.0088 175.523 73.9646 175.508L73.7145 175.734L73.8182 175.771L73.2381 175.721C72.2277 178.948 73.3565 184.894 72.8112 188.446L72.7701 188.7C76.7598 188.108 81.7178 188.347 85.7472 188.646C87.07 188.798 88.7511 190.788 89.5708 191.82C90.8499 193.429 91.9224 195.039 92.3626 197.076C92.8047 203.037 92.5073 209.235 92.5147 215.215C92.522 221.207 92.8231 227.411 92.4387 233.388C92.5228 235.658 92.3866 239.014 90.7989 240.773C90.5239 241.078 90.2141 241.349 89.9008 241.613C89.0244 242.714 88.0457 243.607 86.9411 244.471C73.6239 244.909 60.2602 244.206 46.9823 243.256L46.8126 240.056C46.5394 236.088 46.5783 232.071 46.5066 228.091C46.3035 216.826 46.5104 205.624 46.7751 194.362C46.6729 192.834 46.7226 190.521 47.417 189.142C49.3993 187.788 65.4814 188.321 68.056 188.759C68.0352 185.454 67.955 182.131 68.0428 178.827C68.0808 177.399 68.1629 172.804 69.2879 171.886C70.2838 171.074 72.2294 170.896 73.4896 170.792C80.9226 170.177 88.5395 170.697 96.0042 170.703C102.518 170.709 109.799 170.221 116.201 170.781C116.489 169.13 117.075 167.556 117.859 166.075C119.493 162.989 121.903 161.912 125.062 160.95L124.968 157.128C124.186 153.686 124.422 149.522 124.206 145.96C123.833 143.994 123.932 141.978 123.574 139.996C114.671 140.161 105.896 140.108 96.9949 139.996C86.9826 139.87 75.9798 140.071 66.2858 137.312C59.8971 135.493 53.8564 132.272 49.0636 127.639C42.1039 120.911 38.336 111.247 38.182 101.593C38.0096 90.7913 40.8761 80.9884 48.5684 73.1379C54.4073 67.179 62.4404 64.0367 70.7327 64.0008C74.3117 63.9853 77.7519 64.7994 81.1383 65.9005ZM77.606 134.597C82.2499 135.434 88.8117 135.034 93.6935 135.027C101.051 135.017 108.374 135.097 115.729 135.267C118.336 135.327 121.197 135.05 123.76 135.43L124.355 135.299C125.45 133.517 123.462 130.79 125.004 129.156L125.454 129.066C125.75 130.588 126.12 134.692 127.339 135.574C127.892 135.688 128.101 135.665 128.641 135.436C128.658 135.429 128.671 135.416 128.686 135.405C132.74 134.82 137.36 135.508 141.482 135.506L163.53 135.465C177.92 135.508 199.434 136.504 211.915 128.685C217.208 125.369 222.038 120.024 223.429 113.806C224.351 109.682 224.011 105.234 221.681 101.616C217.839 95.65 211.156 95.7393 204.929 94.341C205.367 92.7289 204.589 89.4411 205.502 87.195C206.188 85.5058 206.077 84.2605 205.69 82.5189L205.79 82.3451C206.083 80.7568 205.86 78.8176 205.84 77.1889C204.412 72.0791 201.879 67.9964 197.166 65.3306C191.129 61.9156 184.946 62.5316 178.501 64.3489C176.292 64.9718 174.109 65.6061 171.859 66.0718C170.467 65.6286 169.347 65.348 168.609 63.9552C167.284 61.4512 167.502 57.862 166.963 55.1125C165.19 46.0527 154.713 40.7304 146.815 38.1622C142.353 36.7112 137.348 35.6246 132.683 35.1593C122.783 34.1718 108.566 35.1795 99.6287 39.7512C93.531 42.8704 89.4853 51.9802 87.4797 58.2032C86.767 60.4148 85.3973 70.3571 84.5774 71.2879C82.229 71.4209 78.2207 69.7855 75.7713 69.2254C66.12 67.0185 56.5649 71.1215 50.1461 78.3195C44.2083 84.9781 42.3499 93.9083 42.8664 102.613C43.4147 111.853 47.637 119.93 54.5257 126.015C60.5417 131.329 69.7228 134.06 77.606 134.597ZM197.997 194.387C187.374 193.903 176.702 194.417 166.07 194.245C166.248 197.766 166.029 201.344 166.023 204.873L166.021 227.283C166.025 231.353 165.876 235.507 166.271 239.559C167.517 239.914 196.304 241.031 197.701 240.697C198.008 240.265 198.175 239.901 198.318 239.391C198.018 237.426 198.305 235.035 198.259 233.007C197.56 229.514 197.984 225.252 197.984 221.677C197.984 212.609 198.286 203.445 197.997 194.387ZM51.5606 193.373L51.6794 225.784C51.6753 229.498 52.1091 235.021 51.5672 238.486C60.7475 238.629 69.9327 239.338 79.1233 239.525C80.2438 239.548 82.2204 239.917 83.2178 239.673C83.4913 229.158 83.3988 218.597 83.3567 208.079C83.3376 203.295 82.8405 198.109 83.4043 193.38C79.7315 192.858 75.6164 193.204 71.8885 193.206C65.126 193.21 58.3159 193.071 51.5606 193.373ZM125.446 179.866C127.494 180.112 129.031 180.291 131.079 180.022C132.138 179.211 134.457 177.673 134.958 176.437C135.768 174.989 135.932 173.82 136.083 172.192L136.014 172.042C135.838 171.652 135.744 171.357 135.669 170.939C135.42 169.547 133.344 167.75 132.211 167.009C130.461 165.864 128.219 165.169 126.13 165.618C124.413 165.986 122.957 167.092 122.031 168.57Q121.838 168.882 121.677 169.211Q121.516 169.54 121.389 169.884Q121.262 170.228 121.171 170.583Q121.079 170.938 121.024 171.3Q120.968 171.663 120.95 172.029Q120.931 172.395 120.949 172.761Q120.968 173.127 121.023 173.49Q121.078 173.852 121.169 174.207C121.801 176.701 123.559 178.279 125.446 179.866ZM85.7472 188.646C85.7171 188.669 85.6882 188.693 85.657 188.715C83.9268 189.91 74.7978 188.694 73.7765 189.272C76.9972 190.236 83.8304 188.715 86.1615 190.124C87.4893 190.927 88.9342 193.179 89.6391 194.486C90.5482 196.173 91.1319 197.951 91.3341 199.861C91.7277 203.58 91.7769 234.767 91.0008 237.377C90.8092 238.021 90.2007 240.242 89.7876 240.65C89.3366 241.096 89.0499 240.804 88.8321 241.57L89.1471 241.835L89.658 241.442L89.9008 241.613C90.2141 241.349 90.5239 241.078 90.7989 240.773C92.3866 239.014 92.5228 235.658 92.4387 233.388C92.8231 227.411 92.522 221.207 92.5147 215.215C92.5073 209.235 92.8047 203.037 92.3626 197.076C91.9224 195.039 90.8499 193.429 89.5708 191.82C88.7511 190.788 87.07 188.798 85.7472 188.646ZM161.861 192.119C161.418 196.938 161.533 201.785 161.453 206.621Q161.175 224.939 161.841 243.247C162.041 242.791 162.214 242.331 162.286 241.837C162.707 238.913 162.598 235.837 162.611 232.887C162.636 227.138 162.488 221.397 162.465 215.649C162.438 208.542 163.002 201.33 162.514 194.238C162.458 193.431 162.361 192.779 161.861 192.119ZM83.4043 193.38C82.8405 198.109 83.3376 203.295 83.3567 208.079C83.3988 218.597 83.4913 229.158 83.2178 239.673L83.7733 239.946L84.0496 239.688C84.0588 236.31 84.5108 232.837 84.0672 229.486C84.5501 231.114 84.2956 233.322 84.2372 235C84.8588 232.781 84.7066 194.427 84.3401 193.196L83.9057 193.064L83.4043 193.38ZM77.606 134.597L77.1847 135.351C77.3006 135.434 77.5238 135.644 77.6482 135.682C78.267 135.871 79.6569 135.471 80.3867 135.489C82.8187 135.547 85.2452 135.972 87.6838 136.028C95.9326 136.219 104.229 136.06 112.482 136.038C115.549 136.029 119.577 136.433 122.509 135.935C122.979 135.856 123.368 135.697 123.76 135.43C121.197 135.05 118.336 135.327 115.729 135.267C108.374 135.097 101.051 135.017 93.6935 135.027C88.8117 135.034 82.2499 135.434 77.606 134.597ZM50.6277 193.596C50.4135 202.256 50.5377 210.893 50.5078 219.557C50.4879 225.351 50.0051 231.834 50.8741 237.56C51.2901 229.089 50.9709 220.492 50.9783 212.009C50.9833 206.311 51.4332 200.352 51.0185 194.681C50.9852 194.226 50.9152 193.959 50.6277 193.596ZM124.206 145.96C124.422 149.522 124.186 153.686 124.968 157.128C125.088 156.423 125.082 155.709 125.094 154.996C125.191 154.841 125.239 154.782 125.405 154.69C125.449 154.665 125.495 154.645 125.539 154.622C125.84 151.751 125.518 148.479 125.214 145.614L124.713 145.911L124.625 145.317C124.998 145.269 125.103 145.296 125.385 145.033L125.063 144.906L124.911 144.717L124.206 145.96ZM198.259 233.007C198.305 235.035 198.018 237.426 198.318 239.391C198.584 239.588 198.747 240.056 198.897 240.359L199.2 240.304C199.641 238.337 199.737 231.529 198.836 229.954C198.395 230.872 198.371 232.005 198.259 233.007ZM205.84 77.1889C205.86 78.8176 206.083 80.7568 205.79 82.3451L206.201 82.998L206.613 82.995C207.526 81.6611 207.011 77.4892 206.713 75.8908L206.378 75.6744C206.183 76.1749 206.007 76.6783 205.84 77.1889ZM198.999 189.607C197.127 191.106 188.287 190.037 185.301 190.38C186.257 190.888 198.702 190.853 200.013 190.414C200.285 190.323 200.518 190.19 200.763 190.041C200.834 189.998 200.906 189.958 200.976 189.914C201.019 189.887 201.058 189.857 201.099 189.828C200.38 189.798 199.707 189.754 198.999 189.607ZM135.315 136.399C140.799 137.364 150.727 136.242 156.812 136.439L157.344 136.387L143.56 136.289C140.845 136.267 138.01 136.051 135.315 136.399ZM136.083 172.192C135.932 173.82 135.768 174.989 134.958 176.437C135.316 176.429 135.66 176.41 136.015 176.364C136.361 175.961 136.741 175.531 136.907 175.017C137.185 174.155 137.347 172.686 136.946 171.871L136.621 171.961L136.537 173.057L136.512 172.981L136.475 173.407C136.447 172.911 136.164 172.713 136.083 172.192ZM156.545 139.399L155.963 139.459L156.113 139.648Q160.837 139.724 165.561 139.731L165.409 139.403C162.912 139.077 159.18 139.349 156.545 139.399Z"/>
	<path fill="white" fill-opacity="0.96862745" transform="scale(1.46718 1.46763)" d="M156.545 139.399C159.18 139.349 162.912 139.077 165.409 139.403L165.561 139.731Q160.837 139.724 156.113 139.648L155.963 139.459L156.545 139.399Z"/>
	<path fill="white" fill-opacity="0.96078432" transform="scale(1.46718 1.46763)" d="M136.083 172.192C136.164 172.713 136.447 172.911 136.475 173.407L136.512 172.981L136.537 173.057L136.621 171.961L136.946 171.871C137.347 172.686 137.185 174.155 136.907 175.017C136.741 175.531 136.361 175.961 136.015 176.364C135.66 176.41 135.316 176.429 134.958 176.437C135.768 174.989 135.932 173.82 136.083 172.192Z"/>
	<path fill="white" fill-opacity="0.94901961" transform="scale(1.46718 1.46763)" d="M135.315 136.399C138.01 136.051 140.845 136.267 143.56 136.289L157.344 136.387L156.812 136.439C150.727 136.242 140.799 137.364 135.315 136.399Z"/>
	<path fill="white" fill-opacity="0.95294118" transform="scale(1.46718 1.46763)" d="M198.999 189.607C199.707 189.754 200.38 189.798 201.099 189.828C201.058 189.857 201.019 189.887 200.976 189.914C200.906 189.958 200.834 189.998 200.763 190.041C200.518 190.19 200.285 190.323 200.013 190.414C198.702 190.853 186.257 190.888 185.301 190.38C188.287 190.037 197.127 191.106 198.999 189.607Z"/>
	<path fill="white" fill-opacity="0.97254902" transform="scale(1.46718 1.46763)" d="M205.84 77.1889C206.007 76.6783 206.183 76.1749 206.378 75.6744L206.713 75.8908C207.011 77.4892 207.526 81.6611 206.613 82.995L206.201 82.998L205.79 82.3451C206.083 80.7568 205.86 78.8176 205.84 77.1889Z"/>
	<path fill="white" fill-opacity="0.96862745" transform="scale(1.46718 1.46763)" d="M198.259 233.007C198.371 232.005 198.395 230.872 198.836 229.954C199.737 231.529 199.641 238.337 199.2 240.304L198.897 240.359C198.747 240.056 198.584 239.588 198.318 239.391C198.018 237.426 198.305 235.035 198.259 233.007Z"/>
	<path fill="white" fill-opacity="0.95686275" transform="scale(1.46718 1.46763)" d="M124.206 145.96L124.911 144.717L125.063 144.906L125.385 145.033C125.103 145.296 124.998 145.269 124.625 145.317L124.713 145.911L125.214 145.614C125.518 148.479 125.84 151.751 125.539 154.622C125.495 154.645 125.449 154.665 125.405 154.69C125.239 154.782 125.191 154.841 125.094 154.996C125.082 155.709 125.088 156.423 124.968 157.128C124.186 153.686 124.422 149.522 124.206 145.96Z"/>
	<path fill="white" fill-opacity="0.97647059" transform="scale(1.46718 1.46763)" d="M50.6277 193.596C50.9152 193.959 50.9852 194.226 51.0185 194.681C51.4332 200.352 50.9833 206.311 50.9783 212.009C50.9709 220.492 51.2901 229.089 50.8741 237.56C50.0051 231.834 50.4879 225.351 50.5078 219.557C50.5377 210.893 50.4135 202.256 50.6277 193.596Z"/>
	<path fill="white" transform="scale(1.46718 1.46763)" d="M46.7751 194.362C46.8775 194.49 47.0181 194.596 47.0823 194.747C47.251 195.144 47.4171 236.039 47.0828 238.968C47.0414 239.331 46.9437 239.716 46.8126 240.056C46.5394 236.088 46.5783 232.071 46.5066 228.091C46.3035 216.826 46.5104 205.624 46.7751 194.362Z"/>
	<path fill="white" fill-opacity="0.95294118" transform="scale(1.46718 1.46763)" d="M77.606 134.597C82.2499 135.434 88.8117 135.034 93.6935 135.027C101.051 135.017 108.374 135.097 115.729 135.267C118.336 135.327 121.197 135.05 123.76 135.43C123.368 135.697 122.979 135.856 122.509 135.935C119.577 136.433 115.549 136.029 112.482 136.038C104.229 136.06 95.9326 136.219 87.6838 136.028C85.2452 135.972 82.8187 135.547 80.3867 135.489C79.6569 135.471 78.267 135.871 77.6482 135.682C77.5238 135.644 77.3006 135.434 77.1847 135.351L77.606 134.597Z"/>
	<path fill="white" fill-opacity="0.96078432" transform="scale(1.46718 1.46763)" d="M83.4043 193.38L83.9057 193.064L84.3401 193.196C84.7066 194.427 84.8588 232.781 84.2372 235C84.2956 233.322 84.5501 231.114 84.0672 229.486C84.5108 232.837 84.0588 236.31 84.0496 239.688L83.7733 239.946L83.2178 239.673C83.4913 229.158 83.3988 218.597 83.3567 208.079C83.3376 203.295 82.8405 198.109 83.4043 193.38Z"/>
	<path fill="white" fill-opacity="0.95686275" transform="scale(1.46718 1.46763)" d="M161.861 192.119C162.361 192.779 162.458 193.431 162.514 194.238C163.002 201.33 162.438 208.542 162.465 215.649C162.488 221.397 162.636 227.138 162.611 232.887C162.598 235.837 162.707 238.913 162.286 241.837C162.214 242.331 162.041 242.791 161.841 243.247Q161.175 224.939 161.453 206.621C161.533 201.785 161.418 196.938 161.861 192.119Z"/>
	<path fill="white" fill-opacity="0.93333334" transform="scale(1.46718 1.46763)" d="M85.7472 188.646C87.07 188.798 88.7511 190.788 89.5708 191.82C90.8499 193.429 91.9224 195.039 92.3626 197.076C92.8047 203.037 92.5073 209.235 92.5147 215.215C92.522 221.207 92.8231 227.411 92.4387 233.388C92.5228 235.658 92.3866 239.014 90.7989 240.773C90.5239 241.078 90.2141 241.349 89.9008 241.613L89.658 241.442L89.1471 241.835L88.8321 241.57C89.0499 240.804 89.3366 241.096 89.7876 240.65C90.2007 240.242 90.8092 238.021 91.0008 237.377C91.7769 234.767 91.7277 203.58 91.3341 199.861C91.1319 197.951 90.5482 196.173 89.6391 194.486C88.9342 193.179 87.4893 190.927 86.1615 190.124C83.8304 188.715 76.9972 190.236 73.7765 189.272C74.7978 188.694 83.9268 189.91 85.657 188.715C85.6882 188.693 85.7171 188.669 85.7472 188.646ZM92.3626 197.076C91.8799 198.208 91.791 230.327 92.1418 233.246L92.4387 233.388C92.8231 227.411 92.522 221.207 92.5147 215.215C92.5073 209.235 92.8047 203.037 92.3626 197.076Z"/>
	<path fill="white" fill-opacity="0.98823529" transform="scale(1.46718 1.46763)" d="M92.3626 197.076C92.8047 203.037 92.5073 209.235 92.5147 215.215C92.522 221.207 92.8231 227.411 92.4387 233.388L92.1418 233.246C91.791 230.327 91.8799 198.208 92.3626 197.076Z"/>
	<path fill="white" fill-opacity="0.95294118" transform="scale(1.46718 1.46763)" d="M64.2736 200.692C68.6095 199.988 73.7786 199.314 77.8856 201.152C77.7412 201.255 77.5945 201.357 77.4351 201.436C76.9565 201.674 76.4257 201.603 75.9359 201.447C73.3777 200.628 67.2818 200.967 64.2736 200.692Z"/>
	<path fill="white" transform="scale(1.46718 1.46763)" d="M68.4117 218.63C70.3306 218.42 72.3871 218.295 74.2565 218.86C75.5369 219.248 76.6073 219.838 77.256 221.042C77.2777 221.584 77.352 221.856 76.9549 222.289C75.7948 223.553 74.1291 223.514 72.5576 223.53C72.4991 223.551 72.4423 223.577 72.3821 223.592C70.7013 224.02 67.4191 223.682 65.9811 222.711C65.3651 222.296 65.0199 221.823 64.8714 221.083C64.931 220.666 65.0181 220.315 65.2965 219.985C66.1409 218.983 67.1588 218.747 68.4117 218.63Z"/>
	<path fill="white" transform="scale(1.46718 1.46763)" d="M77.8856 201.152C78.2137 201.903 78.3738 203.113 78.039 203.903C77.9394 204.138 77.7324 204.54 77.4778 204.626C74.8975 205.493 66.9236 205.851 64.5387 204.631C63.8619 204.285 63.4984 203.87 63.2547 203.14C63.1839 202.267 63.8416 201.418 64.2736 200.692C67.2818 200.967 73.3777 200.628 75.9359 201.447C76.4257 201.603 76.9565 201.674 77.4351 201.436C77.5945 201.357 77.7412 201.255 77.8856 201.152Z"/>
	<defs>
		<linearGradient id="gradient_0" gradientUnits="userSpaceOnUse" x1="185.28806" y1="221.51035" x2="184.93976" y2="218.55112">
			<stop offset="0" stop-color="white" stop-opacity="0.95686275"/>
			<stop offset="1" stop-color="white"/>
		</linearGradient>
	</defs>
	<path fill="url(#gradient_0)" transform="scale(1.46718 1.46763)" d="M182.36 217.516C184.03 217.507 186.76 217.185 188.323 217.685C189.161 217.953 190.089 218.596 190.469 219.409C190.73 219.968 190.695 220.59 190.396 221.125C190.022 221.793 189.382 221.995 188.696 222.172C186.247 222.655 183.898 222.407 181.446 222.1C181.113 221.768 180.777 221.431 180.479 221.067C180.172 220.691 180.053 220.221 180.147 219.739C180.345 218.734 181.583 218.026 182.36 217.516Z"/>
	<path fill="white" transform="scale(1.46718 1.46763)" d="M186.457 200.12C186.664 200.076 186.875 200.038 187.087 200.026C188.845 199.93 192.595 200.169 193.784 201.491C194.161 201.91 194.269 202.288 194.22 202.835C194.134 203.794 193.345 204.369 192.651 204.92C190.791 205.011 188.951 205.231 187.084 205.281C185.184 205.29 181.195 205.506 179.741 204.216C179.332 203.853 179.151 203.553 179.099 203.013C179.005 202.041 179.772 201.327 180.36 200.652C182.354 200.246 184.429 200.243 186.457 200.12Z"/>
	<path fill="white" fill-opacity="0.96862745" transform="scale(1.46718 1.46763)" d="M205.69 82.5189C206.077 84.2605 206.188 85.5058 205.502 87.195C204.589 89.4411 205.367 92.7289 204.929 94.341C204.561 94.1646 204.274 93.8022 204.091 93.4461C202.828 90.9994 204.872 85.076 205.69 82.5189Z"/>
	<path fill="white" fill-opacity="0.95294118" transform="scale(1.46718 1.46763)" d="M123.76 135.43C123.384 133.559 122.848 130.03 123.988 128.393C124.316 127.922 124.777 127.672 125.354 127.648C125.892 127.626 126.471 127.884 126.832 128.277C128.285 129.857 127.539 134.65 128.686 135.405C128.671 135.416 128.658 135.429 128.641 135.436C128.101 135.665 127.892 135.688 127.339 135.574C126.12 134.692 125.75 130.588 125.454 129.066L125.004 129.156C123.462 130.79 125.45 133.517 124.355 135.299L123.76 135.43Z"/>
</svg>
