<?xml version="1.0" encoding="utf-8" ?>
<svg xmlns="http://www.w3.org/2000/svg" xmlns:xlink="http://www.w3.org/1999/xlink" width="488" height="339">
	<path fill="white" fill-opacity="0.98823529" transform="matrix(1.4878 0 0 1.48684 0 3.05176e-05)" d="M73.6046 32.6599C84.4308 31.4661 95.4366 32.1624 106.295 32.2786C110.23 32.3207 115.39 31.8255 119.162 32.5669C125.61 32.572 132.036 32.7441 138.479 32.8375C141.976 32.8882 145.87 32.5256 149.285 33.1936C150.727 32.853 170.11 33.1811 171.746 33.6158L171.899 33.7488C180.096 33.279 189.676 33.8099 197.993 34.0586C203.053 34.21 208.387 34.0401 213.398 34.6151C215.792 34.3781 218.337 34.4907 220.736 34.6263C223.833 35.3959 228.059 34.7149 231.373 35.0692L231.739 35.0594C233.666 35.0665 250.905 35.3368 251.48 35.7508C253.068 35.7699 261.091 35.6176 262.17 36.2269C263.523 36.2697 265.29 36.0982 266.451 36.8442C269.245 40.493 267.267 66.4284 268.932 67.4016C269.037 67.4633 269.428 67.4899 269.563 67.5087C272.291 67.8906 275.536 67.5205 278.31 67.4895L293.879 67.4357C296.043 67.4108 298.432 67.0998 300.57 67.4034C301.245 67.4994 301.957 67.6648 302.4 68.2225C302.643 68.5281 302.743 68.8763 302.731 69.2742C302.724 69.4735 302.644 69.9689 302.479 70.0924C302.009 70.4455 301.413 70.4909 300.845 70.5275C297.616 70.7354 294.175 70.4771 290.923 70.4771L268.373 70.4601C268.78 71.0883 268.98 71.6249 269.055 72.3726C269.211 73.9332 269.126 75.5386 269.227 77.1082L270.138 89.9447L272.227 118.731L274.3 149.525C274.647 154.67 275.904 170.026 274.928 174.527C274.866 174.813 274.773 175.017 274.608 175.259C273.668 175.99 272.574 176.225 271.431 176.474C275.231 178.208 287.232 189.582 288.687 193.543C289.966 197.025 289.719 201.759 288.131 205.1C286.393 208.76 283.051 211.583 279.24 212.909C276.317 213.925 272.617 214.098 269.78 212.7C265.59 210.637 258.415 202.691 254.733 199.284L231.659 178.338C228.604 177.601 224.792 178.168 221.638 178.301Q211.169 178.701 200.706 179.246C196.619 179.495 192.087 180.222 188.028 179.958C188.295 181.232 188.512 184.567 189.241 185.524C191.748 186.426 195.638 186.048 198.321 186.163C205.405 186.467 221.886 187.603 225.282 194.804C225.98 196.285 226.187 198.084 225.604 199.633C225.571 199.72 225.534 199.806 225.497 199.892C224.445 202.586 222.529 204.208 219.91 205.36C218.713 205.886 217.492 206.399 216.219 206.709C213.214 207.506 210.065 207.938 207 208.442C200.077 209.58 193.392 210.418 186.392 210.869C185.049 210.956 183.266 211.312 181.989 211.008C178.92 211.592 168.937 211.353 165.763 210.728C165.549 210.731 165.336 210.728 165.121 210.721C157.771 210.497 136.531 207.957 131.494 202.429C130.729 201.589 130.148 200.459 130.225 199.297C130.311 198.017 131.141 197.005 132.06 196.182C136.22 192.455 148.656 188.701 154.335 189.004Q154.35 185.179 154.412 181.354C136.276 182.497 118.082 183.15 99.9305 184.044C96.517 184.213 77.7564 185.66 75.4875 185.018C74.8816 184.454 74.3414 183.825 73.7913 183.208C70.8975 180.411 67.5877 178.03 64.8641 175.071C64.3525 172.959 64.5481 170.114 64.4531 167.91C64.1213 160.204 64.2049 152.448 63.764 144.758C63.2774 140.544 63.3369 135.81 63.4665 131.561C63.2831 130.255 63.299 128.859 63.2329 127.539C62.7923 125.469 63.005 122.806 62.9434 120.672C62.7808 115.037 62.5539 109.393 62.5829 103.755Q61.9081 91.0166 61.7326 78.2614C61.5224 76.2164 61.4623 74.0777 61.6785 72.0318Q54.5093 71.9774 47.3399 71.9951L47.2997 68.7669C51.3173 68.7439 57.6337 68.2147 61.3403 69.0144C61.0691 60.1049 60.3805 51.2078 60.3589 42.2892C61.9467 40.785 63.8537 39.522 65.314 37.9155C66.6648 36.4295 67.5113 34.632 68.9876 33.219C70.5352 32.803 71.9882 32.3792 73.6046 32.6599ZM219.926 70.934C220.371 72.6373 221.006 75.5142 220.039 77.1317C219.183 78.5625 217.083 78.0168 216.285 79.2596C215.395 80.6462 216.513 82.564 215.055 83.8048C214.185 83.7292 213.728 83.1826 213.14 82.5791C213.09 81.2706 213.052 80.0398 213.273 78.7421C210.913 78.731 206.282 79.2726 204.552 77.537C203.027 76.0059 203.3 73.1198 203.274 71.1336C200.404 71.3676 197.471 71.2312 194.593 71.2196Q186.387 71.1438 178.182 71.2596L142.558 72.2107C140.754 72.2477 138.964 71.7338 137.159 71.7743C135.047 71.8217 133.154 72.7665 130.972 72.7871C131.031 74.9172 130.995 77.0332 130.936 79.1623C125.4 80.3023 120.44 80.469 114.887 79.3797C114.652 78.6054 114.391 77.7971 114.274 76.9962C114.065 75.5583 114.496 72.6521 113.74 71.5564C110.823 71.0326 107.625 71.4217 104.669 71.5373C99.6889 71.7319 94.388 72.0201 89.4245 71.6062C90.5319 75.3367 89.8881 82.5251 90.1526 86.747C90.9519 99.507 91.8606 112.283 92.071 125.07C92.2462 135.719 92.2795 146.364 92.7186 157.007C92.836 159.852 92.7089 162.727 92.9611 165.562C93.5941 165.674 94.1363 165.614 94.768 165.537C97.1931 165.588 99.8893 165.225 102.257 165.471L102.425 165.473C104.428 165.14 106.651 165.226 108.691 165.158C114.355 164.968 120.039 164.981 125.705 164.875C127.936 164.446 177.003 162.695 177.838 163.038C181.61 162.127 186.007 162.507 189.901 162.322C192.867 162.285 209.623 161.697 211.635 160.868C211.665 160.856 211.694 160.842 211.724 160.828L211.893 160.868L211.751 160.384C208.835 157.384 204.67 155.009 202.378 151.497C201.132 149.588 199.073 143.714 197.081 143.038C195.694 143.497 194.259 143.602 192.835 143.23C191.94 142.997 191.477 142.643 191.015 141.861C191.173 140.954 191.634 140.664 192.255 140.026C193.292 140.007 195.463 140.401 196.294 139.87C196.68 137.928 191.834 129.224 191.161 126.202C191.016 125.552 190.854 124.744 191.229 124.146C194.245 122.798 199.534 124.433 202.75 124.894C207.628 125.591 216.291 126.31 220.515 128.261C224.901 130.286 228.633 135.098 232.144 138.388C237.441 143.352 242.769 148.218 247.96 153.297C249.521 154.824 251.413 157.612 253.286 158.567C254.307 159.087 256.317 158.538 257.802 158.813C258.021 158.422 258.255 158.004 258.382 157.572C258.953 155.633 256.871 128.654 256.1 127.175C256.114 127.141 256.13 127.108 256.142 127.074C256.626 125.763 255.982 121.744 255.458 120.476C255.805 119.102 255.749 117.386 255.129 116.106C255.686 114.712 255.003 109.873 254.446 108.489C255.061 105.58 253.131 90.2985 252.775 86.146C252.426 82.061 252.339 77.9585 251.81 73.8869C251.692 72.9807 251.538 72.0117 251.162 71.1745L250.644 71.3926L250.518 70.9785C246.299 70.1788 241.319 70.7093 237.036 70.8813C231.461 71.1052 225.482 71.3418 219.926 70.934ZM113.302 68.7139L114.275 68.7391C113.911 66.5565 113.939 65.098 115.088 63.1324C117.827 62.883 128.459 62.107 130.359 63.6293C130.826 64.004 130.971 64.7139 130.99 65.281C131.018 66.0682 130.728 67.7922 131.326 68.3239C131.349 68.3443 131.38 68.3535 131.407 68.3682C147.042 67.8939 162.73 67.8242 178.375 67.5456C183.804 67.4489 189.221 67.5396 194.651 67.3366C197.333 67.2541 200.344 67.7439 202.958 67.2518C203.613 66.3119 203.197 64.4523 203.613 63.3057C203.902 62.5104 204.225 62.374 204.954 62.0441C207.025 63.4966 216.006 62.3562 217.736 63.4123C218.465 63.8571 218.766 64.7924 218.908 65.5845C219.033 66.2867 219.034 67.3707 219.428 67.9529C219.713 68.0352 219.727 68.0729 219.989 67.9466C225.794 67.2407 232.556 67.7439 238.472 67.7421C242.057 67.7409 246.732 67.283 250.205 67.8881C251.313 66.3277 250.263 57.0526 249.882 54.7818C249.759 54.0492 249.658 53.325 249.291 52.6668C244.704 51.8745 239.846 52.1271 235.2 52.1106L217.973 51.9401L156.594 50.9225Q130.152 50.2249 103.7 50.1538C99.4935 50.1364 91.8491 49.4355 88.2252 50.0394C87.8359 51.8602 88.598 66.7472 89.5998 68.1742C89.7965 68.4545 90.3591 68.5062 90.69 68.5515C94.9315 69.1317 110.742 67.7337 113.302 68.7139ZM74.6173 71.6923L74.6373 71.7932C75.5145 76.3709 74.9604 81.7233 75.2032 86.4028C75.646 94.9352 76.4468 103.462 76.8693 111.996Q78.274 140.878 78.3782 169.794C78.4011 172.899 79.4783 176.911 78.684 179.901L78.9878 180.289C81.7733 180.576 84.9522 180.126 87.7701 179.997L109.162 178.875L181.02 175.557L196.249 174.881C198.624 174.785 201.03 174.446 203.399 174.727C206.512 173.764 214.106 174.175 217.697 174.034C219.513 173.511 224.342 173.501 226.312 173.55C223.318 171.347 220.364 168.295 217.856 165.545C211.554 166.169 205.063 166.112 198.729 166.401L156.198 168.225Q131.481 169.486 106.741 170.121C102.052 170.247 94.7114 171.227 90.2535 170.18C89.5022 170.004 89.1763 169.563 88.7962 168.936C87.7277 161.749 89.2221 154.306 88.1206 147.177C87.8743 136.346 87.9372 125.479 87.5536 114.655C87.3418 108.681 86.8415 102.688 86.552 96.7111Q86.1105 88.2266 85.5343 79.7501C85.3616 77.1063 84.9491 74.3302 85.0305 71.6882L74.6173 71.6923ZM84.5074 63.3782C84.1364 61.2733 83.9333 59.1417 83.7699 57.0122C83.4414 55.6434 83.5024 53.996 83.4803 52.5881L83.7868 52.4672C84.4926 51.458 84.1213 47.5237 84.1342 46.1825C87.3303 45.8417 90.6668 46.0598 93.8869 46.0488Q102.566 46.0516 111.242 45.8338L111.162 45.5614C116.786 45.5391 122.369 45.7139 127.988 45.8242C131.42 45.8916 134.866 45.7818 138.288 46.092C142.812 45.8778 147.364 46.1947 151.886 46.3138C154.51 46.383 157.333 46.1666 159.912 46.561C164.76 46.5921 169.601 46.7543 174.448 46.8267C177.445 46.8715 181.086 46.4926 183.992 47.1883C186.16 46.8775 188.497 47.0378 190.688 47.0376C196.231 47.0371 201.756 47.2626 207.292 47.3049C211.914 47.3401 223.458 46.8281 227.163 47.5658C230.946 47.5616 251.759 46.9795 253.202 48.2775C255.265 50.1333 254.879 66.7756 255.953 67.4168C256.092 67.5 256.505 67.5267 256.682 67.5618C258.473 67.5119 260.315 67.388 262.103 67.4816C262.711 67.5135 263.35 67.9214 263.916 67.7331C264.335 63.5438 263.719 45.2667 262.685 41.2315C261.598 40.2335 256.336 40.5001 254.596 40.4215C250.46 40.5993 246.225 40.2311 242.082 40.1292C237.816 40.0242 233.452 40.1735 229.207 39.7597C219.61 39.3882 209.993 39.2227 200.391 39.0031C194.839 38.8761 189.123 38.9401 183.601 38.3625C181.832 38.6764 159.065 37.9618 158.296 37.6319C152.924 37.9081 147.485 37.508 142.107 37.429L102.553 36.6901Q94.0072 36.5332 85.4652 36.8324C81.1984 37.0129 76.5877 37.6817 72.3622 37.3117C72.0515 37.7656 72.1305 38.213 72.2262 38.7503C72.5451 40.5401 72.3632 42.488 72.507 44.3189L73.9043 63.3749C74.0186 64.8723 73.8639 67.4241 74.4616 68.7667C75.6296 68.9462 83.3995 68.8393 84.3055 68.4646C85.1246 67.4005 84.2801 64.7125 84.5074 63.3782ZM159.179 181.338C159.038 185.032 159.533 193.803 157.797 196.732C157.317 197.125 157.035 197.311 156.401 197.395C155.541 197.089 155.164 196.797 154.772 195.948C154.415 195.176 154.101 194.378 153.761 193.598C152.196 193.139 143.416 196.009 141.664 196.688C139.35 197.583 136.784 199.159 134.353 199.563C146.314 206.409 160.182 203.697 173.234 204.585C175.344 204.337 177.527 204 179.652 204.031L179.851 203.99C182.593 203.445 185.482 203.394 188.26 203.032C196.881 201.908 207.43 199.826 214.445 194.46C207.962 192.146 202.216 191.228 195.382 190.827C194.094 190.751 192.292 190.416 191.048 190.747C189.858 192.011 190.907 194.252 189.117 195.113C188.363 195.077 187.916 194.902 187.397 194.341C185.093 191.85 184.146 184.209 183.601 180.792L183.481 181.042L183.478 180.197C180.408 179.88 177.014 180.32 173.927 180.467C169.042 180.698 164.029 180.757 159.179 181.338ZM255.797 70.8742C256.576 75.5072 256.793 80.072 257.208 84.7413L259.252 108.64Q260.973 127.025 262.141 145.453C262.466 150.231 263.101 155.024 263.146 159.819C263.151 160.362 263.039 160.81 262.857 161.317C262.575 162.098 262.347 162.631 261.727 163.203C260.842 163.504 260.458 163.335 259.611 162.943L258.991 163.061C258.947 163.684 259.196 163.999 259.618 164.463C261.456 166.476 265.113 168.443 266.046 171.062C267.474 171.377 268.819 171.548 270.279 171.607C271.047 170.127 270.618 161.129 270.535 159.046C270.198 150.655 269.49 142.245 268.91 133.867L265.874 91.687L264.872 77.1202C264.741 75.3063 264.849 73.1102 264.334 71.3828C264.252 71.1074 264.103 70.865 263.927 70.6404C261.227 70.7718 258.483 70.6153 255.797 70.8742ZM213.914 144.445C211.983 146.934 210.215 148.948 207.121 149.879C216.719 157.754 225.472 166.615 234.674 174.933L256.669 195.033C258.464 196.677 260.565 198.02 262.282 199.725C264.466 198.983 267.889 197.689 269.034 195.544C268.497 194.609 252.997 181.137 250.807 179.146C248.319 176.883 246.016 174.416 243.551 172.127C240.426 169.225 237.147 166.478 234.088 163.507C230.034 159.57 217.909 146.321 213.914 144.445ZM220.17 134.036C219.809 135.53 219.474 137.531 218.635 138.84C218.251 139.439 217.113 140.097 217.156 140.762C218.458 142.047 219.912 143.141 221.236 144.398L231.345 154.08C236.167 158.648 240.808 163.427 245.663 167.957C249.057 171.124 271.196 190.431 272.069 192.378C273.794 191.433 275.079 189.507 275.617 187.663C275.744 187.228 275.815 186.783 275.87 186.335C275.787 186.203 248.563 159.93 246.994 158.974C246.583 158.059 245.254 157.128 244.475 156.491C243.068 154.418 240.28 152.424 238.41 150.688C234.552 147.108 230.827 143.379 226.926 139.847C224.725 137.855 222.312 136.087 220.17 134.036ZM208.112 130.383Q207.573 131.691 206.891 132.931Q206.21 134.17 205.396 135.327Q204.581 136.484 203.644 137.543Q202.706 138.602 201.657 139.551C202.313 140.817 203.398 145.214 204.555 145.544C205.708 145.872 207.178 144.858 208.19 144.346C210.138 142.996 209.516 140.157 210.845 138.468C212.226 136.712 215.402 136.442 215.899 133.825C216.004 133.273 215.876 132.612 215.553 132.153C215.249 131.72 209.186 130.899 208.112 130.383ZM131.407 68.3682C131.78 68.6101 132.15 68.7677 132.595 68.8271C134.995 69.1473 137.657 68.887 140.088 68.9342C145.584 69.0411 151.148 69.3331 156.642 69.0832C158.854 68.9826 172.948 67.7776 174.14 68.2749C174.381 68.3755 174.723 68.6935 174.944 68.8524C178.39 68.6705 181.858 68.7028 185.308 68.7281C187.103 68.7412 189.485 69.0429 191.212 68.6553L191.403 67.9678C192.521 67.8269 193.566 67.6566 194.651 67.3366C189.221 67.5396 183.804 67.4489 178.375 67.5456C162.73 67.8242 147.042 67.8939 131.407 68.3682ZM227.163 47.5658L227.131 47.8391L226.992 48.3159C229.059 49.61 248.592 47.4944 251.395 49.023C252.409 49.5757 252.803 50.7302 253.039 51.7961C253.576 54.2283 253.41 56.8013 253.641 59.2687C253.772 60.6738 254.257 62.0286 254.41 63.4236C254.569 64.8768 253.952 67.0259 255.113 68.0814C255.63 68.0992 256.284 67.9115 256.682 67.5618C256.505 67.5267 256.092 67.5 255.953 67.4168C254.879 66.7756 255.265 50.1333 253.202 48.2775C251.759 46.9795 230.946 47.5616 227.163 47.5658ZM63.764 144.758C64.2049 152.448 64.1213 160.204 64.4531 167.91C64.5481 170.114 64.3525 172.959 64.8641 175.071C64.8939 175.038 64.9256 175.007 64.9535 174.973C66.2365 173.399 65.4584 163.982 65.2974 161.682L65.1806 164.207C64.7308 162.201 65.1157 158.628 65.0927 156.479L64.7927 135.739C64.7805 135.049 64.7574 134.116 64.2291 133.609C63.7836 134.069 63.9037 143.227 63.764 144.758ZM73.6046 32.6599C77.1242 33.3663 84.6308 33.0251 88.4897 33.0343C98.6946 33.0588 108.961 33.1844 119.159 32.838L119.162 32.5669C115.39 31.8255 110.23 32.3207 106.295 32.2786C95.4366 32.1624 84.4308 31.4661 73.6046 32.6599ZM183.992 47.1883L183.005 47.4474L183.17 47.8577C185.113 48.4869 223.178 47.9721 227.131 47.8391L227.163 47.5658C223.458 46.8281 211.914 47.3401 207.292 47.3049C201.756 47.2626 196.231 47.0371 190.688 47.0376C188.497 47.0378 186.16 46.8775 183.992 47.1883ZM171.899 33.7488C172.042 33.9754 172.236 34.4192 172.487 34.4786C175.614 35.2175 184.852 34.5344 188.611 34.5608C191.434 34.5807 194.225 34.9922 197.04 35.0614C200.355 35.1428 203.686 34.9144 207.004 34.8977C208.977 34.8878 211.503 35.1492 213.398 34.6151C208.387 34.0401 203.053 34.21 197.993 34.0586C189.676 33.8099 180.096 33.279 171.899 33.7488ZM61.7326 78.2614Q61.9081 91.0166 62.5829 103.755L63.5869 102.462C63.5809 99.7617 62.6275 73.1532 62.3998 72.5857L62.0016 72.4929C61.8347 74.4205 61.9877 76.3242 61.7326 78.2614ZM63.5869 102.462L62.5829 103.755C62.5539 109.393 62.7808 115.037 62.9434 120.672C63.005 122.806 62.7923 125.469 63.2329 127.539C63.299 128.859 63.2831 130.255 63.4665 131.561C63.6058 130.122 63.9657 128.729 64.0483 127.29C64.3853 121.417 63.8961 115.459 63.7546 109.582C63.6983 107.242 63.9537 104.774 63.5869 102.462ZM88.1206 147.177C89.2221 154.306 87.7277 161.749 88.7962 168.936C89.1497 168.772 89.3279 168.63 89.5765 168.331C89.8655 166.069 89.2858 141.244 88.8631 140.15C88.5308 142.244 88.884 145.148 88.1692 147.058C88.1542 147.098 88.1368 147.137 88.1206 147.177ZM119.162 32.5669L119.159 32.838L118.991 33.3173C120.707 34.4443 145.679 32.8181 146.628 33.6393L146.62 33.9351L147.133 34.0153C147.465 33.6736 147.653 33.3588 148.142 33.305L149.285 33.1936C145.87 32.5256 141.976 32.8882 138.479 32.8375C132.036 32.7441 125.61 32.572 119.162 32.5669ZM111.162 45.5614L111.242 45.8338L111.142 46.56C114.244 46.2524 117.596 46.5535 120.725 46.5465C126.071 46.5344 131.419 46.3717 136.769 46.3705L137.211 46.3915L138.288 46.092C134.866 45.7818 131.42 45.8916 127.988 45.8242C122.369 45.7139 116.786 45.5391 111.162 45.5614ZM159.912 46.561L159.94 46.8338L159.729 47.3458C161.919 48.5237 178.019 46.5472 182.275 47.912L182.715 47.401L183.005 47.4474L183.992 47.1883C181.086 46.4926 177.445 46.8715 174.448 46.8267C169.601 46.7543 164.76 46.5921 159.912 46.561ZM149.285 33.1936L148.142 33.305C148.245 33.5895 148.251 33.7519 148.554 33.8831C149.689 34.3744 170.252 34.1644 171.899 33.7488L171.746 33.6158C170.11 33.1811 150.727 32.853 149.285 33.1936ZM102.425 165.473C103.575 165.705 104.875 165.596 106.054 165.683C112.585 166.164 119.072 166.338 125.565 165.282L125.705 164.875C120.039 164.981 114.355 164.968 108.691 165.158C106.651 165.226 104.428 165.14 102.425 165.473ZM138.288 46.092L137.211 46.3915L137.29 46.894C138.862 47.4667 156.835 46.9115 159.94 46.8338L159.912 46.561C157.333 46.1666 154.51 46.383 151.886 46.3138C147.364 46.1947 142.812 45.8778 138.288 46.092ZM216.219 206.709C217.492 206.399 218.713 205.886 219.91 205.36C222.529 204.208 224.445 202.586 225.497 199.892C224.922 199.567 225.006 199.382 224.306 199.374L224.551 199.34C223.284 201.286 221.86 203.832 219.41 204.355C218.114 204.632 217.051 205.316 215.81 205.618C215.018 205.81 214.123 205.456 213.455 205.893C214.105 206.417 215.422 205.915 216.219 206.709ZM114.275 68.7391L113.302 68.7139C113.144 68.9629 113.002 69.0521 112.759 69.2059L112.101 69.0523L112.01 69.252L111.882 69.1655C109.115 68.8556 92.3314 68.9542 89.9807 69.453C93.1129 69.9389 111.294 70.1085 113.982 69.3296L114.275 68.7391ZM111.142 46.56L110.839 46.6599C112.181 46.9316 135.466 47.3506 136.262 47.1721C136.405 47.14 136.662 46.9374 136.799 46.8568L136.769 46.3705C131.419 46.3717 126.071 46.5344 120.725 46.5465C117.596 46.5535 114.244 46.2524 111.142 46.56ZM173.234 204.585C171.956 206.17 157.995 204.354 155.053 205.36L155.293 205.522C158.473 205.962 168.804 205.772 172.237 205.506C173.378 205.417 174.489 205.083 175.621 204.999C176.369 204.944 177.432 205.26 178.063 204.862L178.025 204.471L179.652 204.031C177.527 204 175.344 204.337 173.234 204.585ZM231.739 35.0594L232.326 35.4139C231.815 35.8392 230.899 35.4808 230.591 35.8806C232.956 36.2273 248.993 36.1316 251.48 35.7508C250.905 35.3368 233.666 35.0665 231.739 35.0594ZM220.736 34.6263C220.702 34.6542 220.669 34.6839 220.633 34.71C218.622 36.1733 213.661 34.1725 211.956 35.4281C212.66 35.8171 230.111 35.6378 231.09 35.2354C231.255 35.1676 231.252 35.1601 231.373 35.0692C228.059 34.7149 223.833 35.3959 220.736 34.6263ZM203.399 174.727C205.663 175.089 215.084 175.54 217.105 174.831C217.511 174.689 217.526 174.41 217.697 174.034C214.106 174.175 206.512 173.764 203.399 174.727ZM177.838 163.038C178.291 163.38 178.603 163.597 179.192 163.624C183.019 163.799 186.218 163.412 189.901 162.322C186.007 162.507 181.61 162.127 177.838 163.038ZM255.458 120.476C255.982 121.744 256.626 125.763 256.142 127.074C256.13 127.108 256.114 127.141 256.1 127.175L257.077 126.609C257.434 123.935 256.9 120.604 256.764 117.885L256.261 117.79L256.327 117.431L256.693 117.4L256.506 116.896C255.614 117.541 256.213 119.485 255.53 120.39C255.507 120.42 255.482 120.447 255.458 120.476ZM254.446 108.489C255.003 109.873 255.686 114.712 255.129 116.106L255.958 115.671C256.949 113.478 255.315 108.543 255.411 106.071C255.413 106.013 255.418 105.955 255.422 105.897C254.893 106.706 255.145 107.653 254.531 108.395C254.504 108.427 254.474 108.457 254.446 108.489ZM251.48 35.7508L251.32 36.1158C249.067 36.4149 246.735 35.9287 244.512 36.2775L244.514 36.4575C246.455 36.7727 260.723 36.72 262.17 36.2269C261.091 35.6176 253.068 35.7699 251.48 35.7508ZM83.7699 57.0122C83.9333 59.1417 84.1364 61.2733 84.5074 63.3782C84.702 63.1381 84.8571 62.8609 85.0224 62.5996C85.1936 60.9431 85.2888 55.9184 84.3409 54.6088C83.8027 55.1596 83.8464 56.2526 83.7699 57.0122ZM94.768 165.537L94.9231 165.906C94.5094 166.224 94.0737 166.279 93.5756 166.38C94.2772 166.963 95.6948 166.799 96.5739 166.715C97.7884 166.599 101.363 166.104 102.257 165.471C99.8893 165.225 97.1931 165.588 94.768 165.537ZM73.7913 183.208C74.3414 183.825 74.8816 184.454 75.4875 185.018C75.5061 184.993 75.5224 184.965 75.5433 184.942C76.5864 183.778 82.9661 184.17 84.7445 184.16C84.686 183.875 83.9381 184.002 83.6425 184.006C81.1074 184.041 76.644 184.477 74.6118 182.686L74.4547 182.545L73.7913 183.208ZM108.47 35.8472L108.38 36.1439C111.512 36.6607 116.503 36.2084 119.782 36.2016L119.639 35.9131C116.013 36.1415 112.102 36.0395 108.47 35.8472ZM244.475 156.491C245.254 157.128 246.583 158.059 246.994 158.974C247.264 158.755 247.387 158.542 247.549 158.244C247.094 157.049 246.49 156.607 245.383 156L244.475 156.491ZM48.3874 70.7242L48.535 71.1191C50.231 71.2308 59.9169 71.5211 60.875 70.9916C58.71 70.7658 49.5059 71.5901 48.3874 70.7242ZM256.448 68.3755C257.602 69.2248 260.671 68.5012 262.178 68.6514L262.456 68.3903C260.553 68.0342 258.349 68.023 256.448 68.3755ZM231.661 39.2408L236.926 39.2335L236.663 39.004C235.108 38.8347 233.169 38.7998 231.661 39.2408ZM197.127 38.1288C198.462 38.2927 200.311 38.3879 201.623 38.1311C200.961 37.8361 197.999 37.7746 197.309 38.0498C197.248 38.0743 197.188 38.1025 197.127 38.1288Z"/>
	<path fill="white" fill-opacity="0.95686275" transform="matrix(1.4878 0 0 1.48684 0 3.05176e-05)" d="M197.127 38.1288C197.188 38.1025 197.248 38.0743 197.309 38.0498C197.999 37.7746 200.961 37.8361 201.623 38.1311C200.311 38.3879 198.462 38.2927 197.127 38.1288Z"/>
	<path fill="white" fill-opacity="0.95686275" transform="matrix(1.4878 0 0 1.48684 0 3.05176e-05)" d="M231.661 39.2408C233.169 38.7998 235.108 38.8347 236.663 39.004L236.926 39.2335L231.661 39.2408Z"/>
	<path fill="white" fill-opacity="0.9254902" transform="matrix(1.4878 0 0 1.48684 0 3.05176e-05)" d="M256.448 68.3755C258.349 68.023 260.553 68.0342 262.456 68.3903L262.178 68.6514C260.671 68.5012 257.602 69.2248 256.448 68.3755Z"/>
	<path fill="white" fill-opacity="0.96862745" transform="matrix(1.4878 0 0 1.48684 0 3.05176e-05)" d="M48.3874 70.7242C49.5059 71.5901 58.71 70.7658 60.875 70.9916C59.9169 71.5211 50.231 71.2308 48.535 71.1191L48.3874 70.7242Z"/>
	<path fill="white" fill-opacity="0.95686275" transform="matrix(1.4878 0 0 1.48684 0 3.05176e-05)" d="M244.475 156.491L245.383 156C246.49 156.607 247.094 157.049 247.549 158.244C247.387 158.542 247.264 158.755 246.994 158.974C246.583 158.059 245.254 157.128 244.475 156.491Z"/>
	<path fill="white" fill-opacity="0.96078432" transform="matrix(1.4878 0 0 1.48684 0 3.05176e-05)" d="M108.47 35.8472C112.102 36.0395 116.013 36.1415 119.639 35.9131L119.782 36.2016C116.503 36.2084 111.512 36.6607 108.38 36.1439L108.47 35.8472Z"/>
	<path fill="white" fill-opacity="0.94509804" transform="matrix(1.4878 0 0 1.48684 0 3.05176e-05)" d="M73.7913 183.208L74.4547 182.545L74.6118 182.686C76.644 184.477 81.1074 184.041 83.6425 184.006C83.9381 184.002 84.686 183.875 84.7445 184.16C82.9661 184.17 76.5864 183.778 75.5433 184.942C75.5224 184.965 75.5061 184.993 75.4875 185.018C74.8816 184.454 74.3414 183.825 73.7913 183.208Z"/>
	<path fill="white" fill-opacity="0.91764706" transform="matrix(1.4878 0 0 1.48684 0 3.05176e-05)" d="M94.768 165.537C97.1931 165.588 99.8893 165.225 102.257 165.471C101.363 166.104 97.7884 166.599 96.5739 166.715C95.6948 166.799 94.2772 166.963 93.5756 166.38C94.0737 166.279 94.5094 166.224 94.9231 165.906L94.768 165.537Z"/>
	<path fill="white" fill-opacity="0.97647059" transform="matrix(1.4878 0 0 1.48684 0 3.05176e-05)" d="M83.7699 57.0122C83.8464 56.2526 83.8027 55.1596 84.3409 54.6088C85.2888 55.9184 85.1936 60.9431 85.0224 62.5996C84.8571 62.8609 84.702 63.1381 84.5074 63.3782C84.1364 61.2733 83.9333 59.1417 83.7699 57.0122Z"/>
	<path fill="white" fill-opacity="0.92941177" transform="matrix(1.4878 0 0 1.48684 0 3.05176e-05)" d="M251.48 35.7508C253.068 35.7699 261.091 35.6176 262.17 36.2269C260.723 36.72 246.455 36.7727 244.514 36.4575L244.512 36.2775C246.735 35.9287 249.067 36.4149 251.32 36.1158L251.48 35.7508Z"/>
	<path fill="white" transform="matrix(1.4878 0 0 1.48684 0 3.05176e-05)" d="M165.763 210.728C166.035 210.508 166.301 210.392 166.649 210.369C168.467 210.251 170.402 210.515 172.237 210.534C175.108 210.563 178.288 210.282 181.121 210.614C181.473 210.655 181.726 210.778 181.989 211.008C178.92 211.592 168.937 211.353 165.763 210.728Z"/>
	<path fill="white" fill-opacity="0.96862745" transform="matrix(1.4878 0 0 1.48684 0 3.05176e-05)" d="M254.446 108.489C254.474 108.457 254.504 108.427 254.531 108.395C255.145 107.653 254.893 106.706 255.422 105.897C255.418 105.955 255.413 106.013 255.411 106.071C255.315 108.543 256.949 113.478 255.958 115.671L255.129 116.106C255.686 114.712 255.003 109.873 254.446 108.489Z"/>
	<path fill="white" fill-opacity="0.97647059" transform="matrix(1.4878 0 0 1.48684 0 3.05176e-05)" d="M255.458 120.476C255.482 120.447 255.507 120.42 255.53 120.39C256.213 119.485 255.614 117.541 256.506 116.896L256.693 117.4L256.327 117.431L256.261 117.79L256.764 117.885C256.9 120.604 257.434 123.935 257.077 126.609L256.1 127.175C256.114 127.141 256.13 127.108 256.142 127.074C256.626 125.763 255.982 121.744 255.458 120.476Z"/>
	<path fill="white" fill-opacity="0.91764706" transform="matrix(1.4878 0 0 1.48684 0 3.05176e-05)" d="M177.838 163.038C181.61 162.127 186.007 162.507 189.901 162.322C186.218 163.412 183.019 163.799 179.192 163.624C178.603 163.597 178.291 163.38 177.838 163.038Z"/>
	<path fill="white" fill-opacity="0.9254902" transform="matrix(1.4878 0 0 1.48684 0 3.05176e-05)" d="M203.399 174.727C206.512 173.764 214.106 174.175 217.697 174.034C217.526 174.41 217.511 174.689 217.105 174.831C215.084 175.54 205.663 175.089 203.399 174.727Z"/>
	<path fill="white" fill-opacity="0.92156863" transform="matrix(1.4878 0 0 1.48684 0 3.05176e-05)" d="M220.736 34.6263C223.833 35.3959 228.059 34.7149 231.373 35.0692C231.252 35.1601 231.255 35.1676 231.09 35.2354C230.111 35.6378 212.66 35.8171 211.956 35.4281C213.661 34.1725 218.622 36.1733 220.633 34.71C220.669 34.6839 220.702 34.6542 220.736 34.6263Z"/>
	<path fill="white" fill-opacity="0.92941177" transform="matrix(1.4878 0 0 1.48684 0 3.05176e-05)" d="M231.739 35.0594C233.666 35.0665 250.905 35.3368 251.48 35.7508C248.993 36.1316 232.956 36.2273 230.591 35.8806C230.899 35.4808 231.815 35.8392 232.326 35.4139L231.739 35.0594Z"/>
	<path fill="white" fill-opacity="0.9254902" transform="matrix(1.4878 0 0 1.48684 0 3.05176e-05)" d="M173.234 204.585C175.344 204.337 177.527 204 179.652 204.031L178.025 204.471L178.063 204.862C177.432 205.26 176.369 204.944 175.621 204.999C174.489 205.083 173.378 205.417 172.237 205.506C168.804 205.772 158.473 205.962 155.293 205.522L155.053 205.36C157.995 204.354 171.956 206.17 173.234 204.585Z"/>
	<path fill="white" fill-opacity="0.96078432" transform="matrix(1.4878 0 0 1.48684 0 3.05176e-05)" d="M111.142 46.56C114.244 46.2524 117.596 46.5535 120.725 46.5465C126.071 46.5344 131.419 46.3717 136.769 46.3705L136.799 46.8568C136.662 46.9374 136.405 47.14 136.262 47.1721C135.466 47.3506 112.181 46.9316 110.839 46.6599L111.142 46.56Z"/>
	<path fill="white" fill-opacity="0.92156863" transform="matrix(1.4878 0 0 1.48684 0 3.05176e-05)" d="M114.275 68.7391L113.982 69.3296C111.294 70.1085 93.1129 69.9389 89.9807 69.453C92.3314 68.9542 109.115 68.8556 111.882 69.1655L112.01 69.252L112.101 69.0523L112.759 69.2059C113.002 69.0521 113.144 68.9629 113.302 68.7139L114.275 68.7391Z"/>
	<path fill="white" fill-opacity="0.96470588" transform="matrix(1.4878 0 0 1.48684 0 3.05176e-05)" d="M216.219 206.709C215.422 205.915 214.105 206.417 213.455 205.893C214.123 205.456 215.018 205.81 215.81 205.618C217.051 205.316 218.114 204.632 219.41 204.355C221.86 203.832 223.284 201.286 224.551 199.34L224.306 199.374C225.006 199.382 224.922 199.567 225.497 199.892C224.445 202.586 222.529 204.208 219.91 205.36C218.713 205.886 217.492 206.399 216.219 206.709Z"/>
	<path fill="white" transform="matrix(1.4878 0 0 1.48684 0 3.05176e-05)" d="M231.661 39.2408L236.926 39.2335C244.058 40.3542 251.64 39.177 258.804 40.0501C257.525 40.1927 255.759 39.9316 254.596 40.4215C250.46 40.5993 246.225 40.2311 242.082 40.1292C237.816 40.0242 233.452 40.1735 229.207 39.7597C229.812 39.2185 230.882 39.2895 231.661 39.2408Z"/>
	<path fill="white" transform="matrix(1.4878 0 0 1.48684 0 3.05176e-05)" d="M158.296 37.6319L158.493 37.3366Q169.616 37.3251 180.728 37.8063C182.968 37.8818 185.435 37.5565 187.616 38.0864C186.383 38.134 184.764 38.0014 183.601 38.3625C181.832 38.6764 159.065 37.9618 158.296 37.6319Z"/>
	<path fill="white" fill-opacity="0.92941177" transform="matrix(1.4878 0 0 1.48684 0 3.05176e-05)" d="M138.288 46.092C142.812 45.8778 147.364 46.1947 151.886 46.3138C154.51 46.383 157.333 46.1666 159.912 46.561L159.94 46.8338C156.835 46.9115 138.862 47.4667 137.29 46.894L137.211 46.3915L138.288 46.092Z"/>
	<path fill="white" fill-opacity="0.94509804" transform="matrix(1.4878 0 0 1.48684 0 3.05176e-05)" d="M102.425 165.473C104.428 165.14 106.651 165.226 108.691 165.158C114.355 164.968 120.039 164.981 125.705 164.875L125.565 165.282C119.072 166.338 112.585 166.164 106.054 165.683C104.875 165.596 103.575 165.705 102.425 165.473Z"/>
	<path fill="white" fill-opacity="0.93333334" transform="matrix(1.4878 0 0 1.48684 0 3.05176e-05)" d="M149.285 33.1936C150.727 32.853 170.11 33.1811 171.746 33.6158L171.899 33.7488C170.252 34.1644 149.689 34.3744 148.554 33.8831C148.251 33.7519 148.245 33.5895 148.142 33.305L149.285 33.1936Z"/>
	<path fill="white" fill-opacity="0.90588236" transform="matrix(1.4878 0 0 1.48684 0 3.05176e-05)" d="M159.912 46.561C164.76 46.5921 169.601 46.7543 174.448 46.8267C177.445 46.8715 181.086 46.4926 183.992 47.1883L183.005 47.4474L182.715 47.401L182.275 47.912C178.019 46.5472 161.919 48.5237 159.729 47.3458L159.94 46.8338L159.912 46.561Z"/>
	<path fill="white" fill-opacity="0.89019608" transform="matrix(1.4878 0 0 1.48684 0 3.05176e-05)" d="M111.162 45.5614C116.786 45.5391 122.369 45.7139 127.988 45.8242C131.42 45.8916 134.866 45.7818 138.288 46.092L137.211 46.3915L136.769 46.3705C131.419 46.3717 126.071 46.5344 120.725 46.5465C117.596 46.5535 114.244 46.2524 111.142 46.56L111.242 45.8338L111.162 45.5614Z"/>
	<path fill="white" fill-opacity="0.90980393" transform="matrix(1.4878 0 0 1.48684 0 3.05176e-05)" d="M119.162 32.5669C125.61 32.572 132.036 32.7441 138.479 32.8375C141.976 32.8882 145.87 32.5256 149.285 33.1936L148.142 33.305C147.653 33.3588 147.465 33.6736 147.133 34.0153L146.62 33.9351L146.628 33.6393C145.679 32.8181 120.707 34.4443 118.991 33.3173L119.159 32.838L119.162 32.5669Z"/>
	<path fill="white" fill-opacity="0.96078432" transform="matrix(1.4878 0 0 1.48684 0 3.05176e-05)" d="M88.1206 147.177C88.1368 147.137 88.1542 147.098 88.1692 147.058C88.884 145.148 88.5308 142.244 88.8631 140.15C89.2858 141.244 89.8655 166.069 89.5765 168.331C89.3279 168.63 89.1497 168.772 88.7962 168.936C87.7277 161.749 89.2221 154.306 88.1206 147.177Z"/>
	<path fill="white" fill-opacity="0.97254902" transform="matrix(1.4878 0 0 1.48684 0 3.05176e-05)" d="M63.5869 102.462C63.9537 104.774 63.6983 107.242 63.7546 109.582C63.8961 115.459 64.3853 121.417 64.0483 127.29C63.9657 128.729 63.6058 130.122 63.4665 131.561C63.2831 130.255 63.299 128.859 63.2329 127.539C62.7923 125.469 63.005 122.806 62.9434 120.672C62.7808 115.037 62.5539 109.393 62.5829 103.755L63.5869 102.462ZM63.5869 102.462L62.5829 103.755C62.5539 109.393 62.7808 115.037 62.9434 120.672C63.005 122.806 62.7923 125.469 63.2329 127.539C63.5677 124.984 63.3372 122.192 63.3205 119.609C63.284 113.963 63.1372 108.087 63.5869 102.462Z"/>
	<path fill="white" fill-opacity="0.90588236" transform="matrix(1.4878 0 0 1.48684 0 3.05176e-05)" d="M63.5869 102.462C63.1372 108.087 63.284 113.963 63.3205 119.609C63.3372 122.192 63.5677 124.984 63.2329 127.539C62.7923 125.469 63.005 122.806 62.9434 120.672C62.7808 115.037 62.5539 109.393 62.5829 103.755L63.5869 102.462Z"/>
	<path fill="white" fill-opacity="0.96470588" transform="matrix(1.4878 0 0 1.48684 0 3.05176e-05)" d="M61.7326 78.2614C61.9877 76.3242 61.8347 74.4205 62.0016 72.4929L62.3998 72.5857C62.6275 73.1532 63.5809 99.7617 63.5869 102.462L62.5829 103.755Q61.9081 91.0166 61.7326 78.2614Z"/>
	<path fill="white" fill-opacity="0.95294118" transform="matrix(1.4878 0 0 1.48684 0 3.05176e-05)" d="M171.899 33.7488C180.096 33.279 189.676 33.8099 197.993 34.0586C203.053 34.21 208.387 34.0401 213.398 34.6151C211.503 35.1492 208.977 34.8878 207.004 34.8977C203.686 34.9144 200.355 35.1428 197.04 35.0614C194.225 34.9922 191.434 34.5807 188.611 34.5608C184.852 34.5344 175.614 35.2175 172.487 34.4786C172.236 34.4192 172.042 33.9754 171.899 33.7488Z"/>
	<path fill="white" fill-opacity="0.92941177" transform="matrix(1.4878 0 0 1.48684 0 3.05176e-05)" d="M183.992 47.1883C186.16 46.8775 188.497 47.0378 190.688 47.0376C196.231 47.0371 201.756 47.2626 207.292 47.3049C211.914 47.3401 223.458 46.8281 227.163 47.5658L227.131 47.8391C223.178 47.9721 185.113 48.4869 183.17 47.8577L183.005 47.4474L183.992 47.1883Z"/>
	<path fill="white" fill-opacity="0.94901961" transform="matrix(1.4878 0 0 1.48684 0 3.05176e-05)" d="M73.6046 32.6599C84.4308 31.4661 95.4366 32.1624 106.295 32.2786C110.23 32.3207 115.39 31.8255 119.162 32.5669L119.159 32.838C108.961 33.1844 98.6946 33.0588 88.4897 33.0343C84.6308 33.0251 77.1242 33.3663 73.6046 32.6599Z"/>
	<path fill="white" fill-opacity="0.97254902" transform="matrix(1.4878 0 0 1.48684 0 3.05176e-05)" d="M63.764 144.758C63.9037 143.227 63.7836 134.069 64.2291 133.609C64.7574 134.116 64.7805 135.049 64.7927 135.739L65.0927 156.479C65.1157 158.628 64.7308 162.201 65.1806 164.207L65.2974 161.682C65.4584 163.982 66.2365 173.399 64.9535 174.973C64.9256 175.007 64.8939 175.038 64.8641 175.071C64.3525 172.959 64.5481 170.114 64.4531 167.91C64.1213 160.204 64.2049 152.448 63.764 144.758Z"/>
	<path fill="white" fill-opacity="0.90196079" transform="matrix(1.4878 0 0 1.48684 0 3.05176e-05)" d="M227.163 47.5658C230.946 47.5616 251.759 46.9795 253.202 48.2775C255.265 50.1333 254.879 66.7756 255.953 67.4168C256.092 67.5 256.505 67.5267 256.682 67.5618C256.284 67.9115 255.63 68.0992 255.113 68.0814C253.952 67.0259 254.569 64.8768 254.41 63.4236C254.257 62.0286 253.772 60.6738 253.641 59.2687C253.41 56.8013 253.576 54.2283 253.039 51.7961C252.803 50.7302 252.409 49.5757 251.395 49.023C248.592 47.4944 229.059 49.61 226.992 48.3159L227.131 47.8391L227.163 47.5658Z"/>
	<path fill="white" fill-opacity="0.92941177" transform="matrix(1.4878 0 0 1.48684 0 3.05176e-05)" d="M131.407 68.3682C147.042 67.8939 162.73 67.8242 178.375 67.5456C183.804 67.4489 189.221 67.5396 194.651 67.3366C193.566 67.6566 192.521 67.8269 191.403 67.9678L191.212 68.6553C189.485 69.0429 187.103 68.7412 185.308 68.7281C181.858 68.7028 178.39 68.6705 174.944 68.8524C174.723 68.6935 174.381 68.3755 174.14 68.2749C172.948 67.7776 158.854 68.9826 156.642 69.0832C151.148 69.3331 145.584 69.0411 140.088 68.9342C137.657 68.887 134.995 69.1473 132.595 68.8271C132.15 68.7677 131.78 68.6101 131.407 68.3682Z"/>
	<path fill="white" fill-opacity="0.93725491" transform="matrix(1.4878 0 0 1.48684 0 3.05176e-05)" d="M83.4803 52.5881C83.2624 51.254 83.0279 49.8528 83.0274 48.4993C83.0271 47.6536 83.2257 46.2851 83.931 45.701C85.2217 44.6321 107.81 45.1956 111.162 45.5614L111.242 45.8338Q102.566 46.0516 93.8869 46.0488C90.6668 46.0598 87.3303 45.8417 84.1342 46.1825C84.1213 47.5237 84.4926 51.458 83.7868 52.4672L83.4803 52.5881Z"/>
	<path fill="white" fill-opacity="0.95294118" transform="matrix(1.4878 0 0 1.48684 0 3.05176e-05)" d="M204.954 62.0441C207.126 61.2874 217.401 61.2444 219.39 62.2778C219.779 62.4798 220.016 62.9779 220.134 63.3905C220.489 64.6293 220.444 66.7377 219.989 67.9466C219.727 68.0729 219.713 68.0352 219.428 67.9529C219.034 67.3707 219.033 66.2867 218.908 65.5845C218.766 64.7924 218.465 63.8571 217.736 63.4123C216.006 62.3562 207.025 63.4966 204.954 62.0441Z"/>
	<path fill="white" fill-opacity="0.94509804" transform="matrix(1.4878 0 0 1.48684 0 3.05176e-05)" d="M165.852 144.074C165.304 143.601 165.07 143.319 164.886 142.609C165.038 142.166 165.06 142.035 165.458 141.749C167.163 140.526 171.686 140.793 173.674 141.165C174.451 141.31 175.069 141.486 175.541 142.157C175.507 142.904 175.379 143.035 174.947 143.609C174.137 143.331 172.973 143.573 172.325 143.128C172.915 142.9 173.449 142.646 173.996 142.33L173.955 142.08C171.682 142.433 169.144 141.996 166.829 141.958C166.271 142.344 166.02 143.386 165.852 144.074Z"/>
	<path fill="white" fill-opacity="0.98431373" transform="matrix(1.4878 0 0 1.48684 0 3.05176e-05)" d="M166.829 141.958C169.144 141.996 171.682 142.433 173.955 142.08L173.996 142.33C173.449 142.646 172.915 142.9 172.325 143.128C172.973 143.573 174.137 143.331 174.947 143.609C173.62 144.413 171.017 144.377 169.467 144.292Q167.659 144.199 165.852 144.074C166.02 143.386 166.271 142.344 166.829 141.958Z"/>
	<path fill="white" transform="matrix(1.4878 0 0 1.48684 0 3.05176e-05)" d="M165.852 144.074C166.02 143.386 166.271 142.344 166.829 141.958C167.069 142.646 167.036 142.941 167.724 143.279C168.343 143.583 168.972 143.541 169.43 144.078L169.467 144.292Q167.659 144.199 165.852 144.074Z"/>
	<path fill="white" fill-opacity="0.98823529" transform="matrix(1.4878 0 0 1.48684 0 3.05176e-05)" d="M213.705 85.5965C214.295 85.7264 214.89 85.8665 215.331 86.3138C217.025 88.0307 215.824 91.7004 215.862 93.8515C215.419 93.7969 214.956 93.7447 214.526 93.6226C213.986 93.4697 213.635 92.9451 213.392 92.4699C212.33 90.3895 213.005 87.6929 213.705 85.5965Z"/>
	<path fill="white" fill-opacity="0.96862745" transform="matrix(1.4878 0 0 1.48684 0 3.05176e-05)" d="M181.699 140.369C182.712 140.322 184.155 140.095 185.11 140.444C185.791 140.693 186.451 141.25 186.754 141.906C186.718 142.396 186.761 142.567 186.383 142.92C185.779 143.486 184.829 143.403 184.063 143.387C183.89 143.372 183.94 143.367 183.796 143.381C182.793 143.482 181.756 143.546 180.75 143.434C180.073 143.359 179.589 143.162 179.165 142.608C178.961 141.946 178.931 141.618 179.141 140.937C179.857 140.376 180.797 140.47 181.699 140.369Z"/>
	<path fill="white" transform="matrix(1.4878 0 0 1.48684 0 3.05176e-05)" d="M214.991 105.874C215.32 105.947 215.626 106.036 215.926 106.195C216.687 106.6 217.067 107.412 217.275 108.212C217.755 110.068 217.429 112.766 216.476 114.432L215.751 114.243C215.065 113.65 214.571 113.136 214.279 112.261C213.589 110.189 214.034 107.772 214.991 105.874Z"/>
	<path fill="white" fill-opacity="0.94509804" transform="matrix(1.4878 0 0 1.48684 0 3.05176e-05)" d="M122.84 135.188C122.315 133.184 121.846 129.469 122.849 127.596C123.411 127.198 123.419 127.208 124.106 127.283C124.755 127.672 124.987 128.161 125.161 128.873C125.537 130.409 125.152 134.489 125.752 135.526C125.089 135.694 123.666 135.201 122.84 135.188Z"/>
	<path fill="white" fill-opacity="0.98431373" transform="matrix(1.4878 0 0 1.48684 0 3.05176e-05)" d="M214.656 95.6199C215.416 95.5646 215.802 95.7481 216.453 96.0968C217.228 96.9165 217.333 98.785 217.31 99.8645C217.286 100.987 217.113 102.706 216.28 103.553C215.993 103.845 215.825 103.773 215.435 103.781C214.95 103.42 214.658 103.128 214.316 102.63C214.184 102.39 214.063 102.138 213.996 101.871C213.559 100.145 213.723 97.1587 214.656 95.6199ZM214.656 95.6199C213.723 97.1587 213.559 100.145 213.996 101.871C214.063 102.138 214.184 102.39 214.316 102.63L214.499 102.479L214.997 102.573L215.306 102.339C215.408 100.441 215.783 97.1286 214.656 95.6199Z"/>
	<path fill="white" fill-opacity="0.96862745" transform="matrix(1.4878 0 0 1.48684 0 3.05176e-05)" d="M214.656 95.6199C215.783 97.1286 215.408 100.441 215.306 102.339L214.997 102.573L214.499 102.479L214.316 102.63C214.184 102.39 214.063 102.138 213.996 101.871C213.559 100.145 213.723 97.1587 214.656 95.6199Z"/>
	<path fill="white" fill-opacity="0.95686275" transform="matrix(1.4878 0 0 1.48684 0 3.05176e-05)" d="M122.685 104.065C123.158 104.147 123.455 104.204 123.836 104.505C124.371 106.338 124.683 108.109 124.599 110.023C124.533 111.536 124.454 112.67 123.287 113.742C122.974 113.576 122.632 113.391 122.374 113.146C121.506 112.321 121.286 109.435 121.315 108.268C121.356 106.602 121.421 105.253 122.685 104.065Z"/>
	<path fill="white" fill-opacity="0.97647059" transform="matrix(1.4878 0 0 1.48684 0 3.05176e-05)" d="M122.052 115.421C122.581 115.45 123.211 115.453 123.668 115.75C124.334 116.183 124.74 116.989 124.926 117.739C125.4 119.644 125.125 122.874 124.089 124.554C123.622 124.428 122.843 124.284 122.48 123.967C120.513 122.25 122.235 117.823 122.069 115.613L122.052 115.421Z"/>
	<path fill="white" fill-opacity="0.94509804" transform="matrix(1.4878 0 0 1.48684 0 3.05176e-05)" d="M216.307 115.644C216.753 115.653 217.083 115.74 217.417 116.056C218.149 116.749 218.296 118.048 218.359 118.99C218.482 120.822 218.343 123.567 217.099 125C216.644 124.828 216.224 124.614 215.793 124.389C215.154 123.521 214.845 122.093 214.774 121.025C214.64 119.011 214.978 117.189 216.307 115.644ZM216.119 117.18L216.142 117.384C216.302 118.853 215.633 121.281 216.549 122.442L217.2 122.328C217.129 121.807 217.06 121.344 216.893 120.843C216.558 119.838 217.19 118.012 216.578 117.268L216.119 117.18Z"/>
	<path fill="white" fill-opacity="0.98431373" transform="matrix(1.4878 0 0 1.48684 0 3.05176e-05)" d="M216.119 117.18L216.578 117.268C217.19 118.012 216.558 119.838 216.893 120.843C217.06 121.344 217.129 121.807 217.2 122.328L216.549 122.442C215.633 121.281 216.302 118.853 216.142 117.384L216.119 117.18Z"/>
	<path fill="white" fill-opacity="0.96862745" transform="matrix(1.4878 0 0 1.48684 0 3.05176e-05)" d="M120.781 81.7722C121.34 81.7442 121.788 81.7601 122.339 81.8888C125.025 84.132 122.553 88.7022 123.355 91.4559C122.649 91.5085 122.058 91.6134 121.443 91.194C119.602 88.8401 120.523 84.5577 120.781 81.7722Z"/>
	<path fill="white" transform="matrix(1.4878 0 0 1.48684 0 3.05176e-05)" d="M121.771 84.1629L122.081 84.6054C122.178 86.0999 122.393 87.6865 122.105 89.1637L121.954 89.3062C121.352 88.4944 121.732 85.3025 121.771 84.1629Z"/>
	<path fill="white" fill-opacity="0.95686275" transform="matrix(1.4878 0 0 1.48684 0 3.05176e-05)" d="M121.86 93.2401C122.426 93.2503 122.834 93.3215 123.358 93.5365C124.088 94.2447 124.155 95.6277 124.245 96.5928C124.42 98.4851 124.376 101.039 123.12 102.551C122.724 102.514 122.347 102.409 121.962 102.313C120.96 101.159 120.766 99.2073 120.795 97.7254C120.823 96.3541 120.826 94.2382 121.86 93.2401Z"/>
	<path fill="white" transform="matrix(1.4878 0 0 1.48684 0 3.05176e-05)" d="M122.349 96.1786C122.569 97.5553 122.865 99.0473 122.845 100.439L122.498 100.567C121.847 99.5855 122.239 97.3233 122.349 96.1786Z"/>
	<path fill="white" fill-opacity="0.96470588" transform="matrix(1.4878 0 0 1.48684 0 3.05176e-05)" d="M153.999 142.561C156.395 141.65 160.391 140.865 162.851 141.97C163.326 142.184 163.324 142.244 163.486 142.704C163.359 143.112 163.273 143.562 162.966 143.874C161.406 145.012 158.069 145.257 156.177 145.089C155.348 145.015 154.557 144.939 153.989 144.272C153.743 143.593 153.815 143.235 153.999 142.561Z"/>
	<path fill="white" transform="matrix(1.4878 0 0 1.48684 0 3.05176e-05)" d="M153.999 142.561C154.822 143.44 154.512 144.267 155.189 144.283C156.565 144.315 158.534 144.465 159.85 144.139L159.754 143.843C158.813 143.837 157.165 144.119 156.379 143.64L156.283 143.119C157.922 142.634 159.927 142.619 161.632 142.627L161.695 143.305C162.098 143.633 162.478 143.734 162.966 143.874C161.406 145.012 158.069 145.257 156.177 145.089C155.348 145.015 154.557 144.939 153.989 144.272C153.743 143.593 153.815 143.235 153.999 142.561Z"/>
	<path fill="white" fill-opacity="0.97254902" transform="matrix(1.4878 0 0 1.48684 0 3.05176e-05)" d="M141.145 142.371C143.419 142.261 149.199 141.782 150.956 143.184C151.29 143.451 151.235 143.594 151.289 143.999C150.867 144.748 150.839 145.159 149.991 145.399C147.87 145.325 143.048 146.049 141.321 145.058C140.677 144.688 140.493 144.379 140.321 143.673C140.533 143.135 140.691 142.76 141.145 142.371Z"/>
	<path fill="white" fill-opacity="0.98039216" transform="matrix(1.4878 0 0 1.48684 0 3.05176e-05)" d="M122.84 135.188C123.666 135.201 125.089 135.694 125.752 135.526C127.224 135.238 130.104 134.963 131.531 135.346C133.822 135.96 132.973 139.533 133.787 141.277C134.261 142.292 135.638 143.301 136.285 144.404C135.387 145.036 134.619 145.78 133.831 146.538L133.632 146.62L133.63 146.988L134.062 146.948L133.633 147.237C133.484 148.374 133.874 149.544 133.636 150.701C133.514 151.294 133.186 151.771 132.642 152.053C131.004 152.902 120.197 152.642 118.08 151.892C117.566 151.497 117.379 150.986 117.214 150.378C116.329 147.103 115.983 138.837 117.676 135.903C118.802 134.916 121.427 135.209 122.84 135.188ZM120.576 150.767L120.356 151.323C120.999 151.87 122.174 151.716 122.981 151.698C122.747 151.202 122.646 151.151 122.128 150.968C121.641 150.796 121.088 150.791 120.576 150.767Z"/>
	<path fill="white" fill-opacity="0.94901961" transform="matrix(1.4878 0 0 1.48684 0 3.05176e-05)" d="M120.576 150.767C121.088 150.791 121.641 150.796 122.128 150.968C122.646 151.151 122.747 151.202 122.981 151.698C122.174 151.716 120.999 151.87 120.356 151.323L120.576 150.767Z"/>
	<path fill="white" fill-opacity="0.98431373" transform="matrix(1.4878 0 0 1.48684 0 3.05176e-05)" d="M163.965 109.993C161.098 109.94 158.132 108.404 156.152 106.362Q155.765 105.963 155.42 105.528Q155.075 105.093 154.774 104.625Q154.474 104.158 154.221 103.663Q153.969 103.169 153.766 102.651Q153.564 102.134 153.414 101.599Q153.264 101.064 153.168 100.517Q153.072 99.9696 153.031 99.4156Q152.989 98.8617 153.003 98.3063C153.069 95.2347 154.459 92.2367 156.682 90.1282C158.843 88.0782 161.649 86.9652 164.633 87.0549C167.45 87.1395 170.614 88.2903 172.566 90.3642C174.508 92.4275 175.756 98.0904 176.217 98.3905C176.595 98.6366 177.559 98.7399 178.009 98.7559C180.185 98.833 184.187 97.3837 185.811 99.1304C186.444 99.8116 186.747 100.786 186.893 101.685C187.311 104.253 187.009 107.141 186.997 109.744C186.981 113.131 187.136 116.555 186.932 119.934C186.897 120.518 186.837 121.047 186.632 121.599C185.746 122.138 184.529 122.255 183.508 122.332C181.071 122.518 178.583 122.246 176.14 122.242C172.844 122.238 168.877 122.953 165.69 122.144C165.062 121.984 164.644 121.604 164.191 121.16C163.237 118.174 162.676 112.934 163.965 109.993ZM175.54 102.89C174.12 103.392 173.695 105.386 172.729 106.459C171.671 107.634 170.039 108.205 168.916 109.412C167.882 112.228 167.937 114.478 168.028 117.422C172.852 117.762 177.785 117.538 182.623 117.517C182.432 113.185 182.065 107.639 182.785 103.409L182.583 103.167C180.905 103.158 179.106 103.274 177.449 103.037C176.7 103.227 176.258 103.108 175.54 102.89ZM163.965 109.993C162.676 112.934 163.237 118.174 164.191 121.16C164.285 121.02 164.308 120.998 164.375 120.86C164.768 120.06 164.784 111.103 164.406 110.012L163.965 109.993ZM171.355 118.07C170.866 118.151 170.049 118.154 169.698 118.489C172.938 119.027 176.754 118.633 180.059 118.614C180.764 118.681 181.41 118.815 182.041 118.421C178.752 117.771 174.742 118.186 171.355 118.07Z"/>
	<path fill="white" transform="matrix(1.4878 0 0 1.48684 0 3.05176e-05)" d="M175.54 102.89L174.923 102.543C175.807 102.04 179.705 102.624 180.95 102.639C179.888 103.057 178.577 102.861 177.449 103.037C176.7 103.227 176.258 103.108 175.54 102.89Z"/>
	<path fill="white" fill-opacity="0.9254902" transform="matrix(1.4878 0 0 1.48684 0 3.05176e-05)" d="M171.355 118.07C174.742 118.186 178.752 117.771 182.041 118.421C181.41 118.815 180.764 118.681 180.059 118.614C176.754 118.633 172.938 119.027 169.698 118.489C170.049 118.154 170.866 118.151 171.355 118.07Z"/>
	<path fill="white" fill-opacity="0.96470588" transform="matrix(1.4878 0 0 1.48684 0 3.05176e-05)" d="M163.965 109.993L164.406 110.012C164.784 111.103 164.768 120.06 164.375 120.86C164.308 120.998 164.285 121.02 164.191 121.16C163.237 118.174 162.676 112.934 163.965 109.993Z"/>
</svg>
