<?xml version="1.0" encoding="utf-8" ?>
<svg xmlns="http://www.w3.org/2000/svg" xmlns:xlink="http://www.w3.org/1999/xlink" width="512" height="512">
	<path fill="white" d="M254.456 39.1209Q254.786 39.1147 255.117 39.1154C264.146 39.1617 269.308 40.4449 275.826 46.9604C279.416 47.5581 283.158 47.5251 286.79 47.8125Q296.269 48.5276 305.651 50.061C345.269 56.5148 379.36 73.3552 407.788 101.792Q409.618 103.62 411.402 105.493Q413.186 107.366 414.923 109.282Q416.661 111.198 418.35 113.157Q420.04 115.115 421.681 117.115Q423.322 119.114 424.914 121.153Q426.505 123.192 428.046 125.27Q429.586 127.348 431.075 129.463Q432.565 131.578 434.001 133.729Q435.438 135.88 436.821 138.065Q438.204 140.251 439.533 142.47Q440.862 144.689 442.136 146.94Q443.41 149.191 444.628 151.473Q445.846 153.755 447.008 156.066Q448.17 158.377 449.274 160.716Q450.379 163.055 451.425 165.42Q452.472 167.786 453.46 170.176Q454.448 172.566 455.377 174.981Q456.306 177.395 457.175 179.831Q458.044 182.267 458.853 184.724Q459.662 187.181 460.41 189.657Q461.159 192.133 461.846 194.626Q462.533 197.12 463.158 199.63Q463.784 202.14 464.348 204.664Q464.911 207.188 465.412 209.726Q465.914 212.264 466.352 214.813Q466.791 217.362 467.167 219.921Q467.543 222.48 467.856 225.048Q468.168 227.615 468.418 230.19Q468.667 232.764 468.853 235.344Q469.039 237.924 469.162 240.508Q469.284 243.092 469.343 245.677Q469.402 248.263 469.397 250.85C469.297 308.791 445.517 367.377 404.316 408.275C365.762 446.545 314.313 466.421 260.219 466.161C246.842 466.076 233.472 464.382 220.279 462.284C176.662 455.349 137.051 440.523 104.613 409.717C70.3134 377.144 46.4169 325.823 45.2274 278.375C43.6378 214.971 72.5921 150.765 115.927 105.311C128.317 92.3165 142.703 80.8853 157.722 71.0966C189.285 50.525 216.483 40.0522 254.456 39.1209ZM264.489 63.125Q253.973 63.3538 243.484 64.1511C239.208 64.4999 234.931 65.0479 230.645 65.2203C227.268 65.3561 224.088 64.0429 220.703 64.6206C215.699 65.4747 210.431 67.3634 205.606 68.954C175.629 78.8362 148.915 96.7039 126.931 119.197C87.7648 159.27 61.9531 217.121 62.5827 273.524Q62.6717 282.309 63.7123 291.033Q64.753 299.757 66.7331 308.316C68.9048 317.558 72.0965 326.476 75.7538 335.226C84.4943 356.137 95.9892 375.378 112.292 391.276C120.857 399.627 130.502 406.83 140.523 413.331C168.885 431.731 199.665 441.924 233.127 446.303C238.808 447.046 244.485 447.455 250.188 447.943C261.943 448.495 273.606 448.462 285.316 447.096C321.91 442.828 358.558 427.018 385.887 402.117Q387.75 400.417 389.57 398.671Q391.391 396.925 393.167 395.135Q394.944 393.345 396.676 391.512Q398.408 389.678 400.094 387.803Q401.781 385.927 403.42 384.01Q405.059 382.094 406.651 380.137Q408.243 378.181 409.785 376.185Q411.328 374.19 412.821 372.157Q414.314 370.125 415.757 368.056Q417.199 365.987 418.59 363.883Q419.981 361.779 421.319 359.641Q422.658 357.503 423.943 355.333Q425.229 353.163 426.46 350.962Q427.691 348.761 428.868 346.53Q430.045 344.299 431.166 342.04Q432.287 339.781 433.352 337.495Q434.417 335.208 435.425 332.896Q436.434 330.585 437.385 328.249Q438.336 325.913 439.229 323.554Q440.122 321.195 440.956 318.815Q441.791 316.435 442.566 314.035Q443.341 311.635 444.057 309.216Q444.773 306.798 445.429 304.363Q446.085 301.927 446.681 299.477Q447.277 297.026 447.812 294.561Q448.347 292.096 448.821 289.619Q449.295 287.142 449.708 284.654Q450.12 282.165 450.471 279.668Q450.823 277.17 451.112 274.665Q451.401 272.159 451.629 269.647Q451.856 267.135 452.022 264.619Q452.187 262.102 452.29 259.582Q452.408 257.226 452.469 254.868Q452.529 252.51 452.531 250.152Q452.534 247.793 452.478 245.435Q452.422 243.077 452.309 240.721Q452.195 238.365 452.023 236.013Q451.851 233.66 451.622 231.313Q451.392 228.965 451.105 226.624Q450.818 224.283 450.473 221.95Q450.128 219.616 449.726 217.292Q449.324 214.968 448.864 212.654Q448.405 210.341 447.889 208.039Q447.373 205.738 446.8 203.449Q446.228 201.161 445.599 198.888Q444.97 196.615 444.286 194.357Q443.601 192.1 442.862 189.861Q442.122 187.621 441.327 185.4Q440.532 183.179 439.683 180.979Q438.834 178.778 437.931 176.599Q437.028 174.42 436.071 172.264Q435.115 170.108 434.106 167.976Q433.096 165.844 432.035 163.738Q430.974 161.632 429.861 159.552Q428.748 157.472 427.584 155.421Q426.42 153.369 425.206 151.347Q423.992 149.324 422.729 147.333Q421.466 145.341 420.154 143.381Q418.842 141.42 417.482 139.493Q416.122 137.566 414.715 135.673Q413.308 133.78 411.855 131.922Q410.402 130.064 408.904 128.242Q407.406 126.42 405.863 124.636Q404.32 122.852 402.734 121.106Q401.534 119.781 400.307 118.48Q399.079 117.18 397.826 115.905Q396.573 114.629 395.294 113.38Q394.015 112.13 392.711 110.907Q391.407 109.683 390.079 108.487Q388.75 107.29 387.398 106.121Q386.045 104.951 384.669 103.81Q383.293 102.668 381.894 101.555Q380.495 100.441 379.074 99.3562Q377.652 98.2714 376.209 97.2156Q374.766 96.1598 373.302 95.1336Q371.838 94.1074 370.353 93.1111Q368.868 92.1148 367.364 91.1489Q365.859 90.183 364.335 89.2478Q362.811 88.3126 361.269 87.4086Q359.726 86.5046 358.165 85.6321Q356.605 84.7596 355.027 83.9189Q353.448 83.0783 351.854 82.2699Q350.259 81.4615 348.648 80.6856Q347.037 79.9098 345.411 79.1668Q343.784 78.4239 342.143 77.7141Q340.502 77.0043 338.847 76.328Q337.192 75.6517 335.523 75.0091Q333.855 74.3665 332.173 73.758Q330.492 73.1495 328.799 72.5752Q327.106 72.0009 325.401 71.4612Q323.696 70.9214 321.981 70.4164Q320.266 69.9114 318.541 69.4413Q316.816 68.9712 315.081 68.5363Q313.347 68.1013 311.604 67.7017Q309.862 67.302 308.111 66.9379Q306.361 66.5737 304.603 66.2452C295.11 64.4912 285.585 63.6733 275.949 63.2507Q270.221 63.0165 264.489 63.125Z"/>
	<path fill="white" d="M308.682 295.589C322.05 293.765 333.974 301.411 343.064 310.357C347.704 314.923 352.489 320.488 358.53 323.21C366.01 326.581 371.686 322.141 375.951 324.535C377.525 325.419 378.576 326.895 379.051 328.622C379.669 330.871 379.427 333.379 378.217 335.389C376.729 337.859 374.09 339.145 371.368 339.771C359.451 342.512 347.54 335.75 339.082 327.931C334.063 323.291 329.536 317.866 323.681 314.24C318.395 310.967 312.644 310.311 306.634 311.748Q305.399 312.036 304.204 312.463Q303.009 312.889 301.87 313.449Q300.731 314.008 299.663 314.693Q298.595 315.378 297.612 316.179C287.42 324.46 289.124 338.985 286.781 350.597C285.873 355.097 284.31 359.396 281.866 363.296C277.605 370.093 270.992 374.956 263.132 376.688C250.014 379.579 231.471 376.805 220.158 369.437C204.231 359.064 203.077 342.796 199.542 325.935C198.814 322.812 197.759 317.563 194.802 315.8C192.714 314.556 189.736 314.816 187.451 315.385C176.07 318.22 169.808 331.498 167.156 341.787C166.319 345.032 165.739 350.306 163.952 353.085C163.014 354.544 161.594 355.576 159.883 355.911C157.396 356.399 154.87 355.475 152.846 354.061C151.354 353.019 150.509 351.504 150.25 349.714C149.833 346.819 150.818 343.657 151.528 340.873C153.909 331.541 157.112 322.594 162.96 314.82C168.798 307.057 177.961 300.839 187.72 299.53C192.427 298.898 197.201 299.564 201.451 301.724C221.81 312.076 209.89 342.753 227.132 355.723C235.109 361.723 248.188 363.469 257.833 361.986C273.658 359.552 272.285 341.419 274.472 329.344C275.703 322.549 277.824 315.858 281.965 310.243C288.389 301.533 298.241 297.165 308.682 295.589Z"/>
	<path fill="white" d="M197.216 127.853Q198.299 127.823 199.383 127.846Q200.467 127.868 201.548 127.942Q202.629 128.017 203.706 128.143Q204.782 128.269 205.851 128.447Q206.92 128.625 207.98 128.855Q209.039 129.084 210.086 129.364Q211.133 129.644 212.166 129.973Q213.198 130.303 214.213 130.683Q215.229 131.062 216.225 131.489Q217.22 131.917 218.195 132.392Q219.169 132.867 220.119 133.388Q221.069 133.91 221.993 134.476Q222.917 135.043 223.813 135.653Q224.709 136.263 225.574 136.916Q226.44 137.568 227.272 138.262Q228.105 138.955 228.904 139.688C237.125 147.19 242.542 157.664 242.95 168.873C243.316 178.903 239.349 188.606 232.558 195.908Q231.748 196.764 230.897 197.578Q230.046 198.393 229.155 199.164Q228.265 199.936 227.337 200.662Q226.41 201.389 225.448 202.069Q224.485 202.749 223.491 203.38Q222.496 204.012 221.471 204.593Q220.447 205.175 219.395 205.705Q218.343 206.236 217.266 206.713Q216.189 207.191 215.089 207.615Q213.99 208.039 212.871 208.408Q211.752 208.777 210.616 209.09Q209.48 209.403 208.331 209.66Q207.181 209.917 206.02 210.116Q204.858 210.316 203.689 210.458Q202.519 210.6 201.344 210.684Q200.169 210.768 198.991 210.794Q195.921 210.835 192.885 210.381C183.089 208.95 174.313 204.334 168.396 196.262C163.147 189.103 161.699 181.478 163.069 172.812C160.508 172.776 157.99 172.23 155.998 170.507C154.514 169.223 153.674 167.427 153.577 165.471C153.233 158.524 160.019 147.999 164.439 142.952C172.803 133.399 184.789 128.702 197.216 127.853ZM195.129 143.338C187.147 144.199 181.062 147.648 175.67 153.527C183.461 148.947 191.637 147.134 200.537 149.452C206.207 150.928 211.857 154.227 214.85 159.42C217.171 163.447 217.45 168.264 216.205 172.686C214.971 177.068 212.035 181.413 207.982 183.635C205.611 184.935 202.887 185.377 200.277 184.573C198.046 183.885 195.686 182.188 194.574 180.102C193.587 178.249 193.558 175.654 194.257 173.696C195.469 170.301 198.738 168.39 201.62 166.567C196.793 164.201 193.26 163.558 187.963 164.588L187.63 164.706C183.977 166.04 180.852 168.699 179.223 172.271Q178.926 172.934 178.695 173.623Q178.465 174.313 178.304 175.021Q178.142 175.73 178.051 176.451Q177.96 177.172 177.941 177.898Q177.921 178.625 177.974 179.349Q178.026 180.074 178.149 180.791Q178.272 181.507 178.466 182.207Q178.659 182.908 178.92 183.586C180.674 188.082 184.411 191.519 188.806 193.391C195.51 196.246 203.508 195.627 210.15 192.913C216.973 190.126 223.303 184.759 226.185 177.858C228.481 172.363 228.259 166.259 226.006 160.785C223.125 153.785 217.128 148.381 210.19 145.53C205.807 143.729 199.855 142.501 195.129 143.338Z"/>
	<path fill="white" d="M313.172 127.849C314.473 127.704 315.836 127.679 317.143 127.702C329.11 127.904 340.709 133.32 348.977 141.889C353.862 146.952 361.099 157.978 360.785 165.265C360.7 167.259 359.919 169.109 358.43 170.458C356.516 172.194 354.006 172.795 351.492 172.721L351.574 173.493C352.533 182.681 350.901 190.356 344.946 197.631C338.595 205.39 329.409 209.626 319.563 210.647C307.761 211.648 295.34 207.289 286.167 199.95C278.031 193.441 272.66 184.263 271.539 173.865C270.383 163.14 274.013 152.727 280.799 144.458C288.868 134.626 300.634 129.049 313.172 127.849ZM313.437 143.344C305.069 144.237 297.712 147.824 292.345 154.438C288.286 159.439 286.132 165.963 286.825 172.409C287.527 178.931 291.435 184.542 296.507 188.521C302.827 193.479 311.277 196.035 319.279 195.027C324.808 194.33 330.092 191.809 333.552 187.345Q334.005 186.769 334.396 186.15Q334.788 185.531 335.115 184.875Q335.442 184.219 335.7 183.533Q335.959 182.848 336.146 182.139Q336.333 181.431 336.447 180.707Q336.562 179.984 336.602 179.252Q336.642 178.52 336.607 177.788Q336.573 177.057 336.464 176.332C335.932 172.533 333.733 168.806 330.605 166.576C327.304 164.223 323.205 163.632 319.259 164.152C316.357 164.812 314.437 165.717 312.098 167.577C315.283 168.824 319.001 170.427 320.405 173.816C321.144 175.6 320.985 177.558 320.233 179.31C319.273 181.548 317.346 183.393 315.084 184.286C312.181 185.434 308.665 184.984 305.896 183.666C301.979 181.802 299.175 177.989 297.852 173.923Q297.584 173.117 297.397 172.288Q297.211 171.459 297.109 170.615Q297.006 169.772 296.988 168.922Q296.971 168.073 297.038 167.226Q297.105 166.379 297.257 165.543Q297.408 164.707 297.642 163.89Q297.877 163.073 298.191 162.284Q298.506 161.495 298.898 160.741C301.821 155.171 307.162 151.637 313.073 149.861Q314.263 149.499 315.479 149.237Q316.695 148.975 317.928 148.813Q319.161 148.652 320.403 148.593Q321.646 148.533 322.889 148.577Q324.132 148.62 325.367 148.765Q326.602 148.91 327.821 149.157Q329.04 149.403 330.235 149.749Q331.43 150.095 332.592 150.538C334.584 151.287 336.42 152.299 338.36 153.148C333.629 147.521 325.981 143.873 318.701 143.272C316.999 143.132 315.129 143.068 313.437 143.344Z"/>
</svg>
