<?xml version="1.0" encoding="utf-8" ?>
<svg xmlns="http://www.w3.org/2000/svg" xmlns:xlink="http://www.w3.org/1999/xlink" width="279" height="279">
	<path fill="white" transform="scale(0.544922 0.544922)" d="M336.584 113.123C356.172 112.624 372.943 115.28 391.141 122.599C376.937 129.04 362.826 131.446 347.313 132.286C333.09 133.185 315.844 131.084 302.293 126.556C298.934 125.434 295.719 123.967 292.514 122.472C296.494 121.69 300.513 119.436 304.462 118.26C314.993 115.125 325.639 113.693 336.584 113.123Z"/>
	<path fill="white" transform="scale(0.544922 0.544922)" d="M336.503 169.854C356.242 169.145 372.821 172.479 391.141 179.591C377 186.217 361.9 188.632 346.375 189.056C327.1 189.686 309.284 187.061 291.527 179.508C295.549 178.695 300.099 176.349 304.187 175.136C314.938 171.946 325.343 170.516 336.503 169.854Z"/>
	<path fill="white" transform="scale(0.544922 0.544922)" d="M281.384 373.112C290.539 372.686 299.836 372.901 308.997 373.188C334.096 373.976 359.211 376.38 383.582 382.643C380.597 383.06 377.67 383.94 374.739 384.636Q368.879 385.999 362.949 387.015Q349.641 389.174 336.216 390.418Q322.791 391.661 309.313 391.983C290.608 392.413 271.763 392.324 253.126 390.525C247.224 389.955 241.318 389.038 235.451 388.176C225.76 386.752 215.984 385.029 206.534 382.437C214.11 381.204 221.506 378.877 229.104 377.576C246.398 374.615 263.87 373.649 281.384 373.112Z"/>
	<path fill="white" transform="scale(0.544922 0.544922)" d="M286.337 275.362C314.551 274.712 343.175 275.575 371.015 280.5C377.818 281.704 384.532 283.321 391.244 284.943C365.684 291.583 339.461 293.372 313.188 294.5C301.711 294.941 290.329 294.74 278.859 294.269C255.167 293.296 231.461 290.78 208.465 284.746C212.185 284.391 215.774 283.232 219.404 282.386C224.332 281.239 229.388 280.23 234.386 279.446C251.483 276.766 269.053 275.953 286.337 275.362Z"/>
	<path fill="white" transform="scale(0.544922 0.544922)" d="M248.396 323.619C259.894 323.388 271.451 323.989 282.948 324.276C310.972 324.975 339.141 326.23 366.975 329.673C374.896 330.652 383.591 331.299 391.194 333.77C385.352 334.074 379.654 335.26 373.877 336.11Q362.296 337.748 350.658 338.916Q307.708 343.014 264.562 342.985C241.208 343.146 217.713 343.259 194.409 341.59C180.058 340.562 165.602 339.26 151.319 337.535C141.228 336.316 131.171 334.71 121.07 333.619C128.802 331.434 137.618 330.559 145.606 329.484C164.309 326.969 182.829 325.816 201.657 324.988Q225.016 323.935 248.396 323.619Z"/>
	<path fill="white" transform="scale(0.544922 0.544922)" d="M245.184 226.123Q273.119 225.663 301.034 226.829Q328.949 227.996 356.749 230.784C368.274 232.043 379.681 233.848 391.131 235.63C361.579 240.818 331.968 243.487 301.993 244.697C290.309 245.168 278.583 245.227 266.892 245.454C246.069 245.642 225.117 245.668 204.318 244.648C191.389 244.014 178.425 242.721 165.546 241.458C150.589 239.992 135.656 238.312 120.877 235.542Q155.37 230.373 190.16 227.896C195.514 227.551 200.889 227.465 206.249 227.253Q225.706 226.321 245.184 226.123Z"/>
	<path fill="white" transform="scale(0.544922 0.544922)" d="M134.401 62.0761C139.601 61.5728 145.044 62.269 150.255 62.5977L174.429 64.0804Q185.357 64.7411 196.291 65.2736C200.486 65.4727 204.867 65.4262 209.026 65.9665C211.214 66.2507 213.612 67.0491 215.541 68.1427C216.296 68.571 216.563 68.9273 216.797 69.7508C215.251 69.5009 213.27 67.4569 210.855 67.0571C206.505 66.3368 201.457 66.7543 197.029 66.8403C182.067 67.1308 167.058 68.3515 152.142 69.5728C146.988 69.9948 141.629 69.9157 136.539 70.7702C135.481 70.9479 134.42 71.2152 133.54 71.8552C131.509 73.3322 129.92 75.7958 129.644 78.3146C129.162 82.7088 130.331 89.1665 130.721 93.6815C131.269 100.014 131.591 106.402 131.876 112.751Q132.444 126.411 132.861 140.077C133.016 145.759 132.574 163.551 134.008 167.385C134.142 167.742 134.305 168.066 134.554 168.358C135.413 169.37 137.016 169.84 138.295 169.936C142.581 170.256 146.897 170.336 151.189 170.576L185.943 172.459C192.211 172.791 202.642 174.146 208.342 173.618C210.873 173.384 212.355 172.736 214.276 171.013C218.637 167.102 218.246 160.885 218.559 155.504C219.033 151.764 219.168 147.94 219.426 144.177Q220.195 133.777 220.665 123.36C220.894 118.417 220.91 113.276 221.63 108.38C221.926 111.741 221.796 115.134 221.807 118.506Q221.867 125.111 222.182 131.708C222.627 139.577 223.422 147.436 223.891 155.309C224.14 159.482 224.502 163.91 224.117 168.079C223.872 170.735 222.816 173.376 221.367 175.604C218.705 179.696 214.183 183.092 209.359 184.089C205.029 184.984 200.529 184.942 196.13 185.247Q180.356 186.264 164.568 187.019L145.037 188.022C141.222 188.226 137.064 188.816 133.283 188.396C129.318 187.955 125.258 186.32 121.951 184.122C116.743 180.662 112.753 175.167 111.577 168.975C110.459 163.094 111.236 155.323 111.385 149.209Q111.941 129.347 113.234 109.52C113.867 100.03 114.415 90.1126 116.337 80.7883C117.097 77.0988 118.207 73.7974 120.371 70.6858C123.808 65.7431 128.583 63.155 134.401 62.0761Z"/>
	<path fill="white" transform="scale(0.544922 0.544922)" d="M83.0514 17.3505C87.8236 17.0509 92.6904 17.2738 97.4726 17.3342Q109.636 17.4384 121.794 17.813L175.483 19.1764L219.659 20.3544C229.414 20.5851 240.373 20.4045 249.946 21.6879C245.476 22.0879 240.93 21.9382 236.445 21.9555Q226.872 21.9516 217.305 22.2915L130.181 24.7148Q113.93 24.9216 97.6894 25.5311C93.0078 25.7155 87.96 25.5766 83.355 26.4653C79.4991 27.2095 76.52 28.873 73.7509 31.6628C70.1017 35.3392 68.2402 39.7631 67.7734 44.8793C67.4076 48.8899 67.6896 53.0707 67.7741 57.0978Q67.9771 65.6126 68.021 74.1298L69.016 144.664Q71.2635 265.446 71.5145 386.249C76.9532 388.231 87.0322 385.4 92.8902 384.535C98.1295 383.761 103.39 383.3 108.641 382.646C119.68 381.271 133.251 378.689 144.148 381.614C156.974 385.057 167.357 396.29 168.839 409.667C169.535 415.948 168.29 425.898 167.77 432.488C166.93 443.123 165.831 453.821 164.086 464.349C163.773 466.236 162.122 473.598 162.818 474.808C163.808 475.125 164.84 475.172 165.873 475.211C171.971 475.444 178.146 475.259 184.252 475.259L218.262 475.259L322.439 475.253L391.477 475.25L412.67 475.274C416.59 475.281 420.637 475.493 424.541 475.156C428.732 474.794 432.879 473.388 435.97 470.448C439.297 467.283 440.353 463.451 440.473 458.986Q441.361 407.175 441.29 355.357Q441.412 286.241 442.541 217.133L444.036 98.5844L444.396 61.7232C444.428 55.8081 444.806 49.6248 444.323 43.737C443.957 39.2864 441.476 34.9516 438.416 31.7679C436.214 29.4754 433.609 27.6991 430.571 26.7214C422.995 24.2823 400.709 24.795 391.323 24.655C358.055 23.5754 324.759 23.4245 291.492 22.1879C285.603 21.9689 279.703 22.0123 273.81 21.9829C270.141 21.9647 266.374 22.1265 262.743 21.5499C275.547 20.4046 288.651 20.6226 301.503 20.2463Q337.951 19.1422 374.409 18.4223Q392.319 18.0609 410.232 17.9437C416.603 17.9006 423.475 17.4139 429.761 18.3355C434.42 19.0184 438.876 21.4634 442.519 24.3661C448.739 29.3213 452.438 35.7359 453.335 43.6477C454.071 50.131 453.649 57.0097 453.741 63.5512Q454.039 85.8306 454.093 108.112L455.23 232.633L456.534 390.013L456.856 437.226C456.924 445.889 457.452 454.88 456.825 463.505C456.337 470.213 454.252 476.209 449.99 481.48C443.276 489.783 433.223 493.471 422.884 494.521C417.971 495.019 412.914 494.819 407.981 494.819L384.851 494.808L310.752 494.806L208.719 494.81L175.927 494.814C170.225 494.819 164.409 495.099 158.72 494.779C156.057 494.63 153.969 493.683 151.943 491.992C147.702 488.452 143.954 483.955 140.053 480.023L113.764 453.457L77.1574 416.473C70.735 410.014 64.0202 403.705 57.8565 397.012C56.8935 395.966 55.3403 394.369 55.236 392.913C54.7382 385.961 55.059 378.851 55.0708 371.875L55.132 335.214Q55.4801 265.226 56.8656 195.25L58.2582 92.773Q58.396 76.7542 58.7573 60.7391C58.8546 54.5333 58.6402 48.1663 59.3144 41.9928C59.8627 36.9715 62.2903 32.0153 65.3512 28.0512C69.5723 22.5844 76.1226 18.2361 83.0514 17.3505ZM78.7475 392.445C81.2115 395.821 85.6549 399.549 88.7279 402.567L108.855 422.405L138.3 451.476C143.216 456.347 148.486 462.218 153.756 466.589L154.417 466.606Q151.8 451.315 150.536 435.853C149.914 428.582 150.014 415.797 147.918 409.348C146.926 406.297 144.789 403.423 142.155 401.587C140.457 400.404 138.735 399.857 136.729 399.48C132.705 398.724 128.494 398.843 124.415 398.597C119.176 398.281 113.938 397.736 108.706 397.301C105.083 397 101.41 396.877 97.8082 396.381Q91.5985 395.489 85.5 394.017C83.2695 393.488 81.0145 392.77 78.7475 392.445Z"/>
</svg>
