<?xml version="1.0" encoding="utf-8" ?>
<svg xmlns="http://www.w3.org/2000/svg" xmlns:xlink="http://www.w3.org/1999/xlink" width="512" height="512">
	<path fill="white" d="M272.591 49.3612Q283.407 48.9068 294.212 49.5619C335.996 52.2806 376.116 70.6875 403.827 102.353C440.978 144.804 459.863 213.503 456.093 269.229Q455.643 275.197 454.869 281.132Q454.096 287.067 453.001 292.951Q451.907 298.835 450.496 304.651Q449.084 310.467 447.359 316.198Q445.634 321.929 443.6 327.558Q441.567 333.187 439.231 338.697Q436.896 344.208 434.265 349.583Q431.634 354.959 428.715 360.184C424.866 366.958 420.437 373.368 415.983 379.753C407.608 391.76 398.755 402.753 387.666 412.39C369.558 428.127 343.945 442.27 321.186 449.922C306.796 454.76 291.83 457.953 276.844 460.275C261.124 462.711 246.597 464.02 230.688 462.918C197.696 461.126 164.67 453.038 137.236 434.071C90.5252 401.776 62.4594 340.453 52.5861 286.03C43.4389 235.609 49.0213 186.717 78.773 143.869C93.4612 122.715 112.932 104.452 132.902 88.3382C141.116 81.7109 149.632 75.1675 158.904 70.0692C166.708 65.7777 175.118 62.4179 183.912 60.8602C189.815 59.8147 198.317 58.9191 203.997 61.3287C205.042 61.7719 206.006 62.5092 206.935 63.1547C212.139 61.7725 217.217 59.5879 222.409 58.0606C238.651 53.2834 255.636 49.9463 272.591 49.3612ZM277.261 64.6222C250.142 65.5542 224.316 71.9145 199.528 82.9006C195.476 84.6964 191.512 86.5641 187.576 88.6077C184.243 90.338 180.418 93.1266 176.74 93.9298Q176.313 94.0227 175.879 94.0641Q175.444 94.1055 175.007 94.0947Q174.571 94.0839 174.138 94.0212Q173.706 93.9584 173.285 93.8446Q172.863 93.7308 172.458 93.5675Q172.053 93.4042 171.67 93.1937Q171.288 92.9833 170.933 92.7287Q170.578 92.4742 170.256 92.1791C168.581 90.6241 167.784 88.3326 167.733 86.0847C167.705 84.8504 168.029 83.6537 168.323 82.4652C123.225 110.301 80.8903 149.224 68.2557 202.657C55.1931 257.9 72.6292 326.492 102.008 373.958C124.262 409.914 152.406 432.358 193.853 442.1C201.302 443.851 208.969 445.318 216.583 446.093C271.843 451.82 328.422 439.274 372.031 403.749Q379.031 398.088 385.346 391.672Q391.661 385.256 397.211 378.167C419.727 349.229 436.374 306.433 440.074 269.967C445.2 219.439 427.595 154.977 395.332 115.459C370.777 85.3828 334.367 68.7432 296.176 65.067C289.964 64.4691 283.496 64.4853 277.261 64.6222Z"/>
	<path fill="white" d="M181.067 173.881C188.793 173.76 220.977 172.852 226.02 174.584C228.369 175.391 230.094 177.144 231.155 179.361C232.935 183.078 232.859 187.597 231.498 191.43C229.682 196.543 225.741 200.58 220.864 202.872C213.703 206.236 203.359 206.631 195.934 203.933C194.271 203.319 192.57 202.359 191.185 201.248C187.368 198.186 186.197 194.176 185.728 189.5Q173.971 189.547 162.215 189.744C158.165 189.795 153.732 190.205 149.73 189.666C148.041 189.438 146.564 189.012 145.24 187.899C143.719 186.621 142.99 184.863 142.856 182.908C142.699 180.602 143.253 178.092 144.876 176.368C145.845 175.338 146.946 174.799 148.322 174.535C152.243 173.78 156.615 174.129 160.609 174.093L181.067 173.881Z"/>
	<path fill="white" d="M303.728 173.882C311.054 173.682 318.412 173.75 325.741 173.743C330.919 173.739 336.386 173.448 341.522 174.11C342.826 174.278 343.978 174.596 345.122 175.253C347.532 176.637 348.989 178.952 349.682 181.6C350.862 186.112 349.944 190.939 347.573 194.907C344.557 199.956 339.678 203.091 334.036 204.506C326.121 206.491 317.053 206.366 309.917 202.094C305.61 198.671 303.954 194.949 303.324 189.578L279.237 189.781C275.104 189.816 270.387 190.351 266.335 189.593C265.077 189.358 263.756 188.675 262.802 187.826C261.272 186.466 260.55 184.573 260.475 182.554C260.394 180.368 261.108 177.966 262.64 176.361C263.624 175.329 264.695 174.844 266.077 174.582C270.261 173.79 275.048 174.172 279.321 174.131L303.728 173.882Z"/>
	<path fill="white" d="M282.811 330.123Q297.278 330.114 311.726 330.853C314.93 331.024 318.409 330.903 321.561 331.476C322.954 331.729 324.284 332.092 325.432 332.951C327.203 334.278 328.299 336.336 328.577 338.517C328.838 340.557 328.397 342.653 327.046 344.243C325.517 346.043 323.334 346.718 321.041 346.822C316.315 347.037 311.306 346.296 306.562 346.046C300.232 345.713 293.838 345.746 287.499 345.728C276.928 345.7 266.311 345.668 255.75 346.158C243.098 346.745 230.551 347.947 217.939 349.038C212.676 349.747 207.39 350.286 202.133 351.037C197.08 351.759 192.023 352.722 186.953 353.285C183.999 353.614 181.505 353.44 179.119 351.432C177.551 350.112 176.38 347.382 176.231 345.373C176.102 343.629 176.631 341.998 177.847 340.727C180.767 337.673 190.866 337.1 195.346 336.445Q217.069 333.282 238.964 331.7Q260.859 330.117 282.811 330.123Z"/>
</svg>
