<?xml version="1.0" encoding="utf-8" ?>
<svg xmlns="http://www.w3.org/2000/svg" xmlns:xlink="http://www.w3.org/1999/xlink" width="279" height="279">
	<path fill="white" transform="matrix(0.544922 0 0 0.544922 -6.10352e-05 0)" d="M465.804 78.5589C467.193 78.3828 468.402 78.3663 469.741 78.8339C470.732 79.1802 471.443 79.8106 471.886 80.7661C472.402 81.8792 472.52 83.197 472.345 84.4031C471.901 87.453 468.084 95.152 466.744 98.4929C470.634 97.3684 476.911 94.0547 480.742 96.1088C481.782 96.6664 482.402 97.5768 482.714 98.6982C483.118 100.147 483.083 101.796 482.275 103.101C481.695 104.038 480.839 104.727 479.877 105.24C477.269 106.629 473.999 107.371 471.184 108.28C467.329 109.525 463.45 110.947 459.517 111.915C458.591 112.013 457.642 111.999 456.749 111.719C455.437 111.309 454.425 110.602 453.852 109.325C452.099 105.418 456.484 96.0204 457.9 91.9075C454.859 92.9277 452.021 94.5731 448.968 95.4924C447.377 95.9716 445.47 96.1497 443.971 95.282C442.909 94.6669 442.295 93.6061 442.001 92.4414C441.616 90.9152 441.677 89.3828 442.512 88.0142C444.91 84.0846 460.862 79.7291 465.804 78.5589Z"/>
	<path fill="white" transform="matrix(0.544922 0 0 0.544922 -6.10352e-05 0)" d="M418.722 34.3208C419.766 34.2427 420.713 34.2614 421.707 34.6383C422.965 35.1151 424.117 35.9359 424.664 37.2015C425.169 38.3683 425.019 39.5 424.7 40.6959C423.693 44.4692 421.545 48.238 419.982 51.8273C418.339 55.6011 416.956 59.4803 415.56 63.3502C421.192 61.8059 426.755 59.229 432.459 58.0899C434.227 57.7369 435.863 57.6603 437.387 58.7654C438.507 59.5778 439.223 60.8816 439.405 62.2443Q439.439 62.4963 439.448 62.7504Q439.457 63.0045 439.441 63.2583Q439.424 63.512 439.383 63.7629Q439.341 64.0137 439.275 64.2593Q439.209 64.5048 439.119 64.7425Q439.029 64.9803 438.915 65.2079Q438.802 65.4355 438.666 65.6507Q438.531 65.866 438.375 66.0667C437.671 66.9773 436.68 67.5811 435.649 68.0561C433.374 69.104 430.767 69.6293 428.383 70.4163L417.18 74.0655C413.94 75.1376 410.45 76.5929 407.038 76.9248C406.523 76.844 405.988 76.7444 405.504 76.5466C404.244 76.0317 403.096 74.981 402.571 73.7182C400.868 69.6163 408.492 52.0482 410.329 47.5347Q405.242 49.0614 400.37 51.1775C397.857 52.272 395.243 53.7227 392.616 54.467C391.273 54.8476 389.954 54.7198 388.742 54.005C387.437 53.2353 386.385 51.84 386.052 50.3562C385.785 49.1668 386.065 47.9979 386.715 46.9813C389.939 41.939 412.366 35.6612 418.722 34.3208Z"/>
	<path fill="white" transform="matrix(0.544922 0 0 0.544922 -6.10352e-05 0)" d="M243.387 30.8634C264.221 30.286 284.702 32.2689 304.91 37.4734Q307.464 38.1343 310.001 38.8575Q312.538 39.5807 315.056 40.3658Q317.575 41.1509 320.073 41.9974Q322.572 42.8439 325.049 43.7514Q327.526 44.6589 329.98 45.6267Q332.434 46.5946 334.863 47.6222Q337.293 48.6499 339.697 49.7367Q342.101 50.8236 344.477 51.969Q346.853 53.1143 349.201 54.3176Q351.549 55.5208 353.866 56.7811Q356.183 58.0415 358.469 59.3582Q360.755 60.6749 363.008 62.0472Q365.261 63.4195 367.48 64.8466Q369.699 66.2736 371.882 67.7546Q374.065 69.2355 376.211 70.7695Q378.357 72.3035 380.465 73.8895Q382.573 75.4756 384.641 77.1128Q386.71 78.75 388.738 80.4374Q390.766 82.1248 392.751 83.8613Q394.737 85.5978 396.68 87.3824Q398.623 89.167 400.521 90.9987Q402.42 92.8304 404.273 94.708Q406.126 96.5856 407.932 98.508Q409.739 100.43 411.498 102.396Q413.256 104.363 414.967 106.371Q416.677 108.38 418.337 110.429Q419.998 112.479 421.608 114.569Q423.217 116.659 424.776 118.788Q426.334 120.916 427.839 123.083Q429.345 125.249 430.797 127.451Q432.249 129.654 433.647 131.891Q435.044 134.128 436.387 136.399Q437.759 138.779 439.073 141.191Q440.387 143.604 441.641 146.048Q442.895 148.491 444.089 150.965Q445.283 153.439 446.416 155.942Q447.549 158.444 448.621 160.973Q449.692 163.503 450.701 166.058Q451.711 168.613 452.657 171.191Q453.603 173.77 454.486 176.371Q455.369 178.973 456.188 181.595Q457.007 184.217 457.761 186.858Q458.516 189.499 459.206 192.158Q459.895 194.817 460.52 197.493Q461.144 200.168 461.702 202.857Q462.261 205.547 462.754 208.249Q463.246 210.952 463.673 213.665Q464.099 216.379 464.458 219.102Q464.818 221.826 465.111 224.557Q465.404 227.288 465.63 230.026Q465.856 232.764 466.015 235.506Q466.174 238.248 466.265 240.994Q466.357 243.739 466.381 246.486Q466.406 249.233 466.363 251.98Q466.32 254.726 466.21 257.471Q466.1 260.216 465.922 262.957Q465.745 265.698 465.501 268.434Q465.256 271.171 464.945 273.9Q464.634 276.629 464.256 279.35Q463.878 282.071 463.433 284.782Q462.989 287.492 462.478 290.191Q461.967 292.89 461.391 295.576Q460.814 298.262 460.172 300.933Q459.529 303.604 458.822 306.258Q458.264 308.466 457.66 310.662Q457.057 312.858 456.408 315.04Q455.758 317.223 455.064 319.392Q454.369 321.561 453.63 323.715Q452.891 325.869 452.107 328.007Q451.323 330.145 450.494 332.266Q449.666 334.388 448.794 336.491Q447.922 338.595 447.006 340.68Q446.09 342.765 445.132 344.831Q444.173 346.897 443.171 348.942Q442.17 350.987 441.126 353.011Q440.082 355.035 438.996 357.037Q437.91 359.039 436.783 361.018Q435.656 362.996 434.488 364.951Q433.32 366.906 432.112 368.837Q430.904 370.767 429.655 372.672Q428.407 374.577 427.12 376.455Q425.832 378.333 424.506 380.185Q423.179 382.036 421.815 383.859Q420.45 385.682 419.048 387.477Q417.646 389.271 416.207 391.036Q414.768 392.801 413.292 394.536Q411.817 396.271 410.306 397.974Q408.794 399.678 407.248 401.35Q405.702 403.022 404.121 404.661Q402.54 406.3 400.926 407.906Q399.311 409.513 397.664 411.085Q396.016 412.657 394.337 414.195Q392.657 415.732 390.945 417.235Q389.234 418.737 387.492 420.204Q385.749 421.67 383.977 423.1Q382.205 424.53 380.403 425.923C372.235 432.166 363.579 437.535 354.726 442.731C364.696 441.777 374.605 440.392 384.601 439.616Q415.903 437.336 447.286 437.6C453.807 437.66 461.766 437.289 468.082 438.282C470.039 438.59 471.96 439.202 473.59 440.357C475.243 441.527 476.391 443.147 476.712 445.168C477.223 448.371 475.986 451.624 474.05 454.14C471.868 456.976 468.813 459.108 465.543 460.509C459.655 463.032 452.609 464.125 446.382 465.589Q411.145 474.138 375.139 478.42C366.533 479.525 357.794 480.101 349.135 480.648C326.373 482.085 303.143 481.439 280.393 480.144C271.127 479.617 261.899 479.287 252.658 478.319C219.126 474.805 182.199 466.421 152.398 450.279C146.715 447.201 141.67 443.427 136.253 439.945C125.03 432.731 114.434 425.204 104.413 416.367C61.6763 378.674 32.8804 323.045 29.3654 265.948Q29.1422 262.358 29.0462 258.762Q28.9502 255.167 28.9815 251.57Q29.0128 247.973 29.1714 244.38Q29.33 240.787 29.6156 237.201Q29.9012 233.616 30.3135 230.042Q30.7258 226.469 31.2643 222.913Q31.8028 219.357 32.4669 215.821Q33.1309 212.286 33.9196 208.777Q34.7083 205.268 35.6206 201.788Q36.533 198.309 37.5679 194.864Q38.6029 191.42 39.759 188.014Q40.9152 184.608 42.1912 181.245Q43.4672 177.882 44.8614 174.566Q46.2556 171.25 47.7662 167.986Q49.2768 164.722 50.9021 161.513Q52.5273 158.304 54.265 155.155C58.5584 147.303 63.4056 140.011 68.3974 132.6C75.8214 121.578 83.2487 111.149 92.0862 101.18C122.665 66.6852 165.496 43.3472 210.612 34.6496C221.5 32.5506 232.337 31.5204 243.387 30.8634ZM244.495 41.6089C189.268 43.9441 138.779 66.0842 101.182 106.975C62.8167 148.701 44.6391 200.682 47.0954 257.131Q47.2271 259.6 47.4188 262.065Q47.6105 264.529 47.862 266.989Q48.1136 269.448 48.4248 271.901Q48.736 274.353 49.1068 276.798Q49.4775 279.242 49.9075 281.677Q50.3375 284.111 50.8265 286.535Q51.3156 288.958 51.8634 291.369Q52.4112 293.78 53.0174 296.176Q53.6236 298.573 54.2879 300.954Q54.9522 303.336 55.6741 305.7Q56.396 308.065 57.1752 310.411Q57.9544 312.757 58.7904 315.084Q59.6264 317.411 60.5187 319.716Q61.4109 322.022 62.3589 324.305Q63.307 326.588 64.3102 328.848Q65.3134 331.107 66.3713 333.342Q67.4291 335.576 68.541 337.785Q69.6528 339.993 70.8179 342.173Q71.9831 344.354 73.2009 346.505Q74.4187 348.657 75.6884 350.778Q76.9582 352.899 78.2791 354.989Q79.6 357.079 80.9713 359.136Q82.3425 361.193 83.7634 363.216Q85.1843 365.239 86.6539 367.227Q88.1235 369.215 89.641 371.167Q91.1585 373.119 92.723 375.033Q94.2874 376.948 95.898 378.823Q97.5085 380.699 99.1641 382.535Q100.82 384.371 102.52 386.166Q104.219 387.961 105.962 389.715Q107.705 391.468 109.49 393.179Q111.275 394.889 113.101 396.556Q114.922 398.227 116.783 399.853Q118.644 401.479 120.544 403.06Q122.444 404.641 124.381 406.176Q126.318 407.711 128.292 409.198Q130.266 410.685 132.275 412.125Q134.284 413.564 136.328 414.954Q138.371 416.345 140.447 417.685Q142.523 419.026 144.631 420.316Q146.739 421.607 148.878 422.845Q151.017 424.084 153.184 425.271Q155.352 426.458 157.548 427.593Q159.744 428.727 161.966 429.808Q164.189 430.889 166.437 431.916Q168.685 432.943 170.957 433.915Q173.229 434.887 175.524 435.805Q177.819 436.722 180.136 437.583Q182.452 438.445 184.789 439.25Q187.126 440.056 189.481 440.805Q191.836 441.554 194.209 442.245Q196.582 442.937 198.97 443.571Q201.359 444.205 203.762 444.782Q206.166 445.358 208.582 445.877Q210.999 446.395 213.427 446.854Q215.856 447.314 218.294 447.715Q220.733 448.116 223.181 448.458Q225.629 448.8 228.084 449.083Q230.539 449.366 233 449.589Q235.462 449.813 237.928 449.977Q240.394 450.141 242.863 450.245Q245.333 450.35 247.804 450.395Q250.275 450.439 252.746 450.424Q255.218 450.409 257.688 450.335Q260.255 450.237 262.819 450.076Q265.382 449.915 267.941 449.69Q270.5 449.466 273.053 449.177Q275.605 448.889 278.15 448.538Q280.695 448.186 283.23 447.772Q285.765 447.358 288.289 446.88Q290.813 446.403 293.325 445.863Q295.836 445.324 298.333 444.722Q300.831 444.12 303.312 443.457Q305.794 442.793 308.258 442.068Q310.723 441.343 313.168 440.557Q315.614 439.771 318.039 438.925Q320.465 438.079 322.868 437.172Q325.272 436.266 327.652 435.301Q330.033 434.335 332.388 433.311Q334.744 432.286 337.074 431.204Q339.403 430.121 341.705 428.982Q344.007 427.842 346.28 426.645Q348.553 425.448 350.796 424.195Q353.039 422.943 355.249 421.635Q357.46 420.327 359.638 418.964Q361.816 417.602 363.959 416.186Q366.102 414.77 368.21 413.301Q370.317 411.832 372.388 410.312Q374.458 408.791 376.49 407.22Q378.522 405.648 380.514 404.027Q382.507 402.405 384.458 400.735Q386.41 399.065 388.319 397.346Q390.229 395.628 392.095 393.863Q393.961 392.098 395.783 390.287Q397.605 388.476 399.382 386.621Q401.158 384.765 402.888 382.866Q404.559 381.044 406.184 379.181Q407.809 377.318 409.388 375.416Q410.967 373.513 412.499 371.573Q414.031 369.632 415.514 367.655Q416.998 365.677 418.433 363.664Q419.867 361.65 421.252 359.602Q422.636 357.554 423.97 355.473Q425.304 353.391 426.587 351.277Q427.869 349.164 429.099 347.019Q430.329 344.875 431.506 342.701Q432.683 340.526 433.806 338.324Q434.929 336.122 435.998 333.892Q437.067 331.663 438.08 329.408Q439.094 327.153 440.052 324.874Q441.009 322.595 441.911 320.293Q442.813 317.991 443.657 315.668Q444.502 313.344 445.289 311.001Q446.077 308.657 446.806 306.295Q447.536 303.933 448.207 301.553Q448.878 299.174 449.491 296.779Q450.103 294.384 450.657 291.974Q451.21 289.565 451.705 287.143Q452.199 284.72 452.633 282.286Q453.068 279.853 453.442 277.409Q453.817 274.965 454.131 272.513Q454.445 270.061 454.699 267.602Q454.953 265.143 455.147 262.678Q455.34 260.213 455.473 257.745Q455.606 255.276 455.678 252.805Q455.75 250.334 455.762 247.861Q455.773 245.389 455.724 242.918Q455.674 240.446 455.564 237.976C453.209 184.7 430.454 132.606 390.887 96.3904C350.714 59.6187 299.211 39.4922 244.567 41.6056L244.495 41.6089Z"/>
	<path fill="white" transform="matrix(0.544922 0 0 0.544922 -6.10352e-05 0)" d="M337.896 75.8073C338.739 75.6768 339.698 75.7048 340.513 75.9664C341.858 76.3983 343.129 77.3254 343.717 78.6384C344.391 80.1439 344.044 81.8141 343.548 83.3167C342.649 86.0409 341.196 88.6321 339.944 91.2137Q337.847 95.5357 335.966 99.9561C332.216 108.646 329.192 117.576 326.137 126.525C334.087 124.142 341.963 121.453 349.857 118.89C353.29 117.776 359.663 115.108 363.102 115.083Q363.381 115.082 363.659 115.11Q363.936 115.138 364.209 115.195Q364.482 115.252 364.748 115.337Q365.014 115.423 365.269 115.536Q365.524 115.649 365.766 115.788Q366.007 115.927 366.233 116.091Q366.459 116.255 366.666 116.442Q366.874 116.628 367.06 116.836C368.004 117.894 368.391 119.39 368.218 120.785C368.044 122.188 367.251 123.363 366.153 124.223C365.224 124.949 364.175 125.43 363.079 125.838C359.42 127.199 355.589 128.23 351.861 129.396C347.322 130.816 342.813 132.367 338.281 133.819C332.569 135.649 326.101 138.185 320.37 139.569C319.044 139.889 317.942 139.983 316.587 139.811C315.232 139.1 313.859 138.241 313.306 136.736C311.435 131.636 326.43 95.0849 329.506 88.7592C320.923 91.329 312.628 94.1494 304.32 97.5201C300.978 98.8757 296.058 101.628 293.06 102.506C291.609 102.932 290.069 102.976 288.73 102.183C287.487 101.446 286.378 99.9909 286.048 98.581C285.744 97.2819 286.114 96.0164 286.866 94.9389C291.024 88.9783 329.555 77.1932 337.896 75.8073Z"/>
	<path fill="white" transform="matrix(0.544922 0 0 0.544922 -6.10352e-05 0)" d="M361.654 161.105Q368.038 160.751 374.404 161.337Q375.469 161.442 376.532 161.574Q377.595 161.705 378.654 161.862Q379.713 162.019 380.768 162.201Q381.823 162.384 382.873 162.592Q383.923 162.8 384.968 163.033Q386.013 163.267 387.052 163.525Q388.091 163.784 389.124 164.067Q390.156 164.351 391.181 164.66Q392.207 164.968 393.224 165.301Q394.242 165.635 395.251 165.993Q396.26 166.35 397.26 166.733Q398.26 167.115 399.251 167.521Q400.241 167.927 401.222 168.357Q402.202 168.787 403.172 169.241Q404.142 169.695 405.101 170.172Q406.059 170.649 407.006 171.149Q407.952 171.649 408.887 172.172Q409.821 172.695 410.742 173.24Q411.664 173.786 412.572 174.353Q413.48 174.921 414.374 175.51Q415.267 176.099 416.147 176.71Q417.026 177.321 417.891 177.953Q418.755 178.585 419.604 179.237Q420.452 179.89 421.285 180.563Q422.118 181.236 422.934 181.929Q423.75 182.622 424.55 183.334Q425.349 184.047 426.13 184.778Q426.912 185.51 427.676 186.26Q428.44 187.011 429.185 187.779Q429.931 188.548 430.657 189.334Q431.384 190.121 432.091 190.925Q432.798 191.728 433.486 192.549C435.952 195.539 441.667 202.016 441.176 205.859C440.964 207.509 439.984 209.062 438.621 210.006C437.682 210.656 436.524 210.971 435.392 210.722C432.12 210.002 429.9 205.579 428.218 202.957C424.937 197.966 420.465 193.364 415.762 189.717C408.096 193.866 397.776 197.488 389.023 196.567C382.726 195.903 376.371 193.322 372.329 188.278C368.192 183.115 367.926 177.866 368.586 171.548C366.023 171.807 363.451 171.777 360.883 171.948C358.425 172.113 355.459 172.805 353.032 172.453C352.147 172.324 351.308 171.936 350.603 171.39C349.59 170.603 349.018 169.633 348.859 168.36C348.671 166.85 348.822 165.249 349.814 164.029C352.158 161.146 358.219 161.366 361.654 161.105Z"/>
	<path fill="white" transform="matrix(0.544922 0 0 0.544922 -6.10352e-05 0)" d="M139.507 160.615Q142.399 160.554 145.289 160.663Q148.179 160.772 151.058 161.05Q153.936 161.329 156.794 161.775Q159.651 162.221 162.478 162.834Q165.304 163.447 168.09 164.225Q170.876 165.003 173.611 165.942Q176.346 166.882 179.022 167.98Q181.697 169.078 184.304 170.331C187.49 171.854 193.232 174.027 194.362 177.613C194.759 178.876 194.565 180.369 193.934 181.526C193.009 183.219 191.423 183.87 189.658 184.368C186.322 183.719 183.434 181.753 180.431 180.232Q176.777 178.352 172.923 176.925Q166.656 174.606 160.118 173.223C157.736 172.733 155.333 172.51 152.974 171.898C150.041 175.861 146.537 179.685 142.858 182.964C136.17 188.923 128.843 192.254 119.819 191.748Q117.358 191.414 115.024 190.567C109.786 188.648 106.14 184.958 103.841 179.939Q96.6993 183.353 90.306 188.021C88.8121 189.109 87.2488 190.194 85.8408 191.39C83.2684 193.576 79.8269 198.205 76.4195 198.669C75.093 198.85 73.7975 198.552 72.7513 197.698C71.6319 196.784 70.8439 195.475 70.7489 194.016C70.6158 191.971 71.7722 190.176 73.0896 188.72C76.0589 185.438 79.8049 182.556 83.3573 179.926C99.9594 167.635 119.017 161.696 139.507 160.615Z"/>
	<path fill="white" transform="matrix(0.544922 0 0 0.544922 -6.10352e-05 0)" d="M281.152 193.121C303.616 192.387 326.398 198.78 343.202 214.221C362.315 231.782 370.502 260.306 371.528 285.613C373.002 322.005 359.691 359.637 334.881 386.436C314.666 408.272 288.359 421.802 258.43 422.944C236.064 423.022 215.095 417.46 198.067 402.314C179.628 385.912 169.607 362.423 168.225 337.974C166.035 299.254 180.732 258.333 206.582 229.506C226.561 207.227 251.278 194.796 281.152 193.121ZM221.456 229.454C195.352 254.352 179.511 291.256 178.672 327.302Q178.466 333.972 179.136 340.612Q179.806 347.251 181.34 353.746C181.662 355.15 181.831 356.771 182.519 358.047L182.858 358.151L182.781 357.852L183.123 357.499L183.215 357.889C185.577 356.251 188.001 354.389 190.581 353.108C199.579 348.641 210.96 348.763 220.611 350.523Q223.685 351.107 226.708 351.914Q229.731 352.72 232.687 353.745Q235.643 354.77 238.516 356.009Q241.39 357.247 244.165 358.691C249.681 361.532 258.508 368.539 264.258 369.29C268.415 369.833 272.722 367.893 276.474 366.353C279.563 365.084 282.669 363.748 285.882 362.821C296.764 359.679 308.056 360.748 318.434 365.111C321.312 366.361 324.012 367.871 326.641 369.582C328.51 370.799 330.274 372.143 332.288 373.123C334.445 371.475 336.439 367.893 338.002 365.636Q340.172 362.469 342.153 359.181Q344.134 355.892 345.92 352.494Q347.705 349.095 349.289 345.598Q350.872 342.101 352.248 338.517Q353.625 334.933 354.789 331.274Q355.953 327.616 356.901 323.896Q357.849 320.176 358.578 316.407Q359.307 312.637 359.814 308.832Q360.339 305.153 360.641 301.449Q360.943 297.745 361.022 294.029Q361.1 290.314 360.954 286.6Q360.807 282.887 360.438 279.189Q360.068 275.491 359.475 271.822Q358.883 268.153 358.07 264.526Q357.258 260.9 356.228 257.329Q355.198 253.758 353.955 250.256C352.735 246.918 351.408 243.345 349.71 240.229C343.231 241.935 336.999 244.213 330.417 245.599Q327.687 246.176 324.938 246.655Q322.19 247.135 319.426 247.518Q316.662 247.9 313.886 248.185Q311.11 248.47 308.326 248.656Q305.542 248.843 302.754 248.931Q299.965 249.019 297.174 249.009Q294.384 248.999 291.596 248.89Q288.808 248.781 286.025 248.574Q283.243 248.367 280.469 248.062Q277.696 247.757 274.935 247.354Q272.174 246.951 269.429 246.451Q266.684 245.951 263.958 245.355Q261.232 244.758 258.529 244.066Q255.826 243.374 253.149 242.586Q250.472 241.799 247.825 240.918Q245.178 240.036 242.563 239.062Q235.905 236.566 229.511 233.455C226.861 232.157 224.184 230.547 221.456 229.454ZM205.522 360.108C199.343 361.096 192.613 362.43 188.702 367.869Q187.839 369.069 187.127 370.364C195.756 388.173 210.397 401.517 229.161 408.021C250.815 415.527 275.087 413.065 295.518 403.06Q298.648 401.492 301.694 399.765C309.317 395.201 319.268 388.183 325.029 381.466C315.936 374.104 305.959 370.686 294.24 371.973C284.168 373.079 275.709 380.138 265.439 379.965C256.986 379.823 250.675 374.741 243.719 370.629C232.031 363.719 219.246 359.246 205.522 360.108ZM279.92 203.858C262.275 204.43 244.427 211.543 230.387 222.046C250.549 232.134 272.642 238.235 295.302 238.315C311.643 238.341 328.772 236.465 344.207 230.798C341.745 227.844 339.337 224.913 336.513 222.29C324.916 211.521 309.386 205.475 293.738 203.999C289.188 203.57 284.481 203.639 279.92 203.858Z"/>
</svg>
