<?xml version="1.0" encoding="utf-8" ?>
<svg xmlns="http://www.w3.org/2000/svg" xmlns:xlink="http://www.w3.org/1999/xlink" width="279" height="279">
	<path fill="white" transform="matrix(0.544922 0 0 0.544922 0 -3.05176e-05)" d="M184.175 34.8555C198.464 33.9225 213.518 39.228 223.965 49.0363C227.319 52.1854 230.758 56.6131 235.127 58.3075C237.883 59.3767 240.794 59.3213 243.701 59.3293C253.423 59.356 260.572 60.3494 268.548 66.509C275.208 71.6523 280.259 79.307 281.377 87.7295C289.508 85.5025 301.183 83.8264 309.626 83.8108C319.804 83.792 330.574 85.9165 338.008 93.4085C342.696 98.1326 344.253 103.176 344.257 109.695C347.821 109.22 351.734 108.751 355.31 109.114C358.88 109.477 362.306 110.925 364.567 113.811C367.15 117.107 367.335 120.843 366.901 124.804C382.153 131.46 396.481 139.445 409.496 149.879C446.904 179.871 469.664 223.237 474.769 270.77C475.643 278.9 475.661 287.168 475.272 295.327C473.039 342.09 452.593 389.064 418.304 421.214C410.001 428.998 400.966 436.167 391.156 441.969C389.601 442.889 386.617 444.161 385.514 445.529L385.816 445.689L385.732 445.435L385.843 445.397L386.106 445.834L386.323 445.694C389.255 445.6 392.162 445.084 395.073 444.743Q401.385 444.04 407.716 443.541C418.145 442.738 473.141 439.982 479.523 443.518C481.183 444.438 482.424 445.868 482.858 447.739C483.423 450.177 482.551 452.732 481.188 454.75C479.57 457.145 477.014 458.919 474.418 460.116C470.116 462.1 465.101 462.952 460.503 464.038Q448.62 466.889 436.634 469.273C397.833 477.041 361.83 478.588 322.362 476.211C315.317 475.787 308.341 475.491 301.316 474.743C271.308 471.546 237.404 463.714 211.989 446.782C209.377 444.833 206.519 443.182 203.779 441.417Q198.356 437.956 193.212 434.092Q189.317 431.156 185.582 428.018Q181.847 424.88 178.284 421.548Q174.72 418.217 171.338 414.702Q167.955 411.187 164.764 407.498Q161.572 403.809 158.58 399.956Q155.588 396.104 152.804 392.098Q150.019 388.093 147.451 383.945Q144.883 379.798 142.537 375.521Q141.673 373.976 140.841 372.413Q140.009 370.849 139.21 369.269Q138.411 367.689 137.645 366.093Q136.879 364.497 136.146 362.885Q135.413 361.273 134.714 359.646Q134.015 358.02 133.35 356.379Q132.685 354.738 132.054 353.083Q131.423 351.429 130.827 349.761Q130.231 348.094 129.669 346.415Q129.108 344.736 128.581 343.045Q128.055 341.355 127.564 339.654Q127.073 337.952 126.617 336.241Q126.161 334.53 125.741 332.81Q125.321 331.09 124.937 329.362Q124.553 327.633 124.205 325.897Q123.857 324.161 123.545 322.418Q123.233 320.675 122.957 318.926Q122.682 317.177 122.442 315.423Q122.203 313.669 122.001 311.91Q121.798 310.151 121.632 308.388Q121.466 306.625 121.336 304.859Q121.207 303.093 121.115 301.325Q121.022 299.557 120.966 297.787Q120.91 296.017 120.891 294.247Q120.872 292.476 120.89 290.706Q120.908 288.935 120.963 287.166Q121.017 285.396 121.109 283.628Q121.2 281.859 121.328 280.093Q121.457 278.327 121.621 276.564Q121.786 274.802 121.988 273.042Q122.189 271.283 122.427 269.529Q122.666 267.774 122.94 266.025C124.425 256.962 126.916 248.334 129.473 239.535C127.901 238.133 126.602 236.673 125.782 234.697C124.167 230.81 125.158 226.811 126.684 223.112C123.687 221.421 121.093 219.612 118.477 217.372C103.846 231.921 109.144 258.935 110.536 277.493C111.106 285.09 111.346 292.754 110.511 300.34C108.492 318.688 99.2206 330.418 85.2201 341.612C89.0603 344.733 93.0864 346.928 96.3665 350.78Q97.0158 351.538 97.6268 352.327Q98.2379 353.116 98.8093 353.935Q99.3807 354.753 99.911 355.599Q100.441 356.444 100.929 357.315Q101.417 358.185 101.861 359.079Q102.306 359.973 102.705 360.887Q103.105 361.802 103.459 362.735Q103.813 363.668 104.121 364.618Q104.428 365.567 104.689 366.531Q104.949 367.494 105.162 368.47Q105.374 369.445 105.538 370.429Q105.702 371.414 105.817 372.405Q105.933 373.397 105.999 374.392Q106.065 375.388 106.082 376.386Q106.099 377.384 106.067 378.382Q106.035 379.379 105.953 380.374Q105.877 381.361 105.753 382.344Q105.629 383.327 105.456 384.302Q105.284 385.277 105.063 386.242Q104.842 387.208 104.574 388.161Q104.306 389.115 103.992 390.054Q103.677 390.993 103.316 391.915Q102.955 392.837 102.549 393.741Q102.144 394.644 101.694 395.526Q101.244 396.408 100.751 397.267Q100.258 398.126 99.7228 398.96Q99.188 399.793 98.6127 400.599Q98.0374 401.405 97.423 402.182Q96.8085 402.959 96.1565 403.704Q95.5045 404.45 94.8165 405.162Q94.1284 405.874 93.406 406.552Q92.6837 407.229 91.9287 407.87C84.0819 414.475 74.3601 417.681 64.1316 416.799Q63.2026 416.711 62.2789 416.577Q61.3553 416.444 60.4392 416.265Q59.5232 416.087 58.6169 415.865Q57.7105 415.642 56.8161 415.376Q55.9217 415.109 55.0413 414.8Q54.1609 414.49 53.2966 414.138Q52.4323 413.786 51.5861 413.393Q50.7399 412.999 49.9139 412.565Q49.0878 412.13 48.2839 411.656Q47.4799 411.183 46.7 410.67Q45.92 410.158 45.1659 409.608Q44.4118 409.058 43.6853 408.472Q42.9588 407.887 42.2616 407.266Q41.5645 406.646 40.8983 405.992Q40.2321 405.339 39.5985 404.653Q38.9649 403.968 38.3654 403.253C31.3046 394.854 28.1716 384.303 29.1267 373.407C30.0318 363.082 35.0167 353.058 42.9982 346.379C51.4155 339.335 61.4234 336.78 72.2363 337.696C72.7557 334.236 73.5596 330.806 74.1846 327.361C76.1516 316.521 77.9658 305.608 77.9883 294.558C78.0458 266.28 67.2238 239.171 65.1854 211.058Q65.023 208.818 64.9154 206.574Q64.8077 204.33 64.7549 202.085Q64.7021 199.839 64.7041 197.593Q64.7061 195.346 64.7629 193.101Q64.8197 190.855 64.9313 188.612Q65.043 186.368 65.2093 184.128Q65.3757 181.888 65.5967 179.653Q65.8176 177.417 66.0931 175.188Q66.3686 172.959 66.6985 170.737Q67.0283 168.515 67.4123 166.302Q67.7962 164.089 68.2341 161.885Q68.672 159.682 69.1635 157.49Q69.6551 155.299 70.2 153.119Q70.7449 150.94 71.3428 148.775Q71.9407 146.61 72.5913 144.46Q73.2419 142.31 73.9448 140.176Q74.6477 138.043 75.4025 135.927Q76.1572 133.812 76.9634 131.715Q77.7696 129.618 78.6267 127.542Q79.4838 125.466 80.3914 123.411Q81.2989 121.356 82.2564 119.324Q83.2138 117.292 84.2206 115.284Q85.2273 113.276 86.2828 111.293Q87.3383 109.311 88.4418 107.354Q89.5454 105.398 90.6964 103.469Q91.8474 101.54 93.0451 99.6394Q94.2429 97.7391 95.4866 95.8686Q96.7304 93.9981 98.0195 92.1586Q99.3085 90.319 100.642 88.5114Q101.976 86.7039 103.353 84.9294Q104.73 83.155 106.151 81.4146Q107.571 79.6743 109.033 77.9692C128.23 55.8614 154.109 36.9318 184.175 34.8555ZM360.723 134.118C331.246 159.836 279.186 164.565 243.744 182.197C232.362 187.86 222.309 195.397 212.314 203.183C190.834 219.914 169.962 237.082 142.414 242.083C139.946 249.66 138.521 257.906 137.51 265.802Q137.108 268.862 136.822 271.934Q136.537 275.007 136.367 278.088Q136.198 281.169 136.145 284.254Q136.093 287.34 136.157 290.425Q136.221 293.51 136.402 296.591Q136.583 299.671 136.88 302.743Q137.177 305.814 137.591 308.872Q138.004 311.93 138.533 314.97Q139.061 318.011 139.705 321.029Q140.348 324.047 141.105 327.038Q141.862 330.03 142.732 332.991Q143.601 335.951 144.582 338.877Q145.563 341.803 146.655 344.689Q147.746 347.576 148.945 350.419Q150.145 353.262 151.451 356.058Q152.757 358.854 154.168 361.598Q155.082 363.387 156.039 365.153Q156.996 366.919 157.997 368.661Q158.997 370.403 160.039 372.12Q161.082 373.837 162.166 375.528Q163.25 377.219 164.376 378.882Q165.501 380.546 166.667 382.182Q167.832 383.818 169.038 385.425Q170.243 387.032 171.488 388.609Q172.732 390.186 174.014 391.732Q175.297 393.278 176.617 394.792Q177.937 396.306 179.294 397.787Q180.65 399.268 182.043 400.716Q183.435 402.164 184.863 403.577Q186.291 404.99 187.752 406.368Q189.214 407.746 190.709 409.088Q192.204 410.429 193.731 411.734Q195.259 413.038 196.817 414.305Q198.376 415.572 199.966 416.801Q201.555 418.029 203.174 419.218Q204.793 420.407 206.441 421.556Q208.088 422.705 209.763 423.814Q211.438 424.922 213.14 425.989Q214.842 427.057 216.57 428.082Q218.297 429.107 220.049 430.089Q221.801 431.072 223.577 432.011Q225.352 432.951 227.15 433.846Q228.948 434.742 230.767 435.593Q232.587 436.445 234.426 437.252Q236.266 438.058 238.125 438.819Q239.984 439.581 241.861 440.296Q243.738 441.012 245.631 441.682Q247.525 442.351 249.435 442.974Q251.333 443.597 253.246 444.174Q255.159 444.751 257.085 445.281Q259.011 445.811 260.95 446.294Q262.888 446.777 264.838 447.212Q266.788 447.648 268.748 448.035Q270.707 448.423 272.676 448.763Q274.645 449.103 276.621 449.395Q278.598 449.687 280.581 449.93Q282.563 450.174 284.552 450.369Q286.54 450.564 288.532 450.711Q290.525 450.858 292.52 450.956Q294.516 451.054 296.513 451.103Q298.51 451.152 300.508 451.153Q302.506 451.154 304.503 451.106Q306.5 451.058 308.496 450.961Q310.491 450.864 312.484 450.719Q314.476 450.574 316.465 450.38Q318.453 450.186 320.436 449.944Q322.419 449.702 324.396 449.411Q326.372 449.121 328.341 448.782Q330.31 448.443 332.27 448.057Q334.23 447.67 336.181 447.236Q338.131 446.802 340.07 446.321Q342.008 445.839 343.935 445.31Q345.862 444.782 347.775 444.206Q349.688 443.631 351.587 443.009Q353.485 442.387 355.368 441.719Q357.251 441.051 359.117 440.337Q360.983 439.623 362.831 438.864Q364.679 438.105 366.508 437.301Q368.337 436.497 370.146 435.649Q371.954 434.801 373.742 433.909Q375.569 432.983 377.373 432.012Q379.176 431.041 380.956 430.027Q382.735 429.012 384.489 427.954Q386.243 426.897 387.971 425.796Q389.699 424.696 391.399 423.554Q393.1 422.412 394.772 421.229Q396.444 420.045 398.086 418.822Q399.729 417.598 401.341 416.334Q402.953 415.071 404.534 413.768Q406.115 412.466 407.664 411.125Q409.212 409.784 410.728 408.406Q412.243 407.028 413.724 405.613Q415.206 404.198 416.652 402.748Q418.098 401.297 419.508 399.812Q420.919 398.326 422.293 396.807Q423.666 395.288 425.002 393.735Q426.339 392.182 427.636 390.598Q428.934 389.013 430.193 387.397Q431.452 385.781 432.671 384.135Q433.89 382.489 435.068 380.813Q436.246 379.138 437.383 377.434Q438.52 375.73 439.616 373.999Q440.711 372.268 441.763 370.511Q442.816 368.754 443.825 366.971Q444.834 365.189 445.8 363.382Q446.765 361.576 447.686 359.746Q448.607 357.917 449.483 356.065Q450.359 354.213 451.19 352.341Q452.02 350.469 452.805 348.577Q453.589 346.684 454.328 344.774Q455.066 342.863 455.757 340.935Q456.448 339.007 457.092 337.062Q457.709 335.143 458.278 333.21Q458.847 331.277 459.369 329.331Q459.89 327.384 460.364 325.425Q460.838 323.467 461.263 321.497Q461.688 319.527 462.065 317.548Q462.442 315.568 462.77 313.58Q463.099 311.591 463.378 309.596Q463.657 307.6 463.887 305.598Q464.117 303.596 464.298 301.589Q464.479 299.582 464.611 297.571Q464.742 295.56 464.824 293.547Q464.906 291.533 464.939 289.518Q464.972 287.503 464.955 285.488Q464.938 283.473 464.872 281.459Q464.805 279.445 464.689 277.433Q464.574 275.421 464.408 273.413Q464.243 271.404 464.029 269.401Q463.814 267.397 463.551 265.399Q463.287 263.401 462.974 261.41Q462.662 259.419 462.301 257.437Q461.939 255.454 461.529 253.481Q461.119 251.508 460.661 249.546Q460.203 247.584 459.696 245.633Q459.19 243.683 458.636 241.745Q458.081 239.808 457.48 237.884Q456.878 235.961 456.23 234.053Q455.581 232.145 454.886 230.254Q454.191 228.362 453.449 226.488Q452.708 224.615 451.92 222.76Q451.133 220.904 450.3 219.069Q449.468 217.234 448.59 215.42Q447.713 213.606 446.791 211.814Q445.38 209.041 443.864 206.324Q442.349 203.607 440.731 200.949Q439.112 198.292 437.394 195.698Q435.676 193.104 433.86 190.577Q432.044 188.051 430.134 185.595Q428.223 183.14 426.22 180.759Q424.217 178.378 422.125 176.075Q420.033 173.772 417.855 171.551Q415.676 169.329 413.415 167.192Q411.153 165.056 408.812 163.006Q406.471 160.957 404.053 158.999Q401.636 157.04 399.145 155.175Q396.655 153.31 394.095 151.542Q391.535 149.773 388.91 148.103Q386.285 146.433 383.598 144.865Q380.911 143.296 378.166 141.831C372.923 139.053 367.425 136.195 361.797 134.274C361.43 134.149 361.109 134.113 360.723 134.118ZM183.661 45.6119C157.674 47.2844 135.417 63.7779 118.731 82.7566C89.3844 116.136 72.5646 162.973 75.5053 207.473Q76.3534 220.169 78.7977 232.657C82.0228 249.131 86.6054 265.388 87.8705 282.185C88.8989 295.84 87.8484 309.716 85.5921 323.198C85.4527 324.03 84.7598 326.807 85.3147 327.367C86.7486 326.328 87.9867 324.888 89.1846 323.58C94.9867 317.245 98.435 310.167 99.7864 301.681C101.626 290.128 100.234 278.124 99.1187 266.562C97.4667 248.129 95.7864 227.803 108.518 212.575C110.011 210.789 111.695 209.148 113.368 207.532C113.32 203.981 113.655 200.744 114.707 197.34C118.309 185.684 129.778 170.417 138.318 161.63Q144.214 155.61 150.746 150.285Q157.277 144.96 164.362 140.397C177.11 132.059 190.835 125.011 204.505 118.322Q227.478 106.91 251.354 97.5321C257.924 94.9902 264.734 92.0663 271.633 90.5983C269.128 82.6649 266.145 76.4409 258.355 72.4505C249.752 68.0431 239.941 71.7475 231.15 68.1785C226.403 66.2513 222.841 62.5866 219.183 59.137C209.054 49.5859 197.623 45.0603 183.661 45.6119ZM305.747 94.353C296.693 95.128 288.04 96.6759 279.285 99.1244C258.356 104.978 238.439 114.025 218.819 123.251C201.058 131.602 183.178 140.214 166.988 151.391C157.626 157.854 148.713 165.273 141.376 174.007C136.155 180.222 123.364 196.971 123.916 205.018C124.073 207.306 125.265 209.207 126.98 210.676C128.015 211.564 129.244 212.268 130.445 212.902C134.448 206.293 148.492 194.253 155.963 192.5C157.477 192.144 158.937 192.205 160.246 193.114C161.465 193.959 162.29 195.367 162.516 196.823C162.713 198.092 162.456 199.388 161.66 200.413C159.723 202.91 154.872 204.658 152.156 206.564C148.048 209.448 144.449 212.684 141.062 216.377C141.794 218.639 142.106 220.219 140.921 222.436C139.71 224.703 134.858 228.017 135.535 230.613C136.086 231.254 136.552 231.371 137.39 231.434C140.702 231.682 144.128 230.842 147.307 230.019C162.378 226.122 178.472 216.828 190.321 206.855C207.102 194.483 221.138 181.424 240.19 172.103C248.89 167.846 258.029 164.45 267.218 161.417C294.662 152.361 324.444 146.613 348.673 130.085C351.248 128.329 355.918 125.356 356.486 122.028C356.591 121.412 356.54 121.032 356.26 120.461C355.73 120.045 355.32 119.851 354.641 119.773C352.316 119.507 349.62 119.947 347.25 119.964C344.697 119.983 342.167 119.663 339.62 119.624C337.123 119.585 334.571 119.958 332.094 120.255C312.999 122.548 294.17 126.739 276.637 134.859C273.476 136.323 269.397 139.127 266.078 136.528C264.985 135.672 264.345 134.035 264.202 132.682C264.042 131.163 264.609 129.796 265.597 128.659C267.193 126.823 271.259 125.613 273.556 124.629C293.162 116.228 312.734 111.77 333.857 109.355C333.637 105.513 332.704 102.72 329.714 100.095C323.763 94.8693 313.693 93.633 306.106 94.3125C305.986 94.3233 305.867 94.3395 305.747 94.353ZM66.3583 348.107C58.2335 348.902 51.5463 351.639 46.2326 358.067Q45.7588 358.648 45.3143 359.252Q44.8699 359.856 44.456 360.481Q44.0421 361.107 43.6598 361.752Q43.2774 362.397 42.9276 363.06Q42.5777 363.723 42.2612 364.403Q41.9447 365.083 41.6623 365.777Q41.38 366.472 41.1324 367.18Q40.8849 367.888 40.6728 368.607Q40.4607 369.326 40.2845 370.055Q40.1084 370.784 39.9687 371.521Q39.8289 372.257 39.7259 373Q39.6229 373.743 39.5569 374.49Q39.4909 375.237 39.462 375.986Q39.4332 376.735 39.4416 377.485Q39.4499 378.235 39.4955 378.983Q39.5411 379.732 39.6238 380.477Q39.6982 381.196 39.8077 381.91Q39.9173 382.624 40.0618 383.331Q40.2062 384.039 40.3852 384.739Q40.5643 385.439 40.7774 386.129Q40.9906 386.82 41.2373 387.498Q41.4841 388.177 41.7639 388.843Q42.0436 389.509 42.3558 390.161Q42.6679 390.812 43.0116 391.448Q43.3553 392.083 43.7298 392.701Q44.1043 393.319 44.5086 393.917Q44.913 394.516 45.3462 395.094Q45.7795 395.672 46.2405 396.228Q46.7016 396.784 47.1894 397.317Q47.6773 397.85 48.1906 398.358Q48.704 398.867 49.2417 399.349Q49.7794 399.832 50.3401 400.287C55.8038 404.668 62.0655 406.43 68.9933 406.319C77.0877 405.52 83.8617 402.148 89.0406 395.783C94.0497 389.626 96.1781 381.599 95.3325 373.75Q95.2556 373.031 95.1434 372.317Q95.0312 371.602 94.8839 370.894Q94.7367 370.186 94.5548 369.486Q94.3729 368.786 94.1568 368.096Q93.9406 367.406 93.6908 366.727Q93.4409 366.049 93.158 365.383Q92.875 364.718 92.5597 364.067Q92.2443 363.416 91.8973 362.782Q91.5503 362.147 91.1725 361.531Q90.7946 360.914 90.3869 360.317Q89.9792 359.719 89.5426 359.143Q89.106 358.566 88.6415 358.012Q88.177 357.458 87.6859 356.927Q87.1947 356.396 86.678 355.89Q86.1612 355.384 85.6203 354.905Q85.0793 354.425 84.5153 353.972Q83.5624 353.21 82.5447 352.538Q81.5269 351.866 80.4525 351.288Q79.3782 350.71 78.2561 350.232Q77.1339 349.754 75.9732 349.379Q74.8124 349.004 73.6226 348.735Q72.4327 348.467 71.2234 348.307Q70.0142 348.147 68.7954 348.097Q67.5766 348.047 66.3583 348.107Z"/>
	<path fill="white" transform="matrix(0.544922 0 0 0.544922 0 -3.05176e-05)" d="M54.2335 362.558C55.4164 362.512 56.4633 362.649 57.5891 363.034C62.8325 364.829 58.7949 372.583 59.9491 376.522C61.2843 381.079 66.8446 381.635 68.7248 385.566C69.2377 386.638 69.4527 387.899 68.9679 389.022C68.2385 390.712 66.4566 391.858 64.8557 392.569C63.2077 392.708 61.5848 392.199 60.1089 391.495C55.5427 389.316 51.8068 384.836 50.1297 380.104C48.6566 375.948 48.3177 370.025 50.3617 366.009C51.2851 364.195 52.3121 363.199 54.2335 362.558Z"/>
	<path fill="white" transform="matrix(0.544922 0 0 0.544922 0 -3.05176e-05)" d="M260.943 247.304C261.705 247.277 262.465 247.25 263.217 247.402C264.528 247.666 265.639 248.393 266.351 249.534C268.785 253.432 267.687 263.897 266.801 268.336Q266.546 269.578 266.23 270.806Q265.915 272.034 265.539 273.245Q265.164 274.456 264.729 275.647Q264.295 276.839 263.803 278.007Q263.311 279.176 262.762 280.319Q262.213 281.462 261.609 282.576Q261.005 283.691 260.346 284.775Q259.688 285.858 258.978 286.909Q258.267 287.959 257.506 288.973Q256.745 289.987 255.935 290.963Q255.125 291.938 254.269 292.873Q253.412 293.807 252.51 294.699Q251.609 295.591 250.665 296.437Q249.721 297.283 248.736 298.082Q247.752 298.882 246.729 299.631Q245.707 300.381 244.649 301.08C234.029 308.083 221.649 310.121 209.275 307.519C195.634 304.651 184.113 296.496 176.555 284.864C175.34 283.006 174.043 280.772 173.356 278.665C172.893 277.243 172.804 275.57 173.531 274.217C174.199 272.975 175.591 271.847 176.945 271.456C181.538 270.131 183.688 276.016 185.499 279.059C186.576 280.869 187.793 282.707 189.178 284.296C192.325 287.908 196.495 290.983 200.726 293.197C209.669 297.878 220.487 299.494 230.215 296.357C244.921 291.614 255.938 276.962 257.045 261.652C257.258 258.708 256.133 251.906 257.451 249.604C258.213 248.274 259.551 247.732 260.943 247.304Z"/>
	<path fill="white" transform="matrix(0.544922 0 0 0.544922 0 -3.05176e-05)" d="M395.287 203.063C396.336 202.978 397.434 202.897 398.447 203.249C399.763 203.707 400.723 204.737 401.327 205.966C402.249 207.842 402.56 210.071 402.927 212.113C404.718 222.069 404.013 232.066 400.47 241.578Q399.989 242.875 399.444 244.147Q398.899 245.419 398.292 246.662Q397.685 247.905 397.017 249.117Q396.35 250.329 395.623 251.506Q394.896 252.683 394.112 253.823Q393.328 254.963 392.488 256.063Q391.649 257.162 390.756 258.219Q389.863 259.276 388.919 260.288Q387.975 261.299 386.983 262.263Q385.99 263.226 384.951 264.139Q383.911 265.053 382.828 265.914Q381.745 266.774 380.621 267.581Q379.497 268.387 378.334 269.137Q377.171 269.886 375.973 270.578Q374.774 271.269 373.543 271.9Q372.312 272.531 371.051 273.101Q369.819 273.654 368.562 274.145Q367.304 274.636 366.024 275.066Q364.744 275.495 363.445 275.861Q362.146 276.227 360.83 276.529Q359.514 276.831 358.185 277.068Q356.856 277.305 355.517 277.477Q354.178 277.649 352.832 277.755Q351.486 277.861 350.136 277.9Q348.787 277.94 347.437 277.914Q346.087 277.888 344.741 277.795Q343.394 277.703 342.053 277.545Q340.712 277.386 339.381 277.163Q338.049 276.939 336.731 276.65Q335.412 276.361 334.109 276.009Q332.806 275.656 331.521 275.239Q330.237 274.823 328.975 274.344C314.81 268.912 303.75 258.105 297.558 244.313C296.626 242.178 295.718 239.926 295.186 237.655C294.752 235.797 294.506 233.535 295.63 231.862C296.296 230.871 297.334 230.323 298.484 230.085C300.268 229.715 302.324 229.911 303.631 231.309C305.415 233.217 305.864 236.668 306.786 239.073C310.127 247.79 317.188 255.611 324.987 260.587C334.969 266.956 346.804 268.649 358.3 266.079C378.418 261.582 392.484 244.24 393.238 223.708Q393.382 219.886 392.822 216.102C392.404 213.31 390.957 209.613 391.432 206.864C391.589 205.96 392.245 205.087 392.735 204.32C393.564 203.821 394.397 203.441 395.287 203.063Z"/>
	<path fill="white" transform="matrix(0.544922 0 0 0.544922 0 -3.05176e-05)" d="M272.519 352.34C279.047 351.791 285.194 353.556 290.569 357.272C298.268 362.593 304.055 371.129 305.649 380.391Q305.794 381.212 305.897 382.039Q306.001 382.866 306.064 383.697Q306.126 384.528 306.147 385.361Q306.168 386.194 306.148 387.027Q306.127 387.86 306.065 388.692Q306.003 389.523 305.9 390.35Q305.797 391.177 305.653 391.997Q305.509 392.818 305.324 393.631Q305.139 394.444 304.914 395.246Q304.689 396.049 304.424 396.839Q304.159 397.629 303.856 398.405Q303.552 399.181 303.21 399.941Q302.868 400.701 302.489 401.444Q302.109 402.186 301.694 402.908Q301.278 403.63 300.827 404.331Q300.376 405.032 299.89 405.709C294.116 413.805 284.963 419.245 275.206 420.914L274.756 420.975C266.567 422.067 258.526 420.618 251.898 415.467C245.862 410.776 242.412 403.836 241.513 396.322C240.226 385.571 243.786 373.903 250.47 365.44C256.102 358.308 263.398 353.445 272.519 352.34Z"/>
</svg>
